<svg width="204" height="183" viewBox="0 0 204 183" fill="none" xmlns="http://www.w3.org/2000/svg">
<g clip-path="url(#clip0_879_9881)">
<path d="M69.2208 183C66.47 182.849 63.5198 183.244 60.5918 182.623C55.3301 181.51 50.8328 179.292 48.0488 174.386C46.1878 171.107 46.5903 165.942 49.1159 163.21C50.2088 162.027 49.8211 161.657 48.466 161.388C44.6186 160.619 41.6019 158.582 39.3532 155.343C38.7071 154.415 38.1791 153.38 37.9575 152.374C37.603 150.766 36.499 150.023 35.3212 149.31C30.8275 146.592 26.873 143.213 23.4317 139.291C20.1196 135.516 17.1436 131.461 15.1682 126.777C14.3632 124.865 13.4328 122.995 12.8124 121.024C10.9035 114.931 9.65915 108.709 9.98039 102.28C10.1022 99.8404 10.4419 97.4115 10.7004 94.9826C10.8223 93.8218 10.2832 93.3338 9.16807 93.1563C5.98893 92.6535 3.72551 90.7163 2.20056 88.0434C-1.75397 81.1153 0.0700588 74.7195 4.09105 68.4642C7.38096 63.3476 11.9632 60.0906 17.5387 57.9316C18.8015 57.4436 19.9683 56.889 21.3418 56.8779C22.8446 56.8632 23.3209 55.8724 23.6237 54.5636C25.3407 47.1438 32.862 42.7666 39.7299 42.9404C41.949 42.9958 44.1902 43.4062 46.1177 44.8369C47.6648 45.9904 48.1374 45.7759 48.6654 44.0199C50.1719 38.9809 51.3461 33.8606 52.4649 28.7218C53.9123 22.0858 55.6108 15.4904 59.5579 9.81182C64.7309 2.36243 72.1526 -1.43436 81.8266 0.50285C89.9055 2.12212 95.7616 6.98364 100.861 13.0873C104.206 17.0912 107.09 21.4055 109.737 25.8899C110.605 27.3613 112.156 27.6941 113.688 27.7125C118.894 27.7717 123.901 28.8623 128.742 30.6627C131.028 31.513 132.936 31.1988 134.952 29.9677C138.741 27.6571 142.928 26.2412 147.097 24.7956C151.971 23.1061 157.037 22.2669 162.11 21.5497C167.036 20.851 172.035 20.9656 176.95 21.5423C182.351 22.1745 185.929 26.6367 186.465 32.1526C187.502 42.8221 185.398 52.8593 180.893 62.4862C179.833 64.7488 178.781 67.0076 177.47 69.1445C176.769 70.2869 177.566 71.5327 177.743 72.701C178.198 75.7029 179.287 78.6235 178.847 81.7364C178.811 81.9952 178.785 82.2466 179.084 82.3353C179.627 82.5016 180.092 82.1911 180.428 81.8879C182.093 80.3759 184.116 79.6882 186.262 79.3888C191.003 78.7233 195.079 79.9175 198.498 83.5035C201.094 86.2245 202.863 89.3706 203.56 92.9382C204.299 96.7128 204.085 100.591 203.169 104.38C201.57 110.987 198.037 116.617 194.256 122.129C190.323 127.86 185.837 133.117 180.923 138.019C180.199 138.74 180.129 139.228 180.719 140.2C182.477 143.11 183.127 146.378 182.647 149.735C181.661 156.618 177.492 160.611 170.842 162.094C168.856 162.537 166.81 162.419 164.827 161.894C163.635 161.58 163.258 161.768 163.111 163.192C162.52 168.948 160.489 174.031 155.22 177.14C152.731 178.608 149.962 179.407 147.067 179.643C141.876 180.065 136.673 180.224 131.474 180.445C125.415 180.708 119.352 180.911 113.293 181.185C107.725 181.44 102.161 181.721 96.5887 181.932C90.7142 182.153 84.8396 182.446 78.9613 182.682C75.7785 182.812 72.5957 182.93 69.2208 182.996V183ZM163.118 111.811C164.746 113.974 165.463 113.904 166.762 111.423C167.992 109.075 169.048 106.643 169.735 104.088C170.045 102.938 170.351 102.643 171.588 103.009C174.42 103.844 177.201 104.802 179.985 105.778C180.616 106 181.506 106.798 181.912 105.881C182.352 104.89 181.126 104.861 180.542 104.606C177.721 103.382 174.815 102.395 171.836 101.637C170.798 101.371 170.517 101.031 170.772 99.8848C171.341 97.3006 171.666 94.661 171.625 92.0066C171.607 90.9123 171.784 90.4908 173.028 90.6646C178.271 91.3929 183.467 92.3208 188.544 93.8329C189.131 94.0066 189.725 94.1619 190.323 94.3135C190.748 94.4207 191.265 94.5538 191.442 94.0288C191.66 93.3707 191.062 93.2413 190.611 93.0713C190.382 92.9826 190.15 92.9012 189.913 92.831C184.427 91.1895 178.847 89.9769 173.143 89.4372C172.031 89.3336 171.607 88.9898 171.533 87.7957C171.171 82.0987 169.831 76.6198 167.416 71.4366C167.002 70.5456 167.239 69.9726 167.674 69.2591C171.049 63.7395 173.937 57.9723 176.296 51.9499C178.223 47.0255 180.11 42.0716 180.978 36.8293C181.524 33.5316 179.992 31.2284 176.857 30.0971C175.281 29.5278 173.63 29.3503 171.969 29.2727C157.974 28.622 145.084 32.0639 133.387 39.8201C132.597 40.3451 131.932 40.4967 131.016 40.1935C123.248 37.5983 115.246 36.4485 107.075 36.4929C105.838 36.5002 105.258 36.064 104.682 35.0141C98.5715 23.8344 89.9941 15.043 78.8986 8.78037C72.7175 5.29043 69.3279 6.59546 66.7839 13.2093C61.9764 25.7125 59.1444 38.6482 58.561 52.0275C58.4317 54.9851 57.8336 57.4658 55.7991 59.6581C55.0163 60.501 54.6212 60.6932 53.6095 60.0167C48.7356 56.7449 43.4591 54.2753 37.8246 52.6227C37.0824 52.4046 35.8566 51.3879 35.491 52.7484C35.2067 53.8095 36.6541 53.7466 37.3963 53.998C42.8942 55.8428 48.1189 58.2458 52.9929 61.4141C53.6981 61.8725 54.1227 62.172 53.5098 63.0962C51.8667 65.5621 50.6851 68.272 49.5996 71.0189C49.4593 71.3775 49.4186 72.0651 48.8168 71.7472C46.7306 70.6455 44.1976 70.5567 42.4364 68.6824C36.9052 62.7968 30.1961 60.1313 22.132 61.7579C13.6765 63.4659 7.78343 72.261 9.59639 80.2354C10.5822 84.5719 14.042 87.4852 17.9485 87.0267C19.2963 86.8678 19.3295 87.2781 19.2335 88.3392C18.7424 93.7478 18.6944 99.1602 19.1781 104.576C19.6507 109.867 20.7363 115.017 22.2686 120.107C23.8083 125.228 27.2718 129.239 29.6829 133.849C29.9894 134.437 30.51 134.914 30.9568 135.42C31.2448 135.745 31.6657 136.141 32.0571 135.952C33.2534 135.376 33.5045 136.333 33.955 136.999C36.9569 141.439 41.0296 144.485 46.0992 146.141C47.0851 146.463 47.314 146.692 47.0444 147.753C46.5238 149.787 47.0075 150.323 49.0863 150.378C53.735 150.504 58.3837 150.544 63.0287 150.733C67.0091 150.892 71.0043 151.047 74.9699 151.084C80.6598 151.14 86.3461 151.373 92.0323 151.454C102.611 151.602 113.186 151.946 123.765 152.23C138.955 152.637 154.142 153.055 169.328 153.495C172.622 153.591 172.888 153.343 172.065 150.152C169.251 139.217 162.959 130.658 154.094 123.874C153.049 123.076 151.956 122.344 150.83 121.542C152.008 120.754 153.027 120.078 154.046 119.397C155.246 121.357 155.848 121.416 157.435 119.656C158.381 118.606 159.363 117.56 160.127 116.384C160.747 115.431 161.209 115.423 162.147 115.948C166.829 118.569 171.267 121.523 175.336 125.028C175.801 125.431 176.44 126.237 177.038 125.505C177.644 124.765 176.698 124.344 176.233 123.941C172.356 120.599 168.191 117.664 163.731 115.157C162.338 114.373 162.137 113.259 163.129 111.815L163.118 111.811ZM101.056 168.497C101.123 169.029 101.16 169.27 101.182 169.514C101.319 171.051 101.669 172.534 103.346 173.037C104.989 173.528 106.141 172.475 107.186 171.395C107.526 171.048 107.799 170.626 108.057 170.212C109.128 168.497 109.597 166.578 109.645 164.597C109.686 162.981 110.136 162.316 111.919 162.567C113.917 162.848 115.963 162.767 117.99 162.815C118.905 162.837 119.84 162.659 119.869 161.532C119.902 160.301 118.976 160.071 117.953 160.112C115.121 160.219 112.307 159.979 109.505 159.572C107.267 159.247 107.001 159.45 107.042 161.665C107.09 164.212 106.975 166.722 105.613 168.981C105.317 169.473 104.967 170.227 104.258 169.942C103.678 169.709 103.914 168.966 103.951 168.441C104.081 166.663 104.258 164.889 104.398 163.11C104.457 162.382 104.258 161.731 103.497 161.473C102.733 161.214 102.201 161.609 101.817 162.249C101.466 162.829 101.153 163.432 100.761 163.979C99.7088 165.447 98.8041 167.055 97.0613 168.231C96.9432 165.602 97.9291 163.473 98.7081 161.303C99.0294 160.412 98.9408 159.702 97.9992 159.339C97.15 159.01 96.5296 159.447 96.2269 160.208C94.8865 163.602 93.7862 167.059 94.2071 170.789C94.4398 172.852 95.5216 173.336 97.1906 172.024C98.4792 171.011 99.6239 169.813 101.049 168.497H101.056ZM72.4923 172.249C73.8769 172.323 74.8185 172.29 74.944 171.148C75.0806 169.894 74.1465 169.68 73.1458 169.58C72.0455 169.469 70.9821 169.199 69.9298 168.822C68.8479 168.434 68.4381 168.042 69.1507 166.87C70.0479 165.399 70.6572 163.765 70.7163 162.005C70.7606 160.645 70.3396 159.428 69.1285 158.67C67.9433 157.931 66.747 158.267 65.6392 158.9C64.3543 159.635 63.4054 161.007 61.6626 160.877C61.4447 160.863 61.0422 161.34 60.9684 161.646C60.1154 165.166 58.6865 168.534 58.1954 172.149C58.0773 173.018 58.2914 173.813 59.281 173.991C60.2779 174.168 60.6693 173.491 60.9167 172.63C61.0422 172.186 60.9499 171.384 61.8693 171.687C63.1801 172.124 64.31 171.588 65.3217 170.896C66.2226 170.283 66.9611 170.379 67.8621 170.859C69.4498 171.706 71.1778 172.131 72.4923 172.246V172.249ZM131.633 161.953C131.622 160.075 129.96 157.986 128.546 157.942C127.752 157.916 123.285 161.033 123.03 161.861C122.088 164.915 121.187 167.983 120.257 171.037C119.984 171.928 120.098 172.671 121.069 172.959C122.022 173.244 122.55 172.689 122.86 171.828C123.274 170.671 123.765 169.543 124.145 168.375C124.407 167.58 124.865 167.488 125.651 167.458C126.981 167.406 127.409 168.427 128.111 169.136C130.595 171.654 133.83 171.636 135.558 169.088C136.042 168.375 136.37 167.624 135.602 166.948C134.845 166.282 134.129 166.586 133.52 167.262C133.317 167.491 133.136 167.765 132.888 167.924C131.777 168.634 130.95 168.075 130.115 167.321C129.285 166.571 129.591 166.049 130.23 165.351C131.124 164.378 131.563 163.158 131.633 161.95V161.953ZM90.1197 170.382C89.7911 167.136 89.3332 163.709 88.1 160.467C87.1067 157.85 85.5338 157.665 83.8094 159.824C82.4543 161.521 81.5349 163.48 80.5417 165.384C79.6592 167.074 78.8986 168.826 78.1047 170.56C77.7059 171.432 77.3441 172.423 78.4702 172.967C79.7404 173.584 80.1946 172.53 80.6266 171.621C80.8629 171.122 81.1509 170.634 81.306 170.105C81.7343 168.615 82.7054 168.061 84.2045 168.231C84.751 168.294 85.3159 168.26 85.8624 168.197C86.7929 168.087 87.2322 168.482 87.295 169.399C87.3282 169.887 87.4095 170.379 87.5018 170.859C87.6606 171.676 88.1073 172.249 88.9972 172.172C89.9351 172.09 90.1566 171.395 90.1197 170.379V170.382ZM152.129 157.439C152.24 156.489 152.019 155.879 151.28 155.606C150.52 155.325 149.884 155.672 149.615 156.352C148.393 159.428 147.211 162.519 146.074 165.628C145.812 166.345 146.159 166.963 146.89 167.262C147.577 167.539 148.175 167.262 148.43 166.648C149.718 163.536 150.948 160.397 152.129 157.439ZM146.99 170.867C147.141 169.979 146.779 169.417 145.893 169.273C144.83 169.099 143.663 170.796 143.364 172.885C143.238 173.765 143.578 174.331 144.471 174.471C145.535 174.638 146.72 172.922 146.99 170.867Z" fill="white"/>
<path d="M163.118 111.811C162.128 113.258 162.329 114.372 163.72 115.153C168.184 117.66 172.345 120.595 176.222 123.937C176.687 124.34 177.636 124.762 177.027 125.501C176.429 126.233 175.79 125.427 175.325 125.024C171.252 121.519 166.814 118.565 162.136 115.944C161.202 115.423 160.736 115.427 160.116 116.381C159.348 117.556 158.37 118.602 157.424 119.652C155.837 121.412 155.235 121.353 154.035 119.394C153.016 120.074 152 120.75 150.819 121.538C151.941 122.34 153.038 123.072 154.083 123.871C162.948 130.655 169.24 139.213 172.054 150.149C172.873 153.339 172.611 153.587 169.318 153.491C154.131 153.047 138.94 152.633 123.754 152.226C113.179 151.942 102.6 151.598 92.0214 151.45C86.3351 151.372 80.6488 151.136 74.9589 151.08C70.9933 151.043 66.9981 150.888 63.0177 150.729C58.3727 150.541 53.7204 150.504 49.0753 150.374C46.9965 150.319 46.5128 149.783 47.0335 147.749C47.303 146.692 47.0741 146.463 46.0882 146.137C41.0186 144.481 36.9459 141.439 33.944 136.995C33.4972 136.333 33.2424 135.372 32.0461 135.949C31.6547 136.137 31.2338 135.742 30.9458 135.416C30.499 134.91 29.9784 134.429 29.6719 133.845C27.2645 129.235 23.7973 125.224 22.2576 120.103C20.7253 115.009 19.6397 109.863 19.1671 104.572C18.6834 99.1563 18.7277 93.744 19.2225 88.3353C19.3185 87.2743 19.2853 86.8639 17.9375 87.0229C14.031 87.4813 10.5713 84.5681 9.58539 80.2316C7.77244 72.2572 13.6655 63.4621 22.121 61.7541C30.1815 60.1237 36.8942 62.7929 42.4254 68.6785C44.1866 70.5529 46.7196 70.6416 48.8058 71.7433C49.4077 72.0612 49.4483 71.3736 49.5886 71.015C50.6741 68.2645 51.8557 65.5546 53.4988 63.0924C54.1154 62.1682 53.6871 61.8687 52.9819 61.4103C48.1116 58.2457 42.8869 55.8389 37.3853 53.9942C36.6431 53.7465 35.1957 53.8056 35.48 52.7446C35.8456 51.3804 37.0751 52.4008 37.8136 52.6189C43.4482 54.2677 48.7246 56.741 53.5985 60.0128C54.6102 60.6931 55.0053 60.5008 55.7881 59.6542C57.8226 57.4619 58.4207 54.9812 58.55 52.0237C59.1334 38.6443 61.9654 25.7086 66.7729 13.2055C69.3169 6.5916 72.7065 5.28657 78.8876 8.77651C89.9832 15.0392 98.5605 23.8306 104.671 35.0102C105.247 36.0601 105.827 36.4964 107.064 36.489C115.235 36.4409 123.24 37.5944 131.005 40.1897C131.917 40.4965 132.586 40.3412 133.376 39.8163C145.073 32.0563 157.963 28.6181 171.958 29.2688C173.619 29.3464 175.27 29.5239 176.846 30.0932C179.981 31.2245 181.513 33.5277 180.967 36.8254C180.099 42.0677 178.212 47.0217 176.285 51.946C173.926 57.9721 171.038 63.7394 167.663 69.2552C167.228 69.9688 166.988 70.5418 167.405 71.4328C169.816 76.6159 171.16 82.0948 171.522 87.7919C171.599 88.986 172.024 89.3261 173.132 89.4333C178.84 89.9731 184.416 91.1857 189.902 92.8271C190.139 92.8974 190.371 92.9787 190.6 93.0674C191.051 93.2375 191.653 93.3669 191.431 94.0249C191.258 94.5499 190.737 94.4168 190.312 94.3096C189.718 94.158 189.123 94.0028 188.533 93.829C183.452 92.3169 178.257 91.3927 173.017 90.6607C171.773 90.4869 171.599 90.9121 171.614 92.0027C171.655 94.6571 171.33 97.3005 170.761 99.8809C170.51 101.027 170.787 101.367 171.825 101.633C174.801 102.391 177.71 103.382 180.531 104.602C181.118 104.857 182.344 104.887 181.901 105.877C181.495 106.794 180.605 105.996 179.974 105.774C177.193 104.798 174.409 103.84 171.577 103.005C170.34 102.639 170.034 102.938 169.724 104.084C169.037 106.639 167.981 109.072 166.751 111.419C165.452 113.9 164.735 113.97 163.107 111.807L163.118 111.811ZM81.3578 13.5604C81.199 13.3386 81.1067 12.9911 80.7079 13.2166L81.1473 13.7452C85.5745 21.0541 89.2964 28.6847 91.5155 36.9807C91.7592 37.8865 92.3389 37.7016 92.9444 37.624C95.6842 37.2801 98.4165 36.8624 101.164 36.6258C102.423 36.5186 102.268 36.086 101.802 35.2875C100.595 33.2172 99.3249 31.1875 97.907 29.254C93.3321 23.0283 87.9302 17.6825 81.3615 13.5604H81.3578ZM88.7868 130.529C87.3247 131.161 86.1948 132.13 85.6299 133.664C83.492 137.49 85.8809 143.036 90.1382 144.285C91.1315 144.577 91.0392 143.934 91.0798 143.453C91.1943 142.086 91.5746 140.792 92.0657 139.531C92.2946 138.939 92.4349 138.034 93.3728 138.326C94.3365 138.625 93.886 139.394 93.7014 140.019C93.6312 140.256 93.502 140.477 93.4614 140.718C93.214 142.134 92.014 143.93 93.0774 144.877C94.3069 145.971 96.2344 145.106 97.8184 144.599C98.1101 144.507 98.3907 144.37 98.6602 144.226C102.349 142.267 104.114 138.041 102.611 134.795C100.451 130.137 93.2952 127.93 88.7905 130.533L88.7868 130.529ZM50.1424 81.2002C51.0212 80.3794 51.7265 79.9543 52.524 80.5384C53.4508 81.2149 53.004 82.0652 52.7493 82.8823C52.6016 83.3518 52.5462 83.8583 52.3505 84.3019C51.8631 85.4147 52.3246 85.7844 53.3991 85.9951C55.2675 86.3611 57.11 86.8491 58.9524 87.3408C59.5506 87.4998 60.5365 87.5479 60.2595 88.4906C60.0085 89.3446 59.2146 88.7937 58.6681 88.6828C56.6816 88.2762 54.7025 87.8399 52.7234 87.4C52.1954 87.2817 51.6895 87.204 51.6674 87.9471C51.612 89.5997 50.46 91.4408 52.4834 92.7754C52.7308 92.938 52.7936 93.4223 52.8896 93.7735C54.9056 101.175 59.7537 106.28 66.1526 110.096C72.0271 113.597 78.5073 115.515 85.0575 117.246C100.108 121.224 115.409 123.449 130.98 123.368C139.823 123.32 148.253 121.649 154.888 115.031C155.471 114.451 156.243 114.229 156.863 114.846C157.491 115.471 157.753 115.157 158.1 114.643C158.628 113.863 157.853 113.844 157.498 113.674C154.729 112.336 151.875 111.197 148.969 110.188C143.84 108.402 138.586 107.171 133.202 106.487C132.66 106.417 131.914 106.462 131.958 105.726C132.013 104.824 132.807 105.075 133.394 105.12C133.701 105.142 134.004 105.197 134.31 105.238C142.599 106.347 150.527 108.695 158.082 112.269C159.127 112.765 159.595 112.595 160.016 111.574C160.552 110.269 161.216 109.02 161.789 107.733C162.055 107.134 162.394 106.632 163.092 106.58C163.794 106.528 164.215 106.957 164.514 107.556C164.665 107.859 164.669 108.321 165.249 108.28C165.404 107.981 165.603 107.667 165.732 107.327C166.175 106.181 166.548 105.001 167.039 103.874C167.689 102.38 167.165 101.877 165.64 101.574C154.541 99.3671 143.43 99.1342 132.279 101.16C131.652 101.275 130.732 101.648 130.54 100.746C130.333 99.7774 131.334 99.8662 131.954 99.7479C136.492 98.8865 141.075 98.428 145.694 98.3245C152.547 98.1729 159.344 98.672 166.024 100.228C167.693 100.617 168.221 100.088 168.35 98.5796C168.549 96.2505 168.786 93.9251 169.03 91.5997C169.126 90.6681 168.786 90.2614 167.811 90.2356C163.934 90.1357 160.057 90.0285 156.191 90.3058C147.004 90.9712 138.069 92.8456 129.421 96.0435C128.938 96.2246 128.155 96.8716 127.882 95.9215C127.649 95.1119 128.583 95.0231 129.108 94.842C131.545 93.9954 133.978 93.1266 136.455 92.4131C146.288 89.5775 156.331 88.4684 166.545 88.8307C168.945 88.9157 169.011 88.8936 168.727 86.4462C168.501 84.4942 168.225 82.5274 167.737 80.6308C163.783 65.2403 154.219 54.2566 140.388 47.0623C123.994 38.5371 106.599 37.0657 88.7499 41.332C76.4137 44.2785 66.0529 50.5486 58.2472 60.767C57.2392 62.0868 57.4349 62.7042 58.6718 63.6765C65.0892 68.7044 70.2363 74.8635 74.3201 81.9063C74.7447 82.642 76.0666 83.7252 74.8813 84.3648C73.8253 84.9341 73.5226 83.2742 73.0869 82.5163C69.04 75.4846 63.7119 69.5991 57.398 64.549C56.4121 63.7615 56.0244 64.0055 55.4816 64.9446C54.2447 67.0814 53.281 69.344 52.2508 71.5769C51.708 72.7563 52.0588 73.3219 53.1591 73.8432C56.449 75.3959 59.5174 77.3368 62.4639 79.4589C64.4578 80.8933 66.352 82.4682 68.2683 84.0099C68.6302 84.3019 69.1212 84.6864 68.7372 85.2372C68.2535 85.9249 67.7588 85.4295 67.3378 85.1005C66.7544 84.6494 66.2117 84.1429 65.643 83.6734C61.5925 80.3314 57.1506 77.5956 52.5129 75.1556C51.5677 74.6565 51.132 74.7785 50.9031 75.9024C50.5708 77.5217 50.076 79.104 50.1609 81.1928L50.1424 81.2002ZM30.4473 129.948C30.8719 129.168 30.8387 128.089 31.9649 128.022C32.4818 127.993 32.9507 128.222 33.1797 128.71C33.3864 129.15 33.4898 129.638 33.6449 130.104C35.7939 136.677 40.0512 141.183 46.6162 143.476C47.6649 143.842 48.1006 143.701 48.4513 142.577C49.3781 139.634 50.7184 136.858 52.3616 134.241C52.8711 133.427 53.3843 132.27 54.6028 132.936C55.9099 133.653 55.2748 134.662 54.6804 135.601C52.6976 138.747 51.3203 142.152 50.2311 145.705C49.7141 147.383 50.1904 147.771 51.8483 147.808C77.9756 148.407 104.106 149.04 130.23 149.709C142.71 150.03 155.187 150.448 167.663 150.81C168.594 150.836 169.683 151.191 169.126 149.391C165.633 138.104 158.591 129.653 148.685 123.46C147.614 122.791 146.665 122.761 146.067 124.251C145.734 125.076 145.062 125.797 144.438 126.466C140.262 130.939 135.148 133.93 129.333 135.664C122.819 137.605 116.136 137.753 109.405 137.217C106.285 136.969 106.285 137.043 105.443 140.052C105.343 140.407 105.185 140.744 105.033 141.08C102.153 147.413 94.6134 149.783 88.2957 146.356C83.1227 143.55 80.5159 137.986 82.9492 132.884C83.4809 131.771 82.783 131.686 82.0482 131.446C77.658 130.011 73.3047 128.44 69.4425 125.852C63.5458 121.9 59.4989 116.713 59.1408 109.293C59.1001 108.436 58.6497 107.963 58.1106 107.449C55.681 105.138 53.6945 102.487 52.1622 99.5076C51.6674 98.5463 51.4458 97.4742 49.9172 97.611C49.1049 97.6849 49.02 96.7311 48.9092 96.0694C48.54 93.8031 48.5621 91.511 48.78 89.2522C48.9572 87.4259 48.2224 86.8195 46.5535 86.7456C40.6457 86.4757 34.9188 87.3556 29.3396 89.2854C28.8744 89.4444 28.4165 89.6292 27.9402 89.7439C27.5414 89.84 27.1869 89.6773 27.0577 89.2743C26.9506 88.9453 27.1537 88.6569 27.438 88.5165C27.8774 88.302 28.3427 88.1357 28.8042 87.973C34.2542 86.0691 39.8555 85.082 45.634 85.326C47.1221 85.3888 47.7202 84.7345 47.0925 83.5514C46.0107 81.5144 45.6636 79.2519 44.7553 77.1668C42.8389 72.7674 40.3133 69.222 34.9668 68.9743C34.6049 68.9558 34.2468 68.8264 33.8849 68.7562C31.2338 68.2312 28.5753 67.7358 25.8725 67.5362C25.3223 67.4955 24.6244 67.4437 24.654 66.7117C24.6909 65.8614 25.4589 66.1387 25.95 66.1498C26.8694 66.172 27.7925 66.2385 28.7045 66.3716C31.3704 66.7635 34.0289 67.196 36.9717 67.6582C31.1046 62.5859 21.3825 62.7745 16.1135 67.9761C12.6094 71.4402 10.8888 75.5734 12.5098 80.5458C13.3848 83.2409 15.4489 84.594 17.9265 84.3426C19.1117 84.2243 19.577 83.9211 18.8496 82.6457C17.8009 80.812 17.6311 78.8008 18.2994 76.7601C18.5616 75.9652 19.0859 75.4514 19.9573 75.6991C20.7881 75.9357 21.0834 76.5715 20.8878 77.4329C20.7807 77.9099 20.6625 78.3942 20.6441 78.8822C20.5185 82.5015 23.9081 84.8269 27.2017 83.4109C28.195 82.9858 28.7193 82.5126 28.0177 81.3517C27.2017 80.0023 27.1389 78.4237 26.9986 76.8895C26.9063 75.8839 27.0503 74.9079 28.2467 74.8081C29.3876 74.712 29.5538 75.6325 29.6608 76.5605C29.779 77.5956 29.9304 78.6456 30.2295 79.6363C30.6504 81.0116 31.4775 82.2575 33.0874 81.958C34.6419 81.6697 35.1034 80.3129 35.0628 78.823C35.048 78.3313 34.9889 77.8396 34.9631 77.3479C34.9188 76.5531 35.288 76.0022 36.0708 75.9135C36.7354 75.8395 37.2228 76.2018 37.4997 76.8488C38.6222 79.4552 37.16 83.9322 34.4535 84.2169C31.3852 84.5385 28.734 85.8583 25.8355 86.4536C25.1377 86.5977 24.3143 86.5756 23.646 86.3426C22.3942 85.9064 22.1099 86.3131 21.9844 87.5294C21.1647 95.415 21.3345 103.264 22.7339 111.068C23.4023 114.783 24.3475 118.436 25.9537 122.059C26.5075 121.087 26.7956 119.992 28.0251 120.392C29.1956 120.773 28.9519 121.785 28.9002 122.725C28.7599 125.231 29.3544 127.597 30.4436 129.941L30.4473 129.948ZM61.1494 52.996C61.5962 52.7778 61.7734 52.7335 61.8879 52.6226C69.2911 45.7018 78.0014 41.2248 87.7862 38.7848C88.9456 38.4965 89.0194 37.9974 88.7204 36.9622C87.1511 31.4981 85.0501 26.2595 82.3178 21.2797C80.4568 17.8821 78.6697 14.3996 75.9078 11.6269C73.2567 8.96506 71.2185 9.41978 69.7859 12.8728C68.0874 16.9653 66.7101 21.1724 65.5323 25.4424C63.0694 34.3706 61.526 43.4467 61.1457 52.9923L61.1494 52.996ZM61.995 110.99C62.8147 115.663 65.2812 119.146 68.752 121.989C72.9724 125.445 78.0125 127.239 83.0747 128.991C84.3929 129.446 85.4342 129.324 86.6637 128.562C92.6527 124.861 101.274 127.013 104.731 133.058C105.247 133.96 105.849 134.241 106.747 134.318C111.713 134.754 116.686 134.95 121.656 134.451C127.896 133.823 133.616 131.775 138.686 128.03C139.86 127.165 141.041 126.281 142.267 124.802C138.612 125.604 135.388 125.993 132.128 126.067C125.419 126.222 118.732 125.841 112.078 124.998C94.7906 122.802 77.6949 119.904 61.995 110.994V110.99ZM145.406 46.7555C153.909 52.0939 160.578 58.8779 165.559 67.562C170.872 58.5488 174.963 49.3877 177.629 39.6055C178.777 35.3984 178.076 34.5555 173.627 34.818C173.198 34.8438 172.77 34.903 172.345 34.9585C168.04 35.5019 163.989 36.9178 160.016 38.5778C154.91 40.7109 150.032 43.2692 145.406 46.7555ZM135.569 41.6795C137.663 42.6925 139.623 43.565 141.507 44.5891C142.503 45.1288 143.175 45.0697 144.124 44.3857C151.782 38.8514 160.16 34.8475 169.406 32.7292C170.174 32.5517 171.086 32.7329 171.917 32.0452C161.246 30.6958 144.597 35.1248 135.569 41.6832V41.6795ZM47.7756 77.1926C48.8243 73.0114 48.6396 72.6823 45.2427 72.2794C46.0328 73.8099 46.8341 75.3663 47.7756 77.1926Z" fill="#FFD324"/>
<path d="M101.057 168.493C99.6313 169.809 98.4867 171.007 97.1981 172.02C95.5291 173.332 94.4472 172.848 94.2146 170.785C93.7937 167.055 94.894 163.602 96.2343 160.204C96.5371 159.439 97.1537 159.006 98.0067 159.336C98.9482 159.698 99.0332 160.408 98.7156 161.299C97.9365 163.469 96.9507 165.598 97.0688 168.227C98.8116 167.051 99.7163 165.443 100.769 163.975C101.16 163.428 101.474 162.822 101.825 162.245C102.212 161.605 102.74 161.21 103.505 161.469C104.265 161.727 104.465 162.374 104.406 163.106C104.265 164.885 104.088 166.659 103.959 168.437C103.922 168.962 103.686 169.706 104.265 169.938C104.974 170.223 105.325 169.469 105.62 168.977C106.979 166.718 107.097 164.208 107.049 161.661C107.009 159.446 107.275 159.243 109.512 159.568C112.315 159.975 115.125 160.215 117.96 160.108C118.983 160.071 119.91 160.3 119.877 161.528C119.843 162.655 118.909 162.833 117.997 162.811C115.97 162.763 113.925 162.84 111.927 162.563C110.144 162.315 109.693 162.977 109.652 164.593C109.604 166.574 109.136 168.493 108.065 170.208C107.806 170.622 107.533 171.044 107.193 171.391C106.148 172.471 104.996 173.524 103.353 173.033C101.681 172.534 101.326 171.051 101.19 169.51C101.167 169.266 101.13 169.025 101.064 168.493H101.057Z" fill="#E35B25"/>
<path d="M72.4925 172.246C71.178 172.127 69.45 171.702 67.8623 170.859C66.9613 170.379 66.2229 170.283 65.3219 170.896C64.3065 171.588 63.1803 172.127 61.8696 171.687C60.9538 171.381 61.0461 172.186 60.9169 172.63C60.6695 173.488 60.2818 174.168 59.2812 173.991C58.2916 173.813 58.0775 173.018 58.1956 172.149C58.6867 168.538 60.1157 165.17 60.9686 161.646C61.0425 161.34 61.4449 160.859 61.6628 160.877C63.4056 161.007 64.3545 159.632 65.6395 158.9C66.7472 158.267 67.9398 157.931 69.1288 158.67C70.3399 159.425 70.7608 160.645 70.7165 162.005C70.6574 163.765 70.0482 165.399 69.1509 166.87C68.4383 168.038 68.8444 168.434 69.93 168.822C70.9823 169.199 72.0457 169.469 73.1461 169.58C74.1467 169.68 75.0772 169.898 74.9443 171.148C74.8224 172.29 73.8772 172.327 72.4925 172.249V172.246ZM62.0468 168.064C62.896 167.706 63.4536 167.284 64.0222 167.266C66.9096 167.162 67.2087 164.852 67.8438 162.859C68.01 162.334 68.2906 161.539 67.6555 161.181C67.1349 160.885 66.6401 161.436 66.2118 161.776C64.2327 163.351 62.9145 165.369 62.0505 168.064H62.0468Z" fill="#E35B25"/>
<path d="M131.633 161.953C131.563 163.162 131.12 164.382 130.23 165.354C129.591 166.049 129.285 166.57 130.115 167.325C130.946 168.079 131.777 168.637 132.888 167.927C133.14 167.768 133.317 167.495 133.52 167.266C134.129 166.585 134.845 166.282 135.602 166.951C136.374 167.628 136.042 168.378 135.558 169.092C133.83 171.643 130.595 171.658 128.111 169.14C127.409 168.43 126.981 167.413 125.651 167.461C124.861 167.491 124.407 167.58 124.145 168.378C123.761 169.543 123.273 170.674 122.86 171.831C122.55 172.696 122.022 173.247 121.069 172.963C120.098 172.674 119.987 171.931 120.257 171.04C121.191 167.983 122.088 164.918 123.03 161.864C123.285 161.036 127.752 157.92 128.546 157.945C129.964 157.99 131.622 160.079 131.633 161.957V161.953ZM128.912 162.127C128.901 161.598 128.76 160.907 128.38 161.058C127.372 161.461 126.992 162.541 126.556 163.454C126.32 163.953 126.907 164.293 127.291 164.212C128.413 163.975 128.731 163.036 128.912 162.123V162.127Z" fill="#E35B25"/>
<path d="M90.1199 170.382C90.1568 171.399 89.9353 172.094 88.9974 172.175C88.1075 172.253 87.6608 171.68 87.502 170.863C87.4097 170.382 87.3284 169.89 87.2952 169.402C87.2324 168.486 86.7931 168.09 85.8626 168.201C85.3161 168.264 84.7512 168.297 84.2047 168.234C82.7056 168.064 81.7382 168.619 81.3062 170.109C81.1548 170.633 80.8668 171.121 80.6268 171.624C80.1911 172.537 79.7406 173.587 78.4705 172.97C77.3443 172.427 77.7061 171.432 78.1049 170.563C78.8951 168.829 79.6594 167.073 80.5419 165.387C81.5388 163.484 82.4545 161.52 83.8096 159.827C85.534 157.668 87.1069 157.853 88.1002 160.471C89.3334 163.713 89.7913 167.14 90.1199 170.386V170.382ZM85.6706 161.79C84.8213 163.11 83.913 164.097 83.7099 165.491C87.0589 165.827 87.2029 165.576 85.6706 161.79Z" fill="#E35B25"/>
<path d="M152.13 157.439C150.948 160.393 149.718 163.532 148.43 166.648C148.175 167.262 147.577 167.543 146.89 167.262C146.159 166.966 145.812 166.345 146.074 165.628C147.211 162.523 148.393 159.428 149.615 156.352C149.885 155.672 150.523 155.325 151.28 155.606C152.019 155.879 152.24 156.489 152.13 157.439V157.439Z" fill="#E35B25"/>
<path d="M146.986 170.87C146.72 172.926 145.531 174.637 144.468 174.475C143.574 174.334 143.235 173.769 143.36 172.889C143.659 170.8 144.826 169.103 145.889 169.277C146.776 169.421 147.137 169.983 146.986 170.87V170.87Z" fill="#E35B25"/>
<path d="M50.1425 81.1965C50.0576 79.1114 50.5523 77.5254 50.8847 75.9062C51.1136 74.7823 51.5493 74.664 52.4945 75.1594C57.1321 77.5994 61.5741 80.3351 65.6246 83.6772C66.1932 84.1467 66.736 84.6495 67.3194 85.1042C67.744 85.4333 68.2351 85.9287 68.7188 85.241C69.1028 84.6939 68.6154 84.3057 68.2499 84.0136C66.3335 82.4757 64.4394 80.9008 62.4455 79.4627C59.499 77.3406 56.4306 75.3997 53.1407 73.847C52.0404 73.3257 51.6896 72.76 52.2324 71.5807C53.2625 69.344 54.2263 67.0852 55.4632 64.9483C56.006 64.0093 56.3937 63.7616 57.3795 64.5528C63.6935 69.6028 69.0216 75.4884 73.0684 82.52C73.5041 83.2779 73.8069 84.9379 74.8629 84.3685C76.0482 83.729 74.73 82.6457 74.3017 81.91C70.2179 74.8673 65.0708 68.7082 58.6534 63.6803C57.4165 62.7117 57.2208 62.0943 58.2288 60.7708C66.0345 50.5487 76.3953 44.2823 88.7315 41.3358C106.584 37.0695 123.979 38.5409 140.369 47.0661C154.201 54.2604 163.764 65.2441 167.719 80.6346C168.206 82.5348 168.483 84.4979 168.708 86.4499C168.993 88.8973 168.922 88.9195 166.526 88.8345C156.309 88.4722 146.266 89.5813 136.437 92.4168C133.959 93.1303 131.526 93.9954 129.089 94.8457C128.569 95.0269 127.631 95.1156 127.863 95.9253C128.137 96.8754 128.919 96.2247 129.403 96.0473C138.054 92.8457 146.986 90.975 156.173 90.3096C160.042 90.0286 163.919 90.1395 167.793 90.2393C168.767 90.2652 169.107 90.6719 169.011 91.6035C168.771 93.9289 168.531 96.2543 168.332 98.5834C168.202 100.092 167.674 100.62 166.006 100.232C159.326 98.6795 152.528 98.1767 145.675 98.3283C141.056 98.4318 136.474 98.8902 131.936 99.7516C131.316 99.8699 130.311 99.7812 130.522 100.75C130.714 101.652 131.633 101.278 132.261 101.164C143.408 99.1379 154.519 99.3708 165.621 101.578C167.15 101.881 167.671 102.384 167.021 103.877C166.53 105.005 166.161 106.181 165.714 107.33C165.581 107.671 165.385 107.985 165.23 108.284C164.65 108.325 164.647 107.863 164.495 107.56C164.196 106.961 163.775 106.532 163.074 106.584C162.38 106.635 162.04 107.138 161.77 107.737C161.194 109.027 160.533 110.277 159.998 111.578C159.577 112.599 159.112 112.769 158.063 112.273C150.509 108.698 142.581 106.351 134.292 105.242C133.989 105.201 133.682 105.146 133.376 105.123C132.789 105.079 131.991 104.828 131.94 105.73C131.895 106.465 132.641 106.421 133.184 106.491C138.567 107.175 143.825 108.406 148.95 110.192C151.856 111.205 154.711 112.34 157.48 113.678C157.834 113.848 158.61 113.867 158.082 114.647C157.735 115.157 157.469 115.475 156.845 114.85C156.224 114.233 155.453 114.454 154.869 115.035C148.234 121.652 139.804 123.323 130.961 123.372C115.39 123.453 100.089 121.227 85.0391 117.249C78.4888 115.519 72.0087 113.6 66.1342 110.099C59.7353 106.284 54.8872 101.179 52.8712 93.7773C52.7751 93.4261 52.7161 92.9418 52.465 92.7791C50.4453 91.4445 51.5973 89.6071 51.649 87.9509C51.6748 87.2078 52.177 87.2891 52.705 87.4037C54.6841 87.8437 56.6632 88.2762 58.6497 88.6866C59.1999 88.7975 59.9937 89.3483 60.2411 88.4943C60.5181 87.5553 59.5285 87.5036 58.934 87.3446C57.0952 86.8529 55.249 86.3649 53.3807 85.9989C52.3062 85.7882 51.8447 85.4185 52.3321 84.3057C52.5278 83.8583 52.5831 83.3556 52.7308 82.886C52.9856 82.069 53.4324 81.2187 52.5056 80.5422C51.7081 79.958 51.0028 80.3832 50.124 81.2039L50.1425 81.1965ZM102.271 94.6424C103.59 94.7127 104.675 94.5722 105.646 93.9511C106.086 93.6701 106.444 93.2856 106.196 92.7311C105.971 92.2283 105.521 92.0471 104.967 92.2246C104.557 92.3577 104.155 92.5167 103.737 92.6091C101.341 93.1414 99.1034 91.8549 98.3501 89.5517C98.0215 88.5498 98.0547 87.9139 99.3988 87.925C100.569 87.9324 101.706 87.6145 102.718 86.9601C103.339 86.5571 103.793 86.0506 103.368 85.2891C102.991 84.6162 102.353 84.6828 101.751 84.9637C99.0148 86.2355 96.5187 85.9286 94.2627 83.8731C93.7974 83.448 93.2694 83.3556 92.7931 83.851C92.2429 84.4203 92.4054 85.0007 92.9408 85.4517C93.5944 86.0026 94.2516 86.5978 95.0048 86.9712C95.9907 87.4555 95.8725 87.888 95.2781 88.6127C93.3137 91.0157 90.3524 91.5628 87.2915 90.0323C86.6711 89.7217 85.9659 88.9823 85.4268 90.0027C85.0059 90.7976 85.7702 91.4445 86.3241 91.5517C89.3961 92.1433 89.5032 94.1951 89.0343 96.6277C88.9678 96.9752 89.0675 97.3634 89.134 97.722C89.7395 100.968 91.8959 102.273 95.075 101.304C97.763 100.484 99.3434 98.4983 100.362 96.0251C100.783 95.0047 101.193 94.2431 102.271 94.6424V94.6424ZM122.133 79.7436C118.869 79.7214 116.542 81.8953 116.472 85.0266C116.402 88.1875 118.706 90.5905 121.834 90.6164C125.149 90.646 127.439 88.4056 127.453 85.1153C127.468 82.0062 125.245 79.7584 122.136 79.7399L122.133 79.7436ZM75.258 73.1002C75.2322 76.1686 77.6765 78.6826 80.66 78.6493C83.7468 78.616 86.1542 76.2389 86.2354 73.1519C86.313 70.2424 83.828 67.6693 80.9332 67.6619C77.5473 67.6545 75.2876 69.821 75.258 73.1002ZM71.3293 90.6312C70.0924 90.609 68.9071 90.8197 68.4013 92.0915C68.0542 92.964 68.1133 93.9067 68.9219 94.6387C70.7238 96.2617 72.9134 96.7866 75.2248 96.661C76.1405 96.6129 77.2519 96.2617 77.4661 95.0676C77.6802 93.8623 77.1744 92.8937 76.1627 92.2209C74.7005 91.2523 73.0943 90.6903 71.3293 90.6349V90.6312ZM115.512 108.728C116.062 108.687 116.627 108.717 117.155 108.587C118.821 108.181 119.408 106.384 118.208 105.16C116.435 103.352 114.227 102.539 111.691 102.846C110.579 102.979 109.7 103.608 109.412 104.717C109.147 105.737 109.796 106.499 110.546 107.064C112.001 108.17 113.655 108.765 115.512 108.724V108.728ZM161.608 71.041C161.146 70.1574 160.677 69.0187 159.987 68.0353C159.488 67.3255 158.916 68.1203 158.41 68.3163C157.986 68.4826 157.417 68.6749 157.764 69.3588C158.259 70.3348 158.713 71.3367 159.289 72.261C159.599 72.76 160.172 72.871 160.751 72.59C161.301 72.3275 161.571 71.8913 161.608 71.0373V71.041ZM158.156 76.4829C157.938 75.8137 157.698 74.8673 157.321 73.9763C157.022 73.2702 156.383 73.0225 155.652 73.3072C155.013 73.5586 154.711 74.0836 154.866 74.7712C155.069 75.6585 155.279 76.5531 155.578 77.4108C155.822 78.1096 156.372 78.5088 157.151 78.3018C157.919 78.0985 158.156 77.4959 158.152 76.4792L158.156 76.4829ZM163.148 77.6622C163.103 77.4108 163.007 76.6899 162.841 75.9838C162.649 75.1853 162.14 74.6344 161.283 74.8156C160.467 74.9893 160.12 75.6363 160.231 76.4792C160.319 77.141 160.445 77.7953 160.526 78.4571C160.629 79.3037 161.061 79.8471 161.937 79.7991C162.945 79.7436 163.218 79.0301 163.151 77.6585L163.148 77.6622ZM89.4921 109.397C90.1826 109.312 90.9765 109.223 91.0872 108.425C91.2238 107.43 90.3081 107.464 89.6767 107.412C88.5432 107.319 87.7272 106.791 87.0773 105.892C86.7598 105.452 86.3019 105.26 85.8108 105.663C85.3714 106.025 85.316 106.473 85.6004 106.975C86.4607 108.495 87.8084 109.208 89.4958 109.397H89.4921Z" fill="#355DFA"/>
<path d="M30.4473 129.945C29.358 127.597 28.7635 125.235 28.9038 122.728C28.9555 121.789 29.1992 120.776 28.0288 120.396C26.7992 119.996 26.5112 121.091 25.9573 122.063C24.3511 118.44 23.4059 114.787 22.7376 111.072C21.3382 103.267 21.1646 95.4188 21.988 87.5332C22.1136 86.3206 22.3979 85.9139 23.6496 86.3465C24.3142 86.5794 25.1376 86.6016 25.8392 86.4574C28.7377 85.8622 31.3851 84.5423 34.4572 84.2207C37.1637 83.936 38.6259 79.4627 37.5034 76.8526C37.2265 76.2057 36.7354 75.8434 36.0744 75.9173C35.2916 76.006 34.9224 76.5569 34.9667 77.3517C34.9926 77.8434 35.0516 78.3351 35.0664 78.8268C35.107 80.313 34.6455 81.6735 33.091 81.9619C31.4811 82.2613 30.6503 81.0117 30.2331 79.6402C29.9303 78.6494 29.7826 77.5994 29.6645 76.5643C29.5574 75.6363 29.3912 74.7158 28.2503 74.8119C27.0503 74.9154 26.91 75.8877 27.0023 76.8933C27.1426 78.4276 27.2054 80.0062 28.0214 81.3556C28.7266 82.5201 28.1986 82.9896 27.2054 83.4148C23.9118 84.8307 20.5222 82.509 20.6477 78.886C20.6662 78.4017 20.7806 77.9137 20.8914 77.4368C21.0871 76.5754 20.7917 75.9395 19.9609 75.7029C19.0895 75.4552 18.5652 75.9654 18.303 76.7639C17.6347 78.8046 17.8083 80.8158 18.8532 82.6495C19.5806 83.9249 19.1154 84.2244 17.9301 84.3464C15.4525 84.5978 13.3922 83.2447 12.5134 80.5496C10.8961 75.5772 12.6131 71.444 16.1171 67.9799C21.3862 62.7746 31.1082 62.586 36.9754 67.662C34.0326 67.1999 31.374 66.7673 28.7081 66.3754C27.7998 66.2423 26.873 66.1758 25.9536 66.1536C25.4625 66.1425 24.6945 65.869 24.6576 66.7156C24.6281 67.4476 25.3222 67.4993 25.8761 67.54C28.5789 67.7359 31.2374 68.2313 33.8885 68.76C34.2504 68.8302 34.6086 68.9596 34.9704 68.9781C40.3133 69.2258 42.8426 72.7712 44.7589 77.1706C45.6672 79.2557 46.0143 81.5182 47.0962 83.5553C47.7239 84.7383 47.1257 85.3926 45.6377 85.3298C39.8591 85.0858 34.2578 86.0729 28.8078 87.9768C28.3463 88.1395 27.8774 88.3022 27.4417 88.5203C27.1573 88.6608 26.9543 88.9491 27.0613 89.2782C27.1943 89.6811 27.545 89.8438 27.9438 89.7477C28.4201 89.6331 28.878 89.4482 29.3432 89.2893C34.9224 87.3594 40.6493 86.4796 46.5571 86.7494C48.226 86.8271 48.9608 87.4297 48.7836 89.256C48.5657 91.5148 48.5399 93.8106 48.9128 96.0732C49.0199 96.7349 49.1048 97.6851 49.9208 97.6148C51.4495 97.478 51.671 98.5502 52.1658 99.5114C53.6981 102.491 55.6883 105.142 58.1142 107.452C58.6533 107.966 59.1038 108.44 59.1444 109.297C59.5062 116.721 63.5494 121.908 69.4461 125.856C73.3083 128.444 77.6616 130.015 82.0519 131.45C82.7867 131.69 83.4845 131.775 82.9528 132.888C80.5195 137.989 83.1264 143.553 88.2994 146.359C94.617 149.786 102.157 147.417 105.037 141.084C105.188 140.747 105.347 140.411 105.447 140.056C106.289 137.043 106.289 136.969 109.409 137.22C116.14 137.757 122.823 137.609 129.336 135.668C135.152 133.934 140.266 130.943 144.442 126.47C145.066 125.801 145.734 125.08 146.07 124.255C146.672 122.769 147.617 122.795 148.688 123.464C158.595 129.656 165.636 138.108 169.129 149.395C169.687 151.195 168.597 150.84 167.667 150.814C155.187 150.448 142.71 150.03 130.234 149.713C104.106 149.043 77.9792 148.411 51.8519 147.812C50.1941 147.775 49.7178 147.387 50.2347 145.709C51.3239 142.156 52.7012 138.751 54.684 135.605C55.2785 134.666 55.9136 133.657 54.6065 132.939C53.388 132.274 52.8747 133.431 52.3652 134.244C50.7258 136.862 49.3818 139.635 48.455 142.581C48.1005 143.705 47.6648 143.849 46.6199 143.479C40.0548 141.184 35.7975 136.677 33.6485 130.108C33.4972 129.642 33.3901 129.154 33.1833 128.714C32.9581 128.226 32.4854 127.997 31.9685 128.026C30.8423 128.093 30.8756 129.172 30.4509 129.952L30.4473 129.945ZM35.8861 121.908C34.8449 121.937 34.4904 122.58 34.6418 123.497C34.8966 125.039 35.5833 126.399 36.6837 127.509C37.3557 128.185 38.3009 128.241 38.6923 127.379C39.5342 125.549 37.3409 124.581 37.1821 122.961C37.1194 122.329 36.632 121.878 35.8861 121.911V121.908ZM45.9811 126.392C45.8961 126.189 45.8592 125.808 45.6525 125.649C44.6186 124.847 43.8986 123.778 43.0826 122.788C42.7355 122.366 42.2296 122.325 41.7385 122.58C41.2031 122.858 40.9114 123.283 40.9631 123.919C41.0481 124.965 43.1859 127.453 44.2493 127.697C45.2463 127.926 45.7337 127.394 45.9811 126.392V126.392ZM40.4979 129.494C39.656 129.756 38.9803 130.252 39.4345 131.316C39.9477 132.522 40.8413 133.483 42.0081 134.048C42.9607 134.511 43.6844 134.056 43.8875 133.013C44.0315 132.267 41.3287 129.442 40.5016 129.494H40.4979Z" fill="#355DFA"/>
<path d="M61.1494 52.9923C61.5297 43.4468 63.0695 34.3707 65.536 25.4425C66.7138 21.1725 68.0948 16.9617 69.7896 12.8728C71.2222 9.41617 73.2604 8.96514 75.9115 11.627C78.6734 14.3997 80.4568 17.8859 82.3215 21.2797C85.0502 26.2596 87.1548 31.4982 88.7241 36.9623C89.0232 37.9974 88.9493 38.4965 87.7899 38.7849C78.0051 41.2249 69.2948 45.7056 61.8916 52.6227C61.7734 52.7336 61.5962 52.7742 61.1531 52.996L61.1494 52.9923Z" fill="#FF9AD7"/>
<path d="M61.9949 110.991C77.6948 119.897 94.7905 122.799 112.078 124.995C118.732 125.841 125.419 126.218 132.128 126.063C135.388 125.989 138.608 125.601 142.267 124.799C141.045 126.277 139.86 127.161 138.685 128.026C133.62 131.771 127.896 133.819 121.656 134.448C116.686 134.947 111.713 134.751 106.746 134.315C105.849 134.237 105.247 133.96 104.73 133.054C101.278 127.009 92.6527 124.858 86.6636 128.559C85.4341 129.32 84.3928 129.442 83.0746 128.987C78.0124 127.235 72.9723 125.442 68.7519 121.985C65.2811 119.142 62.8109 115.663 61.9949 110.987V110.991Z" fill="#FF9AD7"/>
<path d="M145.406 46.7555C150.032 43.2692 154.91 40.7109 160.016 38.5778C163.989 36.9178 168.04 35.5019 172.345 34.9584C172.77 34.903 173.198 34.8438 173.627 34.8179C178.076 34.5555 178.777 35.3984 177.629 39.6055C174.963 49.3877 170.872 58.5488 165.559 67.562C160.578 58.8815 153.909 52.0939 145.406 46.7555Z" fill="#FF9AD7"/>
<path d="M88.7869 130.529C93.2952 127.926 100.447 130.133 102.607 134.791C104.114 138.037 102.345 142.263 98.6566 144.222C98.387 144.367 98.1064 144.5 97.8147 144.596C96.2344 145.106 94.3033 145.967 93.0737 144.873C92.0103 143.927 93.2103 142.13 93.4577 140.714C93.4983 140.474 93.6276 140.252 93.6977 140.015C93.8823 139.39 94.3328 138.621 93.3691 138.322C92.4312 138.03 92.2909 138.936 92.062 139.527C91.5709 140.788 91.1906 142.082 91.0761 143.45C91.0355 143.934 91.1278 144.574 90.1346 144.282C85.8809 143.032 83.492 137.486 85.6262 133.66C87.4724 134.998 87.9154 134.891 89.5438 133.032C90.7032 131.708 89.3444 131.261 88.7832 130.521L88.7869 130.529ZM87.7788 136.884C87.6607 136.348 87.3505 136.026 86.7856 136.041C86.1579 136.056 85.9843 136.477 86.0065 137.021C86.0286 137.601 86.3351 137.923 86.9259 137.856C87.4761 137.793 87.7678 137.45 87.7825 136.884H87.7788Z" fill="#FF8500"/>
<path d="M81.3577 13.5605C87.9228 17.679 93.3284 23.0285 97.9032 29.2542C99.3248 31.1877 100.591 33.2173 101.799 35.2876C102.264 36.0862 102.419 36.5187 101.16 36.6259C98.4128 36.8625 95.6804 37.2803 92.9407 37.6241C92.3351 37.7018 91.7554 37.8866 91.5117 36.9808C89.2926 28.6848 85.5707 21.0543 81.1436 13.7454C81.2137 13.6825 81.2839 13.6234 81.354 13.5642L81.3577 13.5605Z" fill="#355DFA"/>
<path d="M135.569 41.6834C144.597 35.1213 161.246 30.696 171.917 32.0454C171.086 32.7367 170.171 32.5556 169.406 32.7293C160.164 34.8514 151.786 38.8515 144.125 44.3859C143.176 45.0698 142.504 45.1326 141.507 44.5892C139.624 43.5688 137.663 42.6963 135.569 41.6797V41.6834Z" fill="#355DFA"/>
<path d="M88.7869 130.529C89.3481 131.268 90.7069 131.716 89.5475 133.039C87.9192 134.899 87.4761 135.006 85.6299 133.668C86.1985 132.13 87.3284 131.165 88.7869 130.529V130.529Z" fill="#FF8500"/>
<path d="M47.7756 77.1928C46.8341 75.3665 46.0292 73.8101 45.2427 72.2795C48.6434 72.6788 48.828 73.0078 47.7756 77.1928Z" fill="#F6EAE0"/>
<path d="M81.1474 13.7417L80.708 13.2131C81.1031 12.9875 81.1991 13.3351 81.3579 13.5569C81.2877 13.616 81.2176 13.6752 81.1474 13.738V13.7417Z" fill="#355DFA"/>
<path d="M62.0467 168.068C62.9107 165.373 64.2289 163.354 66.208 161.779C66.6363 161.439 67.1311 160.888 67.6517 161.184C68.2868 161.546 68.0098 162.341 67.84 162.862C67.2049 164.851 66.9058 167.166 64.0184 167.269C63.4498 167.288 62.8959 167.709 62.043 168.068H62.0467Z" fill="white"/>
<path d="M128.912 162.123C128.735 163.036 128.413 163.975 127.291 164.212C126.907 164.293 126.316 163.949 126.556 163.454C126.992 162.541 127.368 161.461 128.38 161.058C128.76 160.907 128.904 161.598 128.912 162.127V162.123Z" fill="white"/>
<path d="M85.6704 161.791C87.2027 165.576 87.0587 165.828 83.7097 165.491C83.9165 164.097 84.8211 163.11 85.6704 161.791Z" fill="white"/>
<path d="M102.271 94.6461C101.193 94.2468 100.783 95.0084 100.362 96.0288C99.3434 98.502 97.7668 100.487 95.075 101.308C91.8959 102.277 89.7395 100.972 89.134 97.7257C89.0675 97.3634 88.9641 96.9752 89.0343 96.6314C89.5032 94.1951 89.3998 92.1469 86.3241 91.5554C85.7739 91.4482 85.0096 90.8013 85.4269 90.0064C85.9659 88.9897 86.6712 89.7254 87.2915 90.036C90.3488 91.5665 93.3101 91.0194 95.2781 88.6163C95.8689 87.8917 95.9907 87.4592 95.0049 86.9749C94.2479 86.6015 93.5907 86.01 92.9408 85.4554C92.4091 85.0044 92.243 84.424 92.7931 83.8547C93.2694 83.363 93.7975 83.4554 94.2627 83.8768C96.515 85.9323 99.0111 86.2392 101.751 84.9674C102.353 84.6865 102.991 84.6199 103.368 85.2928C103.793 86.0544 103.339 86.5645 102.718 86.9638C101.71 87.6182 100.569 87.9398 99.3988 87.9287C98.0548 87.9176 98.0215 88.5498 98.3501 89.5554C99.1034 91.8586 101.341 93.1451 103.737 92.6128C104.155 92.5203 104.557 92.3614 104.967 92.2283C105.521 92.0508 105.971 92.2283 106.196 92.7348C106.448 93.2893 106.086 93.6738 105.646 93.9548C104.675 94.5759 103.59 94.72 102.271 94.6461V94.6461ZM90.478 96.0842C90.8694 97.3856 90.4005 99.1342 92.1544 99.8293C93.8307 100.495 95.2486 99.8219 96.5335 98.746C97.3384 98.0732 97.9588 97.2451 98.5052 96.3504C98.9003 95.7034 98.856 95.3116 98.1138 94.9234C96.3895 94.0213 94.5729 93.6812 92.6454 93.6738C90.9876 93.6701 90.3119 94.428 90.4743 96.0805L90.478 96.0842Z" fill="#FFD324"/>
<path d="M122.133 79.7473C125.242 79.7658 127.465 82.0136 127.45 85.1227C127.435 88.4093 125.146 90.6497 121.83 90.6238C118.706 90.5979 116.398 88.1912 116.469 85.034C116.539 81.8989 118.865 79.7288 122.129 79.751L122.133 79.7473Z" fill="#FFD324"/>
<path d="M75.258 73.1038C75.2876 69.8246 77.5473 67.6582 80.9332 67.6655C83.828 67.6729 86.313 70.246 86.2355 73.1556C86.1542 76.2425 83.7468 78.616 80.66 78.6529C77.6765 78.6862 75.2322 76.1723 75.258 73.1038V73.1038Z" fill="#FFD324"/>
<path d="M71.3293 90.6348C73.0943 90.6903 74.7004 91.2522 76.1626 92.2208C77.1743 92.89 77.6802 93.8623 77.466 95.0675C77.2519 96.2653 76.1405 96.6128 75.2248 96.6609C72.9096 96.7866 70.7238 96.2616 68.9219 94.6387C68.1132 93.9104 68.0542 92.9639 68.4013 92.0914C68.9071 90.8197 70.0924 90.609 71.3293 90.6311V90.6348Z" fill="#355DFA"/>
<path d="M115.512 108.732C113.655 108.772 112.005 108.177 110.546 107.072C109.796 106.502 109.15 105.741 109.412 104.724C109.7 103.615 110.579 102.986 111.691 102.853C114.227 102.547 116.435 103.36 118.208 105.168C119.408 106.388 118.821 108.188 117.155 108.595C116.627 108.724 116.059 108.691 115.512 108.735V108.732Z" fill="#355DFA"/>
<path d="M161.608 71.0484C161.571 71.9024 161.301 72.3349 160.751 72.6011C160.172 72.8821 159.596 72.7675 159.289 72.2721C158.713 71.3441 158.259 70.3459 157.764 69.3699C157.417 68.686 157.986 68.4938 158.41 68.3274C158.916 68.1278 159.489 67.3366 159.987 68.0464C160.677 69.0298 161.146 70.1685 161.608 71.0521V71.0484Z" fill="#355DFA"/>
<path d="M158.159 76.4866C158.159 77.4996 157.927 78.1059 157.159 78.3092C156.38 78.5162 155.829 78.117 155.586 77.4182C155.287 76.5605 155.076 75.6659 154.873 74.7786C154.718 74.091 155.021 73.566 155.659 73.3146C156.387 73.0299 157.029 73.2776 157.328 73.9837C157.705 74.8747 157.945 75.8174 158.163 76.4903L158.159 76.4866Z" fill="#355DFA"/>
<path d="M163.148 77.6696C163.214 79.0449 162.941 79.7584 161.933 79.8101C161.061 79.8582 160.629 79.3111 160.522 78.4681C160.441 77.8064 160.315 77.1483 160.227 76.4903C160.116 75.6474 160.463 75.0004 161.279 74.8266C162.136 74.6418 162.649 75.1926 162.837 75.9949C163.004 76.701 163.1 77.4219 163.144 77.6733L163.148 77.6696Z" fill="#355DFA"/>
<path d="M89.4959 109.404C87.8084 109.216 86.4607 108.502 85.6004 106.983C85.3161 106.48 85.3715 106.033 85.8109 105.67C86.3019 105.267 86.7598 105.46 87.0773 105.9C87.7272 106.798 88.5469 107.327 89.6768 107.419C90.3082 107.471 91.2239 107.437 91.0873 108.432C90.9765 109.23 90.1826 109.319 89.4922 109.404H89.4959Z" fill="#FFD324"/>
<path d="M35.8861 121.908C36.6357 121.878 37.1231 122.329 37.1822 122.957C37.3409 124.58 39.5305 125.545 38.6923 127.375C38.2973 128.237 37.352 128.181 36.6837 127.505C35.5834 126.396 34.8966 125.035 34.6418 123.494C34.4904 122.58 34.8449 121.937 35.8861 121.904V121.908Z" fill="#355DFA"/>
<path d="M45.9811 126.392C45.7337 127.39 45.2463 127.926 44.2494 127.697C43.1823 127.453 41.0481 124.961 40.9632 123.919C40.9115 123.283 41.2032 122.858 41.7386 122.581C42.2296 122.325 42.7355 122.37 43.0826 122.788C43.8986 123.778 44.6186 124.847 45.6525 125.649C45.8592 125.808 45.8962 126.189 45.9811 126.392V126.392Z" fill="#355DFA"/>
<path d="M40.498 129.49C41.3251 129.442 44.0279 132.263 43.8839 133.009C43.6845 134.052 42.9571 134.507 42.0045 134.045C40.8377 133.475 39.9441 132.518 39.4309 131.312C38.9767 130.248 39.6524 129.752 40.4943 129.49H40.498Z" fill="#355DFA"/>
<path d="M87.7788 136.884C87.7641 137.45 87.4761 137.797 86.9222 137.856C86.3314 137.923 86.0249 137.601 86.0028 137.021C85.9806 136.477 86.1579 136.056 86.7819 136.041C87.3468 136.026 87.6607 136.352 87.7751 136.884H87.7788Z" fill="#FF8500"/>
<path d="M90.4778 96.0845C90.3154 94.4282 90.9911 93.6741 92.649 93.6777C94.5764 93.6814 96.393 94.0216 98.1174 94.9273C98.8595 95.3155 98.9038 95.7037 98.5088 96.3544C97.9623 97.249 97.342 98.0771 96.537 98.75C95.2521 99.8221 93.8342 100.495 92.1579 99.8332C90.404 99.1382 90.8729 97.3932 90.4815 96.0882L90.4778 96.0845Z" fill="#FF9AD7"/>
</g>
<defs>
<clipPath id="clip0_879_9881">
<rect width="204" height="183" fill="white"/>
</clipPath>
</defs>
</svg>
