<svg width="254" height="287" viewBox="0 0 254 287" fill="none" xmlns="http://www.w3.org/2000/svg">
<g filter="url(#filter0_d_879_3767)">
<path d="M201 142.63L197.86 140.1V127.16C198.91 125.609 199.499 123.792 199.56 121.92L200.79 87.16C200.79 87.04 200.79 86.9299 200.79 86.8099C200.79 85.3099 200.86 83.7299 200.94 82.0599C201.185 78.4632 201.162 74.8532 200.87 71.26C200.151 64.1334 197.647 57.303 193.59 51.4C182.48 35.34 169.59 32.2 150.96 32.2H88.46C69.86 32.2 56.92 35.34 45.83 51.4C41.7684 57.2969 39.2641 64.1253 38.55 71.25C38.258 74.8465 38.2346 78.4599 38.48 82.0599C38.56 83.7299 38.63 85.3099 38.63 86.8099C38.63 86.9299 38.63 87.04 38.63 87.16L39.86 121.92C39.9238 124.047 40.6746 126.095 42 127.76V140.1L38.87 142.64C37.7119 143.577 36.7778 144.761 36.1359 146.105C35.494 147.45 35.1606 148.92 35.16 150.41V183.87C35.1548 185.384 35.4969 186.879 36.16 188.24L39.3 194.7L41.23 216.17C41.6424 221.093 43.8951 225.68 47.5388 229.016C51.1826 232.352 55.9497 234.192 60.89 234.17H178.89C183.83 234.192 188.597 232.352 192.241 229.016C195.885 225.68 198.137 221.093 198.55 216.17L200.48 194.7L203.63 188.24C204.291 186.875 204.633 185.377 204.63 183.86V150.41C204.641 148.925 204.32 147.456 203.692 146.111C203.064 144.765 202.145 143.576 201 142.63Z" fill="white"/>
</g>
<path d="M178.93 224.16H60.9298C58.4983 224.162 56.1541 223.254 54.3588 221.614C52.5635 219.974 51.4472 217.722 51.2298 215.3L47.5698 174.48H192.29L188.63 215.3C188.412 217.722 187.296 219.974 185.501 221.614C183.706 223.254 181.361 224.162 178.93 224.16Z" fill="#FFD4CC"/>
<path d="M182.45 204.48H60.1602V216.17H182.45V204.48Z" fill="#FAFAFA"/>
<path d="M187.83 174.48H52.01V107.72H104L106.92 113.11H132.76L136 107.72H187.83V174.48Z" fill="#95C2E6"/>
<path d="M187.39 86.8H190.77C190.77 81.99 191.39 77.0599 190.9 72.2699C190.351 66.8203 188.439 61.5966 185.34 57.08C177.34 45.47 168.93 42.2 150.94 42.2H88.46C70.46 42.2 62.08 45.47 54.05 57.08C50.9547 61.5974 49.0461 66.8211 48.5 72.2699C48.01 77.0599 48.63 81.99 48.63 86.8H187.39Z" fill="#F77C7A"/>
<path d="M175 113.11H64.74C62.0878 113.11 59.5443 114.164 57.6689 116.039C55.7936 117.914 54.74 120.458 54.74 123.11V158.56C54.7394 159.005 54.7695 159.449 54.83 159.89C55.16 162.276 56.3401 164.463 58.1534 166.048C59.9667 167.634 62.2913 168.512 64.7 168.52H175C177.652 168.52 180.196 167.467 182.071 165.591C183.946 163.716 185 161.172 185 158.52V123.07C184.989 120.425 183.931 117.892 182.057 116.025C180.183 114.158 177.645 113.11 175 113.11ZM119.7 162.77C116.598 162.773 113.531 162.108 110.708 160.821C107.885 159.533 105.372 157.654 103.34 155.31C101.419 153.113 99.9666 150.547 99.07 147.77L98.83 147.01C97.833 143.483 97.7436 139.761 98.57 136.19C98.71 135.58 98.87 134.98 99.06 134.4C100.294 130.595 102.556 127.205 105.596 124.605C108.637 122.005 112.337 120.297 116.288 119.669C120.239 119.041 124.286 119.518 127.983 121.047C131.679 122.576 134.881 125.097 137.234 128.333C139.587 131.568 140.999 135.391 141.315 139.379C141.631 143.367 140.837 147.364 139.022 150.929C137.208 154.494 134.443 157.488 131.033 159.58C127.622 161.671 123.7 162.779 119.7 162.78V162.77Z" fill="#ECCCBA"/>
<path d="M173.18 116.72H151.69C149.183 116.72 147.15 118.753 147.15 121.26V142.75C147.15 145.257 149.183 147.29 151.69 147.29H173.18C175.687 147.29 177.72 145.257 177.72 142.75V121.26C177.72 118.753 175.687 116.72 173.18 116.72Z" fill="#F77C7A"/>
<path d="M119.7 119.39C115.116 119.39 110.65 120.841 106.943 123.536C103.235 126.231 100.475 130.03 99.0601 134.39C98.8701 134.97 98.7101 135.57 98.5701 136.18C97.7436 139.751 97.8331 143.473 98.8301 147L99.0701 147.76C99.9667 150.537 101.42 153.103 103.34 155.3C105.723 158.035 108.754 160.129 112.156 161.39C115.558 162.65 119.222 163.036 122.812 162.514C126.402 161.991 129.803 160.575 132.705 158.397C135.606 156.219 137.914 153.348 139.418 150.046C140.921 146.744 141.573 143.118 141.311 139.5C141.05 135.881 139.886 132.386 137.923 129.335C135.961 126.283 133.265 123.773 130.081 122.034C126.897 120.294 123.328 119.382 119.7 119.38V119.39ZM119.7 159.77C116.857 159.776 114.051 159.126 111.5 157.87C109.247 156.773 107.237 155.234 105.591 153.344C103.945 151.454 102.697 149.253 101.92 146.87C101.311 145.007 101.004 143.059 101.01 141.1C101.006 140.334 101.053 139.569 101.15 138.81C101.288 137.627 101.546 136.461 101.92 135.33C102.984 132.051 104.934 129.131 107.555 126.891C110.175 124.652 113.364 123.181 116.768 122.641C120.173 122.101 123.66 122.512 126.845 123.831C130.03 125.149 132.788 127.322 134.815 130.111C136.842 132.899 138.058 136.193 138.329 139.629C138.6 143.066 137.916 146.51 136.352 149.582C134.787 152.653 132.404 155.232 129.465 157.034C126.527 158.836 123.147 159.789 119.7 159.79V159.77Z" fill="#FAFAFA"/>
<path d="M132.76 86.8H106.92V113.1H132.76V86.8Z" fill="#F99595"/>
<path d="M83.4699 46.55L156.37 46.23C172.73 46.23 186 58.65 186 75V86.8H53.8599V75C53.8599 58.65 67.1199 46.55 83.4699 46.55Z" fill="#ECCCBA"/>
<path d="M173 58.5H141.39V80.5H173C173.63 80.5 174.255 80.3758 174.837 80.1346C175.419 79.8934 175.949 79.5398 176.394 79.0941C176.84 78.6484 177.194 78.1192 177.435 77.5369C177.676 76.9545 177.8 76.3303 177.8 75.7V63.3C177.8 62.027 177.294 60.8061 176.394 59.9059C175.494 59.0057 174.273 58.5 173 58.5Z" fill="#FAFAFA"/>
<path d="M66.4299 58.5C65.1568 58.5 63.9359 59.0057 63.0358 59.9059C62.1356 60.8061 61.6299 62.027 61.6299 63.3V75.7C61.6299 76.3303 61.754 76.9545 61.9953 77.5369C62.2365 78.1192 62.59 78.6484 63.0358 79.0941C63.4815 79.5398 64.0106 79.8934 64.593 80.1346C65.1754 80.3758 65.7995 80.5 66.4299 80.5H141.43V58.5H66.4299Z" fill="#FFEA61"/>
<path d="M48.6299 86.8L49.8599 121.57H52.0099H53.8599V86.8H48.6299Z" fill="#F77C7A"/>
<path d="M190.77 86.8L189.54 121.57H187.39H185.54V86.8H190.77Z" fill="#F77C7A"/>
<path d="M182.45 192.79H60.1602V204.48H182.45V192.79Z" fill="#F77C7A"/>
<path d="M176.34 204.48H66.27V210.33H176.34V204.48Z" fill="#FFEA61"/>
<path d="M52.0102 144.87L45.1602 150.41V183.86L48.3102 190.32H52.0102V144.87Z" fill="#F77C7A"/>
<path d="M187.83 144.87L194.68 150.41V183.86L191.53 190.32H187.83V144.87Z" fill="#F77C7A"/>
<path d="M170.63 121.58H154.23C152.998 121.58 152 122.578 152 123.81V140.21C152 141.442 152.998 142.44 154.23 142.44H170.63C171.862 142.44 172.86 141.442 172.86 140.21V123.81C172.86 122.578 171.862 121.58 170.63 121.58Z" fill="#FAFAFA"/>
<path d="M112.27 161.46C108.821 160.199 105.748 158.083 103.34 155.31C105.004 159.507 105.905 163.967 106 168.48H113C112.946 166.124 112.701 163.777 112.27 161.46Z" fill="#95C2E6"/>
<path d="M98.8301 147C93.9824 140.242 87.0702 135.242 79.1344 132.753C71.1986 130.264 62.669 130.421 54.8301 133.2V125.86C62.3957 123.616 70.4162 123.388 78.0971 125.198C85.778 127.008 92.8527 130.794 98.6201 136.18C97.7774 139.747 97.8496 143.469 98.8301 147Z" fill="#95C2E6"/>
<path d="M138.39 141.08C138.39 146.037 136.421 150.791 132.916 154.296C129.411 157.801 124.657 159.77 119.7 159.77C116.857 159.776 114.051 159.126 111.5 157.87C109.247 156.773 107.237 155.234 105.591 153.344C103.945 151.455 102.697 149.253 101.92 146.87C101.311 145.007 101.004 143.06 101.01 141.1C101.006 140.334 101.053 139.569 101.15 138.81C101.288 137.627 101.546 136.461 101.92 135.33C103.292 131.095 106.132 127.488 109.927 125.16C113.722 122.832 118.223 121.935 122.621 122.631C127.018 123.326 131.023 125.569 133.914 128.955C136.805 132.341 138.392 136.648 138.39 141.1V141.08Z" fill="#F77C7A"/>
<path d="M106 168.48H97.77C97.6391 163.469 96.2592 158.57 93.7556 154.227C91.2519 149.885 87.7038 146.236 83.4329 143.612C79.162 140.988 74.3036 139.472 69.2983 139.2C64.293 138.929 59.2993 139.912 54.77 142.06V133.2C62.6168 130.406 71.1595 130.242 79.1079 132.731C87.0564 135.221 93.9789 140.229 98.83 147L99.07 147.76C99.9666 150.537 101.419 153.103 103.34 155.3C105.005 159.5 105.906 163.963 106 168.48Z" fill="#BD93DD"/>
<path d="M97.77 168.48H90.54C90.3985 164.388 89.1612 160.408 86.9574 156.957C84.7536 153.506 81.6639 150.709 78.0108 148.859C74.3578 147.009 70.2751 146.173 66.1889 146.439C62.1027 146.705 58.1627 148.062 54.78 150.37V142.06C59.3093 139.912 64.303 138.93 69.3083 139.201C74.3136 139.472 79.172 140.988 83.4429 143.612C87.7138 146.236 91.262 149.885 93.7656 154.228C96.2692 158.57 97.6491 163.469 97.78 168.48H97.77Z" fill="#FFEA61"/>
<path d="M90.5401 168.48H83.5401C83.5401 168.28 83.5401 168.07 83.5401 167.86C83.5054 167.387 83.4453 166.917 83.3601 166.45C83.3601 166.37 83.3601 166.28 83.3601 166.2C83.3601 166.12 83.2901 165.85 83.2501 165.67C83.2101 165.49 83.1301 165.17 83.0501 164.91C82.9701 164.65 82.9101 164.41 82.8201 164.16C82.7301 163.91 82.6901 163.8 82.6201 163.62C82.5501 163.44 82.4901 163.26 82.4101 163.08L82.3501 162.94L82.2201 162.66C82.2201 162.56 82.1301 162.47 82.0901 162.37C82.0501 162.27 81.9201 162.03 81.8301 161.86C81.7827 161.763 81.7293 161.67 81.6701 161.58C81.5653 161.373 81.4485 161.173 81.3201 160.98C81.2282 160.815 81.1281 160.655 81.0201 160.5L80.6501 159.97L80.5001 159.76C80.3801 159.59 80.2501 159.43 80.1201 159.27C79.9901 159.11 79.7301 158.8 79.5301 158.58C79.3301 158.36 79.1801 158.21 79.0001 158.03L78.4701 157.52L78.0001 157.11L77.7501 156.91L77.4901 156.71C77.1694 156.444 76.8356 156.193 76.4901 155.96L76.1701 155.76C76.035 155.669 75.8948 155.585 75.7501 155.51L75.5701 155.4L75.2001 155.2L74.7201 154.96C74.3201 154.77 73.9001 154.59 73.4801 154.43L73.2701 154.35L72.6701 154.15H72.5601C72.3501 154.09 72.1401 154.02 71.9201 153.97L71.4201 153.84L70.8401 153.72C70.1792 153.596 69.5112 153.512 68.8401 153.47H68.3301H66.9301H66.3601C66.1401 153.47 65.9301 153.47 65.7101 153.54L65.0801 153.63C64.6701 153.69 64.2601 153.78 63.8601 153.88H63.7001L63.2801 153.99L63.0501 154.06L62.6201 154.2L62.0301 154.4C61.6801 154.54 61.3301 154.69 61.0301 154.85L60.4401 155.13C59.7417 155.49 59.073 155.905 58.4401 156.37C58.3254 156.443 58.2152 156.524 58.1101 156.61L57.4901 157.1C57.2301 157.33 56.9701 157.56 56.7101 157.81L56.3301 158.19C56.2517 158.262 56.1782 158.339 56.1101 158.42L55.6201 158.96L55.4801 159.13L55.2901 159.37C55.2569 159.408 55.2268 159.448 55.2001 159.49C55.0975 159.603 55.0039 159.723 54.9201 159.85C54.8596 159.409 54.8295 158.965 54.8301 158.52V150.37C58.2128 148.063 62.1528 146.705 66.239 146.439C70.3252 146.174 74.4078 147.009 78.0609 148.859C81.714 150.709 84.8036 153.506 87.0074 156.957C89.2113 160.408 90.4485 164.388 90.5901 168.48H90.5401Z" fill="#F99595"/>
<defs>
<filter id="filter0_d_879_3767" x="14.1599" y="14.2" width="225.47" height="257.97" filterUnits="userSpaceOnUse" color-interpolation-filters="sRGB">
<feFlood flood-opacity="0" result="BackgroundImageFix"/>
<feColorMatrix in="SourceAlpha" type="matrix" values="0 0 0 0 0 0 0 0 0 0 0 0 0 0 0 0 0 0 127 0" result="hardAlpha"/>
<feOffset dx="7" dy="10"/>
<feGaussianBlur stdDeviation="14"/>
<feColorMatrix type="matrix" values="0 0 0 0 0 0 0 0 0 0 0 0 0 0 0 0 0 0 0.25 0"/>
<feBlend mode="normal" in2="BackgroundImageFix" result="effect1_dropShadow_879_3767"/>
<feBlend mode="normal" in="SourceGraphic" in2="effect1_dropShadow_879_3767" result="shape"/>
</filter>
</defs>
</svg>
