<svg width="270" height="288" viewBox="0 0 270 288" fill="none" xmlns="http://www.w3.org/2000/svg">
<g filter="url(#filter0_d_879_3744)">
<path d="M214 121.12V118.12C213.998 115.895 213.461 113.703 212.434 111.73C211.407 109.756 209.921 108.058 208.1 106.78C210.456 104.509 212.329 101.786 213.607 98.7734C214.885 95.7613 215.543 92.5221 215.54 89.2499V56.4999C215.535 50.0435 212.967 43.8531 208.402 39.2877C203.837 34.7223 197.646 32.1552 191.19 32.1499H158.39C155.19 32.1473 152.02 32.775 149.062 33.9973C146.105 35.2196 143.417 37.0125 141.152 39.2736C138.887 41.5347 137.09 44.2197 135.863 47.1754C134.635 50.1311 134.003 53.2996 134 56.4999V89.2799C133.994 93.2229 134.949 97.108 136.78 100.6H113.64C112.151 100.599 110.681 100.931 109.337 101.571C107.992 102.211 106.808 103.144 105.87 104.3H54.9999C51.3275 104.303 47.8062 105.763 45.2094 108.359C42.6126 110.956 41.1526 114.477 41.1499 118.15V121.15C39.2772 122.689 37.7681 124.622 36.7308 126.813C35.6934 129.003 35.1536 131.396 35.1499 133.82V218.91C35.1552 223.264 36.8865 227.439 39.9644 230.518C43.0424 233.598 47.2158 235.332 51.5699 235.34H203.57C205.73 235.339 207.868 234.912 209.863 234.084C211.857 233.256 213.67 232.043 215.195 230.514C216.721 228.986 217.931 227.171 218.755 225.175C219.58 223.179 220.003 221.04 220 218.88V133.79C219.996 131.366 219.456 128.973 218.419 126.783C217.382 124.592 215.873 122.659 214 121.12Z" fill="white"/>
</g>
<path d="M196.77 100.58H153.91V114.3H196.77V100.58Z" fill="#D2E059"/>
<path d="M210 133.78V218.88C210.001 219.722 209.836 220.557 209.515 221.336C209.193 222.115 208.721 222.823 208.126 223.419C207.531 224.015 206.824 224.488 206.045 224.811C205.267 225.134 204.433 225.3 203.59 225.3H51.5899C49.8872 225.3 48.2543 224.623 47.0503 223.419C45.8463 222.215 45.1699 220.582 45.1699 218.88V133.78C45.1694 132.152 45.79 130.586 46.905 129.4C48.02 128.215 49.5454 127.499 51.1699 127.4V118.15C51.1699 117.132 51.5728 116.156 52.2905 115.434C53.0082 114.713 53.9823 114.305 54.9999 114.3H200.14C201.161 114.3 202.14 114.705 202.862 115.427C203.584 116.149 203.99 117.129 203.99 118.15V127.4C205.616 127.497 207.144 128.211 208.261 129.397C209.378 130.583 210 132.151 210 133.78Z" fill="#A8B7FC"/>
<path d="M209.98 138.19H45.1199V214.47H209.98V138.19Z" fill="#69A6A9"/>
<path d="M157.85 193.265C167.314 176.531 161.42 155.293 144.686 145.829C127.952 136.365 106.714 142.259 97.25 158.993C87.7861 175.727 93.6798 196.965 110.414 206.429C127.148 215.893 148.386 209.999 157.85 193.265Z" fill="#A8B7FC"/>
<path d="M146.364 186.494C152.082 176.107 148.297 163.05 137.909 157.332C127.521 151.615 114.465 155.4 108.747 165.788C103.029 176.176 106.815 189.232 117.202 194.95C127.59 200.668 140.647 196.882 146.364 186.494Z" fill="#95CCCB"/>
<path d="M127.55 151.47C122.673 151.472 117.906 152.92 113.852 155.631C109.798 158.342 106.639 162.194 104.774 166.7C102.909 171.206 102.422 176.164 103.375 180.947C104.328 185.73 106.677 190.123 110.126 193.571C113.575 197.019 117.969 199.366 122.753 200.317C127.536 201.268 132.494 200.779 136.999 198.912C141.505 197.045 145.355 193.885 148.065 189.83C150.774 185.774 152.22 181.007 152.22 176.13C152.212 169.591 149.61 163.321 144.985 158.698C140.36 154.075 134.089 151.476 127.55 151.47ZM127.55 197.6C123.303 197.604 119.15 196.348 115.616 193.992C112.083 191.635 109.328 188.283 107.7 184.36C106.072 180.438 105.644 176.12 106.47 171.954C107.296 167.788 109.339 163.96 112.341 160.956C115.343 157.951 119.169 155.904 123.334 155.074C127.499 154.244 131.817 154.668 135.742 156.293C139.666 157.917 143.02 160.669 145.38 164.2C147.74 167.731 149 171.883 149 176.13C148.995 181.819 146.734 187.274 142.713 191.299C138.692 195.324 133.239 197.59 127.55 197.6Z" fill="white"/>
<path d="M80.2898 127.37H61.5298C60.347 127.37 59.2125 126.9 58.3761 126.064C57.5397 125.227 57.0698 124.093 57.0698 122.91C57.0698 121.727 57.5397 120.593 58.3761 119.757C59.2125 118.92 60.347 118.45 61.5298 118.45H80.2898C80.8759 118.449 81.4564 118.563 81.9982 118.787C82.5399 119.011 83.0321 119.339 83.4465 119.754C83.8609 120.168 84.1893 120.66 84.413 121.202C84.6367 121.744 84.7511 122.324 84.7498 122.91C84.7498 124.093 84.2799 125.227 83.4435 126.064C82.6071 126.9 81.4727 127.37 80.2898 127.37Z" fill="white"/>
<path d="M141.46 110.6H113.64V138.2H141.46V110.6Z" fill="#D2E059"/>
<path d="M137.33 114.69H117.77V134.1H137.33V114.69Z" fill="white"/>
<path d="M191.18 42.1499H158.39C150.465 42.1499 144.04 48.5746 144.04 56.4999V89.2899C144.04 97.2152 150.465 103.64 158.39 103.64H191.18C199.105 103.64 205.53 97.2152 205.53 89.2899V56.4999C205.53 48.5746 199.105 42.1499 191.18 42.1499Z" fill="#69A6A9"/>
<path d="M188.13 47.54H161.43C154.802 47.54 149.43 52.9126 149.43 59.54V86.24C149.43 92.8675 154.802 98.24 161.43 98.24H188.13C194.757 98.24 200.13 92.8675 200.13 86.24V59.54C200.13 52.9126 194.757 47.54 188.13 47.54Z" fill="#95CCCB"/>
<path d="M186.87 51.8604H162.7C157.757 51.8604 153.75 55.8674 153.75 60.8104V84.9804C153.75 89.9233 157.757 93.9304 162.7 93.9304H186.87C191.813 93.9304 195.82 89.9233 195.82 84.9804V60.8104C195.82 55.8674 191.813 51.8604 186.87 51.8604Z" fill="white"/>
<path d="M80.33 172.25C80.8274 173.195 81.0092 174.274 80.8488 175.33C80.6884 176.386 80.1941 177.363 79.4384 178.117C78.6828 178.872 77.7054 179.364 76.6493 179.523C75.5933 179.682 74.5142 179.499 73.57 179C73.2587 180.027 72.6255 180.926 71.7639 181.565C70.9022 182.204 69.8578 182.549 68.785 182.549C67.7121 182.549 66.6677 182.204 65.8061 181.565C64.9444 180.926 64.3112 180.027 64 179C63.0533 179.512 61.9668 179.705 60.9018 179.55C59.8368 179.395 58.8502 178.9 58.0886 178.14C57.3271 177.38 56.8312 176.394 56.6747 175.329C56.5182 174.264 56.7094 173.177 57.22 172.23C56.1893 171.921 55.2857 171.289 54.6432 170.426C54.0008 169.563 53.6538 168.516 53.6538 167.44C53.6538 166.364 54.0008 165.317 54.6432 164.454C55.2857 163.591 56.1893 162.958 57.22 162.65C56.7214 161.703 56.5397 160.622 56.7015 159.564C56.8633 158.506 57.3601 157.528 58.1189 156.774C58.8777 156.02 59.8585 155.529 60.9171 155.373C61.9757 155.218 63.0562 155.406 64 155.91C64.3112 154.883 64.9444 153.984 65.8061 153.345C66.6677 152.705 67.7121 152.36 68.785 152.36C69.8578 152.36 70.9022 152.705 71.7639 153.345C72.6255 153.984 73.2587 154.883 73.57 155.91C74.5152 155.409 75.5963 155.224 76.6544 155.382C77.7125 155.541 78.6918 156.035 79.4484 156.791C80.205 157.548 80.6989 158.527 80.8576 159.585C81.0162 160.644 80.8313 161.725 80.33 162.67C81.3606 162.978 82.2642 163.611 82.9067 164.474C83.5491 165.337 83.8961 166.384 83.8961 167.46C83.8961 168.536 83.5491 169.583 82.9067 170.446C82.2642 171.309 81.3606 171.941 80.33 172.25Z" fill="white"/>
<path d="M68.7797 173.79C72.2757 173.79 75.1097 170.956 75.1097 167.46C75.1097 163.964 72.2757 161.13 68.7797 161.13C65.2837 161.13 62.4497 163.964 62.4497 167.46C62.4497 170.956 65.2837 173.79 68.7797 173.79Z" fill="#FFEA61"/>
<path d="M196.13 189.93C195.819 190.957 195.185 191.856 194.324 192.495C193.462 193.135 192.418 193.48 191.345 193.48C190.272 193.48 189.228 193.135 188.366 192.495C187.504 191.856 186.871 190.957 186.56 189.93C185.614 190.435 184.532 190.623 183.471 190.467C182.411 190.31 181.429 189.816 180.67 189.059C179.911 188.301 179.416 187.32 179.258 186.26C179.099 185.199 179.286 184.116 179.79 183.17C178.759 182.862 177.856 182.229 177.213 181.366C176.571 180.503 176.224 179.456 176.224 178.38C176.224 177.304 176.571 176.257 177.213 175.394C177.856 174.531 178.759 173.899 179.79 173.59C179.282 172.644 179.092 171.559 179.249 170.496C179.406 169.434 179.9 168.45 180.66 167.69C181.419 166.931 182.403 166.436 183.466 166.279C184.529 166.123 185.613 166.312 186.56 166.82C186.871 165.793 187.504 164.894 188.366 164.255C189.228 163.616 190.272 163.271 191.345 163.271C192.418 163.271 193.462 163.616 194.324 164.255C195.185 164.894 195.819 165.793 196.13 166.82C197.076 166.312 198.161 166.123 199.224 166.279C200.286 166.436 201.27 166.931 202.03 167.69C202.789 168.45 203.284 169.434 203.441 170.496C203.597 171.559 203.408 172.644 202.9 173.59C203.923 173.904 204.818 174.538 205.454 175.398C206.09 176.258 206.433 177.3 206.433 178.37C206.433 179.44 206.09 180.482 205.454 181.342C204.818 182.202 203.923 182.836 202.9 183.15C203.408 184.096 203.597 185.181 203.441 186.244C203.284 187.307 202.789 188.29 202.03 189.05C201.27 189.809 200.286 190.304 199.224 190.461C198.161 190.618 197.076 190.428 196.13 189.92V189.93Z" fill="white"/>
<path d="M186.87 173.91C187.755 173.023 188.882 172.418 190.111 172.173C191.339 171.927 192.613 172.051 193.77 172.53C194.928 173.009 195.918 173.82 196.614 174.861C197.31 175.903 197.682 177.127 197.682 178.38C197.682 179.632 197.31 180.857 196.614 181.898C195.918 182.94 194.928 183.751 193.77 184.23C192.613 184.708 191.339 184.833 190.111 184.587C188.882 184.341 187.755 183.737 186.87 182.85C185.687 181.663 185.022 180.056 185.022 178.38C185.022 176.704 185.687 175.096 186.87 173.91Z" fill="#FFEA61"/>
<path d="M164.7 143C164.192 143.946 164.002 145.031 164.159 146.094C164.316 147.156 164.811 148.14 165.57 148.9C166.33 149.659 167.313 150.154 168.376 150.311C169.439 150.467 170.523 150.278 171.47 149.77C171.781 150.796 172.414 151.696 173.276 152.335C174.138 152.974 175.182 153.319 176.255 153.319C177.328 153.319 178.372 152.974 179.234 152.335C180.095 151.696 180.729 150.796 181.04 149.77C181.985 150.275 183.068 150.463 184.129 150.306C185.189 150.149 186.171 149.656 186.93 148.898C187.688 148.141 188.183 147.159 188.342 146.099C188.5 145.039 188.314 143.956 187.81 143.01C188.812 142.659 189.684 142.014 190.314 141.159C190.944 140.305 191.301 139.28 191.34 138.22H182.58C182.614 139.071 182.475 139.921 182.173 140.718C181.87 141.515 181.41 142.243 180.819 142.857C180.228 143.472 179.52 143.961 178.735 144.295C177.951 144.629 177.107 144.801 176.255 144.801C175.402 144.801 174.559 144.629 173.775 144.295C172.99 143.961 172.282 143.472 171.691 142.857C171.1 142.243 170.64 141.515 170.337 140.718C170.035 139.921 169.896 139.071 169.93 138.22H161.16C161.201 139.28 161.561 140.303 162.193 141.156C162.824 142.008 163.698 142.651 164.7 143Z" fill="white"/>
<path d="M171.78 142.67C172.666 143.553 173.794 144.155 175.021 144.397C176.248 144.64 177.52 144.514 178.675 144.035C179.831 143.556 180.819 142.745 181.514 141.704C182.208 140.664 182.58 139.441 182.58 138.19H169.93C169.928 139.022 170.09 139.846 170.408 140.615C170.725 141.384 171.192 142.082 171.78 142.67Z" fill="#FFEA61"/>
<path d="M95.4298 209.69C95.9377 208.744 96.1273 207.659 95.9706 206.596C95.8139 205.534 95.3191 204.55 94.5596 203.79C93.8001 203.031 92.8163 202.536 91.7536 202.379C90.691 202.223 89.6062 202.412 88.6598 202.92C88.3486 201.893 87.7154 200.994 86.8537 200.355C85.992 199.716 84.9476 199.371 83.8748 199.371C82.8019 199.371 81.7575 199.716 80.8959 200.355C80.0342 200.994 79.401 201.893 79.0898 202.92C78.1443 202.415 77.0615 202.227 76.001 202.384C74.9406 202.541 73.9586 203.034 73.2 203.792C72.4414 204.549 71.9464 205.53 71.7879 206.591C71.6294 207.651 71.8159 208.734 72.3198 209.68C71.3185 210.033 70.446 210.678 69.815 211.532C69.1839 212.386 68.8234 213.409 68.7798 214.47H77.5498C77.5159 213.618 77.6544 212.769 77.957 211.972C78.2596 211.175 78.7201 210.447 79.3107 209.832C79.9014 209.218 80.6101 208.729 81.3944 208.395C82.1787 208.061 83.0223 207.889 83.8748 207.889C84.7272 207.889 85.5709 208.061 86.3552 208.395C87.1394 208.729 87.8482 209.218 88.4388 209.832C89.0295 210.447 89.49 211.175 89.7925 211.972C90.0951 212.769 90.2337 213.618 90.1998 214.47H98.9998C98.956 213.406 98.5917 212.381 97.9546 211.528C97.3175 210.675 96.4374 210.034 95.4298 209.69Z" fill="white"/>
<path d="M79.3998 210C78.2166 211.187 77.5514 212.794 77.5498 214.47H90.1998C90.1974 213.22 89.8249 211.998 89.1292 210.959C88.4335 209.921 87.4458 209.111 86.2906 208.633C85.1354 208.155 83.8645 208.03 82.6382 208.273C81.4118 208.516 80.285 209.117 79.3998 210Z" fill="#FFEA61"/>
<defs>
<filter id="filter0_d_879_3744" x="14.1499" y="14.1499" width="240.85" height="259.19" filterUnits="userSpaceOnUse" color-interpolation-filters="sRGB">
<feFlood flood-opacity="0" result="BackgroundImageFix"/>
<feColorMatrix in="SourceAlpha" type="matrix" values="0 0 0 0 0 0 0 0 0 0 0 0 0 0 0 0 0 0 127 0" result="hardAlpha"/>
<feOffset dx="7" dy="10"/>
<feGaussianBlur stdDeviation="14"/>
<feColorMatrix type="matrix" values="0 0 0 0 0 0 0 0 0 0 0 0 0 0 0 0 0 0 0.25 0"/>
<feBlend mode="normal" in2="BackgroundImageFix" result="effect1_dropShadow_879_3744"/>
<feBlend mode="normal" in="SourceGraphic" in2="effect1_dropShadow_879_3744" result="shape"/>
</filter>
</defs>
</svg>
