<svg width="180" height="312" viewBox="0 0 180 312" fill="none" xmlns="http://www.w3.org/2000/svg">
<g filter="url(#filter0_d_879_3734)">
<path d="M42.8183 180.2C42.3183 187.09 48.2983 226.59 50.0283 232.35C52.8483 241.69 57.1083 255.8 76.4783 258.51C80.658 259.016 84.8714 259.186 89.0783 259.02C90.1383 259.02 91.1983 259.02 92.3283 259.02C93.1183 259.02 93.9383 259.02 94.7983 259.02C100.648 259.02 107.908 258.26 114.308 251.29C119.698 245.42 122.498 237.83 124.728 230.49C127.138 222.49 128.728 206.77 130.188 189.95C130.438 187.11 130.658 184.64 130.848 182.78C130.848 182.47 130.848 182.16 130.918 181.85C131.053 179.045 130.466 176.253 129.212 173.74C127.958 171.227 126.08 169.079 123.758 167.5C124.878 163.33 125.848 159.17 126.758 155.09C127.758 150.76 128.708 146.66 129.818 142.63C133.718 128.44 135.818 116.84 136.598 106.13C137.858 87.7798 134.488 73.7798 126.598 64.4998C123.405 60.7819 119.515 57.7245 115.148 55.4998C117.708 49.6798 116.948 43.7198 113.018 39.3698C111.754 38.0174 110.209 36.9584 108.492 36.2674C106.775 35.5763 104.927 35.2699 103.078 35.3698C101.903 34.3075 100.548 33.4612 99.0783 32.8698C95.9896 31.6359 92.5379 31.6755 89.4783 32.9798C86.4311 31.7424 83.0202 31.7496 79.9783 32.9998C78.4358 33.5692 77.0143 34.4241 75.7883 35.5198C73.9804 35.4332 72.1748 35.7346 70.4931 36.4039C68.8114 37.0731 67.2924 38.0947 66.0383 39.3998C63.7883 41.7398 59.8983 47.5298 63.8983 56.1298C58.1458 58.9268 53.1998 63.1417 49.526 68.3778C45.8521 73.6139 43.5713 79.6989 42.8983 86.0598C42.2083 90.0598 38.6283 116.45 52.9783 166.06C47.7783 169 43.2983 173.71 42.8183 180.2Z" fill="white"/>
</g>
<path d="M85.1082 169.85C77.1086 169.728 69.1381 170.841 61.4782 173.15C58.2682 174.15 53.0882 177.02 52.7982 180.93C52.4282 185.93 58.0682 224.36 59.6082 229.46C62.7882 240 65.8982 246.94 77.8982 248.61C81.5489 249.029 85.2269 249.159 88.8982 249C95.8982 248.86 101.738 250.24 106.958 244.55C111.158 239.99 113.388 233.48 115.168 227.62C118.028 218.17 119.918 191.62 120.908 181.81V181.43C121.448 169.88 92.1082 169.85 85.1082 169.85Z" fill="#BD93DD"/>
<path d="M113.568 181.45C113.568 181.52 113.568 181.6 113.568 181.67C112.678 188.19 90.8885 188.23 85.4385 188.23C78.7985 188.23 69.2285 188.01 63.1785 185.7C55.7185 182.86 61.5185 177.88 66.8685 176.59C72.9626 175.228 79.1945 174.58 85.4385 174.66C90.8985 174.66 113.978 174.68 113.568 181.45Z" fill="#ECCCBA"/>
<path d="M126.658 105.49C125.868 117.14 123.328 128.7 120.218 140.03C116.648 153.03 114.608 166.75 109.318 179.34C108.692 180.838 107.564 182.072 106.128 182.83C105.47 183.185 104.757 183.429 104.018 183.55C102.818 183.76 101.608 183.94 100.428 184.08C97.3356 184.461 94.224 184.668 91.1082 184.7C89.9582 184.7 88.8282 184.7 87.7382 184.7C84.1682 184.61 80.9682 184.32 78.2882 183.99C76.0182 183.71 74.1282 183.39 72.7382 183.13C71.487 182.894 70.3216 182.328 69.3618 181.492C68.4021 180.655 67.6828 179.577 67.2782 178.37C46.7982 117.08 52.7782 87.5802 52.7782 87.5802C56.3482 57.7802 92.2482 60.4202 92.2482 60.4202C102.708 60.4202 112.668 63.6802 119.008 71.0902C126.738 80.1102 127.408 94.6502 126.658 105.49Z" fill="#BECD1B"/>
<path d="M78.2383 183.87V183.96C75.9683 183.68 74.0783 183.36 72.6883 183.1C38.5683 60.3902 85.0983 62.4602 85.0983 62.4602C85.0983 62.4602 50.1783 75.0002 78.2383 183.87Z" fill="#D2E059"/>
<path d="M106.128 182.83C105.47 183.185 104.757 183.429 104.018 183.55C102.818 183.76 101.608 183.94 100.428 184.08L100.558 183.87C128.608 75.0002 93.6982 62.4602 93.6982 62.4602C93.6982 62.4602 140.148 60.3902 106.128 182.83Z" fill="#D2E059"/>
<path d="M91.1884 184.23L91.1084 184.7C89.9584 184.7 88.8284 184.7 87.7384 184.7L87.6784 184.26C78.9284 103.26 89.4284 63.7998 89.4284 63.7998C89.4284 63.7998 99.8984 103.19 91.1884 184.23Z" fill="#D2E059"/>
<path d="M105.668 46.1999C105.668 46.1999 102.498 42.6999 97.2284 50.9999C98.0984 46.9999 98.0484 43.2899 95.3284 42.2899C95.3284 42.2899 90.9184 40.2899 89.4984 50.3899C88.0684 40.3199 83.6584 42.2899 83.6584 42.2899C80.9484 43.2399 80.8984 46.9999 81.7584 50.9999C76.5984 42.9099 73.4584 46.1099 73.3284 46.2499C70.3284 49.4499 73.9884 54.1999 76.1484 56.7199C77.5284 58.3299 78.7884 60.0399 80.3184 61.5199C81.1184 62.2799 82.9284 64.4599 89.4284 64.7899C91.5684 64.8999 95.7384 63.6299 97.3584 62.1199C99.1014 60.5153 100.745 58.8054 102.278 56.9999C104.388 54.4499 108.598 49.4499 105.668 46.1999Z" fill="#F77C7A"/>
<defs>
<filter id="filter0_d_879_3734" x="21" y="13.9722" width="150.856" height="283.109" filterUnits="userSpaceOnUse" color-interpolation-filters="sRGB">
<feFlood flood-opacity="0" result="BackgroundImageFix"/>
<feColorMatrix in="SourceAlpha" type="matrix" values="0 0 0 0 0 0 0 0 0 0 0 0 0 0 0 0 0 0 127 0" result="hardAlpha"/>
<feOffset dx="7" dy="10"/>
<feGaussianBlur stdDeviation="14"/>
<feColorMatrix type="matrix" values="0 0 0 0 0 0 0 0 0 0 0 0 0 0 0 0 0 0 0.25 0"/>
<feBlend mode="normal" in2="BackgroundImageFix" result="effect1_dropShadow_879_3734"/>
<feBlend mode="normal" in="SourceGraphic" in2="effect1_dropShadow_879_3734" result="shape"/>
</filter>
</defs>
</svg>
