<svg width="188" height="317" viewBox="0 0 188 317" fill="none" xmlns="http://www.w3.org/2000/svg">
<g filter="url(#filter0_d_879_3715)">
<path d="M50.78 190.73H51.12C53.6971 190.714 56.2297 190.058 58.49 188.82L75.49 254.35C76.21 257.148 77.8415 259.626 80.1268 261.394C82.4121 263.161 85.221 264.117 88.11 264.11H88.17C91.0686 264.104 93.8819 263.129 96.163 261.341C98.4441 259.553 100.062 257.053 100.76 254.24L126.85 149.81C140.08 140.87 139.54 129.05 137.85 122.46C137.452 120.884 136.879 119.358 136.14 117.91C136.667 115.564 136.722 113.138 136.304 110.77C135.885 108.403 135 106.142 133.7 104.12C133.112 103.177 132.461 102.275 131.75 101.42C132.024 98.8469 131.776 96.245 131.02 93.7701C130.013 90.4353 128.04 87.4739 125.35 85.2601L134 49.7101C134.78 46.4746 134.244 43.0617 132.51 40.2211C130.775 37.3805 127.984 35.3445 124.75 34.5601L116.61 32.5601C113.376 31.7824 109.966 32.3183 107.126 34.0502C104.286 35.7821 102.249 38.5689 101.46 41.8001L98.84 52.5001C96.448 51.4175 93.9693 50.5377 91.43 49.8701C89.8719 49.4713 88.2406 49.4542 86.6745 49.8203C85.1083 50.1864 83.6536 50.9249 82.4337 51.973C81.2138 53.0212 80.2647 54.3481 79.667 55.8412C79.0692 57.3344 78.8404 58.9497 79 60.5501C78.57 61.8301 76.3 64.2101 72.24 67.6401C69.67 69.8001 67 71.8301 64.13 74.0001C62.45 75.2601 60.77 76.5301 59.13 77.8301C56.28 80.0501 47.61 86.8301 48.13 97.3401C48.1766 98.1695 48.2802 98.9948 48.44 99.8101C48.25 100.05 48.07 100.3 47.89 100.55C45.78 103.542 44.5063 107.042 44.2 110.69C43.955 113.081 44.1447 115.497 44.76 117.82C41.7061 121.82 40.229 126.802 40.61 131.82C40.7133 133.041 40.9173 134.252 41.22 135.44C39.4735 138.148 38.3972 141.233 38.08 144.44C37.5894 148.53 38.4536 152.668 40.54 156.22C39.9333 157.169 39.3792 158.15 38.88 159.16C36.8959 162.965 35.6346 167.105 35.16 171.37C34.8517 173.934 35.0782 176.533 35.8252 179.005C36.5722 181.476 37.8234 183.766 39.5 185.73C40.9262 187.306 42.6669 188.565 44.6099 189.426C46.5528 190.287 48.6548 190.732 50.78 190.73Z" fill="white"/>
</g>
<path d="M108.72 111.46L95.6201 108.29L111.14 44.1902C111.219 43.8644 111.361 43.5573 111.558 43.2864C111.756 43.0156 112.004 42.7863 112.29 42.6117C112.576 42.4371 112.894 42.3206 113.225 42.2689C113.556 42.2171 113.894 42.2311 114.22 42.3102L122.36 44.3102C122.686 44.3888 122.993 44.5308 123.264 44.7282C123.535 44.9256 123.764 45.1744 123.939 45.4605C124.113 45.7465 124.23 46.0642 124.281 46.3953C124.333 46.7264 124.319 47.0645 124.24 47.3902L108.72 111.46Z" fill="#D2E059"/>
<path d="M85.1599 251.84L56.4099 141L118.67 141.24L91.0499 251.81C90.9207 252.494 90.5574 253.112 90.0223 253.558C89.4872 254.004 88.8137 254.25 88.1173 254.253C87.4208 254.257 86.7449 254.018 86.2053 253.578C85.6657 253.137 85.2961 252.523 85.1599 251.84Z" fill="#C5755C"/>
<path d="M50.0799 140.18C48.938 141.729 48.2459 143.563 48.0799 145.48C46.9599 156.01 60.3099 156.88 67.7499 156.59C81.9099 156.05 95.5199 151.43 108.89 147.11C119.1 143.82 131.55 138.11 128.2 124.93C123.11 104.93 82.0099 130.66 74.1399 132.11C66.9999 133.42 54.9299 133.79 50.0799 140.18Z" fill="#FFD4CC"/>
<path d="M52.88 137C51.565 135.257 50.7741 133.176 50.6 131C50.12 125.18 54.94 120.62 59.71 118.15C65.09 115.36 71.18 114.15 77.12 113.15C89.41 111.22 115.63 93.9898 125.2 109.41C128.05 114 126.11 118.49 122.53 121.95C116.59 127.68 107.53 129.68 99.86 132.12C92.52 134.46 85.14 136.72 77.61 138.36C74.08 139.12 70.52 139.71 66.95 140.21C63.61 140.67 59.95 141.11 56.76 139.91C55.2183 139.325 53.8733 138.316 52.88 137Z" fill="#FDC0BB"/>
<path d="M56.0601 106.32C54.9692 107.878 54.3197 109.703 54.1801 111.6C53.2701 121.3 64.2601 122.6 71.4901 122.22C82.93 121.69 94.4901 118.35 105.05 114.12C110.52 111.93 117.21 109.98 120.41 104.59C122.97 100.28 122.21 94.2398 117.41 91.9598C112.25 89.5298 105.59 90.7498 100.19 91.5498C92.7001 92.6398 86 96.9998 78.59 98.3998C71.9 99.6698 60.5801 99.9998 56.0601 106.32Z" fill="#F99595"/>
<path d="M59.7901 100.84C58.7794 99.7188 58.1953 98.2781 58.1401 96.7698C57.8801 92.0398 61.8501 88.3398 65.2601 85.6798C69.7301 82.1898 74.3401 78.9498 78.6801 75.2698C83.6001 71.1098 89.6801 65.6798 88.9301 59.5498C94.0615 60.9411 98.8511 63.375 103 66.6998C108.62 71.3798 117.46 80.8698 113.76 88.8898C111.76 93.2598 107.14 96.0598 102.76 97.6598C97.2901 99.6598 91.4701 100.57 85.7601 101.78C80.0501 102.99 74.1201 104.53 68.2101 104.16C65.2501 104 61.7901 103.05 59.7901 100.84Z" fill="#F77C7A"/>
<path d="M84.1 78.1899C85.1885 79.8997 86.5001 81.4567 88 82.8199C88.21 83.0299 89.18 81.6799 88.83 81.3399C87.363 80.013 86.0754 78.5002 85 76.8399C84.8 76.4999 83.84 77.8399 84.07 78.1899H84.1Z" fill="#FFEA61"/>
<path d="M95.3199 72.54C94.9064 74.5259 94.234 76.449 93.3199 78.26C93.0999 78.66 94.6699 79.26 94.9599 78.7C95.8881 76.8981 96.574 74.9815 96.9999 73C97.1399 72.46 95.4999 72 95.3599 72.55L95.3199 72.54Z" fill="#FFEA61"/>
<path d="M101.1 77.67C101.59 79.67 102.73 81.45 102.95 83.51C102.95 83.93 104.62 83.51 104.56 82.95C104.33 80.89 103.2 79.1 102.71 77.11C102.6 76.65 100.98 77.11 101.1 77.67Z" fill="#FFEA61"/>
<path d="M68.1899 91.5498C69.7399 92.8898 71.6999 93.6798 73.0799 95.2298C73.3599 95.5398 74.4399 94.2298 74.0799 93.8398C72.6999 92.2998 70.7499 91.4998 69.1899 90.1598C68.8299 89.8498 67.8099 91.1598 68.1899 91.5498Z" fill="#FFEA61"/>
<path d="M79.6901 86.5099C78.1801 86.2499 76.6901 86.0199 75.1401 85.7499C74.6801 85.6699 74.9901 87.2899 75.4401 87.3699C76.9501 87.6399 78.4401 87.8699 79.9901 88.1399C80.4501 88.2199 80.1401 86.5899 79.6901 86.5099Z" fill="#FFEA61"/>
<path d="M82.43 89.1698C82.152 90.9666 82.0083 92.7817 82 94.5998C82 95.1498 83.57 94.7298 83.61 94.2398C83.605 92.4227 83.7354 90.6076 84 88.8098C84.11 88.3198 82.51 88.6698 82.39 89.1698H82.43Z" fill="#FFEA61"/>
<path d="M94.85 82.83C95.9955 84.0357 97.0485 85.326 98 86.69C98.47 87.35 99.64 86.15 99.25 85.6C98.2574 84.1534 97.1541 82.786 95.95 81.51C95.46 81.01 94.36 82.3 94.88 82.83H94.85Z" fill="#FFEA61"/>
<path d="M93.0001 89.13C91.3001 89.99 89.6001 90.88 87.8901 91.73C87.3401 92.01 88.2301 93.45 88.8301 93.15C90.5401 92.29 92.2301 91.41 93.9401 90.55C94.5001 90.28 93.6001 88.83 93.0001 89.13Z" fill="#FFEA61"/>
<path d="M109.79 84.21C108.883 85.7025 107.757 87.0508 106.45 88.21C106.22 88.4 107.45 89.54 107.81 89.21C109.117 88.0533 110.239 86.7045 111.14 85.21C111.38 84.85 110 83.86 109.79 84.21Z" fill="#FFEA61"/>
<path d="M56.83 172.36C56.4937 169.327 55.6022 166.381 54.2 163.67C53.74 162.75 51.98 159.47 51.03 159.46C50.08 159.45 48.29 162.73 47.83 163.64C46.4071 166.344 45.492 169.286 45.13 172.32C44.76 176.18 46.39 180.71 50.94 180.73C55.5 180.74 57.17 176.23 56.83 172.36Z" fill="#FFD4CC"/>
<defs>
<filter id="filter0_d_879_3715" x="14.0264" y="14.2117" width="159.696" height="287.898" filterUnits="userSpaceOnUse" color-interpolation-filters="sRGB">
<feFlood flood-opacity="0" result="BackgroundImageFix"/>
<feColorMatrix in="SourceAlpha" type="matrix" values="0 0 0 0 0 0 0 0 0 0 0 0 0 0 0 0 0 0 127 0" result="hardAlpha"/>
<feOffset dx="7" dy="10"/>
<feGaussianBlur stdDeviation="14"/>
<feColorMatrix type="matrix" values="0 0 0 0 0 0 0 0 0 0 0 0 0 0 0 0 0 0 0.25 0"/>
<feBlend mode="normal" in2="BackgroundImageFix" result="effect1_dropShadow_879_3715"/>
<feBlend mode="normal" in="SourceGraphic" in2="effect1_dropShadow_879_3715" result="shape"/>
</filter>
</defs>
</svg>
