<svg width="254" height="312" viewBox="0 0 254 312" fill="none" xmlns="http://www.w3.org/2000/svg">
<g filter="url(#filter0_d_879_3693)">
<path d="M197.45 148.46C195.958 147.915 194.372 147.676 192.786 147.759C191.2 147.841 189.647 148.243 188.22 148.94C188.22 147.64 188.31 146.34 188.4 144.99C188.69 140.3 189.06 134.45 186.14 127.77C184.366 123.834 181.551 120.456 178 118C177.66 111.93 175.64 107.9 173.31 105.25C172.765 104.06 172.13 102.913 171.41 101.82L171.13 101.38C166.821 94.2751 161.305 87.9772 154.83 82.7698C154.71 77.8998 153.63 73.1598 150.01 69.9298C148.642 68.7001 147.005 67.8081 145.23 67.3253C143.456 66.8425 141.592 66.7824 139.79 67.1498C136.903 67.8248 134.181 69.0766 131.79 70.8298C125.473 69.1629 118.865 68.9136 112.44 70.0998L112.38 69.9898C110.9 67.4198 109.29 64.6498 107.63 61.8398C105.63 58.5098 103.72 55.3298 101.86 52.3798C100 49.4298 98.26 46.7698 96.71 44.5298C91.71 37.3298 86.96 31.4298 79.81 32.1598C78.3664 32.3099 76.9688 32.7536 75.703 33.4639C74.4373 34.1741 73.3303 35.1358 72.45 36.2898C69.36 40.2898 69.01 45.3898 70.94 58.1598C71.43 61.4298 72.08 65.1598 72.86 69.2798C73.53 72.7798 74.26 76.4198 75.03 80.0698C75.8 83.7198 76.66 87.6498 77.49 91.2698C77.85 92.8698 78.18 94.2698 78.49 95.5698C77.82 96.3598 77.18 97.1598 76.56 97.9798C72.5367 103.344 67.6097 107.966 62 111.64C60.73 112.46 59.42 113.26 58.11 114.07L56.82 114.86L56.45 115.08C50.04 119.08 42.83 123.98 38.45 132.08C32.35 143.37 34.73 157.14 44.09 164.83C52.6 171.83 63.97 171.31 72.27 170.94L73.27 170.89C74.59 170.89 75.97 170.8 77.27 170.8C78.1169 171.306 78.9227 171.878 79.68 172.51C80.31 173.01 81.03 173.58 81.84 174.16C80.84 178.5 79.93 183.39 79.34 186.65C79.11 187.91 78.94 188.86 78.84 189.29C78.25 191.82 77.59 194.36 76.9 197.05C74.17 207.57 71.09 219.49 72.23 231.74C73.71 247.44 83.55 257.36 99.23 258.96C102.165 259.244 105.112 259.381 108.06 259.37C110.94 259.37 113.78 259.26 116.57 259.17C118.77 259.09 120.84 259.01 122.88 258.99C125.52 258.99 128.16 258.99 130.96 259.06C138.78 259.2 146.86 259.35 155.12 257.74C163.199 259.044 171.484 257.891 178.9 254.43C186.28 250.87 191.31 246.09 193.9 240.23C195.218 237.446 195.727 234.349 195.37 231.29C195.118 228.956 194.168 226.752 192.642 224.967C191.116 223.183 189.087 221.901 186.82 221.29L186.41 221.2C187.574 219.944 188.646 218.608 189.62 217.2C193.131 211.958 195.038 205.808 195.11 199.5C195.28 191.5 192.91 184.55 188.61 179.83C188.61 179.77 188.61 179.72 188.61 179.66C193.636 177.75 198.008 174.439 201.21 170.12C202.78 167.85 205.35 163.27 204.82 158.12C204.609 155.984 203.808 153.95 202.507 152.243C201.205 150.537 199.454 149.227 197.45 148.46Z" fill="white"/>
</g>
<path d="M154.87 247.55L154.28 247.69C143.97 249.94 133.28 248.87 122.72 248.99C115.28 249.07 107.65 249.77 100.21 248.99C89.31 247.88 83.21 241.64 82.21 230.79C80.97 217.52 85.63 204.26 88.6 191.55C89.16 189.17 92.41 168.55 94.66 168.36C87.32 168.83 84.76 160.82 77.41 160.77C75.99 160.77 74.5 160.82 72.94 160.88C73.0097 157.731 72.1241 154.635 70.4 152C65.35 143.75 56.7 133.09 61.7 123.54C63.62 122.35 65.54 121.2 67.39 120.01C73.9752 115.702 79.7642 110.285 84.5 104C85.9939 102.029 87.6389 100.176 89.42 98.46C92.6528 95.2998 96.3116 92.6071 100.29 90.46C99.8107 92.1805 99.9815 94.0173 100.77 95.62C102.6 99.17 107.33 100.95 111.06 99.94L111.61 99.77C113.19 99.2 112.61 98.52 111.61 97.94C110.61 97.36 109.29 96.65 109.09 95.29C108.56 91.74 117.81 92.22 119.51 92.22C136.23 92.22 144.96 114.96 148.39 119.81C148.39 119.81 146.05 127.23 148.39 130.62C148.817 131.224 149.129 131.902 149.31 132.62C148.475 133.594 147.8 134.694 147.31 135.88C141.39 136.69 146.41 144.42 142.36 147.06C140.8 148.06 138.87 148.22 137.26 149.13C136.943 149.277 136.673 149.509 136.48 149.8C136.355 150.053 136.307 150.338 136.341 150.618C136.374 150.899 136.489 151.163 136.67 151.38C138.04 153.24 140.44 153.68 142.84 153.5C142.25 161.02 143.56 168.97 148.99 175.58C147.49 181.37 144.55 190.16 137.47 190.69C136.454 190.697 135.445 190.845 134.47 191.13C129.66 192.89 134.11 198.43 136.95 199.53C141.19 201.19 146.3 200.76 151.14 199.67C152.22 200.79 152.56 202.39 149.67 204.32C141.99 209.44 131.8 217.86 132.58 228.14C133.15 235.72 139.86 241.45 146.25 244.64C148.983 245.984 151.882 246.962 154.87 247.55Z" fill="#FAFAFA"/>
<path d="M70.4001 152C65.3501 143.75 56.6901 133.09 61.7001 123.54C56.0401 127.05 50.4501 130.84 47.2401 136.79C43.6601 143.42 44.4001 152.11 50.4301 157.06C56.2501 161.84 65.2301 161.18 72.9001 160.86C72.9776 157.722 72.1063 154.634 70.4001 152Z" fill="#F99595"/>
<path d="M49.76 141.07C49.762 140.295 49.9936 139.538 50.4255 138.895C50.8575 138.252 51.4704 137.751 52.1868 137.456C52.9033 137.161 53.6911 137.084 54.4509 137.237C55.2106 137.389 55.9082 137.763 56.4554 138.312C57.0026 138.86 57.375 139.559 57.5254 140.319C57.6759 141.079 57.5977 141.867 57.3007 142.583C57.0037 143.298 56.5012 143.91 55.8568 144.34C55.2124 144.77 54.4549 145 53.68 145C53.1644 145 52.6538 144.898 52.1776 144.701C51.7013 144.503 51.2688 144.214 50.9046 143.848C50.5405 143.483 50.2519 143.05 50.0555 142.573C49.8591 142.097 49.7587 141.586 49.76 141.07Z" fill="#FAFAFA"/>
<path d="M103.69 74.9199C98.8727 80.3436 93.3344 85.081 87.23 88.9999C88.5 94.6199 89.42 98.4099 89.42 98.4099C92.6528 95.2498 96.3116 92.5571 100.29 90.4099C101.207 87.2697 103.237 84.5713 106 82.8199C106.521 82.4921 107.065 82.2046 107.63 81.9599C106.55 79.9399 105.19 77.5399 103.69 74.9199Z" fill="#BD93DD"/>
<path d="M88.4901 50.2098C85.0501 45.2698 82.2001 41.9198 80.8401 42.0698C79.2101 42.2398 79.5801 48.4298 80.8401 56.6398C83.6444 54.8186 86.2137 52.659 88.4901 50.2098Z" fill="#F77C7A"/>
<path d="M88.4901 50.21C86.2075 52.6605 83.6314 54.8201 80.8201 56.64C81.3201 59.97 81.9601 63.64 82.6701 67.36C86.7979 64.802 90.4296 61.5193 93.3901 57.67C91.6901 55 90.0001 52.43 88.4901 50.21Z" fill="#FFEA61"/>
<path d="M93.3899 57.6699C90.4294 61.5193 86.7978 64.802 82.6699 67.3599C83.3499 70.9099 84.0799 74.5199 84.8099 77.9699C90.0339 74.957 94.8103 71.2275 98.9999 66.8899C97.1699 63.7799 95.2599 60.6299 93.3899 57.6699Z" fill="#95C2E6"/>
<path d="M99.0001 66.8901C94.8124 71.2383 90.0359 74.978 84.8101 78.0001C85.6601 82.0001 86.5001 85.8501 87.2301 89.0601C93.3364 85.132 98.8748 80.3844 103.69 74.9501C102.24 72.3901 100.65 69.6501 99.0001 66.8901Z" fill="#69A6A9"/>
<path d="M164.52 111.81C164.05 113.38 160.35 116.1 156.66 118.14C153.57 119.84 150.48 121.05 149.29 120.7C148.912 120.494 148.6 120.186 148.39 119.81C145 115 136.23 92.2199 119.51 92.2199C117.81 92.2199 108.51 91.7399 109.09 95.2899C109.29 96.6499 110.53 97.2899 111.61 97.9399C112.69 98.5899 113.19 99.1999 111.61 99.7699L111.06 99.9399C107.33 100.94 102.6 99.1699 100.77 95.6199C99.9817 94.0173 99.8108 92.1805 100.29 90.4599C100.833 88.5988 101.774 86.878 103.048 85.4171C104.323 83.9562 105.9 82.7902 107.67 81.9999C128.47 72.8499 152.09 88.9999 162.55 106.52C163.22 107.64 164.44 109.29 164.61 110.81C164.649 111.146 164.618 111.486 164.52 111.81Z" fill="#D9B1E3"/>
<path d="M167.57 124.74C165.422 125.882 163.788 127.798 163 130.1L162.74 130.01L162.57 129.95L162.41 129.9C162.15 129.82 161.8 129.72 161.41 129.63L161.06 129.55L160.73 129.48L160.33 129.41H160.18L159.69 129.34H159.33H159H158.52C158.353 129.33 158.186 129.33 158.02 129.34C157.245 129.308 156.468 129.345 155.7 129.45L155.18 129.53H154.92C154.65 129.59 154.38 129.65 154.12 129.73C153.86 129.81 153.77 129.83 153.6 129.88C152.178 130.354 150.889 131.159 149.84 132.23L149.72 132.35L149.39 132.72C149.209 132.002 148.897 131.324 148.47 130.72C146.13 127.33 148.47 119.91 148.47 119.91C148.68 120.286 148.992 120.594 149.37 120.8C150.56 121.15 153.65 119.94 156.74 118.24C160.43 116.24 164.13 113.48 164.6 111.91C164.698 111.586 164.728 111.246 164.69 110.91C169.78 114.3 167.57 124.74 167.57 124.74Z" fill="#A573D3"/>
<path d="M179.51 170.88C176 170 172.89 167.07 170.71 164.06L170.65 163.97C170.701 163.478 170.721 162.984 170.71 162.49L170.65 161.73C169.91 154.6 165.99 150.08 165.65 146.3C165.31 142.52 164.46 139.11 164.65 135.85C164.7 135.02 164.75 134.28 164.77 133.63C164.77 131.7 164.54 130.53 163.02 130.1C163.02 130.1 163.86 124.98 167.59 124.74C172.12 124.46 175.79 129.02 177 131.74C179.74 138 178.15 143.04 178.24 149.8C178.29 153.45 179.35 158.41 182.81 160.36C185.99 162.16 189.26 159.53 192.07 158.13C192.342 157.948 192.647 157.822 192.968 157.76C193.29 157.698 193.62 157.701 193.94 157.77C194.201 157.891 194.423 158.081 194.585 158.319C194.747 158.556 194.842 158.833 194.86 159.12C195.03 160.81 193.86 163.05 192.97 164.38C190.42 168.08 184.15 172 179.51 170.88Z" fill="#D9B1E3"/>
<path d="M153.56 147.86C152.258 149.987 150.246 151.584 147.88 152.37C146.266 152.945 144.586 153.315 142.88 153.47C140.48 153.65 138.08 153.21 136.71 151.35C136.529 151.133 136.415 150.868 136.381 150.588C136.347 150.308 136.395 150.023 136.52 149.77C136.713 149.479 136.983 149.247 137.3 149.1C138.91 148.19 140.84 148.04 142.4 147.03C146.4 144.39 141.4 136.66 147.35 135.85C147.48 135.76 149.66 134.27 153.21 137.69C155.81 140.19 155.21 145 153.56 147.86Z" fill="#D9B1E3"/>
<path d="M170.71 162.49C170.721 162.984 170.701 163.478 170.65 163.97C170.443 165.746 169.712 167.421 168.55 168.78C168.463 168.887 168.363 168.997 168.25 169.11C167.924 169.468 167.573 169.802 167.2 170.11L166.86 170.39L166.43 170.71L166.15 170.91L165.91 171.07C165.778 171.172 165.637 171.262 165.49 171.34C164.536 171.936 163.533 172.448 162.49 172.87L162.02 173.06L161.54 173.24L161.14 173.39C160.64 173.56 160.14 173.73 159.62 173.87C158.95 174.07 158.29 174.24 157.62 174.4L156.45 174.65L155.24 174.88C153.188 175.244 151.113 175.461 149.03 175.53C143.6 168.92 142.29 160.97 142.88 153.45C144.586 153.295 146.266 152.925 147.88 152.35C150.246 151.564 152.259 149.967 153.56 147.84C155.21 145.01 155.81 140.17 153.21 137.66C149.66 134.24 147.48 135.73 147.35 135.82C147.84 134.634 148.515 133.534 149.35 132.56L149.68 132.19L149.8 132.07C150.849 130.999 152.138 130.194 153.56 129.72C153.73 129.67 153.9 129.61 154.08 129.57C154.26 129.53 154.61 129.43 154.88 129.37H155.14L155.66 129.29C156.429 129.185 157.205 129.148 157.98 129.18H158.48H158.96H159.29H159.65L160.14 129.25H160.29L160.69 129.32L161.02 129.39L161.37 129.47C161.77 129.56 162.12 129.66 162.37 129.74L162.53 129.79L162.7 129.85L162.96 129.94C164.48 130.37 164.75 131.54 164.71 133.47C164.71 134.12 164.64 134.86 164.59 135.69C164.38 138.95 165.18 142.22 165.59 146.14C166 150.06 169.89 154.44 170.59 161.57L170.71 162.49Z" fill="#BD93DD"/>
<path d="M179.52 170.88C179.506 175.328 178.566 179.725 176.76 183.79C175.438 186.728 173.448 189.316 170.95 191.35C170.463 191.744 169.963 192.114 169.45 192.46L168.89 192.84C168.65 192.99 168.41 193.15 168.17 193.29L167.44 193.73L166.88 194.04L166.48 194.26C166.06 194.48 165.64 194.7 165.21 194.9C164.21 195.4 163.1 195.9 162.02 196.29L161.27 196.57L160.66 196.79L160.32 196.92L158.86 197.42C156.33 198.292 153.756 199.033 151.15 199.64C146.31 200.73 141.15 201.16 136.96 199.5C134.12 198.4 129.67 192.86 134.48 191.1C135.455 190.815 136.464 190.667 137.48 190.66C144.56 190.13 147.48 181.34 149 175.55C151.083 175.481 153.158 175.264 155.21 174.9L156.42 174.67L157.59 174.42C158.25 174.26 158.91 174.09 159.59 173.89C160.1 173.75 160.59 173.58 161.11 173.41L161.51 173.26L161.99 173.08L162.46 172.89C163.503 172.468 164.506 171.957 165.46 171.36C165.607 171.282 165.748 171.192 165.88 171.09L166.12 170.93L166.4 170.73L166.83 170.41L167.17 170.13C167.543 169.822 167.894 169.488 168.22 169.13C168.333 169.017 168.433 168.907 168.52 168.8C169.682 167.441 170.413 165.767 170.62 163.99L170.68 164.08C170.68 164.08 172.11 167.21 179.43 170.87L179.52 170.88Z" fill="#A573D3"/>
<path d="M184.64 236.24C182.78 240.52 178.56 243.47 174.5 245.43C168.36 248.246 161.47 248.99 154.87 247.55C151.884 246.952 148.989 245.963 146.26 244.61C139.87 241.42 133.16 235.69 132.59 228.11C131.81 217.83 142 209.41 149.68 204.29C152.57 202.36 152.23 200.76 151.15 199.64C153.756 199.032 156.33 198.291 158.86 197.42L160.32 196.92L160.66 196.79L161.27 196.57L162.02 196.29C163.1 195.86 164.17 195.4 165.21 194.9C165.64 194.7 166.06 194.48 166.48 194.26L166.88 194.04L167.44 193.73L168.17 193.29C168.41 193.15 168.65 192.99 168.89 192.84L169.45 192.46C169.963 192.107 170.463 191.737 170.95 191.35C173.448 189.316 175.438 186.728 176.76 183.79L177.07 183.89C183.3 186.08 185.15 193.38 185.07 199.31C185.031 203.675 183.732 207.935 181.33 211.58C178.64 215.51 174.5 218.46 171.38 222.07C170.469 223.049 169.699 224.15 169.09 225.34C166.53 230.86 170.63 235.53 176.25 235.21C177.545 235.199 178.819 234.889 179.974 234.304C181.13 233.72 182.134 232.876 182.91 231.84C184.07 230.2 185.23 231.16 185.42 232.64C185.486 233.888 185.217 235.131 184.64 236.24Z" fill="#BD93DD"/>
<path d="M141.32 105.59C140.65 107.37 139.63 109.59 137.81 110.45C137.354 110.653 136.86 110.759 136.36 110.76C136.113 110.758 135.866 110.741 135.62 110.71C133.532 110.29 131.541 109.483 129.75 108.33C127.065 106.842 124.464 105.207 121.96 103.43C121.67 103.23 121.36 103.04 121.06 102.83C120.658 102.585 120.277 102.308 119.92 102C119.607 101.749 119.347 101.437 119.156 101.083C118.965 100.729 118.848 100.34 118.81 99.9401C118.79 98.8577 119.063 97.7899 119.6 96.8501C121.87 92.2101 136.36 77.9701 141.69 76.9301C148.31 75.6301 142.63 102.12 141.32 105.59Z" fill="#FAFAFA"/>
<path d="M83.3199 121.7C84.0169 120.388 85.0874 119.312 86.3961 118.608C87.7047 117.905 89.1927 117.605 90.6716 117.747C92.1506 117.89 93.5542 118.467 94.7047 119.408C95.8552 120.348 96.701 121.608 97.135 123.029C97.569 124.45 97.5717 125.968 97.1428 127.391C96.714 128.813 95.8727 130.077 94.7256 131.021C93.5785 131.965 92.1771 132.548 90.6986 132.696C89.2201 132.843 87.7311 132.549 86.4199 131.85C85.5495 131.388 84.7788 130.758 84.1518 129.998C83.5249 129.237 83.054 128.36 82.766 127.418C82.4781 126.475 82.3789 125.485 82.4739 124.504C82.569 123.523 82.8564 122.57 83.3199 121.7Z" fill="#A573D3"/>
<path d="M86.1299 120.15C86.4542 119.541 86.952 119.041 87.5603 118.715C88.1685 118.388 88.8599 118.25 89.547 118.316C90.2341 118.383 90.886 118.651 91.4203 119.088C91.9547 119.525 92.3474 120.111 92.5488 120.771C92.7502 121.432 92.7514 122.137 92.552 122.798C92.3526 123.459 91.9618 124.046 91.4288 124.484C90.8958 124.923 90.2448 125.194 89.5579 125.263C88.871 125.331 88.1792 125.195 87.5699 124.87C86.7532 124.435 86.1426 123.693 85.8726 122.808C85.6026 121.923 85.6951 120.967 86.1299 120.15Z" fill="#FAFAFA"/>
<path d="M135.62 110.71C133.532 110.29 131.541 109.483 129.75 108.33C127.065 106.842 124.464 105.206 121.96 103.43C121.67 103.23 121.36 103.04 121.06 102.83C125.25 95.0799 134.25 86.8299 137.26 87.5399C141.55 88.4899 137.44 107.27 135.62 110.71Z" fill="#F99595"/>
<defs>
<filter id="filter0_d_879_3693" x="14.0857" y="14.0986" width="225.805" height="283.272" filterUnits="userSpaceOnUse" color-interpolation-filters="sRGB">
<feFlood flood-opacity="0" result="BackgroundImageFix"/>
<feColorMatrix in="SourceAlpha" type="matrix" values="0 0 0 0 0 0 0 0 0 0 0 0 0 0 0 0 0 0 127 0" result="hardAlpha"/>
<feOffset dx="7" dy="10"/>
<feGaussianBlur stdDeviation="14"/>
<feColorMatrix type="matrix" values="0 0 0 0 0 0 0 0 0 0 0 0 0 0 0 0 0 0 0.25 0"/>
<feBlend mode="normal" in2="BackgroundImageFix" result="effect1_dropShadow_879_3693"/>
<feBlend mode="normal" in="SourceGraphic" in2="effect1_dropShadow_879_3693" result="shape"/>
</filter>
</defs>
</svg>
