<svg width="230" height="290" viewBox="0 0 230 290" fill="none" xmlns="http://www.w3.org/2000/svg">
<g filter="url(#filter0_d_879_3675)">
<path d="M175 94.1401L174.5 93.8701L174.29 93.3401C173.356 91.0961 171.712 89.2202 169.61 88.0001C168.38 80.4916 165.707 73.2924 161.74 66.8001C162.926 65.187 163.67 63.2926 163.9 61.3039C164.13 59.3152 163.837 57.301 163.05 55.4601C162.418 53.9588 161.463 52.6151 160.254 51.5245C159.044 50.434 157.609 49.6233 156.05 49.1501L155.5 49.0001C155.4 48.8401 155.29 48.6901 155.18 48.5301C154.267 47.27 153.101 46.2144 151.756 45.4309C150.411 44.6474 148.918 44.1532 147.372 43.98C145.825 43.8068 144.259 43.9584 142.775 44.4251C141.29 44.8917 139.919 45.6632 138.75 46.6901C133.221 44.1576 127.374 42.3848 121.37 41.4201C121.08 39.6807 120.387 38.0336 119.344 36.6112C118.302 35.1887 116.941 34.0307 115.37 33.2301C113.921 32.4758 112.324 32.0515 110.691 31.9875C109.059 31.9235 107.433 32.2215 105.93 32.8601L105.41 33.0901C105.229 33.0308 105.046 32.9807 104.86 32.9401C103.28 32.5201 101.627 32.4574 100.02 32.7567C98.4127 33.0559 96.8926 33.7096 95.57 34.6701C93.1528 36.3875 91.5106 38.9892 91 41.9101C84.8139 43.1379 78.8606 45.335 73.36 48.4201C72.0471 47.4955 70.5518 46.8622 68.9742 46.5626C67.3966 46.2629 65.7733 46.3038 64.2128 46.6826C62.6524 47.0613 61.1908 47.7692 59.9262 48.7587C58.6615 49.7482 57.6229 50.9965 56.88 52.4201L56.63 52.9301L56.11 53.1601C54.6376 53.8546 53.3365 54.8653 52.2994 56.1201C51.2623 57.375 50.5147 58.8432 50.11 60.4201C49.6586 62.1689 49.6262 63.9995 50.0154 65.7631C50.4046 67.5268 51.2045 69.1737 52.35 70.5701C49.5696 76.0449 47.5798 81.8864 46.44 87.9201C44.1986 89.1156 42.4341 91.0424 41.44 93.3801L41.23 93.9101L40.73 94.1801C39.3065 94.9828 38.0779 96.0902 37.1323 97.423C36.1867 98.7559 35.5473 100.281 35.26 101.89C35.0003 103.431 35.057 105.008 35.4266 106.526C35.7962 108.044 36.4711 109.471 37.41 110.72C39.55 113.72 43.13 115.92 46.65 117.43C47.07 119.88 47.58 122.34 48.19 124.79C46.0758 126.157 44.4944 128.208 43.71 130.6C43.122 132.466 43.0088 134.449 43.3808 136.37C43.7527 138.291 44.598 140.088 45.84 141.6C47.5457 143.688 49.5707 145.494 51.84 146.95C50.787 148.541 49.9528 150.267 49.36 152.08C47.12 159.08 49.1 165.01 50.54 169.34C50.81 170.15 51.09 170.96 51.33 171.8C51.57 172.64 51.69 173.16 51.74 173.39C51.79 173.62 51.57 174.06 51.48 174.39C51.26 175.26 50.95 176.46 50.64 177.98C50.33 179.5 49.92 181.28 49.52 182.98C47.03 193.63 43.94 206.89 53.93 219.6C62.33 230.29 76.15 234.15 83.64 235.5C90.938 236.726 98.3301 237.305 105.73 237.23C111.903 237.23 118.57 236.913 125.73 236.28C134.82 235.48 151.55 232.28 161.48 219.6C171.41 206.92 168.37 193.6 165.89 182.98C165.48 181.24 165.1 179.59 164.76 177.98C164.42 176.37 164.15 175.26 163.92 174.39C163.83 174.04 163.73 173.63 163.67 173.39C163.61 173.15 163.82 172.68 164.07 171.8C164.32 170.92 164.59 170.15 164.86 169.34C166.31 165.01 168.29 159.08 166.04 152.08C165.354 149.963 164.342 147.965 163.04 146.16C165.436 144.527 167.457 142.403 168.97 139.93C169.784 138.526 170.294 136.966 170.466 135.351C170.638 133.737 170.469 132.105 169.97 130.56C169.379 128.785 168.346 127.188 166.97 125.92C167.79 123.06 168.457 120.23 168.97 117.43C172.53 115.9 176.17 113.64 178.32 110.65C179.247 109.401 179.912 107.978 180.274 106.466C180.637 104.953 180.69 103.383 180.43 101.85C180.148 100.245 179.515 98.7213 178.576 97.3886C177.638 96.0559 176.416 94.9467 175 94.1401Z" fill="white"/>
</g>
<path d="M155 180C153.9 174.58 152.94 174.4 154.52 169C155.92 164.2 158.12 160 156.52 155.13C154.82 149.82 148.52 145.79 143.52 144.2C132.33 140.65 120.17 139.4 108.46 139.4H107C95.3 139.4 83.13 140.65 71.94 144.2C66.94 145.79 60.6 149.82 58.94 155.13C57.38 159.99 59.58 164.2 60.94 169C62.52 174.4 61.56 174.58 60.45 180C58.07 191.72 53.52 202.94 61.8 213.48C67.31 220.48 76.89 224.18 85.42 225.72C97.72 227.94 112.42 227.48 124.88 226.38C135.07 225.48 147.06 221.87 153.65 213.48C161.89 202.93 157.34 191.71 155 180Z" fill="#F77C7A"/>
<path d="M148 156.27V156.61C146.69 166.09 114.35 166.16 106.27 166.16C96.4101 166.16 82.2101 165.84 73.2701 162.48C62.1901 158.33 70.8001 151.08 78.7501 149.2C87.7964 147.216 97.0397 146.274 106.3 146.39C114.45 146.39 148.65 146.41 148 156.27Z" fill="#FFF86A"/>
<path d="M78.7599 159.64C76.4689 159.115 74.4528 157.762 73.0999 155.84C67.5899 148 53.6899 125.18 55.4199 96.53C55.4199 96.53 55.9399 50.91 106.42 50.32C133.81 50 155.67 62.92 160 91C163.15 111.58 155.9 133.76 143 154.88C142.306 156.027 141.377 157.014 140.274 157.776C139.17 158.538 137.918 159.057 136.6 159.3C126.78 161.13 101.27 164.81 78.7599 159.64Z" fill="#D2E059"/>
<path d="M66.4999 56.4099C64.8599 56.7599 65.4999 60.2099 66.8799 63.5399C63.5999 62.0099 60.1799 61.2599 59.7599 62.8799C59.1099 65.4099 68.2899 70.3799 71.8099 69.9999C74.9199 70.4099 72.1899 63.6099 71.3999 61.9299C70.7199 60.4799 68.5099 55.9999 66.4999 56.4099Z" fill="#69A6A9"/>
<path d="M51.31 96.6199C49.7 97.0999 50.58 100.49 52.24 103.71C48.85 102.43 45.38 101.94 45.09 103.6C44.63 106.17 54.17 110.42 57.65 109.77C60.78 109.94 57.54 103.37 56.65 101.77C55.84 100.37 53.29 95.9999 51.31 96.6199Z" fill="#69A6A9"/>
<path d="M84.6701 105.7C83.0901 105.14 81.7901 108.39 81.2301 111.96C79.2301 108.96 76.7401 106.49 75.5301 107.65C73.6401 109.46 78.8301 118.52 82.0201 120.05C84.4501 122.05 85.7101 114.82 85.9301 112.98C86.1101 111.39 86.6101 106.39 84.6701 105.7Z" fill="#69A6A9"/>
<path d="M164.43 96.6199C166.04 97.0999 165.17 100.49 163.51 103.71C166.9 102.43 170.36 101.94 170.66 103.6C171.11 106.17 161.58 110.42 158.1 109.77C154.96 109.94 158.21 103.37 159.1 101.77C159.91 100.37 162.46 95.9999 164.43 96.6199Z" fill="#69A6A9"/>
<path d="M131.08 105.7C132.66 105.14 133.95 108.39 134.52 111.96C136.52 108.96 139 106.49 140.22 107.65C142.1 109.46 136.92 118.52 133.73 120.05C131.3 122.05 130.04 114.82 129.82 112.98C129.64 111.39 129.13 106.39 131.08 105.7Z" fill="#69A6A9"/>
<path d="M110.7 42.1301C109.21 41.3501 107.48 44.4001 106.43 47.8601C104.89 44.5801 102.74 41.8601 101.38 42.8601C99.26 44.3401 103.16 54.0001 106.11 56.0001C108.24 58.3001 110.48 51.3301 110.94 49.5301C111.35 48.0001 112.53 43.0801 110.7 42.1301Z" fill="#69A6A9"/>
<path d="M110.7 134.27C109.21 133.49 107.48 136.53 106.43 140C104.89 136.72 102.74 134 101.38 134.95C99.26 136.48 103.16 146.16 106.11 148.12C108.24 150.42 110.48 143.45 110.94 141.65C111.35 140.1 112.53 135.22 110.7 134.27Z" fill="#69A6A9"/>
<path d="M96.4601 72.4201C94.8601 71.9301 93.7001 75.2301 93.2901 78.8301C91.1901 75.8301 88.5801 73.5501 87.4101 74.7601C85.6001 76.6501 91.1701 85.4801 94.4101 86.8701C96.9201 88.7601 97.8801 81.5001 98.0101 79.6501C98.1401 78.0501 98.4301 73.0001 96.4601 72.4201Z" fill="#69A6A9"/>
<path d="M121.53 72.4401C123.18 72.1501 123.92 75.5701 123.88 79.1901C126.33 76.5201 129.21 74.5301 130.22 75.8701C131.78 77.9701 125.22 86.0501 121.77 87.0301C119.05 88.5901 118.99 81.2701 119.08 79.4201C119.16 77.8201 119.5 72.8001 121.53 72.4401Z" fill="#69A6A9"/>
<path d="M153.32 127.67C154.98 127.91 154.6 131.39 153.42 134.81C156.59 133.06 159.95 132.09 160.47 133.69C161.29 136.17 152.47 141.69 148.92 141.58C145.84 142.2 148.12 135.23 148.79 133.51C149.38 132 151.28 127.37 153.32 127.67Z" fill="#69A6A9"/>
<path d="M60.34 127.67C58.68 127.91 59.06 131.39 60.25 134.81C57.08 133.06 53.72 132.09 53.19 133.69C52.37 136.17 61.19 141.69 64.75 141.58C67.82 142.2 65.55 135.23 64.87 133.51C64.29 132 62.38 127.37 60.34 127.67Z" fill="#69A6A9"/>
<path d="M153.83 59.3699C153.18 57.8299 149.91 59.0599 146.89 61.0599C147.8 57.5599 147.89 54.0599 146.23 53.9399C143.62 53.7699 140.43 63.7099 141.45 67.0999C141.62 70.2299 147.8 66.2999 149.3 65.2099C150.6 64.2799 154.63 61.2699 153.83 59.3699Z" fill="#69A6A9"/>
<defs>
<filter id="filter0_d_879_3675" x="14.0999" y="13.979" width="201.492" height="261.258" filterUnits="userSpaceOnUse" color-interpolation-filters="sRGB">
<feFlood flood-opacity="0" result="BackgroundImageFix"/>
<feColorMatrix in="SourceAlpha" type="matrix" values="0 0 0 0 0 0 0 0 0 0 0 0 0 0 0 0 0 0 127 0" result="hardAlpha"/>
<feOffset dx="7" dy="10"/>
<feGaussianBlur stdDeviation="14"/>
<feColorMatrix type="matrix" values="0 0 0 0 0 0 0 0 0 0 0 0 0 0 0 0 0 0 0.25 0"/>
<feBlend mode="normal" in2="BackgroundImageFix" result="effect1_dropShadow_879_3675"/>
<feBlend mode="normal" in="SourceGraphic" in2="effect1_dropShadow_879_3675" result="shape"/>
</filter>
</defs>
</svg>
