<svg width="300" height="223" viewBox="0 0 300 223" fill="none" xmlns="http://www.w3.org/2000/svg">
<g filter="url(#filter0_d_879_3658)">
<path d="M245.49 99.5399C246.355 94.5277 245.436 89.3708 242.893 84.966C240.35 80.5611 236.343 77.1869 231.57 75.4299C229.796 70.6572 226.411 66.6535 222 64.1099C221.226 63.6543 220.42 63.2534 219.59 62.9099L206.42 45.3499C205.24 43.5662 203.901 41.8928 202.42 40.3499C198.13 35.8099 193.3 33.1399 188.07 32.3499C183.57 31.7099 176.8 32.2699 170.19 38.5299L170.03 38.6799L162.27 46.2699C160.373 48.1225 159.289 50.653 159.257 53.3047C159.225 55.9564 160.248 58.5122 162.1 60.4099L165.45 63.8299L164.98 64.0999C160.584 66.6489 157.212 70.6473 155.44 75.4099C151.214 76.9906 147.577 79.8323 145.02 83.5499C143.532 83.4399 142.038 83.4399 140.55 83.5499C137.991 79.8307 134.35 76.9888 130.12 75.4099C128.352 70.6452 124.979 66.6457 120.58 64.0999L120.11 63.8399L123.46 60.4099C125.314 58.5135 126.338 55.9585 126.308 53.3068C126.278 50.6551 125.196 48.1239 123.3 46.2699L115.47 38.6199L115.37 38.5299C108.76 32.2699 102 31.7099 97.4901 32.3499C92.2601 33.0899 87.4301 35.7599 83.1501 40.2899C81.6667 41.8487 80.3278 43.539 79.1501 45.3399L66.0001 62.8999C65.1673 63.2488 64.3589 63.653 63.5801 64.1099C59.1846 66.6613 55.8149 70.6639 54.0501 75.4299C49.2853 77.1971 45.2879 80.5741 42.7497 84.9768C40.2114 89.3795 39.2919 94.5309 40.1501 99.5399C36.8996 103.452 35.1201 108.378 35.1201 113.465C35.1201 118.551 36.8996 123.478 40.1501 127.39C39.2886 132.403 40.2089 137.56 42.7515 141.965C45.294 146.371 49.2984 149.748 54.0701 151.51C55.8338 156.281 59.2104 160.285 63.6153 162.829C68.0202 165.373 73.176 166.297 78.1901 165.44C82.1024 168.69 87.0286 170.47 92.1151 170.47C97.2016 170.47 102.128 168.69 106.04 165.44C111.054 166.295 116.209 165.37 120.613 162.827C125.018 160.283 128.395 156.28 130.16 151.51C133.017 150.463 135.621 148.825 137.802 146.704C139.984 144.583 141.693 142.026 142.82 139.2C143.203 140.158 143.654 141.087 144.17 141.98C146.723 146.37 150.72 149.739 155.48 151.51C157.246 156.282 160.624 160.286 165.031 162.83C169.437 165.374 174.595 166.297 179.61 165.44C183.521 168.69 188.445 170.469 193.53 170.469C198.615 170.469 203.539 168.69 207.45 165.44C212.464 166.295 217.619 165.37 222.023 162.827C226.428 160.283 229.805 156.28 231.57 151.51C236.342 149.748 240.348 146.372 242.892 141.966C245.436 137.561 246.359 132.404 245.5 127.39C248.747 123.476 250.524 118.55 250.524 113.465C250.524 108.379 248.747 103.454 245.5 99.5399H245.49Z" fill="white"/>
</g>
<path d="M55.3799 102.08L51.3799 99.08L87.4499 51C88.3241 49.6203 89.3287 48.3277 90.4499 47.14C93.1399 44.29 95.9999 42.64 98.9299 42.22C102.32 41.74 105.55 42.93 108.53 45.76L116.32 53.37L112.84 57L105.06 49.4C103.23 47.67 101.45 46.95 99.6299 47.21C95.2699 47.82 91.7399 53.64 91.6999 53.7L91.6299 53.82L55.3799 102.08Z" fill="#FFEA61"/>
<path d="M230.26 102.08L234.26 99.08L198.19 51C197.316 49.6203 196.311 48.3277 195.19 47.14C192.5 44.29 189.65 42.64 186.71 42.22C183.32 41.74 180.09 42.93 177.11 45.76L169.33 53.37L172.84 56.97L180.61 49.37C182.44 47.64 184.22 46.92 186.04 47.18C190.4 47.79 193.94 53.61 193.97 53.67L194.04 53.79L230.26 102.08Z" fill="#FFEA61"/>
<path d="M233.67 124.23C234.967 126.08 235.708 128.262 235.806 130.519C235.905 132.776 235.357 135.014 234.226 136.97C233.096 138.926 231.43 140.519 229.426 141.561C227.421 142.602 225.16 143.05 222.91 142.85C223.105 145.1 222.654 147.358 221.61 149.361C220.566 151.363 218.973 153.026 217.017 154.155C215.061 155.284 212.824 155.831 210.568 155.733C208.312 155.634 206.13 154.894 204.28 153.6C203.33 155.653 201.813 157.391 199.907 158.609C198.002 159.828 195.787 160.475 193.525 160.475C191.263 160.475 189.049 159.828 187.143 158.609C185.237 157.391 183.72 155.653 182.77 153.6C180.921 154.899 178.739 155.642 176.481 155.743C174.223 155.843 171.984 155.296 170.027 154.167C168.069 153.037 166.475 151.372 165.432 149.367C164.389 147.362 163.941 145.101 164.14 142.85C161.891 143.047 159.631 142.599 157.628 141.556C155.625 140.514 153.961 138.921 152.832 136.965C151.703 135.01 151.156 132.772 151.255 130.516C151.353 128.26 152.094 126.079 153.39 124.23C151.341 123.277 149.606 121.759 148.39 119.854C147.175 117.948 146.529 115.735 146.529 113.475C146.529 111.215 147.175 109.002 148.39 107.096C149.606 105.191 151.341 103.673 153.39 102.72C152.091 100.871 151.348 98.6886 151.248 96.4309C151.147 94.1733 151.694 91.9339 152.823 89.9765C153.953 88.0191 155.618 86.4251 157.623 85.3822C159.628 84.3394 161.889 83.891 164.14 84.09C163.939 81.8381 164.386 79.5756 165.428 77.5691C166.47 75.5626 168.064 73.8957 170.021 72.765C171.979 71.6342 174.22 71.0866 176.478 71.1867C178.737 71.2868 180.92 72.0305 182.77 73.33C183.723 71.2805 185.241 69.5458 187.147 68.3303C189.052 67.1148 191.265 66.469 193.525 66.469C195.785 66.469 197.998 67.1148 199.904 68.3303C201.809 69.5458 203.327 71.2805 204.28 73.33C206.131 72.0348 208.313 71.2948 210.57 71.1968C212.827 71.0988 215.066 71.6469 217.022 72.7768C218.978 73.9067 220.571 75.5715 221.614 77.5754C222.658 79.5794 223.107 81.8395 222.91 84.09C225.162 83.8889 227.425 84.3357 229.431 85.3777C231.438 86.4197 233.104 88.0136 234.235 89.9714C235.366 91.9292 235.914 94.1695 235.813 96.4282C235.713 98.6869 234.97 100.87 233.67 102.72C235.716 103.676 237.447 105.195 238.66 107.1C239.873 109.005 240.517 111.217 240.517 113.475C240.517 115.733 239.873 117.945 238.66 119.85C237.447 121.755 235.716 123.274 233.67 124.23Z" fill="#A8B7FC"/>
<path d="M207.25 147.023C225.781 139.446 234.66 118.281 227.083 99.7499C219.505 81.2189 198.34 72.3394 179.809 79.9168C161.278 87.4942 152.399 108.659 159.976 127.19C167.554 145.721 188.719 154.601 207.25 147.023Z" fill="#F99595"/>
<path d="M212.12 82.3501L216 85.0001C214.772 84.0252 213.475 83.1396 212.12 82.3501Z" fill="#FFD4CC"/>
<path d="M216.47 85.4C216.321 85.2575 216.164 85.124 216 85L212.14 82.32C209.811 80.9206 207.328 79.7964 204.74 78.97C201.128 77.7852 197.351 77.1843 193.55 77.19C185.007 77.1905 176.739 80.208 170.205 85.7101C163.67 91.2122 159.288 98.8454 157.832 107.263C156.377 115.681 157.941 124.342 162.248 131.719C166.556 139.096 173.331 144.715 181.377 147.584C189.423 150.453 198.225 150.389 206.228 147.402C214.231 144.414 220.923 138.697 225.121 131.257C229.32 123.818 230.757 115.134 229.178 106.739C227.598 98.3434 223.105 90.7755 216.49 85.37L216.47 85.4ZM193.53 144.65C188.302 144.646 183.159 143.329 178.573 140.82C173.986 138.311 170.103 134.69 167.28 130.29C166.031 128.359 165.004 126.292 164.22 124.13C163.94 123.37 163.69 122.6 163.48 121.82C162.224 117.304 162.003 112.563 162.833 107.949C163.662 103.336 165.521 98.969 168.272 95.1733C171.022 91.3775 174.592 88.2507 178.718 86.0254C182.843 83.8001 187.417 82.5335 192.1 82.32C192.58 82.32 193.1 82.32 193.53 82.32C193.85 82.32 194.18 82.32 194.53 82.32C196.911 82.3757 199.277 82.7114 201.58 83.32C208.901 85.2596 215.265 89.7974 219.485 96.086C223.705 102.375 225.492 109.984 224.512 117.494C223.532 125.003 219.853 131.9 214.161 136.895C208.469 141.89 201.153 144.643 193.58 144.64L193.53 144.65Z" fill="#FFD4CC"/>
<path d="M132.26 124.23C133.556 126.08 134.298 128.262 134.396 130.519C134.495 132.776 133.947 135.014 132.816 136.97C131.686 138.926 130.02 140.519 128.016 141.561C126.011 142.602 123.75 143.05 121.5 142.85C121.695 145.1 121.244 147.358 120.2 149.361C119.156 151.363 117.563 153.026 115.607 154.155C113.651 155.284 111.414 155.831 109.158 155.733C106.901 155.634 104.72 154.894 102.87 153.6C101.92 155.653 100.403 157.391 98.4972 158.609C96.5914 159.828 94.3768 160.475 92.115 160.475C89.8531 160.475 87.6385 159.828 85.7327 158.609C83.8269 157.391 82.3096 155.653 81.36 153.6C79.5105 154.899 77.3285 155.642 75.0709 155.743C72.8132 155.843 70.5738 155.296 68.6164 154.167C66.659 153.037 65.065 151.372 64.0222 149.367C62.9793 147.362 62.531 145.101 62.73 142.85C60.4821 143.043 58.2257 142.591 56.2257 141.547C54.2257 140.503 52.565 138.91 51.4385 136.955C50.3121 135 49.7665 132.765 49.866 130.511C49.9654 128.257 50.7057 126.078 52 124.23C49.9504 123.277 48.2158 121.759 47.0002 119.854C45.7847 117.948 45.1389 115.735 45.1389 113.475C45.1389 111.215 45.7847 109.002 47.0002 107.096C48.2158 105.191 49.9504 103.673 52 102.72C50.7027 100.872 49.9599 98.6921 49.8589 96.4364C49.7578 94.1808 50.3028 91.9432 51.4297 89.9866C52.5566 88.03 54.2186 86.4358 56.2204 85.3912C58.2221 84.3467 60.4805 83.8953 62.73 84.09C62.5288 81.8381 62.9756 79.5756 64.0176 77.5691C65.0596 75.5626 66.6535 73.8957 68.6113 72.765C70.5691 71.6342 72.8094 71.0866 75.0681 71.1867C77.3268 71.2868 79.5098 72.0305 81.36 73.33C82.3126 71.2805 83.831 69.5458 85.7364 68.3303C87.6418 67.1148 89.8549 66.469 92.115 66.469C94.3751 66.469 96.5881 67.1148 98.4935 68.3303C100.399 69.5458 101.917 71.2805 102.87 73.33C104.721 72.0348 106.903 71.2948 109.16 71.1968C111.417 71.0988 113.655 71.6469 115.612 72.7768C117.568 73.9067 119.161 75.5715 120.204 77.5754C121.247 79.5794 121.697 81.8395 121.5 84.09C123.752 83.8889 126.014 84.3357 128.021 85.3777C130.027 86.4197 131.694 88.0136 132.825 89.9714C133.956 91.9292 134.503 94.1695 134.403 96.4282C134.303 98.6869 133.56 100.87 132.26 102.72C134.306 103.676 136.037 105.195 137.25 107.1C138.463 109.005 139.107 111.217 139.107 113.475C139.107 115.733 138.463 117.945 137.25 119.85C136.037 121.755 134.306 123.274 132.26 124.23Z" fill="#A8B7FC"/>
<path d="M105.844 147.025C124.375 139.448 133.254 118.283 125.677 99.7521C118.1 81.2211 96.9345 72.3416 78.4036 79.919C59.8726 87.4964 50.9931 108.661 58.5705 127.192C66.1479 145.723 87.313 154.603 105.844 147.025Z" fill="#F99595"/>
<path d="M114.31 84.82C107.962 79.8928 100.155 77.2189 92.1199 77.22C87.3586 77.2187 82.6437 78.1553 78.2445 79.9765C73.8453 81.7976 69.848 84.4676 66.4808 87.8338C63.1136 91.2001 60.4426 95.1967 58.6202 99.5954C56.7978 103.994 55.8599 108.709 55.8599 113.47C55.8557 117.26 56.4532 121.027 57.6299 124.63C57.8205 125.285 58.0476 125.93 58.3099 126.56C59.2191 128.936 60.3896 131.203 61.7999 133.32C65.0934 138.358 69.59 142.496 74.8835 145.361C80.177 148.226 86.1008 149.728 92.1199 149.73C99.6797 149.729 107.05 147.364 113.199 142.967C119.349 138.569 123.969 132.359 126.415 125.206C128.86 118.053 129.008 110.314 126.838 103.072C124.667 95.8307 120.287 89.4489 114.31 84.82ZM92.1199 144.65C86.6082 144.663 81.1922 143.21 76.4267 140.441C71.6612 137.671 67.7176 133.685 64.9999 128.89C63.7011 126.696 62.6927 124.343 61.9999 121.89C61.756 121.073 61.5623 120.241 61.4199 119.4C61.0369 117.463 60.846 115.494 60.8499 113.52C60.8459 105.865 63.6572 98.4759 68.7485 92.7595C73.8398 87.0431 80.8555 83.3986 88.4599 82.52C89.2999 82.43 90.1499 82.37 90.9999 82.34C91.3499 82.34 91.6899 82.34 91.9999 82.34C94.137 82.3402 96.2683 82.5613 98.3599 83C103.054 83.9672 107.455 86.0223 111.21 89C116.324 92.9966 120.063 98.4901 121.905 104.714C123.747 110.938 123.6 117.581 121.485 123.718C119.37 129.854 115.392 135.177 110.106 138.944C104.82 142.711 98.4906 144.733 91.9999 144.73L92.1199 144.65Z" fill="#FFD4CC"/>
<path d="M162.34 113.47H157.27C157.27 105.84 150.27 98.47 142.82 98.47C135.37 98.47 128.37 105.85 128.37 113.47H123.3C123.153 110.818 123.548 108.164 124.462 105.671C125.375 103.177 126.788 100.895 128.613 98.9661C130.438 97.0369 132.638 95.5001 135.077 94.4499C137.516 93.3996 140.144 92.8579 142.8 92.8579C145.456 92.8579 148.084 93.3996 150.523 94.4499C152.963 95.5001 155.162 97.0369 156.987 98.9661C158.812 100.895 160.225 103.177 161.138 105.671C162.052 108.164 162.447 110.818 162.3 113.47H162.34Z" fill="#FFEA61"/>
<path d="M91.08 82.3101L62.08 121.84C61.8361 121.023 61.6424 120.191 61.5 119.35L88.5 82.4901C89.38 82.4001 90.23 82.3401 91.08 82.3101Z" fill="#FFD4CC"/>
<path d="M111.33 88.92L74.64 139.3C70.6632 136.624 67.363 133.06 65 128.89L98.48 83C103.167 83.9435 107.567 85.9709 111.33 88.92Z" fill="#FFD4CC"/>
<path d="M194.5 82.3101L164.22 124.13C163.94 123.37 163.69 122.6 163.48 121.82L192.1 82.3201C192.58 82.3201 193.1 82.3201 193.53 82.3201C193.85 82.2901 194.18 82.2901 194.5 82.3101Z" fill="#FFD4CC"/>
<path d="M213.48 89.49L176.78 139.76C172.96 137.335 169.718 134.102 167.28 130.29L201.55 83.29C205.929 84.4678 210 86.5833 213.48 89.49Z" fill="#FFD4CC"/>
<path d="M216.49 85.37C216.334 85.2372 216.17 85.1137 216 85L216.49 85.37Z" fill="#FFD4CC"/>
<defs>
<filter id="filter0_d_879_3658" x="14.1201" y="14.1458" width="271.404" height="194.324" filterUnits="userSpaceOnUse" color-interpolation-filters="sRGB">
<feFlood flood-opacity="0" result="BackgroundImageFix"/>
<feColorMatrix in="SourceAlpha" type="matrix" values="0 0 0 0 0 0 0 0 0 0 0 0 0 0 0 0 0 0 127 0" result="hardAlpha"/>
<feOffset dx="7" dy="10"/>
<feGaussianBlur stdDeviation="14"/>
<feColorMatrix type="matrix" values="0 0 0 0 0 0 0 0 0 0 0 0 0 0 0 0 0 0 0.25 0"/>
<feBlend mode="normal" in2="BackgroundImageFix" result="effect1_dropShadow_879_3658"/>
<feBlend mode="normal" in="SourceGraphic" in2="effect1_dropShadow_879_3658" result="shape"/>
</filter>
</defs>
</svg>
