<svg width="136" height="198" viewBox="0 0 136 198" fill="none" xmlns="http://www.w3.org/2000/svg">
<g clip-path="url(#clip0_879_3541)">
<g filter="url(#filter0_d_879_3541)">
<path d="M33.1653 111.369C31.5193 113.476 30.6861 116.11 30.8189 118.786C30.8189 118.996 30.8189 119.212 30.8695 119.422C31.2047 122.746 33.1147 125.002 34.3796 126.502C34.6389 126.807 35.012 127.258 35.1701 127.481C35.7491 129.301 36.1474 131.175 36.3591 133.074C36.435 133.589 36.5172 134.091 36.5931 134.587C37.2256 138.515 37.7062 142.595 38.0351 146.72C38.092 156.566 45.8015 164.593 55.3829 164.689L67.4562 164.746L72.8256 164.816H72.9901C82.4767 164.816 90.2367 156.972 90.4834 147.197C90.9071 142.894 91.489 138.699 92.2226 134.714C92.3554 133.977 92.4756 133.189 92.5831 132.426C92.7665 131.155 93.1143 128.778 93.4748 128.104C93.7059 127.837 93.953 127.584 94.2148 127.347C95.682 125.936 99.5779 122.186 97.5857 115.907C97.0076 114.123 96.0493 112.488 94.7776 111.114C95.954 108.699 96.8963 106.316 97.7248 104.231L97.9525 103.665C100.944 96.1462 103.309 86.6123 103.973 79.3665C104.056 78.4576 104.15 77.5487 104.239 76.6335C104.562 73.4555 104.871 70.2204 104.909 66.928C105.017 50.4026 96.5675 46.589 91.5206 45.8263C89.3316 45.4785 87.0921 45.6504 84.9811 46.3284C84.1843 41.7712 82.8498 36.3369 80.3201 31.6526C75.9689 23.6441 68.9361 19.7034 60.5689 20.517C47.313 21.8326 39.5846 35.4915 39.2114 58.0742C36.0951 57.3541 32.8231 57.8469 30.0537 59.4534C26.9864 61.1441 23.1538 64.7924 22.3506 72.5593C21.2628 83.2627 25.2977 94.2458 29.8576 104.498C30.9159 106.867 32.0185 109.157 33.1653 111.369Z" fill="white"/>
</g>
<path d="M65.7043 109.322C72.0287 109.322 78.5365 110.002 84.5511 111.915C87.2389 112.773 90.6541 114.953 91.5648 117.826C92.7412 121.544 89.5031 122.275 88.0042 124.888C86.7393 127.144 86.4737 130.996 86.0057 133.532C85.1961 137.917 84.5953 142.36 84.1653 146.803C84.102 153.286 79.0551 158.498 72.8825 158.434L69.0879 158.377H67.5511L55.4461 158.32C49.2735 158.256 44.3278 152.949 44.3911 146.466C44.0559 142.15 43.5563 137.835 42.8669 133.557C42.4179 130.773 42.0827 127.627 41.0265 124.989C40.1537 122.797 37.4342 121.131 37.1876 118.761V118.455C36.7196 109.373 60.1136 109.322 65.7043 109.322Z" fill="#FFEA61"/>
<path d="M43.0059 118.468C42.9997 118.53 42.9997 118.591 43.0059 118.653C43.7079 123.776 61.0874 123.814 65.4322 123.814C70.7321 123.814 78.3593 123.636 83.1848 121.824C89.1361 119.581 84.513 115.665 80.2377 114.648C75.3818 113.583 70.4211 113.075 65.4512 113.136C61.0557 113.136 42.677 113.136 43.0059 118.468Z" fill="#F77C7A"/>
<path d="M66.9565 121.557C65.7612 105.032 72.9647 49.3983 90.5591 52.1186C96.4282 53.0339 98.6354 58.9194 98.5848 66.8961C98.5848 70.805 98.0409 74.822 97.6741 78.7945C97.0417 85.7415 94.7079 94.6843 92.077 101.32C89.6358 107.453 86.0625 116.981 78.8843 119.263C77.5435 119.689 66.9501 121.481 66.9565 121.557Z" fill="#69A6A9"/>
<path d="M77.9672 119.117C77.1298 119.885 76.1001 120.41 74.9884 120.636C67.3991 122.371 58.9877 121.824 51.5502 119.733C50.7406 119.492 45.5356 72.5531 45.5356 59.8158C45.5356 49.2458 47.3507 28.2204 61.1822 26.8412C74.533 25.5191 77.9609 40.9895 79.308 51.1717C80.4147 59.5869 80.9523 80.7458 81.0219 89.2501C81.064 94.3348 80.8806 99.4365 80.4716 104.555C80.1175 108.998 81.3887 115.894 77.9672 119.117Z" fill="#95CCCB"/>
<path d="M46.5983 119.047C44.9421 118.014 43.539 116.619 42.4938 114.966C39.8943 110.787 37.6009 106.424 35.6318 101.911C31.8371 93.2923 27.663 82.8432 28.6749 73.2139C29.0038 70.036 30.1485 66.6673 33.102 65.0275C49.7162 55.8813 70.8334 121.436 64.509 121.557C58.7222 121.672 51.0507 121.875 46.5983 119.047Z" fill="#69A6A9"/>
<path d="M70.8333 33.9535C71.3831 34.8382 71.7389 35.8306 71.8768 36.8645C71.9337 37.1378 70.8712 36.9598 70.8143 36.6802C70.6787 35.6467 70.3251 34.6542 69.7771 33.7692C69.657 33.5976 70.1819 33.6357 70.2135 33.642C70.4559 33.6617 70.6819 33.773 70.8459 33.9535H70.8333Z" fill="#69A6A9"/>
<path d="M65.0464 32.4978C65.3803 33.9452 65.5227 35.4304 65.4702 36.9152C65.4702 37.1123 64.395 36.9534 64.395 36.6292C64.4487 35.1787 64.3105 33.7274 63.9839 32.3135C63.9207 32.0593 64.9769 32.2118 65.0464 32.4978Z" fill="#69A6A9"/>
<path d="M60.9166 32.3389C60.4535 33.7525 60.173 35.22 60.0818 36.7055C60.0818 37.0169 59.0003 36.8135 59.0066 36.4194C59.0921 34.9338 59.3706 33.4659 59.8351 32.0529C59.9363 31.697 61.0051 31.9957 60.9103 32.3389H60.9166Z" fill="#69A6A9"/>
<path d="M55.9521 33.5911C55.6991 35.072 54.9718 36.4385 54.9149 37.9576C54.9149 38.2373 53.8271 38.0339 53.8397 37.6652C53.8966 36.1462 54.6239 34.7796 54.8706 33.2987C54.9275 32.9936 56.009 33.2415 55.9521 33.5911Z" fill="#69A6A9"/>
<path d="M74.3623 41.2246C74.5837 42.3306 74.7671 43.4492 74.9948 44.5551C75.058 44.8602 73.9892 44.6759 73.9323 44.3772C73.7109 43.2712 73.5275 42.1589 73.2998 41.053C73.2366 40.7479 74.3054 40.9322 74.3623 41.2246Z" fill="#69A6A9"/>
<path d="M69.815 41.2183C70.1211 42.5189 70.3325 43.8402 70.4475 45.1717C70.4981 45.5276 69.4229 45.3306 69.3786 45.0128C69.2636 43.6813 69.0522 42.36 68.7462 41.0594C68.6513 40.7479 69.7202 40.8941 69.8213 41.2183H69.815Z" fill="#69A6A9"/>
<path d="M65.6789 41.7012C65.5166 42.9101 65.4489 44.13 65.4765 45.3495C65.4765 45.8834 64.3887 45.6927 64.3887 45.2478C64.3645 43.9732 64.4343 42.6985 64.5974 41.4342C64.6733 40.9766 65.7485 41.2436 65.6789 41.7266V41.7012Z" fill="#69A6A9"/>
<path d="M61.9791 41.911C61.7767 43.2966 61.5553 44.6822 61.3466 46.0678C61.2897 46.4745 60.2082 46.2139 60.2715 45.7754C60.4738 44.3898 60.6952 43.0042 60.9039 41.6186C60.9672 41.2118 62.0423 41.4724 61.9854 41.911H61.9791Z" fill="#69A6A9"/>
<path d="M57.6026 41.4916C57.1422 42.691 56.8629 43.9528 56.7741 45.2353C56.7741 45.4387 55.6927 45.2353 55.699 44.9493C55.7878 43.6648 56.0671 42.4008 56.5275 41.1993C56.616 40.9323 57.6849 41.2501 57.6026 41.4916Z" fill="#69A6A9"/>
<path d="M51.6009 40.8687C51.3859 41.9746 51.2025 43.0869 50.9685 44.1929C50.9242 44.4153 49.8427 44.1929 49.8933 43.9068C50.1084 42.8009 50.2981 41.6886 50.5258 40.5763C50.57 40.3602 51.6515 40.6145 51.6009 40.8687Z" fill="#69A6A9"/>
<path d="M76.6519 49.9259C76.9151 51.0877 77.0529 52.2747 77.063 53.4662C77.063 53.981 75.9815 53.784 75.9815 53.3581C75.9728 52.1683 75.8328 50.9831 75.5641 49.8242C75.4565 49.3475 76.5507 49.5001 76.6519 49.9259Z" fill="#69A6A9"/>
<path d="M72.3007 49.3158C72.4597 50.6975 72.5273 52.0882 72.5031 53.4789C72.5031 53.9302 71.4279 53.695 71.4279 53.3454C71.4523 51.9548 71.3847 50.564 71.2256 49.1823C71.1623 48.7501 72.2501 48.9535 72.3007 49.3158Z" fill="#69A6A9"/>
<path d="M65.4703 49.5763C65.3144 51.0667 65.2468 52.5651 65.2679 54.0636C65.2679 54.572 64.1801 54.3623 64.1864 53.9555C64.1642 52.3976 64.2338 50.8398 64.3951 49.2903C64.4394 48.8644 65.5209 49.1186 65.4703 49.5763Z" fill="#69A6A9"/>
<path d="M61.5366 50.644C61.299 51.7371 61.1614 52.8498 61.1255 53.9681C61.1255 54.1143 60.044 53.9681 60.0503 53.6821C60.0859 52.5617 60.2235 51.4468 60.4614 50.3516C60.4994 50.1609 61.5808 50.4152 61.5366 50.644Z" fill="#69A6A9"/>
<path d="M56.7741 50.2118C56.5481 51.208 56.4126 52.2227 56.3693 53.2436C56.3693 53.7648 55.2752 53.5677 55.2815 53.1355C55.3255 52.0553 55.4652 50.9811 55.6989 49.9258C55.7875 49.4745 56.8689 49.7542 56.7741 50.2118Z" fill="#69A6A9"/>
<path d="M50.9873 48.4703C50.9525 49.4152 50.8125 50.3533 50.5699 51.2669C50.4561 51.7245 49.3809 51.4385 49.4948 50.9745C49.7273 50.1241 49.8631 49.2498 49.8995 48.3686C49.8995 47.841 50.9936 48.0381 50.9873 48.4703Z" fill="#69A6A9"/>
<path d="M76.443 57.8391V61.9959C76.443 62.5425 75.3552 62.3582 75.3552 61.9005V57.7311C75.3552 57.1908 76.443 57.3751 76.443 57.8264V57.8391Z" fill="#69A6A9"/>
<path d="M72.0982 59.1101C72.2879 60.2923 71.9211 61.4618 71.8958 62.644C71.8958 63.1398 70.8017 62.9237 70.8143 62.5296C70.8143 61.3538 71.2001 60.1652 71.0167 58.9957C70.9471 58.5254 72.0349 58.7033 72.0982 59.1101Z" fill="#69A6A9"/>
<path d="M66.9187 58.5445C66.7479 59.6203 66.678 60.7098 66.71 61.7987C66.71 62.2563 65.6348 62.0212 65.6348 61.6652C65.5997 60.5256 65.6695 59.3852 65.8435 58.2585C65.9131 57.8835 66.9946 58.1441 66.9187 58.5445Z" fill="#69A6A9"/>
<path d="M61.9791 58.7542C61.6414 59.83 61.5 60.9583 61.5616 62.0847C61.5616 62.2944 60.4865 62.1228 60.4865 61.7923C60.4185 60.6722 60.5491 59.5488 60.8723 58.4745C60.9798 58.1885 62.0423 58.519 61.9538 58.7605L61.9791 58.7542Z" fill="#69A6A9"/>
<path d="M56.7743 58.341C56.615 59.5119 56.5473 60.6935 56.5719 61.8749C56.5719 62.1037 55.4967 61.9321 55.4967 61.5826C55.4725 60.4011 55.5402 59.2195 55.6991 58.0487C55.7434 57.7817 56.8249 58.0487 56.7743 58.341Z" fill="#69A6A9"/>
<path d="M51.8095 57.9215C51.8095 59.1927 51.6198 60.4131 51.6008 61.6652C51.6008 61.9512 50.5256 61.7605 50.5256 61.3792C50.5256 60.108 50.7217 58.8813 50.7343 57.6355C50.7343 57.3495 51.8158 57.5402 51.8095 57.9215Z" fill="#69A6A9"/>
<path d="M48.5018 57.5084C48.3312 58.6077 48.2614 59.7204 48.2931 60.8325C48.2931 61.1376 47.218 60.9406 47.218 60.5465C47.1875 59.4278 47.2595 58.3087 47.433 57.2033C47.4963 56.8664 48.5777 57.127 48.5145 57.4957L48.5018 57.5084Z" fill="#69A6A9"/>
<path d="M77.689 68.2247C77.8609 69.3942 77.9286 70.5769 77.8914 71.7586C77.8914 72.3179 76.8036 72.1399 76.8036 71.6696C76.8419 70.4877 76.772 69.3047 76.5949 68.1357C76.5 67.6018 77.6005 67.748 77.689 68.2247Z" fill="#69A6A9"/>
<path d="M73.7425 67.8433C73.9671 68.9634 73.9671 70.1172 73.7425 71.2373C73.6856 71.5424 72.6042 71.2882 72.6674 70.945C72.8829 69.8689 72.8829 68.7604 72.6674 67.6844C72.5915 67.3411 73.6667 67.5191 73.7362 67.8433H73.7425Z" fill="#69A6A9"/>
<path d="M68.373 67.1885C68.373 68.4597 67.9872 69.6737 67.9556 70.9385C67.9556 71.4533 66.8615 71.2436 66.8741 70.8241C66.8741 69.5529 67.2599 68.3453 67.2852 67.0805C67.2852 66.5656 68.3793 66.7754 68.373 67.1885Z" fill="#69A6A9"/>
<path d="M64.4331 67.6972C64.4608 68.7414 64.3931 69.7861 64.2307 70.8179C64.1611 71.1675 63.0796 70.9005 63.1492 70.5255C63.3135 69.496 63.3833 68.4535 63.3579 67.4111C63.3579 67.0997 64.4331 67.2967 64.4331 67.6972Z" fill="#69A6A9"/>
<path d="M60.0818 68.3199C59.9142 69.605 59.8445 70.9012 59.8731 72.197C59.8731 72.6546 58.798 72.4194 58.798 72.0635C58.7663 70.7169 58.836 69.3699 59.0067 68.0339C59.0636 67.6589 60.1451 67.9131 60.0818 68.3199Z" fill="#69A6A9"/>
<path d="M54.9148 68.1165V71.6505C54.9148 71.8411 53.8396 71.6504 53.8396 71.3581V67.8242C53.8396 67.6335 54.9148 67.8242 54.9148 68.1165Z" fill="#69A6A9"/>
<path d="M49.7414 66.4514C49.7086 67.6104 49.7827 68.77 49.9627 69.9153C50.0133 70.195 48.9445 70.0107 48.8939 69.731C48.7168 68.5428 48.6469 67.3408 48.6852 66.1399C48.6852 65.9429 49.7604 66.1018 49.7604 66.4323L49.7414 66.4514Z" fill="#69A6A9"/>
<path d="M77.6826 78.0954C77.6826 79.3666 77.8723 80.5933 77.8849 81.8391C77.8849 82.0297 76.8161 81.8772 76.8098 81.553C76.8098 80.2819 76.62 79.0615 76.6011 77.8094C76.6011 77.6187 77.6762 77.7713 77.6826 78.0954Z" fill="#69A6A9"/>
<path d="M73.9577 76.8495V81.4258C73.9577 81.6355 72.8762 81.4703 72.8762 81.1334V76.5571C72.8762 76.3474 73.9577 76.5127 73.9577 76.8495Z" fill="#69A6A9"/>
<path d="M67.7471 76.4366C67.5827 77.8859 67.513 79.3446 67.5384 80.8031C67.5384 81.1209 66.4633 80.9175 66.4633 80.5107C66.4347 79.0521 66.5044 77.5933 66.672 76.1442C66.7163 75.7946 67.7977 76.0425 67.7471 76.4366Z" fill="#69A6A9"/>
<path d="M61.9791 77.2692C61.8279 78.5129 61.9665 79.7749 62.3838 80.9556C62.4534 81.1844 61.4099 81.051 61.3213 80.7713C60.8886 79.5501 60.7436 78.2448 60.8976 76.9577C60.9355 76.7289 62.017 76.9577 61.9791 77.2501V77.2692Z" fill="#69A6A9"/>
<path d="M57.394 77.2119C57.5647 78.3305 57.6345 79.4622 57.6028 80.5933C57.6028 80.7967 56.5276 80.6314 56.5276 80.3009C56.5615 79.2059 56.4937 78.11 56.3252 77.0276C56.2746 76.7479 57.3435 76.9323 57.394 77.2119Z" fill="#69A6A9"/>
<path d="M76.4367 87.6038C76.6074 88.9334 76.6772 90.2741 76.6454 91.6144C76.6454 91.8686 75.5703 91.6907 75.5703 91.3284C75.601 90.0285 75.5334 88.7281 75.3679 87.4385C75.311 87.0953 76.3861 87.2987 76.4367 87.6038Z" fill="#69A6A9"/>
<path d="M71.8833 87.2479V90.7882C71.8833 91.0679 70.8081 90.8772 70.8081 90.4958V86.9619C70.8081 86.6759 71.8833 86.8666 71.8833 87.2479Z" fill="#69A6A9"/>
<path d="M67.5383 87.2478V90.788C67.5383 90.9723 66.4631 90.788 66.4631 90.4957V86.9618C66.4631 86.7711 67.5383 86.9618 67.5383 87.2478Z" fill="#69A6A9"/>
<path d="M62.3649 87.0764C62.3144 88.3149 62.4531 89.5538 62.776 90.7501C62.8772 91.0679 61.8084 90.9154 61.7072 90.5912C61.3752 89.3489 61.2345 88.0628 61.2898 86.7776C61.2898 86.5043 62.3649 86.6887 62.3649 87.07V87.0764Z" fill="#69A6A9"/>
<path d="M78.5175 96.7119C78.6484 98.0668 78.5759 99.4337 78.3025 100.767C78.214 101.288 77.1388 101.008 77.2273 100.481C77.4882 99.2168 77.5543 97.9199 77.4234 96.6356C77.3412 96.07 78.4416 96.2098 78.5175 96.7119Z" fill="#69A6A9"/>
<path d="M73.3252 95.3008C73.5572 96.7821 73.4906 98.2951 73.1291 99.7499C73.0532 100.03 71.9781 99.7499 72.0477 99.4576C72.4033 98.0497 72.4764 96.5848 72.2627 95.1482C72.2184 94.8305 73.2936 95.0402 73.3252 95.3199V95.3008Z" fill="#69A6A9"/>
<path d="M67.5446 95.2691V98.5996C67.5446 99.1081 66.4568 98.8983 66.4568 98.4852V95.161C66.4568 94.6526 67.5446 94.8559 67.5446 95.2691Z" fill="#69A6A9"/>
<path d="M63.1935 94.6588C63.1682 96.4621 63.2379 98.2655 63.4022 100.061C63.4465 100.519 62.365 100.316 62.3208 99.9343C62.1615 98.1359 62.094 96.3306 62.1184 94.5254C62.1184 94.0614 63.1935 94.2838 63.1935 94.6588Z" fill="#69A6A9"/>
<path d="M78.9224 105.133C78.8785 106.39 78.739 107.642 78.5049 108.877C78.467 109.125 77.3855 108.877 77.4298 108.591C77.6632 107.356 77.8027 106.104 77.8472 104.847C77.8472 104.638 78.9287 104.809 78.9224 105.133Z" fill="#69A6A9"/>
<path d="M73.9577 105.051V108.381C73.9577 108.864 72.8762 108.642 72.8762 108.261V104.93C72.8762 104.447 73.9577 104.67 73.9577 105.051Z" fill="#69A6A9"/>
<path d="M68.7779 104.307C68.5916 105.386 68.5916 106.489 68.7779 107.568C68.8412 107.911 67.766 107.72 67.7091 107.409C67.5162 106.286 67.5162 105.138 67.7091 104.015C67.7597 103.716 68.8412 103.964 68.7842 104.307H68.7779Z" fill="#69A6A9"/>
<path d="M77.8787 112.15C78.0497 113.296 77.9099 114.466 77.474 115.538C77.3665 115.818 76.3103 115.481 76.3988 115.246C76.8261 114.212 76.9703 113.081 76.8162 111.972C76.7656 111.686 77.8345 111.877 77.8787 112.15Z" fill="#69A6A9"/>
<path d="M72.9205 111.585C72.5306 112.723 72.3173 113.915 72.2881 115.119C72.2881 115.411 71.2066 115.214 71.2129 114.833C71.2391 113.627 71.4525 112.432 71.8454 111.292C71.9529 110.949 73.0217 111.292 72.9205 111.585Z" fill="#69A6A9"/>
<path d="M67.5383 110.752V115.538C67.5383 115.723 66.4631 115.538 66.4631 115.246V110.46C66.4631 110.276 67.5383 110.46 67.5383 110.752Z" fill="#69A6A9"/>
<path d="M96.3079 61.5762C96.3332 62.7896 96.2634 64.0031 96.0992 65.2055C96.0297 65.6504 94.9482 65.3834 95.0241 64.9131C95.18 63.7718 95.2477 62.62 95.2265 61.4682C95.2265 60.947 96.3079 61.144 96.3079 61.5762Z" fill="#95C2E6"/>
<path d="M93.2028 60.6293C92.9688 61.589 92.817 62.5742 92.5703 63.5403C92.4438 64.0487 91.3687 63.7627 91.4888 63.2479C91.7228 62.2818 91.881 61.303 92.1213 60.3369C92.2415 59.8221 93.3229 60.1081 93.1964 60.6293H93.2028Z" fill="#95C2E6"/>
<path d="M90.0533 58.2332C89.5071 59.3433 89.038 60.4901 88.6493 61.6654C88.4722 62.1866 87.3844 61.8878 87.5741 61.3794C87.9913 60.1357 88.4899 58.9212 89.0667 57.7438C89.2944 57.2798 90.3316 57.6993 90.0533 58.2332Z" fill="#95C2E6"/>
<path d="M86.1637 56.2563C85.5255 57.4342 85.0489 58.6935 84.747 60C84.6648 60.4385 83.5834 60.1652 83.6719 59.7139C83.9788 58.4043 84.4662 57.1443 85.1202 55.9703C85.3289 55.5508 86.3851 55.8813 86.1953 56.2563H86.1637Z" fill="#95C2E6"/>
<path d="M95.8908 69.0764C96.0469 70.1535 95.9046 71.2531 95.4797 72.2543C95.3342 72.6293 94.2717 72.3052 94.4045 71.9683C94.8194 71.0113 94.9617 69.9573 94.8156 68.9238C94.746 68.5107 95.8275 68.695 95.8908 69.0573V69.0764Z" fill="#95C2E6"/>
<path d="M93.2027 67.4872C92.9687 68.6122 92.6082 69.6991 92.3742 70.8177C92.273 71.3072 91.1915 71.0275 91.299 70.5254C91.533 69.4067 91.8935 68.3199 92.1275 67.2012C92.2287 66.7118 93.3038 66.9915 93.2027 67.4872Z" fill="#95C2E6"/>
<path d="M89.4776 66.4514C89.0909 67.4145 88.8767 68.4387 88.8452 69.4768C88.8452 69.998 87.7574 69.7946 87.7637 69.3751C87.7798 68.2735 87.994 67.1839 88.3961 66.159C88.5606 65.7204 89.6294 66.0319 89.4713 66.4514H89.4776Z" fill="#95C2E6"/>
<path d="M86.1638 64.1949C85.7262 65.2713 85.3814 66.3834 85.1329 67.519C85.057 67.875 83.9755 67.6017 84.0514 67.233C84.3058 66.0962 84.6527 64.9823 85.0886 63.9025C85.2278 63.5466 86.2903 63.9025 86.1638 64.1949Z" fill="#95C2E6"/>
<path d="M95.4985 75.9471C95.9033 77.4534 95.0938 78.9725 94.6763 80.3962C94.5751 80.7395 93.5 80.4407 93.6012 80.1102C93.9996 78.7564 94.8092 77.25 94.4297 75.8072C94.3348 75.4577 95.41 75.6229 95.4985 75.9598V75.9471Z" fill="#95C2E6"/>
<path d="M91.9568 74.9999C91.4463 76.2157 91.0236 77.4668 90.6919 78.7436C90.6286 79.0868 89.5472 78.8198 89.6167 78.4512C89.9494 77.1747 90.3721 75.9237 90.8816 74.7076C91.0081 74.3516 92.0706 74.6631 91.9568 74.9999Z" fill="#95C2E6"/>
<path d="M88.858 73.0933C88.4968 74.0372 88.2195 75.0113 88.0295 76.0044C87.9852 76.2268 86.9038 75.9662 86.9544 75.7183C87.1431 74.7236 87.4182 73.7474 87.7765 72.801C87.8777 72.5531 88.9339 72.8963 88.858 73.0933Z" fill="#95C2E6"/>
<path d="M85.1328 70.608C84.5992 71.887 84.176 73.2097 83.8679 74.5615C83.8236 74.8475 82.7421 74.5996 82.7927 74.2691C83.1028 72.9199 83.5259 71.5995 84.0576 70.322C84.1651 70.0106 85.234 70.322 85.1391 70.608H85.1328Z" fill="#95C2E6"/>
<path d="M94.0375 84.6482C94.2209 86.1228 93.5821 87.5084 92.9497 88.805C92.7283 89.2563 91.6848 88.8431 91.9631 88.3156C92.5323 87.1588 93.1078 85.894 92.9434 84.5719C92.8738 83.9999 93.9742 84.1334 94.0375 84.6482Z" fill="#95C2E6"/>
<path d="M89.8888 83.2945C89.4521 84.3734 89.1073 85.4875 88.8579 86.625C88.7567 87.1081 87.6753 86.8284 87.7764 86.3326C88.0299 85.1976 88.3768 84.0857 88.8136 83.0085C88.9971 82.5318 90.0785 82.8432 89.8888 83.2945Z" fill="#95C2E6"/>
<path d="M85.9549 81.0128C85.7525 82.0488 85.5438 83.0912 85.3225 84.1272C85.2403 84.5531 84.1588 84.2798 84.2473 83.8412C84.456 82.7988 84.6647 81.7628 84.8798 80.7204C84.9683 80.301 86.0435 80.5743 85.9549 81.0128Z" fill="#95C2E6"/>
<path d="M91.9568 92.6567C91.7245 94.0282 91.2986 95.3595 90.6919 96.6101C90.5085 96.9914 89.4586 96.6545 89.6167 96.3177C90.2234 95.0671 90.6493 93.7359 90.8816 92.3643C90.9512 91.983 92.0327 92.2435 91.9568 92.6567Z" fill="#95C2E6"/>
<path d="M87.6119 90.159C87.2189 91.5083 86.735 92.8291 86.1636 94.1124C85.9865 94.4874 84.9367 94.1124 85.0884 93.8263C85.6589 92.5427 86.1427 91.2219 86.5367 89.8729C86.6632 89.4916 87.7321 89.7967 87.6119 90.159Z" fill="#95C2E6"/>
<path d="M84.1146 88.2902C83.9185 89.4724 83.6908 90.6419 83.4821 91.8241C83.4379 92.072 82.3564 91.8241 82.407 91.5381C82.6031 90.3559 82.8307 89.18 83.0394 87.9978C83.0774 87.7499 84.1652 87.9978 84.1146 88.2902Z" fill="#95C2E6"/>
<path d="M88.6492 100.564C88.4368 101.809 87.9244 102.983 87.1567 103.983C86.8594 104.364 85.8349 103.939 86.1701 103.506C86.8995 102.563 87.3822 101.45 87.5741 100.271C87.6626 99.7754 88.7378 100.049 88.6492 100.564Z" fill="#95C2E6"/>
<path d="M84.5067 98.0656C84.2727 99.1843 83.9186 100.271 83.6846 101.39C83.5834 101.847 82.5082 101.568 82.6031 101.104C82.8371 99.9851 83.1976 98.8919 83.4316 97.7732C83.5264 97.322 84.6079 97.5953 84.5067 98.0656Z" fill="#95C2E6"/>
<path d="M85.5438 105.966C84.943 107.364 84.279 108.731 83.6845 110.129C83.5643 110.396 82.5208 110.04 82.603 109.837C83.2038 108.445 83.8679 107.072 84.4687 105.68C84.5825 105.407 85.6324 105.769 85.5438 105.966Z" fill="#95C2E6"/>
<path d="M41.3427 67.9323C41.9339 68.8133 42.412 69.7657 42.7657 70.767C42.8543 70.9768 41.8234 70.8687 41.7032 70.5827C41.3704 69.6267 40.9222 68.7152 40.3688 67.8687C40.1411 67.57 41.1846 67.7226 41.3427 67.9323Z" fill="#95C2E6"/>
<path d="M37.801 68.822C38.3828 69.9025 38.6295 71.1292 39.3188 72.1525C39.4327 72.3241 38.9204 72.2797 38.8824 72.2733C38.6411 72.2547 38.4154 72.1458 38.25 71.9682C37.5606 70.9449 37.314 69.7182 36.7321 68.6377C36.6373 68.4724 37.6428 68.5487 37.7946 68.822H37.801Z" fill="#95C2E6"/>
<path d="M34.2214 70.1823C34.2732 71.5034 34.5894 72.8004 35.1511 73.9959C35.3661 74.5043 34.2909 74.3836 34.1455 74.0404C33.552 72.7984 33.2102 71.4502 33.1399 70.0743C33.1399 69.5976 34.215 69.82 34.2214 70.2014V70.1823Z" fill="#95C2E6"/>
<path d="M32.1533 72.1208C32.0416 73.1879 32.134 74.2665 32.4252 75.2988C32.5707 75.6801 31.4892 75.5466 31.3501 75.1716C31.0559 74.14 30.9614 73.0611 31.0718 71.9937C31.0718 71.5106 32.1533 71.7394 32.1533 72.1144V72.1208Z" fill="#95C2E6"/>
<path d="M45.618 74.1928C46.4091 74.7912 47.1361 75.4707 47.7873 76.2204C48.211 76.7416 47.1548 76.856 46.8955 76.5C46.2963 75.8127 45.6288 75.1887 44.9033 74.6378C44.3278 74.1801 45.2069 73.875 45.599 74.1928H45.618Z" fill="#95C2E6"/>
<path d="M41.9434 75.5974C42.3867 76.4733 42.8808 77.3222 43.4233 78.1398C43.6889 78.5402 42.6074 78.4258 42.424 78.1398C41.8542 77.2658 41.3348 76.3596 40.8682 75.4258C40.7607 75.2097 41.2477 75.2097 41.3299 75.2161C41.4559 75.2204 41.5791 75.255 41.6891 75.3169C41.7991 75.3788 41.8928 75.4663 41.9623 75.572L41.9434 75.5974Z" fill="#95C2E6"/>
<path d="M38.8888 76.8432C39.2873 77.6377 39.73 78.4067 40.1537 79.2012C40.4383 79.7605 39.3442 79.786 39.1228 79.3411C38.7244 78.5466 38.2817 77.7775 37.8579 76.983C37.5734 76.4237 38.6675 76.3982 38.8888 76.8432Z" fill="#95C2E6"/>
<path d="M35.4546 78.2606C36.0803 79.1857 36.6323 80.159 37.1053 81.1716C37.1749 81.3432 36.1566 81.2479 36.0491 80.9746C35.5725 79.9626 35.0185 78.9894 34.3921 78.0635C34.2972 77.8983 34.7842 77.9618 34.8222 77.9682C35.0056 78.0063 35.3471 78.0762 35.4546 78.2606Z" fill="#95C2E6"/>
<path d="M32.0079 79.2139C32.4059 80.2485 32.7293 81.3106 32.9755 82.3919C33.0514 82.716 31.9826 82.5444 31.9067 82.2266C31.6605 81.1453 31.3371 80.0833 30.939 79.0487C30.8252 78.7753 31.875 78.8961 32.0079 79.2139Z" fill="#95C2E6"/>
<path d="M49.2101 79.983C49.8937 81.0111 50.4642 82.1107 50.9114 83.2626C51.0253 83.4978 49.988 83.3961 49.8426 83.0974C49.4162 81.9996 48.8734 80.9512 48.2235 79.9703C47.9706 79.6461 49.0331 79.7732 49.2101 80.0084V79.983Z" fill="#95C2E6"/>
<path d="M45.3902 81.7246C46.1681 82.7924 46.8005 83.9365 47.4329 85.0488C47.5088 85.1759 46.5349 85.125 46.3704 84.8581C45.6811 83.7458 45.0486 82.6017 44.3024 81.5339C44.1885 81.3687 44.7008 81.4195 44.7324 81.4259C44.9723 81.4452 45.197 81.5513 45.3649 81.7246H45.3902Z" fill="#95C2E6"/>
<path d="M42.9111 83.0912C43.4142 84.0978 43.7841 85.1661 44.0115 86.2691C44.0684 86.6505 42.9933 86.4471 42.9427 86.1166C42.7131 85.0133 42.3411 83.945 41.8359 82.9386C41.7094 82.6399 42.7656 82.7607 42.9111 83.0912Z" fill="#95C2E6"/>
<path d="M39.5782 83.7712C39.8912 84.7186 40.2607 85.6462 40.685 86.5488C40.938 87.1335 39.8502 87.1844 39.6478 86.695C39.2346 85.7858 38.8776 84.8518 38.579 83.8984C38.3955 83.2628 39.4644 83.2628 39.6098 83.7522L39.5782 83.7712Z" fill="#95C2E6"/>
<path d="M35.8467 84.6292C36.2586 85.7269 36.816 86.7638 37.5037 87.7118C37.6618 87.9342 37.3709 88.1186 37.1811 88.1313C37.0466 88.146 36.9105 88.1244 36.7871 88.0685C36.6636 88.0126 36.5573 87.9246 36.4791 87.8135C35.7952 86.8745 35.2381 85.8486 34.8221 84.7626C34.6261 84.1843 35.7012 84.2351 35.8467 84.6609V84.6292Z" fill="#95C2E6"/>
<path d="M32.4064 85.8561C32.9566 86.8539 33.3677 87.9154 33.9242 88.9069C34.2215 89.4472 33.1273 89.4726 32.887 89.0467C32.3368 88.0489 31.9257 86.9874 31.3692 85.9959C31.0719 85.4556 32.166 85.4302 32.4064 85.8561Z" fill="#95C2E6"/>
<path d="M52.2839 86.5805C52.8789 87.6268 53.342 88.7434 53.6627 89.9047C53.7322 90.089 52.7014 89.9809 52.6065 89.7076C52.2831 88.5474 51.8201 87.4311 51.2278 86.3835C51.1203 86.2246 51.6199 86.2818 51.6515 86.2881C51.8904 86.3063 52.1148 86.41 52.2839 86.5805Z" fill="#95C2E6"/>
<path d="M49.3936 88.0868C49.6838 89.1301 50.0517 90.1499 50.4941 91.1377C50.6079 91.3983 49.5581 91.2839 49.4253 90.9724C48.9829 89.9846 48.615 88.9648 48.3248 87.9216C48.2426 87.6101 49.3114 87.7754 49.3936 88.0868Z" fill="#95C2E6"/>
<path d="M45.5357 89.3454C46.1049 90.4704 46.7627 91.5446 47.3319 92.6696C47.5975 93.2035 46.5097 93.1653 46.3073 92.7713C45.7381 91.6463 45.0867 90.5657 44.5175 89.4407C44.2455 88.9132 45.3333 88.945 45.5357 89.3454Z" fill="#95C2E6"/>
<path d="M42.2217 90.8453C42.5731 92.168 43.1696 93.4122 43.9798 94.5127C44.2518 94.9259 43.1703 94.8242 42.9743 94.5127C42.1327 93.3678 41.5127 92.0742 41.1465 90.6992C41.058 90.2924 42.1394 90.4704 42.2217 90.8326V90.8453Z" fill="#95C2E6"/>
<path d="M39.3253 91.9512C39.6478 93.2224 40.5332 94.2393 41.2226 95.3326C41.5072 95.7775 40.4194 95.6948 40.2107 95.377C39.4834 94.233 38.5853 93.1715 38.2438 91.8241C38.1363 91.3982 39.2241 91.5571 39.3253 91.9512Z" fill="#95C2E6"/>
<path d="M35.1511 92.269C35.714 93.7309 36.7575 94.8559 37.6809 96.0826C38.092 96.6038 37.0485 96.6482 36.8018 96.3177C35.8089 95.0465 34.7021 93.8771 34.1139 92.3516C33.9052 91.8114 34.9804 91.9067 35.1258 92.2817L35.1511 92.269Z" fill="#95C2E6"/>
<path d="M55.4588 93.2353C56.0209 94.2681 56.3937 95.394 56.5593 96.5594C56.6162 96.7755 55.5663 96.623 55.5031 96.3687C55.2248 95.2183 55.0667 94.0361 54.3963 93.0382C54.2951 92.8793 54.7948 92.9429 54.8264 92.9493C55.0648 92.964 55.2897 93.0657 55.4588 93.2353Z" fill="#95C2E6"/>
<path d="M51.7083 94.6335C52.2332 95.8157 52.8024 96.9788 53.2641 98.1864C53.4159 98.5869 52.3281 98.4598 52.1826 98.072C51.7399 96.9216 51.196 95.8157 50.6964 94.6907C50.4687 94.1759 51.5502 94.2712 51.7083 94.6335Z" fill="#95C2E6"/>
<path d="M48.1477 96.2734C48.4449 97.4683 49.1975 98.4153 49.8047 99.4514C49.9185 99.642 48.9066 99.5658 48.7358 99.2797C48.1034 98.231 47.3824 97.284 47.0852 96.1018C47.0093 95.8031 48.0718 95.9683 48.1477 96.2734Z" fill="#95C2E6"/>
<path d="M43.8725 98.5169C44.176 99.9534 45.1753 101.059 45.6686 102.4C45.7761 102.699 44.7136 102.566 44.5998 102.242C44.1065 100.881 43.1072 99.8008 42.8036 98.358C42.7277 98.0085 43.8029 98.1928 43.8725 98.5169Z" fill="#95C2E6"/>
<path d="M41.2161 100.201C41.8585 101.199 42.4251 102.245 42.911 103.328C43.0375 103.665 41.9687 103.532 41.8359 103.189C41.3752 102.156 40.8338 101.161 40.2168 100.214C39.9702 99.7819 41.0516 99.9154 41.2161 100.214V100.201Z" fill="#95C2E6"/>
<path d="M58.6084 100.188C59.2787 101.46 59.5064 102.934 60.0187 104.294C60.1642 104.676 59.0827 104.542 58.9435 104.167C58.4502 102.896 58.2415 101.466 57.5965 100.227C57.3498 99.7499 58.4313 99.858 58.6084 100.188Z" fill="#95C2E6"/>
<path d="M53.6753 101.937C54.1197 103.319 54.8073 104.611 55.7054 105.75C56.009 106.157 54.9212 106.081 54.6999 105.788C53.769 104.602 53.0558 103.259 52.5938 101.822C52.48 101.415 53.5615 101.568 53.6753 101.949V101.937Z" fill="#95C2E6"/>
<path d="M51.0505 103.322C51.3233 104.438 51.8566 105.473 52.6063 106.341C53.0238 106.843 51.9739 106.856 51.7336 106.551C50.8824 105.592 50.2748 104.441 49.9627 103.195C49.8552 102.763 50.9494 102.922 51.0379 103.322H51.0505Z" fill="#95C2E6"/>
<path d="M47.743 105.343C47.6545 106.5 48.249 107.428 48.8055 108.394C49.0395 108.801 47.9644 108.661 47.8062 108.394C47.1738 107.339 46.5414 106.335 46.6615 105.07C46.6615 104.759 47.7683 104.981 47.743 105.356V105.343Z" fill="#95C2E6"/>
<path d="M44.1253 106.551C44.5554 107.396 45.074 108.197 45.5041 109.049C45.757 109.551 44.6756 109.487 44.4858 109.119C44.0558 108.267 43.5372 107.472 43.1071 106.621C42.8478 106.112 43.9356 106.182 44.1253 106.551Z" fill="#95C2E6"/>
<path d="M39.7299 104.047C40.1417 105.333 40.7475 106.549 41.526 107.651C41.6399 107.816 41.1213 107.765 41.0896 107.765C40.8483 107.746 40.6226 107.637 40.4572 107.46C39.6774 106.359 39.0716 105.143 38.6611 103.856C38.5915 103.64 39.6287 103.767 39.7236 104.047H39.7299Z" fill="#95C2E6"/>
<path d="M61.2583 108.191C61.4663 109.218 61.6058 110.259 61.6757 111.305C61.6757 111.578 60.6068 111.4 60.6005 111.019C60.5301 110.015 60.3928 109.017 60.1894 108.032C60.1325 107.663 61.2077 107.866 61.2583 108.191Z" fill="#95C2E6"/>
<path d="M56.9765 109.322C57.3434 110.578 57.8527 111.787 58.4943 112.926C58.5512 113.047 57.5646 112.989 57.4318 112.722C56.7944 111.581 56.2853 110.373 55.914 109.119C55.8697 108.928 56.9132 109.068 56.9765 109.322Z" fill="#95C2E6"/>
<path d="M52.5685 110.669C52.9407 111.828 53.3908 112.96 53.9156 114.057C54.1496 114.534 53.0682 114.419 52.9101 114.089C52.3594 112.94 51.8861 111.755 51.4934 110.542C51.3606 110.155 52.4484 110.301 52.5685 110.669Z" fill="#95C2E6"/>
<path d="M49.3935 112.062C49.8362 113.072 50.3801 114.038 50.8797 115.03C51.1137 115.5 50.0386 115.386 49.8742 115.062C49.3492 114.019 48.7864 113.002 48.3183 111.928C48.1666 111.578 49.2417 111.699 49.3935 112.062Z" fill="#95C2E6"/>
<path d="M45.3524 112.97C46.0307 113.856 46.8439 114.628 47.762 115.259C47.9454 115.392 47.8821 115.557 47.6734 115.589C47.4039 115.621 47.1323 115.548 46.9145 115.386C45.9482 114.717 45.0943 113.897 44.3847 112.958C44.1191 112.595 45.1943 112.716 45.3777 112.958L45.3524 112.97Z" fill="#95C2E6"/>
<path d="M62.3649 114.979C62.4451 116.003 62.5824 117.021 62.776 118.03C62.833 118.436 61.7515 118.233 61.7009 117.883C61.5072 116.875 61.37 115.856 61.2898 114.833C61.2898 114.407 62.3586 114.642 62.3649 114.979Z" fill="#95C2E6"/>
<path d="M57.9253 115.392C58.368 116.396 58.9055 117.35 59.4431 118.303C59.753 118.837 58.6526 118.862 58.4122 118.443C57.8577 117.497 57.3511 116.523 56.8944 115.525C56.6414 114.953 57.7292 114.941 57.9253 115.392Z" fill="#95C2E6"/>
<path d="M51.6452 116.574C52.5529 117.59 53.536 118.536 54.586 119.403C55.1742 119.841 54.2825 120.127 53.8904 119.835C52.7713 118.92 51.7246 117.919 50.7598 116.841C50.2918 116.371 51.3416 116.263 51.6452 116.574Z" fill="#95C2E6"/>
</g>
<defs>
<filter id="filter0_d_879_3541" x="1.17139" y="2.41211" width="138.739" height="200.404" filterUnits="userSpaceOnUse" color-interpolation-filters="sRGB">
<feFlood flood-opacity="0" result="BackgroundImageFix"/>
<feColorMatrix in="SourceAlpha" type="matrix" values="0 0 0 0 0 0 0 0 0 0 0 0 0 0 0 0 0 0 127 0" result="hardAlpha"/>
<feOffset dx="7" dy="10"/>
<feGaussianBlur stdDeviation="14"/>
<feColorMatrix type="matrix" values="0 0 0 0 0 0 0 0 0 0 0 0 0 0 0 0 0 0 0.25 0"/>
<feBlend mode="normal" in2="BackgroundImageFix" result="effect1_dropShadow_879_3541"/>
<feBlend mode="normal" in="SourceGraphic" in2="effect1_dropShadow_879_3541" result="shape"/>
</filter>
<clipPath id="clip0_879_3541">
<rect width="136" height="198" fill="white"/>
</clipPath>
</defs>
</svg>
