<svg width="90" height="43" viewBox="0 0 90 43" fill="none" xmlns="http://www.w3.org/2000/svg">
<g clip-path="url(#clip0_879_3519)">
<g style="mix-blend-mode:multiply">
<g style="mix-blend-mode:multiply">
<path d="M49.57 35.0601H39.71V33.4201L38.77 33.3601C35.85 33.1801 32.97 32.9101 29.98 32.5201L28.85 32.3801V34.2901H5.09001V30.8401L4.78001 30.5401C4.49654 30.2793 4.23561 29.9949 4.00001 29.6901C1.85798 26.4348 0.807301 22.5823 1.00001 18.6901C0.956403 17.5188 0.996505 16.3458 1.12001 15.1801V13.7201L1.30001 13.5101V13.2401C1.37001 12.8601 1.44001 12.5001 1.52001 12.1401C3.00001 6.00013 7.69001 3.78013 10.24 3.46013H10.48H11.48L11.69 3.52013H11.77C12.87 3.60013 16.77 3.87013 20.64 3.87013H22.22C24.5806 3.61918 26.92 3.19808 29.22 2.61013C30.54 2.31013 31.74 2.04013 32.84 1.83013C34.2766 1.37088 35.7646 1.09208 37.27 1.00013C38.0012 0.98736 38.7279 1.11641 39.41 1.38013C39.9627 1.61874 40.4946 1.90306 41 2.23013L41.78 2.71013H42.05C43.1525 2.72806 44.2139 3.13139 45.05 3.85013L45.54 4.28013C45.7317 4.44842 45.9089 4.63239 46.07 4.83013L46.32 5.13013L46.7 5.19013C47.4205 5.30716 48.1047 5.58767 48.7 6.01013L49.22 6.39013C49.4514 6.55509 49.6658 6.74268 49.86 6.95013L50.14 7.24013H50.55C51.2465 7.26652 51.9289 7.44394 52.55 7.76013L53.11 8.06013C53.4435 8.228 53.7529 8.43989 54.03 8.69013L54.35 8.96013H54.76H55.06C55.4548 8.96015 55.848 9.01056 56.23 9.11013L56.84 9.27013C57.5907 9.46831 58.2788 9.85366 58.84 10.3901L59.03 10.5701L59.58 10.7101C61.05 11.1001 62.43 11.4001 63.77 11.6301C74.01 13.3801 79.35 15.6301 81.61 18.9701C82.4924 20.2513 82.8992 21.8007 82.76 23.3501V23.5201C82.8229 24.2479 82.7655 24.981 82.59 25.6901C82.283 26.8881 81.5777 27.946 80.59 28.6901L80.13 29.0601L80.62 31.7801L71.48 33.5001L67.83 34.1801V33.8701L58.59 34.8001V34.6801L49.66 35.3801L49.57 35.0601Z" fill="black"/>
</g>
</g>
<path d="M48.6401 36.06H38.7101V34.36C35.4301 34.16 32.5201 33.86 29.8501 33.51V35.29H4.09011V31.29C3.77167 30.9854 3.48364 30.6505 3.23011 30.29C0.954703 26.8768 -0.176458 22.8284 0.00010802 18.73C-0.0443821 17.5285 -0.000932917 16.3253 0.130108 15.13V13.39L0.370108 13.12C0.440108 12.72 0.510108 12.34 0.590108 11.97C2.11011 5.22005 7.25011 2.82005 10.0501 2.47005H10.3601H11.5601L11.8101 2.54005C12.9801 2.62005 16.8101 2.88005 20.6001 2.88005H22.1601C24.4675 2.61079 26.7531 2.17973 29.0001 1.59005C30.2901 1.30005 31.5201 1.00005 32.6401 0.810046C34.1418 0.340283 35.6982 0.0679949 37.2701 4.58435e-05C38.1245 -0.010743 38.9731 0.142002 39.7701 0.450046C40.3856 0.702095 40.9751 1.01357 41.5301 1.38005L42.0901 1.71005C43.4289 1.73227 44.7173 2.22426 45.7301 3.10005L46.2201 3.52005C46.4518 3.73188 46.6689 3.95906 46.8701 4.20005C47.7617 4.33054 48.6088 4.67352 49.3401 5.20005L49.8601 5.58005C50.1421 5.77648 50.4034 6.00096 50.6401 6.25005C51.4781 6.28001 52.2985 6.49878 53.0401 6.89005L53.6101 7.18005C54.017 7.40434 54.3934 7.67992 54.7301 8.00005H55.0901C55.5691 8.00014 56.0462 8.06062 56.5101 8.18005L57.1201 8.34005C58.0429 8.58098 58.8894 9.05239 59.5801 9.71005L59.8801 9.79005C61.3301 10.17 62.6801 10.46 63.9901 10.69C74.5301 12.49 80.0601 14.81 82.4901 18.46C83.4941 19.9244 83.9605 21.691 83.8101 23.46C83.876 24.2949 83.8119 25.1349 83.6201 25.95C83.2552 27.3734 82.4244 28.6337 81.2601 29.53L81.8101 32.64L72.6001 34.33V34.42L71.6001 34.52L67.0001 35.38V35L57.6801 35.94V35.8L48.6801 36.5L48.6401 36.06Z" fill="white"/>
<path d="M14.1301 27.1101H9.09009V30.2901H14.1301V27.1101Z" fill="black"/>
<path d="M24.8501 27.1101H19.8101V30.2901H24.8501V27.1101Z" fill="black"/>
<path d="M48.7502 27.8701H43.7102V31.0501H48.7502V27.8701Z" fill="black"/>
<path d="M53.2901 31.11L58.32 30.72L58.0801 27.54L53.05 27.93L53.2901 31.11Z" fill="black"/>
<path d="M61.8401 27.28L62.1401 30.45L67.1601 29.94L66.8601 26.77L61.8401 27.28Z" fill="black"/>
<path d="M75.46 25.47L70.5 26.4L71.06 29.53L76.02 28.6L75.46 25.47Z" fill="black"/>
<path d="M11.0702 7.44996C11.0702 7.44996 17.0702 7.93996 22.3302 7.81996C26.5202 7.72996 36.1502 4.54996 37.0802 5.55996C38.0102 6.56996 23.0002 13 18.7702 11.22C14.5402 9.43996 8.18019 8.21996 11.0702 7.44996Z" fill="black"/>
<path d="M11.0002 8.72992C18.5002 10.5099 19.5202 10.8299 25.7302 9.23992C31.9402 7.64992 36.5402 5.84992 38.0002 6.39992C39.4602 6.94992 49.4202 14.4999 63.2002 16.8599C76.9802 19.2199 79.4102 22.1899 78.8002 24.7499C78.1902 27.3099 66.8002 28.9999 54.0002 29.5099C44.5588 29.94 35.0983 29.3904 25.7702 27.8699C18.6802 26.7699 9.49018 30.3599 7.33018 27.3499C5.17018 24.3399 4.42018 19.4899 5.57018 14.3499C6.72018 9.20992 10.7702 8.70992 10.7702 8.70992L11.0002 8.72992Z" fill="black"/>
<path d="M11.0002 7.43012C18.5002 9.21012 19.5202 9.53012 25.7302 7.94012C31.9402 6.35012 36.5402 4.55012 38.0002 5.10012C39.4602 5.65012 49.4202 13.2001 63.2002 15.5601C76.9802 17.9201 79.4102 20.8901 78.8002 23.4501C78.1902 26.0101 66.8002 27.7401 54.0002 28.2101C44.5588 28.6402 35.0983 28.0906 25.7702 26.5701C18.6802 25.4701 9.49018 29.0601 7.33018 26.0501C5.17018 23.0401 4.42018 18.1901 5.57018 13.0501C6.72018 7.91012 10.7702 7.42012 10.7702 7.42012L11.0002 7.43012Z" fill="#303030"/>
<path d="M57.36 18.2301C58.72 18.0001 60 15.1301 59.89 15.0001L59.79 14.8701C49.47 12.4001 41.79 7.35015 38.94 5.65015C37.5982 6.43888 36.1186 6.96492 34.58 7.20015C32.58 7.34015 35.58 9.46015 37.12 10.5501C40.729 12.8038 44.5672 14.6676 48.57 16.1101C52.27 17.2601 56 18.4601 57.36 18.2301Z" fill="#FFE01A"/>
<path d="M41.3201 10.31C41.2634 10.3864 41.1907 10.4497 41.1072 10.4955C41.0237 10.5412 40.9312 10.5684 40.8362 10.575C40.7412 10.5817 40.6459 10.5677 40.5568 10.534C40.4677 10.5003 40.387 10.4478 40.3201 10.38L39.8901 9.99995C39.7494 9.87642 39.6623 9.70288 39.6473 9.51618C39.6324 9.32947 39.6908 9.1443 39.8101 8.99995L41.5001 6.99995C41.5561 6.92279 41.6282 6.85867 41.7113 6.81201C41.7944 6.76534 41.8867 6.73724 41.9817 6.72964C42.0767 6.72204 42.1723 6.73511 42.2618 6.76797C42.3513 6.80082 42.4326 6.85267 42.5001 6.91995L42.9801 7.32995C43.1209 7.45349 43.208 7.62702 43.223 7.81373C43.2379 8.00043 43.1795 8.18561 43.0601 8.32995L41.3201 10.31Z" fill="white"/>
<path d="M45.6002 12.78C45.5501 12.8535 45.4859 12.9163 45.4113 12.9647C45.3367 13.0131 45.2533 13.0462 45.1658 13.062C45.0783 13.0778 44.9885 13.0761 44.9017 13.0568C44.8149 13.0376 44.7328 13.0013 44.6602 12.95L44.1502 12.58C44.0715 12.5271 44.0043 12.4587 43.9528 12.379C43.9014 12.2993 43.8666 12.21 43.8507 12.1165C43.8348 12.023 43.8381 11.9272 43.8604 11.835C43.8826 11.7428 43.9234 11.656 43.9802 11.58L45.4802 9.39005C45.5303 9.31658 45.5944 9.25382 45.669 9.20541C45.7436 9.15701 45.8271 9.12393 45.9146 9.10811C46.002 9.09228 46.0918 9.09403 46.1786 9.11325C46.2654 9.13247 46.3475 9.16877 46.4202 9.22005L46.9402 9.59005C47.0931 9.70208 47.1957 9.86993 47.2257 10.0572C47.2557 10.2444 47.2106 10.4359 47.1002 10.59L45.6002 12.78Z" fill="white"/>
<path d="M50.41 14.9299C50.3707 15.0101 50.3158 15.0816 50.2485 15.1402C50.1812 15.1989 50.1029 15.2435 50.0181 15.2714C49.9334 15.2994 49.8439 15.3101 49.7549 15.303C49.6659 15.2959 49.5792 15.271 49.5 15.2299L48.94 14.9399C48.7803 14.8529 48.6608 14.7072 48.6067 14.5337C48.5526 14.3601 48.5681 14.1723 48.65 14.0099L49.83 11.6299C49.9096 11.4682 50.0502 11.3447 50.2208 11.2866C50.3915 11.2284 50.5782 11.2404 50.74 11.3199L51.3 11.6099C51.4597 11.6969 51.5792 11.8427 51.6333 12.0162C51.6874 12.1898 51.6719 12.3776 51.59 12.5399L50.41 14.9299Z" fill="white"/>
<path d="M55.7001 16.55C55.6574 16.725 55.5472 16.8758 55.3935 16.9696C55.2397 17.0633 55.0551 17.0922 54.8801 17.05L54.2701 16.89C54.0947 16.8387 53.9459 16.7216 53.8547 16.5633C53.7634 16.405 53.7367 16.2176 53.7801 16.0401L54.4301 13.46C54.45 13.3728 54.4872 13.2903 54.5395 13.2177C54.5918 13.145 54.6581 13.0835 54.7345 13.0369C54.811 12.9903 54.896 12.9595 54.9845 12.9463C55.0731 12.9331 55.1634 12.9378 55.2501 12.96L55.8601 13.12C55.9471 13.1432 56.0286 13.1834 56.0999 13.2383C56.1712 13.2932 56.2309 13.3617 56.2756 13.4398C56.3202 13.5179 56.3489 13.6041 56.36 13.6934C56.3711 13.7828 56.3643 13.8734 56.3401 13.96L55.7001 16.55Z" fill="white"/>
<path d="M12.8901 16.6701C11.9457 15.6838 10.7306 14.9989 9.3978 14.7017C8.06499 14.4046 6.67405 14.5084 5.40011 15.0001L5.15011 15.3001C5.00011 23.6401 7.68011 25.7301 8.00011 26.0501C9.21011 27.1301 13.2901 26.5501 15.4501 26.3101L20.4501 25.7301C18.2008 22.4941 15.6711 19.4624 12.8901 16.6701ZM12.9901 25.5901C11.9901 25.5301 9.47011 25.9001 8.75011 25.1101C7.89206 24.0781 7.26469 22.8745 6.91011 21.5801C6.46694 19.945 6.18559 18.2702 6.07011 16.5801C9.70011 15.1401 12.5801 17.8701 14.4901 20.1301C16.4001 22.3901 18.2301 25.1301 18.2301 25.1301C16.4957 25.3717 14.7501 25.5252 13.0001 25.5901H12.9901Z" fill="#FFE01A"/>
<path d="M30.68 8.63013C30.68 8.63013 24.68 10.2301 22.01 10.5501C19.34 10.8701 20.89 12.9801 22.33 14.0501C23.77 15.1201 35.7 21.8201 47.94 22.7701C56.59 23.4401 57.73 22.7701 57.73 22.7701C57.73 22.7701 36.26 17.0801 30.68 8.63013Z" fill="#FFE01A"/>
</g>
<defs>
<clipPath id="clip0_879_3519">
<rect width="89.67" height="42.24" fill="white"/>
</clipPath>
</defs>
</svg>
