<svg width="70" height="84" viewBox="0 0 70 84" fill="none" xmlns="http://www.w3.org/2000/svg">
<g clip-path="url(#clip0_879_3497)">
<g style="mix-blend-mode:multiply">
<g style="mix-blend-mode:multiply" opacity="0.97">
<path d="M33.8699 76.8197C33.1499 76.8197 32.4099 76.8197 31.6199 76.7097H31.3299C30.6899 76.6397 30.0399 76.5397 29.3299 76.3997L28.8999 76.3197C28.3199 76.1897 27.6999 76.0397 27.0699 75.8497L26.5499 75.6797C26.1199 75.5497 25.7299 75.4097 25.3599 75.2697H25.2999L22.4799 74.6197L20.5299 73.9597H4.43989V69.7697L4.32989 69.5497C3.19989 67.3497 1.32989 62.2697 1.21989 52.9397C1.14989 44.7797 3.74989 37.4897 5.63989 32.1697L6.04989 30.9997C6.24989 30.4597 6.42989 29.9397 6.58989 29.4397L6.65989 29.2297C6.77989 28.8597 6.88989 28.4997 6.98989 28.1597C7.14111 27.6771 7.24821 27.1817 7.30989 26.6797C7.3212 26.4899 7.3212 26.2995 7.30989 26.1097C7.29403 25.8643 7.26061 25.6203 7.20989 25.3797L7.13989 25.1197L6.99989 24.8797C6.90989 24.6197 6.82989 24.4097 6.74989 24.2097L6.63989 23.9297C5.78568 21.844 5.37694 19.6027 5.43989 17.3497C5.43989 12.3497 7.85989 8.65971 11.8999 7.52971C12.6185 7.34629 13.3583 7.25887 14.0999 7.26971C14.8848 7.27582 15.6676 7.34943 16.4399 7.48971C18.0135 7.68366 19.4597 8.45306 20.4999 9.6497L20.9099 10.0997L22.3199 11.6797L22.6499 9.59971C23.4599 4.46971 26.8399 1.71971 29.8199 1.26971C30.2966 1.19947 30.778 1.16604 31.2599 1.16971C32.6562 1.17977 34.0426 1.40577 35.3699 1.83971C36.6269 2.20826 37.7716 2.88549 38.6999 3.80971L38.9999 4.14971C39.1799 4.33971 39.3299 4.5097 39.4799 4.6997C39.6299 4.8897 39.6799 4.96971 39.7699 5.10971C39.8599 5.24971 40.0699 5.56971 40.2199 5.81971C40.2946 5.93161 40.3614 6.04856 40.4199 6.16971C40.6157 6.5342 40.7861 6.91176 40.9299 7.29971L41.0499 7.65971C41.1499 7.96971 41.2499 8.27971 41.3299 8.59971C41.3299 8.76971 41.3999 8.91971 41.4399 9.07971C41.4799 9.23971 41.4999 9.3997 41.5299 9.57971L41.8599 11.6397L43.2599 10.0797C44.3061 8.84855 45.7007 7.96303 47.2599 7.53971C47.9176 7.40347 48.5883 7.33976 49.2599 7.34971C50.3714 7.35991 51.4795 7.47373 52.5699 7.68971C53.8726 8.07762 55.0537 8.79387 55.9999 9.76971L56.2499 10.0397C56.4091 10.2118 56.5593 10.392 56.6999 10.5797C56.7999 10.6997 56.8899 10.8297 56.9799 10.9597C57.0699 11.0897 57.2599 11.3897 57.4099 11.6297L57.5699 11.9197C57.7353 12.2705 57.879 12.6312 57.9999 12.9997L58.1199 13.3497C58.2099 13.6197 58.2999 13.9097 58.3799 14.2197C58.3799 14.3497 58.4399 14.4997 58.4699 14.6497C58.4999 14.7997 58.5799 15.2397 58.6199 15.5597C58.6434 15.6954 58.6601 15.8323 58.6699 15.9697C58.7206 16.4313 58.7473 16.8953 58.7499 17.3597C58.8128 19.6127 58.4041 21.854 57.5499 23.9397L57.4599 24.1597C57.3599 24.4097 57.2799 24.6197 57.1999 24.8397L57.1299 25.0697L57.0699 25.2697C56.9989 25.5447 56.9553 25.8261 56.9399 26.1097C56.9297 26.2929 56.9297 26.4765 56.9399 26.6597V27.6597H57.1299C57.1299 27.8197 57.2099 27.9797 57.2599 28.1597C57.3099 28.3397 57.4699 28.8497 57.5899 29.2197V29.3897C57.7699 29.9197 57.9399 30.3897 58.1299 30.9697L58.5599 32.1697C60.4499 37.4897 63.0499 44.7897 62.9799 52.9397C62.8899 62.2697 60.9799 67.3497 59.8699 69.5497L59.7599 69.7697V73.8997H45.2299L44.9999 73.9997C41.5764 75.8358 37.7547 76.8041 33.8699 76.8197Z" fill="#080808"/>
</g>
<g style="mix-blend-mode:multiply">
<path d="M33.6499 76.5998C32.9299 76.5998 32.1899 76.5998 31.3999 76.4898H31.1099C30.4699 76.4198 29.8199 76.3198 29.1099 76.1798L28.6799 76.0998C28.0999 75.9698 27.4799 75.8098 26.8499 75.6298L26.3199 75.4598C25.8999 75.3298 25.5099 75.1898 25.1399 75.0498H25.0799L22.2599 74.3998L20.2599 73.7398H4.20992V69.5498L4.09992 69.3298C2.99992 67.1298 1.07992 62.0498 0.999924 52.7198C0.929924 44.5598 3.51992 37.2698 5.41992 31.9398L5.82992 30.7698C6.02992 30.2298 6.20992 29.7098 6.36992 29.2098L6.43992 28.9998C6.55992 28.6298 6.66992 28.2698 6.76992 27.9298C6.92114 27.4471 7.02825 26.9518 7.08992 26.4498C7.08992 26.2298 7.08992 26.0498 7.08992 25.8798C7.07406 25.6344 7.04064 25.3904 6.98992 25.1498L6.91992 24.8898L6.83992 24.6598C6.74992 24.3998 6.66992 24.1898 6.58992 23.9898L6.47992 23.7098C5.62572 21.6241 5.21697 19.3828 5.27992 17.1298C5.27992 12.1298 7.69992 8.43978 11.7399 7.30978C12.4586 7.12637 13.1983 7.03895 13.9399 7.04978C14.725 7.05091 15.5084 7.12456 16.2799 7.26978C17.8536 7.46374 19.2997 8.23314 20.3399 9.42978V9.47978L20.7499 9.92978L22.1599 11.5098L22.4899 9.41978C23.2999 4.29978 26.6799 1.54978 29.6599 1.09978C30.1366 1.02955 30.6181 0.996119 31.0999 0.999783C32.4954 1.01117 33.8811 1.23369 35.2099 1.65978C36.4403 2.02844 37.5625 2.69081 38.4799 3.58978L38.7799 3.91978C38.9599 4.11978 39.1099 4.28978 39.2499 4.47978C39.3899 4.66978 39.4599 4.74978 39.5499 4.88978C39.7137 5.11742 39.864 5.3545 39.9999 5.59978C40.0724 5.70957 40.1392 5.82305 40.1999 5.93978C40.3939 6.30861 40.5642 6.68938 40.7099 7.07978L40.8299 7.43978C40.9299 7.73978 41.0299 8.04978 41.1099 8.37978C41.1099 8.54978 41.1799 8.69978 41.2199 8.85978C41.2599 9.01978 41.2799 9.17978 41.3099 9.35978L41.6399 11.4198L42.9999 9.85978C44.0462 8.62862 45.4407 7.74311 46.9999 7.31978C47.6576 7.18355 48.3283 7.11984 48.9999 7.12978C50.1108 7.14203 51.2185 7.25246 52.3099 7.45978C53.6231 7.84878 54.8145 8.56842 55.7699 9.54978L56.0199 9.81978C56.1899 10.0098 56.3299 10.1798 56.4699 10.3598C56.6099 10.5398 56.6599 10.6098 56.7499 10.7398C56.8399 10.8698 57.0399 11.1698 57.1799 11.4098L57.3399 11.6998C57.5239 12.0487 57.6842 12.4095 57.8199 12.7798C57.8199 12.8798 57.8999 12.9998 57.9399 13.1198C58.0299 13.3898 58.1199 13.6798 58.1999 13.9898C58.1999 14.1198 58.2599 14.2698 58.2899 14.4098C58.3199 14.5498 58.3999 15.0098 58.4399 15.3298C58.4635 15.4655 58.4802 15.6024 58.4899 15.7398C58.5374 16.2016 58.5608 16.6655 58.5599 17.1298C58.6252 19.382 58.2199 21.6231 57.3699 23.7098L57.2799 23.9298C57.1799 24.1798 57.0999 24.3898 57.0199 24.6098L56.9499 24.8398L56.8899 25.0398C56.8189 25.3148 56.7753 25.5962 56.7599 25.8798C56.7497 26.063 56.7497 26.2466 56.7599 26.4298V27.4298H56.9499C56.9499 27.5798 57.0299 27.7498 57.0799 27.9298C57.1799 28.2698 57.2899 28.6198 57.4099 28.9898V29.1598C57.5899 29.6798 57.7599 30.1598 57.9499 30.7398L58.3799 31.9398C60.2699 37.2598 62.8699 44.5598 62.7999 52.7098C62.7099 62.0398 60.7999 67.1198 59.6899 69.3198L59.5799 69.5398V73.6698H44.9999L44.7799 73.7898C41.3555 75.6224 37.5339 76.5873 33.6499 76.5998Z" fill="black"/>
</g>
</g>
<path d="M33.6499 77.5999C32.8999 77.5999 32.1299 77.5999 31.2999 77.4799H31.0099C30.3499 77.4099 29.6499 77.3099 28.9199 77.1599L28.4799 77.0799C27.8499 76.9399 27.2099 76.7799 26.5699 76.5899L25.9999 76.3899C25.5599 76.2399 25.1499 76.0999 24.7599 75.9499L21.9999 75.3199L20.1099 74.6799H3.2099V69.7899C1.9399 67.2899 0.0799038 62.0699 -9.6212e-05 52.7299C-0.0700962 44.3999 2.5599 36.9999 4.4799 31.6099L4.8899 30.4399C5.0799 29.8999 5.2599 29.3899 5.4199 28.8999L5.4799 28.6999C5.5999 28.3299 5.7099 27.9799 5.7999 27.6499C5.93464 27.2429 6.03171 26.8245 6.0899 26.3999C6.0899 26.2699 6.0899 26.1099 6.0899 25.9499C6.07678 25.7543 6.04667 25.5602 5.9999 25.3699L5.9399 25.1499L5.8599 24.9999C5.7699 24.7499 5.6799 24.5299 5.5999 24.3099L5.5199 24.1099C4.61453 21.9077 4.18186 19.5399 4.2499 17.1599C4.2499 10.6999 7.7799 7.39986 11.4399 6.37986C13.0818 5.99206 14.7891 5.97157 16.4399 6.31986C18.2774 6.55334 19.9592 7.47104 21.1499 8.88986L21.5199 9.29986C22.3999 3.75986 26.0499 0.659855 29.5199 0.139855C31.5397 -0.104221 33.5884 0.100655 35.5199 0.739855C36.9238 1.15549 38.2 1.91912 39.2299 2.95985L39.5299 3.27985C39.7199 3.48985 39.8799 3.68985 40.0399 3.89985C40.1999 4.10985 40.2699 4.18986 40.3699 4.33986C40.4699 4.48986 40.7099 4.84985 40.8699 5.12986C40.9299 5.22986 41.0099 5.35986 41.0899 5.50986C41.299 5.91473 41.4826 6.3322 41.6399 6.75986C41.6866 6.89319 41.7366 7.03319 41.7899 7.17985C41.8899 7.46985 41.9899 7.80986 42.0799 8.17986C42.0799 8.35986 42.1599 8.52985 42.1899 8.68985C42.2199 8.84985 42.2599 9.04985 42.2899 9.22985C43.4614 7.85631 45.0188 6.86679 46.7599 6.38985C48.651 6.0723 50.5852 6.11641 52.4599 6.51986C53.9808 6.94432 55.3613 7.76574 56.4599 8.89985L56.7299 9.18985C56.9199 9.39985 57.0799 9.58986 57.2299 9.77985C57.3799 9.96985 57.4399 10.0599 57.5399 10.2099C57.7091 10.4483 57.866 10.6953 58.0099 10.9499L58.1999 11.2799C58.3964 11.664 58.5733 12.0578 58.7299 12.4599C58.7299 12.5799 58.8199 12.7199 58.8599 12.8599C58.8999 12.9999 59.0499 13.4499 59.1399 13.7899C59.1399 13.9299 59.2099 14.0899 59.2399 14.2499C59.2699 14.4099 59.3599 14.8999 59.4099 15.2499C59.4099 15.4299 59.4099 15.5599 59.4599 15.6899C59.4599 16.2199 59.5299 16.6899 59.5299 17.1799C59.6034 19.5756 59.1742 21.9601 58.2699 24.1799L58.1799 24.3999C58.0999 24.6099 58.0099 24.8199 57.9299 25.0399L57.8699 25.2499V25.4099C57.8204 25.6237 57.787 25.841 57.7699 26.0599C57.7699 26.2099 57.7699 26.3699 57.7699 26.5399C57.8202 26.9214 57.897 27.299 57.9999 27.6699C58.0899 27.9899 58.1899 28.3299 58.3099 28.6699L58.3699 28.8499C58.5299 29.3599 58.7099 29.8499 58.8999 30.3999L59.3199 31.5899C61.2399 36.9899 63.8699 44.3799 63.7999 52.7099C63.7099 62.0399 61.8599 67.2699 60.5799 69.7699V74.6599H45.2599C41.6898 76.5779 37.7025 77.5875 33.6499 77.5999Z" fill="white"/>
<path d="M17.37 26.3999C17.37 22.3099 19.2 22.3999 19.2 17.1299C19.2 10.9099 14.2 10.9099 14.2 10.9099C14.2 10.9099 9.19998 10.9099 9.19998 17.1299C9.19998 22.4199 11.01 22.3099 11.04 26.3999C11.07 30.4899 4.89998 40.8599 4.99998 52.6799C5.09998 64.4999 8.20998 68.4399 8.20998 68.4399V69.6799H20.21V68.4399C20.21 68.4399 23.32 64.4999 23.42 52.6799C23.52 40.8599 17.34 30.4999 17.37 26.3999Z" fill="#F2F2F2"/>
<path d="M18.8698 32.1698C18.4298 30.9198 18.0498 29.7998 17.7798 28.8198H10.6698C10.4098 29.8198 10.0198 30.9198 9.58984 32.1698H18.8698Z" fill="#A20000"/>
<path d="M11.0499 25.5797H17.3999C17.5007 24.42 17.8018 23.2866 18.2899 22.2297H10.1599C10.6525 23.2849 10.9538 24.4192 11.0499 25.5797Z" fill="#A20000"/>
<g style="mix-blend-mode:multiply">
<path d="M19.1998 17.1298C19.2653 16.2533 19.149 15.3727 18.8582 14.5433C18.5674 13.7139 18.1083 12.9535 17.5098 12.3098C17.7898 14.4798 18.0598 18.0698 17.2298 20.3098C15.9898 23.6498 13.7098 23.8098 14.2298 29.1698C14.7498 34.5298 18.1798 38.5798 18.2898 49.5398C18.3998 60.4998 16.9198 66.3298 16.1398 67.3398C15.5298 68.1398 10.7798 68.1998 8.07983 68.2698C8.12666 68.3307 8.17006 68.3941 8.20983 68.4598V69.6998H20.2098V68.4398C20.2098 68.4398 23.3198 64.4998 23.4198 52.6798C23.5198 40.8598 17.3398 30.4998 17.3698 26.3998C17.3998 22.2998 19.1998 22.4198 19.1998 17.1298Z" fill="#C4C4C4"/>
</g>
<path d="M52.69 26.3999C52.69 22.3099 54.52 22.3999 54.52 17.1299C54.52 10.9099 49.52 10.9099 49.52 10.9099C49.52 10.9099 44.52 10.9099 44.52 17.1299C44.52 22.4199 46.32 22.3099 46.35 26.3999C46.38 30.4899 40.16 40.8599 40.27 52.6799C40.38 64.4999 43.48 68.4399 43.48 68.4399V69.6799H55.48V68.4399C55.48 68.4399 58.59 64.4999 58.7 52.6799C58.81 40.8599 52.66 30.4999 52.69 26.3999Z" fill="#F2F2F2"/>
<path d="M54.1899 32.1698C53.7499 30.9198 53.3699 29.7998 53.0999 28.8198H45.9999C45.7299 29.8198 45.3499 30.9198 44.9099 32.1698H54.1899Z" fill="#A20000"/>
<path d="M46.37 25.5797H52.73C52.828 24.4207 53.1258 23.2873 53.61 22.2297H45.49C45.9742 23.2873 46.2719 24.4207 46.37 25.5797Z" fill="#A20000"/>
<g style="mix-blend-mode:multiply">
<path d="M54.5199 17.1298C54.5844 16.2542 54.4685 15.3747 54.1795 14.5457C53.8906 13.7166 53.4346 12.9557 52.8399 12.3098C53.1099 14.4798 53.3799 18.0698 52.5599 20.3098C51.3099 23.6498 49.0299 23.8098 49.5599 29.1698C50.0899 34.5298 53.5599 38.5798 53.6199 49.5398C53.6799 60.4998 52.2499 66.3298 51.4799 67.3398C50.8699 68.1398 46.1099 68.1998 43.4199 68.2698L43.5499 68.4598V69.6998H55.5499V68.4398C55.5499 68.4398 58.6599 64.4998 58.7699 52.6798C58.8799 40.8598 52.6599 30.4998 52.6899 26.3998C52.7199 22.2998 54.5199 22.4198 54.5199 17.1298Z" fill="#C4C4C4"/>
</g>
<path d="M35.4499 22.2398C35.4499 17.6298 37.5099 17.7498 37.5099 11.7998C37.5099 4.7998 31.9099 4.7998 31.9099 4.7998C31.9099 4.7998 26.3099 4.7998 26.3099 11.7998C26.3099 17.7498 28.3099 17.6298 28.3799 22.2398C28.4499 26.8498 21.3799 38.5198 21.5299 51.8198C21.6799 65.1198 25.1399 69.5498 25.1399 69.5498V70.9998H38.6799V69.5998C38.6799 69.5998 42.1799 65.1698 42.2899 51.8698C42.3999 38.5698 35.4099 26.8498 35.4499 22.2398Z" fill="#F2F2F2"/>
<path d="M37.1299 28.73C36.6399 27.32 36.2099 26.06 35.9099 24.97H27.9099C27.6099 26.06 27.1799 27.32 26.6899 28.73H37.1299Z" fill="#A20000"/>
<path d="M28.3398 21.3098H35.4898C35.5996 20.0074 35.9381 18.7346 36.4898 17.5498H27.3398C27.8873 18.7362 28.2256 20.0082 28.3398 21.3098Z" fill="#A20000"/>
<g style="mix-blend-mode:multiply">
<path d="M37.51 11.7999C37.5822 10.8144 37.4507 9.82468 37.1238 8.89223C36.797 7.95978 36.2817 7.10459 35.61 6.37988C35.92 8.81988 36.22 12.8599 35.29 15.3799C33.89 19.1399 31.29 19.3199 31.91 25.3799C32.53 31.4399 36.36 35.9699 36.48 48.3099C36.6 60.6499 34.94 67.2099 34.07 68.3099C33.38 69.2099 28.07 69.3099 25 69.3099L25.14 69.5199V70.9999H38.68V69.5999C38.68 69.5999 42.18 65.1699 42.29 51.8699C42.4 38.5699 35.41 26.8699 35.45 22.2899C35.49 17.7099 37.51 17.7499 37.51 11.7999Z" fill="#C4C4C4"/>
</g>
<path d="M53.3599 52.8799C53.3619 56.781 52.2068 60.5951 50.0407 63.8395C47.8746 67.084 44.7948 69.6131 41.1911 71.1069C37.5873 72.6007 33.6214 72.9921 29.7952 72.2315C25.969 71.4709 22.4543 69.5926 19.6958 66.8341C16.9373 64.0756 15.0589 60.5609 14.2984 56.7347C13.5378 52.9084 13.9291 48.9426 15.4229 45.3388C16.9167 41.735 19.4459 38.6553 22.6903 36.4892C25.9348 34.3231 29.7488 33.1679 33.6499 33.1699C38.8765 33.1726 43.8883 35.25 47.5841 38.9458C51.2798 42.6415 53.3573 47.6533 53.3599 52.8799Z" fill="#A20000"/>
<path d="M40.9998 46.6498C41.2414 46.8386 41.439 47.0778 41.5787 47.3507C41.7184 47.6237 41.797 47.9238 41.8089 48.2302C41.8208 48.5366 41.7658 48.8419 41.6478 49.1248C41.5297 49.4078 41.3513 49.6617 41.1251 49.8687C40.899 50.0757 40.6304 50.231 40.3381 50.3236C40.0458 50.4163 39.7368 50.4441 39.4327 50.4052C39.1285 50.3663 38.8365 50.2615 38.577 50.0982C38.3174 49.935 38.0966 49.7171 37.9298 49.4598C37.6882 49.2709 37.4907 49.0317 37.351 48.7588C37.2112 48.4859 37.1327 48.1857 37.1207 47.8793C37.1088 47.5729 37.1638 47.2676 37.2819 46.9847C37.4 46.7017 37.5783 46.4478 37.8045 46.2408C38.0307 46.0338 38.2993 45.8785 38.5916 45.7859C38.8839 45.6932 39.1928 45.6654 39.497 45.7043C39.8011 45.7433 40.0932 45.848 40.3527 46.0113C40.6122 46.1746 40.8331 46.3924 40.9998 46.6498ZM43.7198 40.8198C43.3835 41.2846 43.2165 41.8507 43.2468 42.4237C43.2771 42.9967 43.5029 43.542 43.8864 43.9688C44.2699 44.3956 44.7881 44.6781 45.3546 44.7693C45.9211 44.8604 46.5018 44.7547 46.9998 44.4698C47.3576 44.0023 47.5398 43.424 47.5144 42.8359C47.489 42.2478 47.2577 41.6873 46.861 41.2524C46.4642 40.8175 45.9273 40.5359 45.3439 40.4568C44.7606 40.3778 44.168 40.5062 43.6698 40.8198H43.7198ZM45.7198 48.7598C45.362 49.2272 45.1799 49.8055 45.2053 50.3936C45.2306 50.9817 45.4619 51.5422 45.8587 51.9771C46.2554 52.412 46.7924 52.6936 47.3757 52.7727C47.959 52.8517 48.5516 52.7233 49.0498 52.4098C49.4076 51.9423 49.5898 51.364 49.5644 50.7759C49.539 50.1878 49.3077 49.6273 48.911 49.1924C48.5142 48.7575 47.9773 48.4759 47.3939 48.3968C46.8106 48.3178 46.218 48.4462 45.7198 48.7598Z" fill="#303030"/>
<g style="mix-blend-mode:multiply">
<path d="M49.4098 41.0798C49.4098 41.4398 49.4098 41.7998 49.4098 42.1598C49.4069 45.8961 48.5481 49.582 46.8994 52.9347C45.2506 56.2875 42.8557 59.218 39.8984 61.5013C36.9411 63.7847 33.5001 65.3603 29.8393 66.1071C26.1784 66.854 22.3952 66.7523 18.7798 65.8098C22.1334 69.6328 26.8354 72.0108 31.9022 72.4464C36.9689 72.8819 42.0078 71.3411 45.9646 68.1465C49.9214 64.9519 52.4895 60.3509 53.1316 55.3062C53.7737 50.2614 52.4401 45.1638 49.4098 41.0798Z" fill="#D40000"/>
</g>
</g>
<defs>
<clipPath id="clip0_879_3497">
<rect width="69.61" height="83.43" fill="white"/>
</clipPath>
</defs>
</svg>
