<svg width="56" height="65" viewBox="0 0 56 65" fill="none" xmlns="http://www.w3.org/2000/svg">
<g clip-path="url(#clip0_879_3479)">
<g style="mix-blend-mode:multiply">
<g style="mix-blend-mode:multiply" opacity="0.9">
<path d="M28.1398 56.63L25.3498 58.49L22.5598 56.63L19.1498 58.5L16.8898 56.69L12.8898 58.41L10.6598 56.25L6.15979 57.59L1.78979 52.26L14.1498 17V16.2C14.0498 15.03 14.0398 13.07 14.0398 13.05C14.0536 10.937 14.654 8.86934 15.7739 7.07747C16.8939 5.2856 18.4894 3.83993 20.3827 2.90158C22.276 1.96323 24.3927 1.56906 26.4968 1.76301C28.601 1.95696 30.6099 2.73141 32.2998 4.00003L32.4398 4.11003C33.184 4.67164 33.8558 5.32327 34.4398 6.05003L34.5698 6.22003C34.8051 6.5409 35.0221 6.87477 35.2198 7.22003L35.3898 7.51004C35.5623 7.80493 35.7192 8.10868 35.8598 8.42003L35.9798 8.62003L36.0498 8.83003C36.1992 9.20992 36.3293 9.59707 36.4398 9.99003C36.4764 10.0947 36.5065 10.2016 36.5298 10.31C36.6198 10.68 36.6898 11.02 36.7498 11.38C36.7766 11.5089 36.7966 11.6391 36.8098 11.77C36.8675 12.2379 36.8975 12.7087 36.8998 13.18C36.8998 13.18 36.8998 15.18 36.7998 16.24V17.73L48.9098 52.26L44.5698 57.58L40.0698 56.25L37.8398 58.41L33.8398 56.69L31.5498 58.5L28.1398 56.63Z" fill="#191919"/>
</g>
<g style="mix-blend-mode:multiply" opacity="0.94">
<path d="M27.9198 56.41L25.1298 58.27L22.3398 56.41L18.9298 58.28L16.6598 56.47L12.6598 58.19L10.4098 56L5.90982 57.34L1.56982 52L13.9298 16.81V16C13.8298 14.83 13.8198 12.87 13.8198 12.85C13.8251 9.82373 15.0303 6.92311 17.1711 4.78418C19.3119 2.64525 22.2136 1.4426 25.2398 1.43995C27.7087 1.43628 30.1109 2.24054 32.0798 3.72995L32.2198 3.83995C32.964 4.40156 33.6358 5.05319 34.2198 5.77995L34.3498 5.94995C34.5851 6.27082 34.8021 6.60469 34.9998 6.94995L35.1698 7.23995C35.3423 7.53485 35.4992 7.8386 35.6398 8.14995L35.7598 8.34995L35.8298 8.55995C35.9807 8.93929 36.1109 9.32653 36.2198 9.71995C36.2198 9.83995 36.2798 9.93995 36.3098 10.04C36.3998 10.4 36.4698 10.75 36.5298 11.11C36.5566 11.2388 36.5766 11.369 36.5898 11.5C36.6475 11.9678 36.6775 12.4386 36.6798 12.91C36.6798 12.91 36.6798 14.91 36.5798 15.96V17.46L48.6898 52L44.3498 57.33L39.8498 56L37.6198 58.16L33.6198 56.44L31.3598 58.25L27.9198 56.41Z" fill="#101010"/>
</g>
<g style="mix-blend-mode:multiply" opacity="0.97">
<path d="M27.6999 56.1901L24.9099 58.0501L22.1199 56.1901L18.7099 58.0601L16.4499 56.2501L12.4499 57.9701L10.1899 55.8001L5.68985 57.1501L1.34985 51.8201L13.7099 16.5901V15.7901C13.6099 14.6201 13.5999 12.6601 13.5999 12.6401C13.5989 10.5203 14.1885 8.44211 15.3026 6.63864C16.4167 4.83517 18.0111 3.3777 19.9071 2.42969C21.8032 1.48168 23.9258 1.0806 26.037 1.27143C28.1482 1.46227 30.1646 2.23747 31.8599 3.51011L31.9999 3.62011C32.7441 4.18171 33.4158 4.83334 33.9999 5.56011L34.1299 5.73011C34.3636 6.03477 34.5806 6.3519 34.7799 6.68011L34.9499 6.97011C35.1223 7.265 35.2792 7.56876 35.4199 7.88011L35.5299 8.08011L35.6099 8.29011C35.7592 8.66999 35.8894 9.05714 35.9999 9.4501C35.9999 9.5701 36.0599 9.6701 36.0899 9.77011C36.1799 10.1301 36.2499 10.4801 36.3099 10.8401C36.3367 10.969 36.3567 11.0991 36.3699 11.2301C36.4275 11.6979 36.4576 12.1687 36.4599 12.6401C36.4599 12.6401 36.4599 14.6401 36.3599 15.7001V17.1901L48.4699 51.8201L44.1299 57.1401L39.6299 55.8001L37.3999 58.0001L33.3999 56.2801L31.1399 58.0901L27.6999 56.1901Z" fill="#080808"/>
</g>
<g style="mix-blend-mode:multiply">
<path d="M27.4799 56L24.6899 57.86L21.8999 56L18.4899 57.87L16.2199 56L12.2199 57.73L9.99988 55.58L5.49988 56.92L1.12988 51.6L13.4899 16.37V15.56C13.3799 14.4 13.3699 12.44 13.3699 12.42C13.3752 9.39288 14.58 6.49123 16.7206 4.35071C18.8611 2.21018 21.7627 1.00531 24.7899 1.00002C27.262 0.994906 29.6679 1.7992 31.6399 3.29002L31.7799 3.40002C32.5241 3.96163 33.1959 4.61326 33.7799 5.34002L33.9099 5.51002C34.1451 5.83089 34.3622 6.16476 34.5599 6.51002L34.7299 6.80002C34.9024 7.09492 35.0592 7.39867 35.1999 7.71002L35.3199 7.91002L35.3899 8.12002C35.5407 8.49936 35.6709 8.8866 35.7799 9.28002C35.7799 9.40002 35.8399 9.50002 35.8699 9.60002C35.9599 9.96002 36.0299 10.31 36.0899 10.67C36.1167 10.7989 36.1367 10.9291 36.1499 11.06C36.2076 11.5278 36.2376 11.9987 36.2399 12.47C36.2399 12.47 36.2399 14.47 36.1399 15.52V17L48.2499 51.6L43.9099 56.92L39.4099 55.58L37.1799 57.75L33.1799 56.02L30.9199 57.84L27.4799 56Z" fill="black"/>
</g>
</g>
<path d="M27.53 57.1301L24.69 59.0001L21.85 57.1001L18.38 59.0001L16.07 57.1501L12 58.9301L9.69 56.7101L5.11 58.0701L0 51.8001L12.49 16.2001V15.5601C12.38 14.4401 12.37 12.4401 12.37 12.4201C12.3677 10.1128 13.0086 7.85065 14.2208 5.8875C15.433 3.92436 17.1684 2.33802 19.2323 1.30661C21.2962 0.275194 23.6067 -0.160444 25.9044 0.0486122C28.2022 0.257668 30.3962 1.10314 32.24 2.49008L32.39 2.60008C33.1878 3.21602 33.9066 3.92807 34.53 4.72008L34.68 4.91008C34.92 5.23008 35.16 5.58008 35.38 5.91008L35.56 6.20008C35.75 6.54008 35.92 6.87008 36.08 7.20008L36.2 7.42008L36.3 7.71008C36.4608 8.13203 36.5977 8.56271 36.71 9.00008L36.81 9.36008C36.91 9.75008 36.99 10.1201 37.05 10.5101C37.05 10.6801 37.1 10.8101 37.11 10.9401C37.1759 11.4474 37.2093 11.9585 37.21 12.4701C37.21 12.4701 37.21 14.4701 37.1 15.6101V16.8001L49.38 51.8001L44.26 58.0701L39.68 56.7101L37.4 58.9301L33.31 57.1801L31 59.0001L27.53 57.1301Z" fill="white"/>
<path d="M31.6499 16.3601L30.6499 16.6801L32.3599 22.6801H31.1599L29.7899 16.6001L28.7199 16.8001L29.7199 22.6801H28.3899L27.6499 16.6801L26.5699 16.7701L26.9299 22.6401H25.4099L25.2299 17.0901H24.1399L23.9999 22.6801H22.4399L22.8099 16.8101L21.7199 16.7201L20.9799 22.7201H19.6999L20.6999 16.8401L19.6299 16.6401L18.2499 22.7201H17.0599L18.7699 16.7201L17.7699 16.4001L5.6499 50.8101L6.8799 52.3301L8.7599 51.7701L14.4899 31.7001H16.1799L11.6699 51.7001L13.0699 53.0001L14.8699 52.2301L18.2299 31.7001H19.8699L17.3699 51.8201L18.9099 53.0501L20.6199 52.1101L21.8899 31.7001H23.6899L23.0599 51.9301L24.6899 53.0001L26.3199 51.9101L25.6899 31.7001H27.4899L28.7499 52.1101L30.4699 53.0501L31.9999 51.8201L29.5099 31.7001H31.1499L34.4999 52.2501L36.2999 53.0201L37.7099 51.6601L33.1999 31.6601H34.8899L40.6099 51.7301L42.4899 52.2901L43.7299 50.7701L31.6499 16.3601ZM14.8499 30.4201L16.6899 24.0001H17.9199L16.4699 30.4601L14.8499 30.4201ZM18.4399 30.4201L19.4399 23.9601H20.7799L19.9999 30.4201H18.4399ZM21.9699 30.4201L22.3599 24.0001H23.9299L23.7299 30.4601L21.9699 30.4201ZM25.6499 30.4201L25.4499 24.0001H26.9999L27.3999 30.4601L25.6499 30.4201ZM29.3499 30.4201L28.5499 24.0001H29.8899L30.9399 30.4601L29.3499 30.4201ZM32.9099 30.4201L31.4499 24.0001H32.6899L34.5299 30.4601L32.9099 30.4201Z" fill="#F2F2F2"/>
<path d="M18.64 17.1401L18.77 16.6801L17.77 16.3701C18.0389 16.6497 18.3299 16.9072 18.64 17.1401Z" fill="#DBDBDB"/>
<path d="M22.72 18.28L22.81 16.81L21.72 16.72L21.53 18.24C22 18.27 22.38 18.29 22.72 18.28Z" fill="#DBDBDB"/>
<path d="M19.5901 16.6001L19.3601 17.6001C19.7075 17.7834 20.0728 17.9309 20.4501 18.0401L20.6601 16.8001L19.5901 16.6001Z" fill="#DBDBDB"/>
<path d="M25.6899 31.7001H28.0599L30.0599 52.8001L30.4999 53.0501L31.9999 51.8201L29.5099 31.7001H31.7099L35.4899 52.7001L36.2999 53.0501L37.7099 51.6901L33.1999 31.6901H35.1999L41.1999 51.9401L42.4799 52.3201L43.7199 50.8001L31.6499 16.3601L30.6499 16.6801L32.6499 22.6101L31.2099 22.6801L29.7899 16.6001L28.7199 16.8001L30.2799 22.6601H28.3899L27.6499 16.6601L26.5699 16.7501L27.3799 22.6201H25.3799L25.1999 17.0701H24.1399V18.0701C25.3099 17.8301 24.6699 17.4901 24.8199 19.2201C25.0099 21.3301 25.3999 45.7601 25.5099 52.4001L26.3499 51.8401L25.6899 31.7001ZM32.9099 24.0001L34.9099 30.4601H32.9099L31.4499 24.0001H32.9099ZM30.3699 24.0001L31.6199 30.3801H29.3499L28.5499 24.0001H30.3699ZM25.4499 24.0001H27.2899L27.9299 30.4401H25.6499L25.4499 24.0001Z" fill="#DBDBDB"/>
<path d="M32.1101 15.2C32.1701 14.83 32.2101 12.81 32.2101 12.42C32.2101 10.4521 31.4284 8.56479 30.0368 7.17327C28.6453 5.78175 26.758 5 24.7901 5C22.8222 5 20.9349 5.78175 19.5434 7.17327C18.1519 8.56479 17.3701 10.4521 17.3701 12.42C17.3701 12.81 17.3701 14.83 17.4701 15.2H32.1101Z" fill="#F2F2F2"/>
<path d="M29.14 10C28.94 14.42 26.77 13.31 26.77 15.19H32.11C32.17 14.82 32.21 12.8 32.21 12.41C32.2052 11.1059 31.8559 9.8262 31.1973 8.70055C30.5388 7.5749 29.5945 6.64327 28.46 6.00002C27.73 5.56002 29.25 7.55002 29.14 10Z" fill="#DBDBDB"/>
<path d="M32.11 15.2002H17.49V17.1302H32.11V15.2002Z" fill="#A20000"/>
<path d="M32.1 15.2002H26.77V17.1302H32.1V15.2002Z" fill="#750000"/>
</g>
<defs>
<clipPath id="clip0_879_3479">
<rect width="55.08" height="64.67" fill="white"/>
</clipPath>
</defs>
</svg>
