<svg width="63" height="63" viewBox="0 0 63 63" fill="none" xmlns="http://www.w3.org/2000/svg">
<g clip-path="url(#clip0_879_3467)">
<g style="mix-blend-mode:multiply">
<g style="mix-blend-mode:multiply" opacity="0.94">
<path d="M56.3865 29.6661C56.7996 14.4949 44.8359 1.86129 29.6648 1.44812C14.4936 1.03495 1.86001 12.9987 1.44684 28.1698C1.03367 43.341 12.9974 55.9746 28.1685 56.3878C43.3397 56.8009 55.9733 44.8372 56.3865 29.6661Z" fill="#101010"/>
</g>
<g style="mix-blend-mode:multiply" opacity="0.97">
<path d="M28.7002 56.18C23.2652 56.18 17.9522 54.5683 13.4332 51.5488C8.91409 48.5292 5.39191 44.2374 3.31202 39.2161C1.23212 34.1948 0.687926 28.6695 1.74825 23.3389C2.80857 18.0083 5.42579 13.1118 9.26893 9.26869C13.1121 5.42554 18.0085 2.80833 23.3391 1.748C28.6697 0.687682 34.1951 1.23188 39.2164 3.31177C44.2377 5.39167 48.5295 8.91385 51.549 13.4329C54.5686 17.952 56.1802 23.265 56.1802 28.7C56.1723 35.9857 53.2745 42.9707 48.1228 48.1225C42.971 53.2743 35.9859 56.172 28.7002 56.18Z" fill="#080808"/>
</g>
<g style="mix-blend-mode:multiply">
<path d="M55.9509 29.1265C56.3058 13.9539 44.2937 1.36629 29.121 1.01138C13.9484 0.656465 1.36082 12.6686 1.00591 27.8412C0.650995 43.0139 12.6631 55.6014 27.8358 55.9563C43.0084 56.3113 55.596 44.2991 55.9509 29.1265Z" fill="black"/>
</g>
</g>
<path d="M56.8697 28.9492C57.1843 13.2202 44.6884 0.214216 28.9593 -0.100365C13.2302 -0.414947 0.224269 12.081 -0.0903121 27.81C-0.404893 43.5391 12.091 56.5451 27.8201 56.8596C43.5492 57.1742 56.5551 44.6783 56.8697 28.9492Z" fill="white"/>
<path d="M51.8901 26.6702C52.2481 31.3003 51.2251 35.9325 48.9505 39.9812C46.6758 44.0299 43.2516 47.3131 39.111 49.4157C34.9703 51.5184 30.2991 52.3459 25.6882 51.7937C21.0772 51.2416 16.7335 49.3345 13.2064 46.3136C9.6793 43.2928 7.12718 39.2939 5.87279 34.8226C4.61841 30.3513 4.71808 25.6084 6.15922 21.1938C7.60036 16.7792 10.3182 12.891 13.9691 10.021C17.62 7.15103 22.04 5.42812 26.6701 5.07016C32.8788 4.59015 39.0239 6.59619 43.7536 10.647C48.4833 14.6977 51.41 20.4615 51.8901 26.6702Z" fill="#303030"/>
<path d="M47.1901 19.33C49.7501 25.66 48.3101 34 42.0001 36.55C35.6901 39.1 28.2001 35.35 25.3401 28.2C22.4801 21.05 25.2801 13.2 31.6001 10.66C37.9201 8.12002 44.6401 13 47.1901 19.33Z" fill="#FDFDFD"/>
<path d="M39.8901 20.6102C40.2652 19.3458 40.1981 17.9914 39.7001 16.7702C38.5901 14.0102 35.7001 12.5602 33.2601 13.5402C30.8201 14.5202 29.7301 17.5402 30.8401 20.3202C31.3182 21.5494 32.2044 22.5768 33.3501 23.2302C32.8288 24.1761 32.5268 25.2271 32.4662 26.3054C32.4056 27.3837 32.5881 28.4618 33.0001 29.4602C34.4201 33.0102 38.1201 34.8702 41.2701 33.6102C44.4201 32.3502 45.8001 28.4502 44.3801 24.9002C43.9986 23.8958 43.3975 22.9893 42.6206 22.247C41.8438 21.5048 40.9108 20.9455 39.8901 20.6102ZM34.5301 16.6902C35.0049 16.5379 35.5205 16.5784 35.9658 16.8029C36.411 17.0273 36.7502 17.4179 36.9101 17.8902C37.0324 18.1112 37.1063 18.3557 37.1269 18.6074C37.1475 18.8592 37.1142 19.1124 37.0294 19.3503C36.9445 19.5882 36.81 19.8054 36.6348 19.9873C36.4595 20.1692 36.2476 20.3117 36.013 20.4054C35.7784 20.4991 35.5266 20.5418 35.2743 20.5307C35.0219 20.5195 34.7748 20.4548 34.5494 20.3408C34.324 20.2268 34.1255 20.0661 33.967 19.8695C33.8085 19.6728 33.6936 19.4447 33.6301 19.2002C33.4178 18.7478 33.3933 18.2298 33.562 17.7594C33.7306 17.2891 34.0787 16.9046 34.5301 16.6902ZM40.0001 30.2702C39.6061 30.4018 39.1901 30.4545 38.7757 30.4252C38.3614 30.3959 37.9569 30.2852 37.5854 30.0995C37.2139 29.9137 36.8827 29.6565 36.6106 29.3427C36.3386 29.0288 36.1311 28.6643 36.0001 28.2702C35.757 27.8987 35.5994 27.4778 35.5386 27.038C35.4779 26.5982 35.5155 26.1503 35.6489 25.7268C35.7822 25.3033 36.0078 24.9147 36.3096 24.589C36.6113 24.2632 36.9815 24.0085 37.3936 23.8432C37.8057 23.678 38.2493 23.6062 38.6925 23.6332C39.1357 23.6601 39.5674 23.7851 39.9564 23.9991C40.3454 24.2131 40.6821 24.5108 40.9421 24.8707C41.2021 25.2305 41.379 25.6437 41.4601 26.0802C41.8214 26.8295 41.8706 27.6916 41.5969 28.4772C41.3231 29.2628 40.7488 29.9077 40.0001 30.2702Z" fill="#303030"/>
<g style="mix-blend-mode:multiply" opacity="0.5">
<path d="M46.0001 12.8501C46.8354 16.7067 46.7957 20.7015 45.8842 24.5408C44.9727 28.3801 43.2124 31.9664 40.7327 35.036C38.2531 38.1056 35.117 40.5805 31.5552 42.2789C27.9933 43.9772 24.0962 44.8558 20.1501 44.8501C16.6198 44.862 13.1233 44.1613 9.87012 42.7901C11.8051 45.2568 14.2146 47.3108 16.9565 48.831C19.6984 50.3511 22.717 51.3065 25.8342 51.6407C28.9514 51.975 32.104 51.6813 35.1059 50.7771C38.1077 49.8729 40.898 48.3764 43.3119 46.376C45.7259 44.3756 47.7146 41.9119 49.1607 39.1302C50.6067 36.3486 51.4809 33.3054 51.7314 30.1804C51.982 27.0553 51.604 23.9118 50.6196 20.9352C49.6352 17.9587 48.0645 15.2096 46.0001 12.8501Z" fill="#303030"/>
</g>
</g>
<defs>
<clipPath id="clip0_879_3467">
<rect width="62.79" height="62.79" fill="white"/>
</clipPath>
</defs>
</svg>
