<svg width="85" height="50" viewBox="0 0 85 50" fill="none" xmlns="http://www.w3.org/2000/svg">
<g clip-path="url(#clip0_879_3448)">
<g style="mix-blend-mode:multiply">
<g style="mix-blend-mode:multiply" opacity="0.94">
<path d="M17.73 43.3302C15.4062 43.3382 13.1089 42.8364 11 41.8602C2.53 38.0002 -0.999998 27.4202 3.2 18.4002C4.25136 16.0873 5.7659 14.0146 7.65 12.3102L8 12.0002V11.5502C7.97858 10.2547 8.32768 8.98016 9.0062 7.87645C9.68472 6.77275 10.6644 5.88585 11.83 5.32015C13.1716 4.60275 14.6686 4.22507 16.19 4.22015C17.9558 4.24184 19.6831 4.7393 21.19 5.66015L21.59 5.89015L30.19 2.89015C32.3351 1.9405 34.6541 1.44674 37 1.44015C38.9416 1.42547 40.8697 1.76433 42.69 2.44015L43.69 2.87015L44.53 3.29015L77.94 18.7602L71.48 32.7602L50.79 40.0502L41.7 35.8602L41.31 36.0102C40.5102 36.3169 39.6877 36.561 38.85 36.7402H38.78L24 42.1302C22.0051 42.9244 19.8772 43.3316 17.73 43.3302Z" fill="#101010"/>
</g>
<g style="mix-blend-mode:multiply" opacity="0.97">
<path d="M17.5202 43.1101C15.1933 43.116 12.8932 42.6143 10.7802 41.6401C2.31015 37.7301 -1.18985 27.2001 3.00015 18.1801C4.05493 15.8692 5.56899 13.7971 7.45015 12.0901L7.78015 11.7901V11.3401C7.75873 10.0446 8.10783 8.77006 8.78635 7.66635C9.46488 6.56265 10.4446 5.67575 11.6102 5.11006C12.9413 4.3924 14.4279 4.01132 15.9402 4.00006C17.7258 4.01541 19.474 4.51295 21.0002 5.44006L21.4002 5.68006L30.0002 2.68006C32.1258 1.74987 34.4199 1.26653 36.7402 1.26006C38.6851 1.24416 40.6167 1.58303 42.4402 2.26006C42.7901 2.39006 43.1301 2.54006 43.4402 2.69006L44.2802 3.11006L77.7202 18.5401L71.2701 32.5401L50.5702 39.8501L41.4802 35.6601L41.0902 35.8101C40.2903 36.1168 39.4678 36.3609 38.6302 36.5401H38.5602L23.7502 41.9001C21.7698 42.6974 19.655 43.1082 17.5202 43.1101Z" fill="#080808"/>
</g>
<g style="mix-blend-mode:multiply">
<path d="M17.2901 42.89C14.9666 42.8945 12.6701 42.3929 10.5601 41.42C2.0901 37.51 -1.4099 27 2.7501 18C3.81114 15.6931 5.32829 13.6249 7.2101 11.92L7.5401 11.62V11.17C7.51899 9.87594 7.8671 8.60262 8.54364 7.49925C9.22019 6.39587 10.1972 5.50814 11.3601 4.94005C12.7057 4.22372 14.2057 3.84616 15.7301 3.84005C17.5114 3.85369 19.2561 4.34772 20.7801 5.27005L21.1801 5.51005L29.7801 2.51005C31.8991 1.5489 34.1935 1.03487 36.5201 1.00005C38.4651 0.984146 40.3967 1.32302 42.2201 2.00005L43.2201 2.43005L44.0601 2.85005L77.5001 18.31L71.0001 32.3L50.3501 39.61L41.2601 35.42L40.8701 35.57C40.0687 35.8723 39.2466 36.1163 38.4101 36.3H38.3401L23.5301 41.68C21.546 42.4765 19.4281 42.8872 17.2901 42.89Z" fill="black"/>
</g>
</g>
<path d="M17.2901 43.89C14.8241 43.8942 12.387 43.3583 10.1501 42.32C1.15013 38.18 -2.54987 27.06 1.85013 17.54C2.96011 15.1059 4.55614 12.9246 6.54013 11.13C6.51201 9.64964 6.90745 8.19206 7.67988 6.92888C8.45231 5.66571 9.56958 4.64953 10.9001 4C12.3881 3.21076 14.0458 2.79548 15.7301 2.79C17.6873 2.80745 19.6039 3.34963 21.2801 4.36L29.4401 1.47C31.6764 0.506132 34.085 0.00604332 36.5201 0C38.57 0.0032237 40.6025 0.375846 42.5201 1.1C42.9001 1.25 43.2601 1.4 43.6201 1.57C43.9801 1.74 44.2301 1.86 44.5101 2.01L78.8301 17.83L71.8301 33.11L50.3001 40.69L41.2301 36.5C40.3815 36.8266 39.5089 37.0874 38.6201 37.28L23.8701 42.62C21.778 43.4594 19.5444 43.8905 17.2901 43.89Z" fill="white"/>
<path d="M12.48 14C12.48 14 9.92002 10.15 13.22 8.41997C17.72 6.07997 21.35 11 21.35 11L18.89 11.74C18.89 11.74 17 9.57997 15.24 10.49C15.0048 10.6096 14.7981 10.7784 14.6339 10.9849C14.4697 11.1914 14.3518 11.4308 14.2883 11.6869C14.2247 11.943 14.217 12.2098 14.2656 12.4691C14.3142 12.7284 14.418 12.9743 14.57 13.19L12.48 14Z" fill="#545454"/>
<path d="M14.6901 9.68999C12.7901 9.97999 13.0801 12.84 13.0801 12.84C13.2401 13.19 13.7601 13.11 14.4001 12.84C14.2932 12.6319 14.2301 12.4041 14.2148 12.1707C14.1994 11.9373 14.2321 11.7032 14.3108 11.483C14.3896 11.2627 14.5127 11.0609 14.6725 10.8901C14.8323 10.7193 15.0255 10.5831 15.2401 10.49C15.5862 10.3291 15.966 10.2541 16.3473 10.2715C16.7286 10.289 17.1001 10.3982 17.4301 10.59C17.0775 10.2333 16.6452 9.96567 16.1687 9.80917C15.6923 9.65268 15.1854 9.61182 14.6901 9.68999Z" fill="#303030"/>
<path d="M39.1602 25.55C36.2753 24.0313 33.192 22.9239 30.0002 22.26C25.5398 21.3098 20.9749 20.9434 16.4202 21.17L22.0702 38L37.2602 32.5C39.6325 32.0225 41.8388 30.9332 43.6602 29.34L43.9402 29.15L45.6102 30.15C43.6933 28.3136 41.5208 26.7642 39.1602 25.55Z" fill="#545454"/>
<path d="M42.3203 6.47992C42.0803 6.34992 41.8303 6.21992 41.5703 6.09992L40.8003 5.77992C39.2644 5.2104 37.6313 4.94905 35.9944 5.01082C34.3575 5.07259 32.7488 5.45627 31.2603 6.13992L13.5103 12.4199L15.8403 19.3599C22.5501 18.8014 29.3014 19.7021 35.6303 21.9999C39.0317 23.2421 42.1844 25.0809 44.9403 27.4299C46.3803 28.6899 48.0303 29.8599 48.5303 31.5499L53.5303 32.7199L64.2303 27.2999L68.1203 29.0899L72.1903 20.2699L42.3203 6.47992Z" fill="#9E9E9E"/>
<path d="M24.7502 12.6899C24.5102 12.5499 24.2602 12.4299 24.0002 12.3099C23.7402 12.1899 23.4902 12.0799 23.2202 11.9799C16.9002 9.57994 9.51018 12.8699 6.39018 19.6299C3.14018 26.6299 5.76018 34.7899 12.2402 37.7799C14.5217 38.7814 17.0448 39.099 19.5034 38.6943C21.9619 38.2895 24.2501 37.1799 26.0902 35.4999C29.3702 33.3599 33.0902 27.2599 37.3302 29.1999L50.5502 35.2999L54.6202 26.4699L24.7502 12.6899Z" fill="#696969"/>
<path d="M54.62 26.47L72.1901 20.27L68.1201 29.09L50.55 35.3L54.62 26.47Z" fill="#545454"/>
<path d="M56.5501 27.2599L54.6201 31.9899L66.8901 27.7799L69.1501 23.1299L56.5501 27.2599Z" fill="#303030"/>
<path d="M31.4402 13.6801L43.3602 9.34009L50.5502 12.6901L38.9202 17.4201L31.4402 13.6801Z" fill="#303030"/>
<path d="M26.0002 29.2699C25.0156 31.4688 23.2018 33.1894 20.954 34.0567C18.7062 34.924 16.2067 34.8676 14.0002 33.8999C12.923 33.3777 11.9592 32.6483 11.164 31.7535C10.3687 30.8586 9.75771 29.8157 9.36579 28.6845C8.97387 27.5533 8.80874 26.356 8.87986 25.161C8.95097 23.9659 9.25693 22.7966 9.78025 21.7199C10.7607 19.5173 12.5743 17.7932 14.8236 16.9254C17.0729 16.0575 19.5745 16.1167 21.7802 17.0899C23.954 18.1465 25.6195 20.0228 26.4108 22.3066C27.2021 24.5904 27.0544 27.0949 26.0002 29.2699Z" fill="#FFD11A"/>
<path d="M24.5402 28.58C24.1426 29.4758 23.5723 30.2845 22.862 30.9599C22.1517 31.6353 21.3153 32.1641 20.4005 32.516C19.4858 32.868 18.5106 33.0363 17.5308 33.0112C16.551 32.9861 15.5857 32.7682 14.6902 32.37C12.8765 31.5131 11.4757 29.9732 10.794 28.0867C10.1123 26.2001 10.2052 24.1205 11.0522 22.3022C11.8992 20.4839 13.4316 19.0749 15.3144 18.383C17.1972 17.6911 19.2774 17.7727 21.1002 18.61C22.878 19.4764 24.2391 21.0133 24.8841 22.8828C25.5292 24.7524 25.4055 26.8016 24.5402 28.58Z" fill="#FFE01A"/>
<path d="M33.4102 14.6601L43.0702 11.5701L47.8102 13.8101L38.9202 17.4201L33.4102 14.6601Z" fill="#545454"/>
</g>
<defs>
<clipPath id="clip0_879_3448">
<rect width="84.33" height="49.73" fill="white"/>
</clipPath>
</defs>
</svg>
