<svg width="64" height="64" viewBox="0 0 64 64" fill="none" xmlns="http://www.w3.org/2000/svg">
<g clip-path="url(#clip0_879_3347)">
<g style="mix-blend-mode:multiply">
<g style="mix-blend-mode:multiply" opacity="0.97">
<path d="M56.5795 30.3833C57.3881 15.1064 45.6593 2.0665 30.3824 1.25785C15.1055 0.449204 2.06556 12.178 1.25691 27.4549C0.448265 42.7318 12.1771 55.7718 27.454 56.5804C42.7309 57.3891 55.7708 45.6602 56.5795 30.3833Z" fill="#080808"/>
</g>
<g style="mix-blend-mode:multiply">
<path d="M28.7 56.4C43.9983 56.4 56.4 43.9983 56.4 28.7C56.4 13.4017 43.9983 1 28.7 1C13.4017 1 1 13.4017 1 28.7C1 43.9983 13.4017 56.4 28.7 56.4Z" fill="black"/>
</g>
</g>
<g filter="url(#filter0_d_879_3347)">
<path d="M28.7 57.4C44.5506 57.4 57.4 44.5506 57.4 28.7C57.4 12.8494 44.5506 0 28.7 0C12.8494 0 0 12.8494 0 28.7C0 44.5506 12.8494 57.4 28.7 57.4Z" fill="white"/>
</g>
<path d="M28.7 52.4C41.7892 52.4 52.4 41.7892 52.4 28.7C52.4 15.6109 41.7892 5 28.7 5C15.6109 5 5 15.6109 5 28.7C5 41.7892 15.6109 52.4 28.7 52.4Z" fill="#F2F2F2"/>
<path d="M19.66 47C27 50.65 38.66 51.14 43.15 43.37C47.64 35.6 39.08 26.35 35 22.8C30.92 19.25 24.08 16.44 27.7 9.08C28.63 7.2 30.91 6.08 33.44 5.48C32.2574 5.22835 31.0572 5.06788 29.85 5C27.44 6.23 25.07 8.19 24.53 11.24C23.37 17.87 30.4 21.29 33.94 24.38C37.48 27.47 45 35.56 41 42.32C37 49.08 27 48.66 20.56 45.48C14.56 42.48 6.82 36.59 6.17 23.32C6.17 22.68 6.17 22.06 6.17 21.47C5.4379 23.709 5.04357 26.0447 5 28.4C5.83225 32.4255 7.59023 36.2019 10.1347 39.4302C12.6792 42.6586 15.9404 45.2503 19.66 47Z" fill="#FF8C00"/>
<path d="M42.47 36.8901C42.455 36.7795 42.3976 36.679 42.3099 36.61C42.2222 36.5409 42.1111 36.5087 42 36.5201C41.8893 36.5374 41.7897 36.5972 41.7225 36.6869C41.6552 36.7766 41.6257 36.8889 41.64 37.0001C41.6829 37.3552 41.7063 37.7124 41.71 38.0701C41.7126 38.1824 41.7591 38.2892 41.8395 38.3677C41.9198 38.4462 42.0277 38.4901 42.14 38.4901C42.196 38.4901 42.2515 38.4789 42.3031 38.4572C42.3547 38.4354 42.4015 38.4036 42.4406 38.3635C42.4797 38.3235 42.5105 38.276 42.531 38.2239C42.5515 38.1718 42.5614 38.1161 42.56 38.0601C42.55 37.6801 42.52 37.2801 42.47 36.8901Z" fill="#A20000"/>
<path d="M37.3 46.0001C37.2738 45.9515 37.2382 45.9085 37.1954 45.8736C37.1525 45.8387 37.1032 45.8126 37.0503 45.7968C36.9973 45.781 36.9418 45.7758 36.8868 45.7815C36.8319 45.7873 36.7786 45.8038 36.73 45.8301C36.42 45.9901 36.08 46.1401 35.73 46.2801C35.639 46.3165 35.5636 46.3835 35.5168 46.4696C35.47 46.5557 35.4548 46.6554 35.4738 46.7515C35.4928 46.8476 35.5448 46.9341 35.6208 46.9959C35.6968 47.0578 35.792 47.0911 35.89 47.0901C35.9429 47.0997 35.9971 47.0997 36.05 47.0901C36.41 46.9401 36.77 46.7801 37.11 46.6001C37.1644 46.576 37.2131 46.5406 37.2527 46.4963C37.2924 46.4519 37.3222 46.3997 37.3402 46.3429C37.3582 46.2862 37.3639 46.2263 37.3569 46.1672C37.35 46.1081 37.3306 46.0511 37.3 46.0001Z" fill="#A20000"/>
<path d="M39.1299 44.68C39.0595 44.5939 38.9579 44.5393 38.8473 44.528C38.7367 44.5168 38.6261 44.5498 38.5399 44.62C38.2599 44.85 37.9699 45.07 37.6699 45.27C37.623 45.2993 37.5825 45.3379 37.5509 45.3833C37.5193 45.4288 37.4973 45.4801 37.486 45.5343C37.4748 45.5885 37.4747 45.6444 37.4857 45.6987C37.4966 45.7529 37.5185 45.8044 37.5499 45.85C37.5879 45.9081 37.6398 45.9559 37.7009 45.9891C37.762 46.0222 37.8304 46.0397 37.8999 46.04C37.982 46.0414 38.0625 46.0169 38.1299 45.97C38.4588 45.7537 38.7759 45.52 39.0799 45.27C39.1229 45.2352 39.1585 45.1921 39.1844 45.1432C39.2103 45.0944 39.2261 45.0408 39.2308 44.9856C39.2355 44.9305 39.2289 44.875 39.2116 44.8225C39.1942 44.7699 39.1664 44.7215 39.1299 44.68Z" fill="#A20000"/>
<path d="M37.2399 48.7702C37.2928 48.7797 37.347 48.7797 37.3999 48.7702C37.7599 48.6202 38.1199 48.4602 38.4599 48.2902C38.5572 48.239 38.6306 48.1517 38.6643 48.0469C38.6979 47.9422 38.6892 47.8285 38.6399 47.7302C38.6164 47.6802 38.5831 47.6354 38.542 47.5986C38.5008 47.5618 38.4526 47.5336 38.4003 47.5159C38.348 47.4981 38.2927 47.4911 38.2376 47.4953C38.1826 47.4995 38.1289 47.5147 38.0799 47.5402C37.7548 47.7048 37.4209 47.8517 37.0799 47.9802C36.9779 48.0243 36.897 48.1063 36.8541 48.2088C36.8112 48.3114 36.8097 48.4265 36.8499 48.5302C36.8847 48.6036 36.9401 48.6654 37.0093 48.708C37.0785 48.7506 37.1586 48.7722 37.2399 48.7702Z" fill="#A20000"/>
<path d="M35.4501 25.2301C35.3698 25.1519 35.2621 25.1082 35.1501 25.1082C35.038 25.1082 34.9304 25.1519 34.8501 25.2301C34.7741 25.3115 34.7319 25.4188 34.7319 25.5301C34.7319 25.6414 34.7741 25.7486 34.8501 25.8301C35.1101 26.0901 35.3801 26.3501 35.6401 26.6201C35.719 26.7012 35.8268 26.748 35.9401 26.7501C36.0486 26.7491 36.1525 26.7061 36.2301 26.6301C36.3083 26.5498 36.352 26.4422 36.352 26.3301C36.352 26.218 36.3083 26.1104 36.2301 26.0301C36.0001 25.7701 35.7201 25.5001 35.4501 25.2301Z" fill="#A20000"/>
<path d="M37.8999 25C37.823 24.9191 37.7171 24.8721 37.6055 24.8693C37.494 24.8665 37.3858 24.9081 37.3049 24.985C37.224 25.0619 37.177 25.1678 37.1742 25.2794C37.1714 25.391 37.213 25.4991 37.2899 25.58C37.5499 25.85 37.8099 26.13 38.0499 26.4C38.0877 26.4452 38.1352 26.4813 38.1889 26.5056C38.2426 26.5298 38.301 26.5416 38.3599 26.54C38.4116 26.5417 38.4631 26.5328 38.5113 26.5139C38.5594 26.495 38.6032 26.4664 38.6399 26.43C38.6796 26.3918 38.7111 26.3459 38.7326 26.2952C38.7541 26.2446 38.7652 26.1901 38.7652 26.135C38.7652 26.0799 38.7541 26.0254 38.7326 25.9748C38.7111 25.9241 38.6796 25.8782 38.6399 25.84C38.4199 25.5533 38.1733 25.2733 37.8999 25Z" fill="#A20000"/>
<path d="M36.9999 26.8801C36.9617 26.8405 36.9159 26.809 36.8652 26.7875C36.8145 26.766 36.76 26.7549 36.7049 26.7549C36.6499 26.7549 36.5954 26.766 36.5447 26.7875C36.494 26.809 36.4482 26.8405 36.4099 26.8801C36.3703 26.9184 36.3388 26.9642 36.3173 27.0149C36.2958 27.0656 36.2847 27.1201 36.2847 27.1751C36.2847 27.2302 36.2958 27.2847 36.3173 27.3354C36.3388 27.3861 36.3703 27.4319 36.4099 27.4701L37.1499 28.3101C37.1887 28.3574 37.2376 28.3954 37.2929 28.4214C37.3483 28.4474 37.4088 28.4606 37.4699 28.4601C37.5497 28.4598 37.6278 28.4368 37.695 28.3937C37.7622 28.3506 37.8157 28.2893 37.8492 28.2169C37.8828 28.1445 37.8951 28.064 37.8846 27.9849C37.8741 27.9058 37.8412 27.8313 37.7899 27.7701C37.5599 27.4501 37.2999 27.1601 36.9999 26.8801Z" fill="#A20000"/>
<path d="M41.9299 34.61C41.913 34.5575 41.8858 34.509 41.8497 34.4673C41.8137 34.4256 41.7696 34.3916 41.7201 34.3673C41.6707 34.3431 41.6168 34.329 41.5618 34.326C41.5068 34.3231 41.4517 34.3312 41.3999 34.35C41.3473 34.367 41.2986 34.3942 41.2566 34.43C41.2145 34.4659 41.18 34.5097 41.1549 34.5589C41.1298 34.6082 41.1147 34.6619 41.1104 34.717C41.1061 34.772 41.1127 34.8274 41.1299 34.88C41.2499 35.24 41.3499 35.59 41.4399 35.88C41.4603 35.9708 41.5111 36.052 41.5838 36.1101C41.6565 36.1683 41.7468 36.2 41.8399 36.2H41.9399C42.0494 36.1738 42.1442 36.1057 42.204 36.0103C42.2639 35.915 42.2839 35.7999 42.2599 35.69C42.1699 35.37 42.0599 35 41.9299 34.61Z" fill="#A20000"/>
<path d="M38.5199 28.6201C38.4509 28.5326 38.35 28.476 38.2394 28.4629C38.1287 28.4498 38.0174 28.4811 37.9299 28.5501C37.8424 28.619 37.7858 28.7199 37.7727 28.8306C37.7596 28.9412 37.7909 29.0526 37.8599 29.1401C38.0899 29.4401 38.3199 29.7401 38.5299 30.0301C38.5675 30.0856 38.6182 30.1311 38.6775 30.1624C38.7368 30.1938 38.8028 30.2102 38.8699 30.2101C38.9592 30.2083 39.0461 30.1805 39.1199 30.1301C39.1648 30.0974 39.2027 30.0562 39.2316 30.0088C39.2604 29.9614 39.2796 29.9087 39.2879 29.8538C39.2963 29.799 39.2937 29.743 39.2803 29.6892C39.2669 29.6353 39.243 29.5846 39.2099 29.5401L38.5199 28.6201Z" fill="#A20000"/>
<path d="M39.8599 30.4899C39.8305 30.443 39.792 30.4026 39.7465 30.371C39.7011 30.3394 39.6497 30.3173 39.5955 30.3061C39.5413 30.2949 39.4854 30.2948 39.4312 30.3057C39.3769 30.3167 39.3255 30.3386 39.2799 30.3699C39.1873 30.4311 39.1228 30.5265 39.1003 30.6352C39.0778 30.7439 39.0992 30.857 39.1599 30.9499C39.3599 31.2599 39.5599 31.5799 39.7399 31.8899C39.7773 31.9547 39.8313 32.0083 39.8963 32.0453C39.9614 32.0822 40.0351 32.101 40.1099 32.0999C40.184 32.0988 40.2564 32.0781 40.3199 32.0399C40.3679 32.013 40.4099 31.9767 40.4436 31.9332C40.4772 31.8897 40.5018 31.8399 40.5157 31.7867C40.5297 31.7336 40.5329 31.6781 40.525 31.6237C40.5171 31.5693 40.4984 31.517 40.4699 31.4699C40.2799 31.1399 40.0799 30.8099 39.8599 30.4899Z" fill="#A20000"/>
<path d="M39.2499 47.7599C39.3273 47.7601 39.4033 47.7394 39.4699 47.6999C39.7999 47.4899 40.1299 47.2699 40.4699 47.0399C40.5568 46.9709 40.6136 46.871 40.6285 46.761C40.6434 46.6511 40.6153 46.5396 40.5499 46.4499C40.5174 46.4047 40.476 46.3666 40.4282 46.3379C40.3804 46.3092 40.3273 46.2905 40.2721 46.283C40.2169 46.2755 40.1607 46.2794 40.107 46.2943C40.0534 46.3093 40.0033 46.335 39.9599 46.3699C39.6699 46.5799 39.3699 46.7899 39.0599 46.9799C38.9809 47.0274 38.9197 47.0995 38.8858 47.1852C38.8518 47.2708 38.847 47.3653 38.872 47.454C38.897 47.5427 38.9505 47.6207 39.0242 47.6759C39.0979 47.7312 39.1878 47.7607 39.2799 47.7599H39.2499Z" fill="#A20000"/>
<path d="M42.1199 30.37C42.0585 30.2778 41.964 30.2129 41.856 30.1886C41.7479 30.1644 41.6347 30.1828 41.5399 30.24C41.4932 30.2695 41.4529 30.3079 41.4211 30.3531C41.3893 30.3982 41.3667 30.4492 41.3547 30.503C41.3426 30.5569 41.3412 30.6126 41.3507 30.667C41.3602 30.7214 41.3803 30.7734 41.4099 30.82L41.9699 31.77C42.006 31.8366 42.0594 31.8923 42.1246 31.931C42.1897 31.9697 42.2641 31.9901 42.3399 31.99C42.4058 32.0047 42.474 32.0047 42.5399 31.99C42.6371 31.9334 42.7083 31.841 42.7382 31.7326C42.7681 31.6242 42.7544 31.5084 42.6999 31.41C42.5199 31 42.3299 30.7 42.1199 30.37Z" fill="#A20000"/>
<path d="M43.24 32.3801C43.1886 32.2803 43.1002 32.2045 42.9937 32.169C42.8872 32.1335 42.771 32.1411 42.67 32.1901C42.5709 32.2395 42.4954 32.3261 42.4598 32.431C42.4242 32.5359 42.4315 32.6506 42.48 32.7501C42.64 33.0901 42.8 33.4201 42.94 33.7501C42.9701 33.8265 43.0223 33.8921 43.0901 33.9385C43.1578 33.9848 43.2379 34.0098 43.32 34.0101C43.3763 34.0193 43.4337 34.0193 43.49 34.0101C43.5919 33.9661 43.6723 33.8836 43.7135 33.7805C43.7547 33.6774 43.7535 33.5623 43.71 33.4601C43.57 33.0801 43.41 32.7301 43.24 32.3801Z" fill="#A20000"/>
<path d="M40.8399 28.4801C40.8071 28.4355 40.7658 28.3977 40.7183 28.369C40.6709 28.3404 40.6183 28.3213 40.5635 28.3129C40.5088 28.3046 40.4529 28.3071 40.399 28.3203C40.3452 28.3336 40.2946 28.3573 40.2499 28.3901C40.2053 28.423 40.1675 28.4643 40.1388 28.5117C40.1101 28.5591 40.0911 28.6117 40.0827 28.6665C40.0743 28.7213 40.0769 28.7772 40.0901 28.831C40.1034 28.8848 40.1271 28.9355 40.1599 28.9801C40.3799 29.2801 40.5999 29.5901 40.7999 29.8901C40.8403 29.9452 40.8929 29.9902 40.9537 30.0214C41.0144 30.0527 41.0816 30.0694 41.1499 30.0701C41.2352 30.0717 41.3189 30.0473 41.3899 30.0001C41.4815 29.9355 41.5443 29.8377 41.5649 29.7275C41.5854 29.6173 41.5621 29.5034 41.4999 29.4101C41.2899 29.1101 41.0699 28.7901 40.8399 28.4801Z" fill="#A20000"/>
<path d="M39.43 26.69C39.3565 26.6048 39.2524 26.5519 39.1402 26.5425C39.0281 26.5332 38.9167 26.5682 38.83 26.64C38.7525 26.7186 38.709 26.8246 38.709 26.935C38.709 27.0455 38.7525 27.1514 38.83 27.23L39.54 28.1C39.5794 28.1499 39.6295 28.1902 39.6866 28.218C39.7438 28.2457 39.8065 28.2601 39.87 28.26C39.9642 28.2593 40.0556 28.2277 40.13 28.17C40.2161 28.0978 40.2712 27.9955 40.2843 27.8839C40.2973 27.7724 40.2671 27.6601 40.2 27.57L39.43 26.69Z" fill="#A20000"/>
<path d="M44.1198 34.5101C44.103 34.4576 44.0757 34.4091 44.0397 34.3674C44.0036 34.3258 43.9595 34.2918 43.9101 34.2675C43.8606 34.2432 43.8067 34.2292 43.7517 34.2262C43.6967 34.2232 43.6416 34.2313 43.5898 34.2501C43.5372 34.2671 43.4885 34.2943 43.4465 34.3302C43.4045 34.366 43.3699 34.4098 43.3448 34.4591C43.3198 34.5083 43.3046 34.562 43.3003 34.6171C43.296 34.6722 43.3027 34.7276 43.3198 34.7801C43.4398 35.1301 43.5498 35.4901 43.6298 35.7801C43.6538 35.8709 43.7069 35.9513 43.781 36.0091C43.855 36.0669 43.9459 36.0989 44.0398 36.1001H44.1498C44.2036 36.0873 44.2542 36.0638 44.2987 36.031C44.3432 35.9982 44.3805 35.9567 44.4085 35.9091C44.4366 35.8614 44.4547 35.8086 44.4618 35.7538C44.4689 35.699 44.4648 35.6433 44.4498 35.5901C44.3598 35.2601 44.2498 34.8801 44.1198 34.5101Z" fill="#A20000"/>
<path d="M40.6198 43C40.5302 42.9346 40.4187 42.9065 40.3087 42.9214C40.1988 42.9363 40.0989 42.9931 40.0298 43.08C39.8129 43.3701 39.5791 43.6472 39.3298 43.91C39.2733 43.9693 39.2353 44.0438 39.2205 44.1243C39.2057 44.2049 39.2149 44.288 39.2467 44.3635C39.2786 44.439 39.3319 44.5034 39.3999 44.549C39.468 44.5946 39.5479 44.6193 39.6298 44.62C39.7455 44.6155 39.8555 44.5693 39.9398 44.49C40.2098 44.2 40.4598 43.9 40.6998 43.59C40.7652 43.5003 40.7934 43.3889 40.7785 43.2789C40.7636 43.169 40.7067 43.069 40.6198 43Z" fill="#A20000"/>
<path d="M44.2099 36.4101C44.099 36.4297 44.0003 36.492 43.9348 36.5836C43.8694 36.6752 43.8425 36.7888 43.8599 36.9001C43.9269 37.2639 43.9736 37.6311 43.9999 38.0001C44.0074 38.1071 44.0546 38.2075 44.1323 38.2816C44.21 38.3556 44.3126 38.3978 44.4199 38.4001C44.4751 38.3963 44.529 38.3816 44.5785 38.3569C44.6281 38.3322 44.6722 38.298 44.7085 38.2561C44.7447 38.2143 44.7723 38.1658 44.7897 38.1132C44.8071 38.0607 44.814 38.0053 44.8099 37.9501C44.8099 37.5701 44.7399 37.1801 44.6799 36.7901C44.6673 36.6777 44.6109 36.5747 44.5229 36.5036C44.435 36.4324 44.3225 36.3989 44.2099 36.4101Z" fill="#A20000"/>
<path d="M42.5299 44.7201C42.5986 44.7219 42.6667 44.7063 42.7279 44.6749C42.7891 44.6434 42.8413 44.5971 42.8799 44.5401C43.0999 44.2301 43.3099 43.9001 43.5099 43.5401C43.5384 43.4931 43.5571 43.4408 43.565 43.3864C43.5729 43.332 43.5697 43.2765 43.5557 43.2233C43.5417 43.1701 43.5172 43.1203 43.4835 43.0768C43.4499 43.0333 43.4078 42.997 43.3599 42.9701C43.3121 42.9414 43.259 42.9225 43.2038 42.9145C43.1487 42.9065 43.0924 42.9096 43.0384 42.9235C42.9844 42.9375 42.9338 42.9621 42.8894 42.9958C42.845 43.0296 42.8078 43.0718 42.7799 43.1201C42.5999 43.4301 42.3999 43.7401 42.1899 44.0301C42.1471 44.0937 42.122 44.1675 42.1173 44.2439C42.1125 44.3204 42.1283 44.3967 42.163 44.465C42.1977 44.5334 42.25 44.5912 42.3145 44.6325C42.379 44.6738 42.4533 44.6972 42.5299 44.7001V44.7201Z" fill="#A20000"/>
<path d="M41 46.4001C41.1068 46.3999 41.2098 46.3608 41.29 46.2901C41.5783 46.0251 41.852 45.7447 42.11 45.4501C42.1496 45.4119 42.1811 45.3661 42.2026 45.3154C42.2241 45.2647 42.2352 45.2102 42.2352 45.1551C42.2352 45.1001 42.2241 45.0456 42.2026 44.9949C42.1811 44.9442 42.1496 44.8984 42.11 44.8601C42.0717 44.8205 42.0259 44.789 41.9752 44.7675C41.9245 44.746 41.87 44.7349 41.815 44.7349C41.7599 44.7349 41.7054 44.746 41.6547 44.7675C41.604 44.789 41.5582 44.8205 41.52 44.8601C41.28 45.1201 41.02 45.3901 40.76 45.6301C40.6824 45.7087 40.6389 45.8147 40.6389 45.9251C40.6389 46.0355 40.6824 46.1415 40.76 46.2201C40.8164 46.3064 40.9013 46.3701 41 46.4001Z" fill="#A20000"/>
<path d="M44.7101 40.2602C44.7709 39.8726 44.8109 39.482 44.8301 39.0902C44.8301 38.9788 44.7858 38.8719 44.707 38.7932C44.6283 38.7144 44.5214 38.6702 44.4101 38.6702C44.2987 38.6702 44.1918 38.7144 44.1131 38.7932C44.0343 38.8719 43.9901 38.9788 43.9901 39.0902C43.9901 39.4502 43.9301 39.8102 43.8801 40.1602C43.87 40.2147 43.8708 40.2707 43.8824 40.3249C43.8941 40.3791 43.9164 40.4304 43.948 40.476C43.9796 40.5215 44.0199 40.5604 44.0666 40.5903C44.1133 40.6202 44.1655 40.6405 44.2201 40.6502H44.2901C44.3964 40.6504 44.499 40.6103 44.5769 40.5379C44.6549 40.4656 44.7025 40.3663 44.7101 40.2602Z" fill="#A20000"/>
<path d="M43.9999 42.51C44.1568 42.1523 44.2904 41.7849 44.3999 41.41C44.4227 41.3557 44.4339 41.2971 44.4326 41.2382C44.4314 41.1793 44.4178 41.1213 44.3926 41.068C44.3675 41.0147 44.3314 40.9673 44.2868 40.9289C44.2421 40.8904 44.1899 40.8618 44.1334 40.8449C44.077 40.8279 44.0176 40.8231 43.9592 40.8306C43.9007 40.8381 43.8445 40.8578 43.7942 40.8885C43.7439 40.9192 43.7006 40.9601 43.6671 41.0086C43.6336 41.0571 43.6107 41.1121 43.5999 41.17C43.4956 41.51 43.372 41.8439 43.2299 42.17C43.207 42.2204 43.1945 42.2749 43.1932 42.3302C43.1919 42.3855 43.2019 42.4406 43.2224 42.492C43.243 42.5434 43.2737 42.5901 43.3128 42.6292C43.3519 42.6684 43.3985 42.6993 43.4499 42.72C43.5024 42.7335 43.5574 42.7335 43.6099 42.72C43.688 42.7248 43.7659 42.7077 43.8348 42.6706C43.9037 42.6335 43.9609 42.5778 43.9999 42.51Z" fill="#A20000"/>
<path d="M41 32.48C40.9757 32.4308 40.9418 32.3871 40.9002 32.3513C40.8586 32.3155 40.8103 32.2884 40.7581 32.2716C40.7059 32.2548 40.6508 32.2487 40.5962 32.2536C40.5416 32.2584 40.4885 32.2742 40.44 32.3C40.3409 32.3494 40.2654 32.436 40.2298 32.5409C40.1942 32.6458 40.2015 32.7605 40.25 32.86C40.42 33.2 40.58 33.53 40.72 33.86C40.7519 33.9372 40.8059 34.0032 40.8754 34.0495C40.9449 34.0958 41.0266 34.1203 41.11 34.12C41.163 34.1291 41.2171 34.1291 41.27 34.12C41.3214 34.0993 41.368 34.0684 41.4071 34.0293C41.4462 33.9901 41.4769 33.9434 41.4975 33.892C41.5181 33.8406 41.528 33.7856 41.5267 33.7302C41.5254 33.6749 41.513 33.6204 41.4901 33.57C41.3701 33.18 41.2 32.83 41 32.48Z" fill="#A20000"/>
<path d="M26.3599 11.84C26.2978 12.2235 26.2676 12.6115 26.2699 13C26.2699 13.0546 26.2808 13.1088 26.302 13.1592C26.3233 13.2096 26.3544 13.2553 26.3935 13.2935C26.4326 13.3317 26.479 13.3617 26.5299 13.3817C26.5808 13.4017 26.6352 13.4113 26.6899 13.41C26.7446 13.41 26.7987 13.399 26.8491 13.3778C26.8995 13.3566 26.9452 13.3255 26.9834 13.2864C27.0216 13.2472 27.0516 13.2008 27.0716 13.1499C27.0916 13.099 27.1012 13.0446 27.0999 12.99V13C27.1011 12.6651 27.1278 12.3308 27.1799 12C27.1971 11.8899 27.1699 11.7775 27.1043 11.6875C27.0387 11.5974 26.94 11.5372 26.8299 11.52C26.7198 11.5027 26.6074 11.5299 26.5174 11.5955C26.4274 11.6612 26.3671 11.7599 26.3499 11.87L26.3599 11.84Z" fill="#A20000"/>
<path d="M27.5699 9.36018C27.4678 9.31673 27.3526 9.31548 27.2495 9.3567C27.1465 9.39792 27.0639 9.47827 27.0199 9.58018C26.8662 9.93911 26.7327 10.3064 26.6199 10.6802C26.603 10.7333 26.5968 10.7894 26.6017 10.8449C26.6067 10.9005 26.6227 10.9546 26.6487 11.0039C26.6748 11.0533 26.7104 11.0969 26.7536 11.1323C26.7967 11.1677 26.8465 11.1942 26.8999 11.2102H27.0299C27.1196 11.2081 27.2063 11.1781 27.278 11.1243C27.3497 11.0705 27.4029 10.9956 27.4299 10.9102C27.5334 10.5698 27.6569 10.2359 27.7999 9.91018C27.8212 9.85898 27.832 9.8041 27.832 9.74868C27.8319 9.69327 27.8208 9.63842 27.7994 9.58729C27.7781 9.53617 27.7468 9.48978 27.7074 9.4508C27.668 9.41182 27.6213 9.38102 27.5699 9.36018Z" fill="#A20000"/>
<path d="M25.7 16.14C25.6483 16.0406 25.5592 15.9657 25.4523 15.932C25.3454 15.8982 25.2295 15.9083 25.13 15.96C25.0306 16.0117 24.9557 16.1008 24.922 16.2077C24.8882 16.3146 24.8983 16.4306 24.95 16.53C25.133 16.8754 25.3367 17.2093 25.56 17.53C25.5986 17.587 25.6508 17.6333 25.712 17.6648C25.7732 17.6962 25.8413 17.7118 25.91 17.71C25.9921 17.7115 26.0726 17.687 26.14 17.64C26.2316 17.5754 26.2944 17.4776 26.315 17.3674C26.3355 17.2572 26.3122 17.1433 26.25 17.05C26.0467 16.7592 25.863 16.4552 25.7 16.14Z" fill="#A20000"/>
<path d="M23.5499 48.4899C23.5347 48.5431 23.5301 48.5988 23.5365 48.6538C23.5428 48.7087 23.5599 48.7619 23.5869 48.8102C23.6138 48.8585 23.6501 48.9011 23.6935 48.9353C23.7369 48.9696 23.7867 48.995 23.8399 49.0099C24.2099 49.1099 24.5799 49.2099 24.9499 49.2899H25.0499C25.1447 49.2865 25.2358 49.2525 25.3097 49.193C25.3836 49.1335 25.4363 49.0518 25.4599 48.9599C25.484 48.85 25.4639 48.735 25.4041 48.6396C25.3443 48.5442 25.2494 48.4762 25.1399 48.4499C24.7799 48.3699 24.4199 48.2799 24.0699 48.1799C24.0154 48.165 23.9584 48.1613 23.9024 48.1689C23.8464 48.1765 23.7925 48.1953 23.744 48.2243C23.6954 48.2532 23.6532 48.2917 23.6199 48.3373C23.5865 48.383 23.5627 48.4349 23.5499 48.4899Z" fill="#A20000"/>
<path d="M25.9001 47.7001C26.0114 47.7107 26.1225 47.6766 26.2088 47.6053C26.295 47.5341 26.3494 47.4315 26.3601 47.3201C26.3707 47.2087 26.3366 47.0976 26.2653 47.0114C26.1941 46.9251 26.0914 46.8707 25.9801 46.8601C25.6201 46.7901 25.2501 46.7101 24.9001 46.6201C24.8469 46.6051 24.7912 46.601 24.7364 46.6081C24.6815 46.6152 24.6287 46.6333 24.5811 46.6613C24.5335 46.6894 24.492 46.7267 24.4591 46.7712C24.4263 46.8157 24.4028 46.8663 24.3901 46.9201C24.375 46.9739 24.3708 47.0302 24.3778 47.0857C24.3848 47.1412 24.4028 47.1947 24.4307 47.2432C24.4587 47.2916 24.496 47.334 24.5405 47.3678C24.5851 47.4016 24.6359 47.4262 24.6901 47.4401C25.0601 47.5301 25.4401 47.6201 25.8101 47.6901L25.9001 47.7001Z" fill="#A20000"/>
<path d="M24.9999 14.1401C24.9892 14.0853 24.9676 14.0333 24.9366 13.987C24.9056 13.9406 24.8656 13.901 24.8191 13.8702C24.7725 13.8395 24.7203 13.8184 24.6655 13.8081C24.6107 13.7977 24.5544 13.7984 24.4999 13.8101C24.3927 13.8341 24.2988 13.8983 24.2374 13.9894C24.176 14.0805 24.1519 14.1917 24.1699 14.3001C24.2507 14.6912 24.361 15.0756 24.4999 15.4501C24.5285 15.531 24.5812 15.6012 24.6509 15.6513C24.7207 15.7013 24.804 15.7288 24.8899 15.7301C24.9394 15.7395 24.9903 15.7395 25.0399 15.7301C25.0918 15.7111 25.1395 15.6821 25.1802 15.6447C25.2209 15.6072 25.2538 15.5621 25.277 15.512C25.3002 15.4618 25.3133 15.4075 25.3155 15.3523C25.3177 15.2971 25.309 15.2419 25.2899 15.1901C25.1689 14.8473 25.072 14.4964 24.9999 14.1401Z" fill="#A20000"/>
<path d="M28.3399 5.9C28.3777 5.96144 28.4307 6.01212 28.4937 6.04715C28.5568 6.08218 28.6278 6.10038 28.6999 6.1C28.7826 6.09301 28.8603 6.05769 28.9199 6C29.2199 5.82 29.5399 5.63 29.8699 5.46C29.952 5.41807 30.018 5.35033 30.0577 5.26721C30.0975 5.18408 30.1088 5.09019 30.0899 5C29.7299 5 29.3799 5 29.0199 5C28.8399 5.1 28.6499 5.2 28.4799 5.31C28.4311 5.3387 28.3885 5.37699 28.3549 5.42255C28.3212 5.46811 28.2971 5.52002 28.2841 5.57514C28.271 5.63025 28.2692 5.68745 28.2788 5.74328C28.2884 5.79911 28.3092 5.85242 28.3399 5.9Z" fill="#A20000"/>
<path d="M28.61 16.87C28.3868 16.5944 28.183 16.3037 28 16C27.9402 15.9062 27.8464 15.8391 27.7382 15.813C27.6301 15.7869 27.516 15.8038 27.42 15.86C27.3715 15.8877 27.3291 15.9251 27.2956 15.9697C27.262 16.0144 27.2379 16.0655 27.2248 16.1198C27.2117 16.1741 27.2098 16.2305 27.2193 16.2856C27.2288 16.3407 27.2495 16.3932 27.28 16.44C27.4814 16.7898 27.7087 17.1241 27.96 17.44C27.9977 17.4917 28.0475 17.5333 28.105 17.5612C28.1625 17.5891 28.2261 17.6024 28.29 17.6C28.3698 17.5997 28.4479 17.5766 28.515 17.5335C28.5822 17.4904 28.6357 17.4291 28.6693 17.3567C28.7029 17.2843 28.7151 17.2038 28.7046 17.1247C28.6941 17.0456 28.6613 16.9711 28.61 16.91V16.87Z" fill="#A20000"/>
<path d="M26.2599 18.47C26.4999 18.76 26.7599 19.04 27.0399 19.33C27.0775 19.3721 27.1238 19.4055 27.1756 19.4279C27.2274 19.4504 27.2834 19.4613 27.3399 19.46C27.4226 19.4612 27.5039 19.4379 27.5735 19.3931C27.6431 19.3483 27.6979 19.2839 27.731 19.2081C27.7641 19.1322 27.7741 19.0483 27.7597 18.9668C27.7452 18.8853 27.707 18.8098 27.6499 18.75C27.3799 18.47 27.1299 18.2 26.9099 17.93C26.8751 17.8869 26.832 17.8514 26.7831 17.8254C26.7343 17.7995 26.6807 17.7837 26.6255 17.7791C26.5704 17.7744 26.5149 17.7809 26.4624 17.7983C26.4099 17.8156 26.3614 17.8434 26.3199 17.88C26.236 17.9518 26.1831 18.0531 26.1719 18.163C26.1607 18.2728 26.1922 18.3827 26.2599 18.47Z" fill="#A20000"/>
<path d="M27.13 15.64C27.1829 15.6495 27.2371 15.6495 27.29 15.64C27.392 15.5958 27.4729 15.5138 27.5158 15.4113C27.5586 15.3087 27.5601 15.1936 27.52 15.09C27.3926 14.7655 27.2923 14.431 27.22 14.09C27.1987 13.9799 27.1347 13.8828 27.0418 13.8199C26.949 13.7571 26.835 13.7337 26.725 13.755C26.6149 13.7762 26.5178 13.8402 26.4549 13.9331C26.3921 14.0259 26.3687 14.1399 26.39 14.25C26.4716 14.6431 26.5887 15.028 26.74 15.4C26.7737 15.4742 26.8289 15.5367 26.8983 15.5795C26.9678 15.6222 27.0485 15.6433 27.13 15.64Z" fill="#A20000"/>
<path d="M41.6598 41C41.6086 40.9788 41.5537 40.9679 41.4983 40.968C41.4429 40.9681 41.3881 40.9792 41.3369 41.0005C41.2858 41.0219 41.2394 41.0532 41.2004 41.0926C41.1615 41.132 41.1307 41.1787 41.1098 41.23C40.9759 41.5378 40.8257 41.8383 40.6598 42.13C40.6311 42.1778 40.6122 42.2309 40.6042 42.2861C40.5962 42.3413 40.5993 42.3975 40.6132 42.4515C40.6272 42.5055 40.6518 42.5561 40.6855 42.6005C40.7193 42.6449 40.7615 42.6822 40.8098 42.71C40.8727 42.7496 40.9455 42.7704 41.0198 42.77C41.0931 42.7704 41.1652 42.7511 41.2285 42.7142C41.2918 42.6773 41.3441 42.624 41.3798 42.56V42.5C41.5703 42.1791 41.7374 41.8449 41.8798 41.5C41.9088 41.4042 41.9026 41.3011 41.8622 41.2094C41.8219 41.1177 41.7501 41.0435 41.6598 41Z" fill="#A20000"/>
<path d="M28.7401 20.89C28.8099 20.9578 28.9027 20.997 29.0001 21C29.0612 21.0004 29.1217 20.9872 29.177 20.9612C29.2324 20.9352 29.2813 20.8972 29.3201 20.85C29.3982 20.7697 29.442 20.662 29.442 20.5499C29.442 20.4379 29.3982 20.3302 29.3201 20.25C29.0201 20 28.7401 19.76 28.4801 19.52C28.3965 19.4444 28.2864 19.4051 28.1738 19.4107C28.0613 19.4163 27.9556 19.4664 27.8801 19.5499C27.8045 19.6335 27.7652 19.7436 27.7708 19.8562C27.7764 19.9687 27.8265 20.0744 27.9101 20.15C28.1401 20.38 28.4201 20.63 28.7401 20.89Z" fill="#A20000"/>
<path d="M33.05 47.4601C33.044 47.4054 33.0269 47.3526 32.9996 47.3049C32.9722 47.2571 32.9354 47.2155 32.8913 47.1827C32.8472 47.1499 32.7968 47.1265 32.7432 47.114C32.6897 47.1015 32.6341 47.1002 32.58 47.1101C32.22 47.1101 31.85 47.2001 31.48 47.2301C31.4248 47.2339 31.3709 47.2486 31.3214 47.2733C31.2719 47.298 31.2277 47.3322 31.1915 47.3741C31.1552 47.4159 31.1276 47.4644 31.1102 47.517C31.0928 47.5695 31.0859 47.6249 31.09 47.6801C31.0998 47.7854 31.1481 47.8834 31.2256 47.9553C31.303 48.0272 31.4043 48.0681 31.51 48.0701C31.9 48.0701 32.28 47.9901 32.66 47.9401C32.7186 47.9381 32.7761 47.9236 32.8285 47.8975C32.881 47.8714 32.9273 47.8344 32.9643 47.7889C33.0012 47.7434 33.028 47.6905 33.0428 47.6338C33.0576 47.5771 33.0601 47.5179 33.05 47.4601Z" fill="#A20000"/>
<path d="M32.8799 49.8301C33.2599 49.8301 33.6399 49.7401 34.0199 49.6701C34.1281 49.6506 34.2244 49.5894 34.288 49.4996C34.3515 49.4098 34.3774 49.2987 34.3599 49.1901C34.3403 49.0793 34.278 48.9805 34.1864 48.9151C34.0948 48.8496 33.9811 48.8227 33.8699 48.8401C33.5199 48.9001 33.1499 48.9601 32.7799 49.0001C32.6701 49.0127 32.5697 49.0681 32.5004 49.1542C32.4312 49.2403 32.3987 49.3502 32.4099 49.4601C32.4161 49.5155 32.4332 49.569 32.4603 49.6176C32.4873 49.6663 32.5238 49.709 32.5675 49.7435C32.6112 49.7779 32.6614 49.8033 32.715 49.8182C32.7686 49.833 32.8247 49.8371 32.8799 49.8301Z" fill="#A20000"/>
<path d="M30.63 50.0002C31.02 50.0002 31.4 50.0002 31.78 50.0002C31.8351 49.9976 31.8893 49.9842 31.9392 49.9607C31.9892 49.9372 32.0341 49.904 32.0712 49.8631C32.1084 49.8223 32.1371 49.7745 32.1558 49.7225C32.1744 49.6705 32.1827 49.6153 32.18 49.5602C32.1789 49.5036 32.1661 49.4479 32.1424 49.3966C32.1187 49.3452 32.0847 49.2993 32.0424 49.2618C32.0002 49.2242 31.9506 49.1958 31.8968 49.1783C31.843 49.1608 31.7862 49.1546 31.73 49.1602C31.37 49.1602 31 49.1602 30.63 49.1602C30.5186 49.1602 30.4117 49.2044 30.333 49.2832C30.2542 49.3619 30.21 49.4688 30.21 49.5802C30.21 49.6916 30.2542 49.7984 30.333 49.8772C30.4117 49.9559 30.5186 50.0002 30.63 50.0002Z" fill="#A20000"/>
<path d="M42.2699 40.4099C42.3715 40.0286 42.4483 39.6412 42.4999 39.2499C42.5069 39.1947 42.5028 39.1387 42.4879 39.085C42.4731 39.0314 42.4477 38.9813 42.4132 38.9375C42.3788 38.8938 42.336 38.8574 42.2874 38.8303C42.2388 38.8032 42.1852 38.7861 42.1299 38.7799C42.0753 38.7715 42.0194 38.7742 41.9659 38.7879C41.9123 38.8016 41.862 38.826 41.8181 38.8597C41.7742 38.8933 41.7375 38.9355 41.7104 38.9836C41.6832 39.0318 41.666 39.085 41.6599 39.1399C41.6184 39.4976 41.5515 39.8518 41.4599 40.1999C41.4449 40.2531 41.4409 40.3088 41.448 40.3636C41.4551 40.4184 41.4732 40.4713 41.5012 40.5189C41.5292 40.5665 41.5666 40.608 41.611 40.6408C41.6555 40.6737 41.7061 40.6972 41.7599 40.7099H41.8599C41.9516 40.7116 42.0414 40.6831 42.1154 40.629C42.1895 40.5748 42.2437 40.4979 42.2699 40.4099Z" fill="#A20000"/>
<path d="M35.24 46.9101C35.2076 46.8044 35.1348 46.7157 35.0375 46.6632C34.9401 46.6108 34.826 46.5989 34.72 46.6301C34.37 46.7401 34.02 46.8301 33.66 46.9101C33.5591 46.9325 33.47 46.9913 33.4097 47.0753C33.3495 47.1593 33.3224 47.2626 33.3335 47.3653C33.3446 47.4681 33.3933 47.5632 33.4701 47.6323C33.547 47.7014 33.6466 47.7398 33.75 47.7401H33.84C34.22 47.6601 34.6 47.5601 34.96 47.4501C35.0146 47.4342 35.0654 47.4074 35.1094 47.3713C35.1533 47.3352 35.1895 47.2906 35.2157 47.2401C35.2419 47.1896 35.2575 47.1343 35.2617 47.0776C35.2659 47.0208 35.2585 46.9639 35.24 46.9101Z" fill="#A20000"/>
<path d="M30.3899 48.1202C30.5013 48.1202 30.6081 48.0759 30.6868 47.9971C30.7656 47.9184 30.8099 47.8115 30.8099 47.7002C30.8099 47.5888 30.7656 47.4819 30.6868 47.4032C30.6081 47.3244 30.5013 47.2802 30.3899 47.2802H30.0799H29.2799C29.2247 47.2788 29.1698 47.2884 29.1184 47.3083C29.0669 47.3282 29.0198 47.358 28.9799 47.3961C28.94 47.4341 28.9079 47.4797 28.8856 47.5302C28.8633 47.5806 28.8512 47.635 28.8499 47.6902C28.8472 47.7453 28.8554 47.8005 28.874 47.8525C28.8927 47.9045 28.9214 47.9523 28.9586 47.9931C28.9957 48.034 29.0406 48.0671 29.0906 48.0907C29.1406 48.1142 29.1947 48.1276 29.2499 48.1302H30.3999L30.3899 48.1202Z" fill="#A20000"/>
<path d="M28.34 49.84C28.72 49.84 29.11 49.91 29.49 49.93C29.5915 49.9144 29.6841 49.863 29.751 49.785C29.8179 49.707 29.8546 49.6077 29.8546 49.505C29.8546 49.4023 29.8179 49.303 29.751 49.225C29.6841 49.1471 29.5915 49.0956 29.49 49.08C29.12 49.08 28.75 49.08 28.38 49.01C28.3246 49.0031 28.2683 49.0075 28.2146 49.0231C28.161 49.0388 28.1111 49.0652 28.068 49.1007C28.0249 49.1363 27.9896 49.1803 27.9641 49.2301C27.9387 49.2798 27.9237 49.3343 27.92 49.39C27.9159 49.4476 27.9237 49.5055 27.9429 49.56C27.9622 49.6144 27.9925 49.6643 28.0319 49.7066C28.0713 49.7488 28.119 49.7825 28.172 49.8054C28.2251 49.8284 28.2822 49.8402 28.34 49.84Z" fill="#A20000"/>
<path d="M28.13 48.0001C28.2348 48.0006 28.3359 47.9619 28.4137 47.8916C28.4914 47.8213 28.54 47.7245 28.55 47.6201C28.5555 47.5649 28.55 47.5092 28.5338 47.4561C28.5177 47.403 28.4912 47.3537 28.4558 47.3109C28.4205 47.2682 28.3771 47.2328 28.328 47.2069C28.2789 47.181 28.2252 47.1651 28.17 47.1601C27.81 47.1601 27.44 47.0801 27.07 47.0201C26.9586 47.0042 26.8454 47.0332 26.7554 47.1007C26.6654 47.1682 26.6059 47.2687 26.59 47.3801C26.574 47.4915 26.603 47.6047 26.6705 47.6947C26.7381 47.7847 26.8386 47.8442 26.95 47.8601L28.09 48.0001H28.13Z" fill="#A20000"/>
<path d="M26.0699 49.5301L27.1999 49.7101H27.2599C27.3625 49.7087 27.4613 49.6707 27.5383 49.6028C27.6153 49.5349 27.6655 49.4418 27.6799 49.3401C27.6941 49.2301 27.6642 49.119 27.5968 49.0309C27.5293 48.9428 27.4298 48.885 27.3199 48.8701C26.9599 48.8201 26.5899 48.7601 26.2299 48.6901C26.1753 48.68 26.1194 48.6808 26.0652 48.6925C26.011 48.7042 25.9596 48.7264 25.914 48.758C25.8685 48.7896 25.8296 48.83 25.7997 48.8767C25.7699 48.9234 25.7495 48.9755 25.7399 49.0301C25.7267 49.0847 25.725 49.1415 25.7347 49.1968C25.7444 49.2521 25.7654 49.3049 25.7963 49.3517C25.8273 49.3986 25.8675 49.4387 25.9146 49.4693C25.9616 49.5 26.0145 49.5207 26.0699 49.5301Z" fill="#A20000"/>
<path d="M30.7798 22.39C30.8697 22.393 30.9582 22.367 31.0322 22.3159C31.1062 22.2648 31.1619 22.1913 31.191 22.1062C31.2201 22.0211 31.2211 21.9289 31.1939 21.8432C31.1667 21.7575 31.1127 21.6828 31.0398 21.63L30.1498 21C30.1065 20.9659 30.0569 20.9406 30.0038 20.9257C29.9507 20.9107 29.8951 20.9063 29.8403 20.9128C29.7856 20.9193 29.7326 20.9366 29.6845 20.9635C29.6363 20.9905 29.594 21.0267 29.5598 21.07C29.4909 21.1576 29.4595 21.2689 29.4727 21.3795C29.4858 21.4902 29.5423 21.5911 29.6298 21.66C29.8898 21.87 30.1798 22.09 30.5298 22.35C30.6067 22.3901 30.6944 22.4041 30.7798 22.39Z" fill="#A20000"/>
<path d="M35.1 49.4401H35.2C35.57 49.3501 35.95 49.2501 36.31 49.1301C36.4094 49.0916 36.4905 49.0168 36.5368 48.9208C36.5831 48.8248 36.5911 48.7148 36.5593 48.6131C36.5275 48.5114 36.4583 48.4255 36.3656 48.373C36.2728 48.3204 36.1636 48.3051 36.06 48.3301C35.71 48.4401 35.36 48.5401 35 48.6201C34.8982 48.6426 34.8083 48.7022 34.748 48.7873C34.6877 48.8723 34.6612 48.9768 34.6737 49.0804C34.6861 49.184 34.7367 49.2792 34.8155 49.3475C34.8943 49.4158 34.9957 49.4524 35.1 49.4501V49.4401Z" fill="#A20000"/>
<path d="M12.92 43C12.9981 43.0664 13.0976 43.102 13.2 43.1C13.2585 43.099 13.3162 43.0861 13.3695 43.062C13.4228 43.0379 13.4706 43.0032 13.51 42.96C13.5497 42.9218 13.5812 42.876 13.6027 42.8253C13.6242 42.7746 13.6353 42.7201 13.6353 42.665C13.6353 42.61 13.6242 42.5555 13.6027 42.5048C13.5812 42.4541 13.5497 42.4083 13.51 42.37C13.24 42.12 12.96 41.87 12.7 41.61C12.66 41.5713 12.6127 41.5408 12.5609 41.5204C12.509 41.4999 12.4537 41.4899 12.398 41.4908C12.3423 41.4917 12.2873 41.5036 12.2361 41.5258C12.185 41.548 12.1388 41.58 12.1 41.62C12.0613 41.6601 12.0308 41.7074 12.0104 41.7592C11.9899 41.8111 11.9798 41.8664 11.9808 41.9221C11.9817 41.9778 11.9936 42.0328 12.0158 42.0839C12.038 42.1351 12.07 42.1813 12.11 42.22L12.92 43Z" fill="#A20000"/>
<path d="M12 38.36C11.9284 38.2738 11.8254 38.2196 11.7139 38.2093C11.6023 38.199 11.4912 38.2334 11.405 38.305C11.3188 38.3767 11.2646 38.4796 11.2542 38.5912C11.2439 38.7027 11.2784 38.8139 11.35 38.9C11.59 39.19 11.85 39.49 12.1 39.77C12.1413 39.8135 12.1909 39.8483 12.2458 39.8724C12.3008 39.8964 12.36 39.9092 12.42 39.91C12.5235 39.9083 12.6229 39.8692 12.7 39.8C12.7759 39.7186 12.8181 39.6114 12.8181 39.5C12.8181 39.3887 12.7759 39.2815 12.7 39.2C12.48 38.93 12.23 38.65 12 38.36Z" fill="#A20000"/>
<path d="M9.53984 34.6901C9.51745 34.6362 9.48407 34.5875 9.44181 34.5472C9.39955 34.5069 9.34936 34.4759 9.29443 34.4561C9.2395 34.4363 9.18104 34.4281 9.12279 34.4322C9.06454 34.4362 9.00777 34.4524 8.95611 34.4796C8.90446 34.5068 8.85904 34.5445 8.82277 34.5903C8.7865 34.636 8.76018 34.6889 8.74547 34.7454C8.73076 34.8019 8.728 34.8608 8.73737 34.9185C8.74673 34.9761 8.76801 35.0312 8.79984 35.0801C8.97984 35.4201 9.16984 35.7601 9.35984 36.0801C9.39723 36.1449 9.45124 36.1985 9.51628 36.2354C9.58133 36.2724 9.65505 36.2912 9.72984 36.2901C9.80391 36.289 9.87636 36.2683 9.93984 36.2301C9.98813 36.2022 10.0304 36.165 10.0641 36.1206C10.0979 36.0762 10.1225 36.0256 10.1364 35.9716C10.1504 35.9176 10.1535 35.8614 10.1455 35.8062C10.1375 35.751 10.1186 35.6979 10.0898 35.6501C9.89984 35.3401 9.70984 35.0001 9.53984 34.6901Z" fill="#A20000"/>
<path d="M11.2798 41.38C11.3584 41.4575 11.4644 41.501 11.5748 41.501C11.6852 41.501 11.7912 41.4575 11.8698 41.38C11.948 41.2997 11.9918 41.1921 11.9918 41.08C11.9918 40.9679 11.948 40.8603 11.8698 40.78C11.6198 40.51 11.3698 40.24 11.1298 39.96C11.0916 39.9204 11.0458 39.8888 10.9951 39.8673C10.9444 39.8458 10.8899 39.8347 10.8348 39.8347C10.7798 39.8347 10.7253 39.8458 10.6746 39.8673C10.6239 39.8888 10.5781 39.9204 10.5398 39.96C10.4968 39.9947 10.4612 40.0379 10.4353 40.0867C10.4094 40.1356 10.3936 40.1892 10.3889 40.2443C10.3842 40.2994 10.3908 40.3549 10.4081 40.4075C10.4255 40.46 10.4533 40.5085 10.4898 40.55C10.7598 40.82 10.9998 41.1 11.2798 41.38Z" fill="#A20000"/>
<path d="M8.59004 32.6802C8.56871 32.6246 8.5358 32.5742 8.49349 32.5323C8.45119 32.4903 8.40045 32.4579 8.34466 32.4371C8.28886 32.4163 8.22928 32.4076 8.16987 32.4116C8.11046 32.4156 8.05257 32.4321 8.00004 32.4602C7.89806 32.5044 7.81714 32.5863 7.77426 32.6888C7.73138 32.7914 7.72987 32.9065 7.77004 33.0102C7.92004 33.3602 8.08004 33.7102 8.24004 34.0602C8.27414 34.1321 8.32796 34.1928 8.39524 34.2353C8.46251 34.2778 8.54047 34.3003 8.62004 34.3002C8.67922 34.3142 8.74086 34.3142 8.80004 34.3002C8.85529 34.277 8.90496 34.2424 8.9457 34.1984C8.98645 34.1545 9.01732 34.1024 9.03627 34.0456C9.05521 33.9888 9.06178 33.9285 9.05553 33.869C9.04928 33.8094 9.03036 33.7518 9.00004 33.7002C8.89004 33.3702 8.73004 33.0002 8.59004 32.6802Z" fill="#A20000"/>
<path d="M10.68 36.59C10.6496 36.5428 10.6101 36.5021 10.5638 36.4704C10.5175 36.4387 10.4653 36.4166 10.4103 36.4054C10.3553 36.3942 10.2986 36.3942 10.2436 36.4053C10.1886 36.4163 10.1363 36.4384 10.09 36.47C9.99833 36.5346 9.93555 36.6324 9.915 36.7426C9.89445 36.8528 9.91776 36.9667 9.97996 37.06C10.19 37.37 10.41 37.69 10.64 37.99C10.6776 38.0455 10.7283 38.0909 10.7875 38.1223C10.8468 38.1537 10.9129 38.1701 10.98 38.17C11.0714 38.171 11.1602 38.1391 11.23 38.08C11.2748 38.0473 11.3128 38.0061 11.3416 37.9587C11.3705 37.9113 11.3896 37.8586 11.398 37.8037C11.4064 37.7489 11.4038 37.6929 11.3904 37.639C11.377 37.5852 11.353 37.5345 11.32 37.49C11.1 37.2 10.88 36.89 10.68 36.59Z" fill="#A20000"/>
<path d="M6.29997 33.7601C6.33434 33.8346 6.38932 33.8978 6.45843 33.9421C6.52754 33.9864 6.60789 34.01 6.68997 34.0101C6.74288 34.0196 6.79707 34.0196 6.84997 34.0101C6.9526 33.9641 7.0331 33.8797 7.07423 33.775C7.11535 33.6703 7.11383 33.5537 7.06997 33.4501C6.92997 33.1201 6.78997 32.7701 6.64997 32.4501C6.60973 32.347 6.53043 32.264 6.42932 32.2191C6.32821 32.1741 6.21345 32.1709 6.10997 32.2101C6.00618 32.2524 5.923 32.3336 5.87817 32.4363C5.83334 32.539 5.8304 32.6552 5.86997 32.7601C5.99997 33.0501 6.14997 33.4101 6.29997 33.7601Z" fill="#A20000"/>
<path d="M6.27994 31.3501C6.15994 31.0101 6.04994 30.6501 5.93994 30.2901C5.92352 30.2369 5.89679 30.1874 5.86127 30.1446C5.82575 30.1017 5.78214 30.0663 5.73293 30.0403C5.68371 30.0143 5.62986 29.9982 5.57444 29.9931C5.51902 29.9879 5.46312 29.9936 5.40994 30.0101C5.35675 30.0265 5.30732 30.0532 5.26446 30.0887C5.22161 30.1242 5.18617 30.1679 5.16017 30.2171C5.10766 30.3165 5.09678 30.4326 5.12994 30.5401C5.23994 30.9001 5.35994 31.2701 5.47994 31.6201C5.50741 31.7045 5.56092 31.778 5.63278 31.8301C5.70465 31.8822 5.79117 31.9102 5.87994 31.9101H6.00994C6.11994 31.8715 6.21015 31.7909 6.26077 31.6859C6.31139 31.5809 6.31828 31.4601 6.27994 31.3501Z" fill="#A20000"/>
<path d="M9.77992 39.65C9.82061 39.6983 9.87102 39.7375 9.92788 39.7651C9.98474 39.7927 10.0468 39.808 10.1099 39.81C10.2046 39.8126 10.2971 39.7806 10.3699 39.72C10.414 39.6866 10.4511 39.6448 10.479 39.597C10.5069 39.5492 10.5251 39.4964 10.5325 39.4416C10.54 39.3868 10.5365 39.331 10.5223 39.2775C10.5081 39.2241 10.4835 39.1739 10.4499 39.13C10.2199 38.84 9.99992 38.54 9.77992 38.24C9.71382 38.1499 9.61529 38.0892 9.50517 38.0705C9.39505 38.0518 9.28199 38.0767 9.18992 38.14C9.14505 38.1726 9.1071 38.2139 9.07826 38.2613C9.04942 38.3087 9.03026 38.3613 9.02189 38.4162C9.01352 38.4711 9.01611 38.527 9.0295 38.5809C9.0429 38.6347 9.06683 38.6854 9.09992 38.73C9.31992 39 9.54992 39.35 9.77992 39.65Z" fill="#A20000"/>
<path d="M7.28993 35.8201C7.32515 35.8874 7.3784 35.9437 7.44373 35.9825C7.50907 36.0214 7.58392 36.0413 7.65993 36.0401C7.72589 36.0538 7.79397 36.0538 7.85993 36.0401C7.91193 36.0105 7.95719 35.9704 7.99282 35.9224C8.02844 35.8743 8.05365 35.8193 8.06683 35.761C8.08 35.7026 8.08086 35.6422 8.06934 35.5835C8.05782 35.5248 8.03418 35.4691 7.99993 35.4201C7.82993 35.1001 7.65993 34.7601 7.49993 34.4201C7.47634 34.3701 7.44313 34.3253 7.4022 34.2882C7.36128 34.2511 7.31343 34.2225 7.26142 34.2039C7.2094 34.1853 7.15423 34.1772 7.09906 34.18C7.0439 34.1827 6.98982 34.1964 6.93993 34.2201C6.83835 34.2697 6.76041 34.3574 6.72298 34.464C6.68555 34.5707 6.69164 34.6879 6.73993 34.7901C6.93993 35.1401 7.10993 35.4801 7.28993 35.8201Z" fill="#A20000"/>
<path d="M13.49 40C13.4114 39.9224 13.3054 39.8789 13.195 39.8789C13.0846 39.8789 12.9786 39.9224 12.9 40C12.8601 40.0391 12.8284 40.0857 12.8067 40.1372C12.7851 40.1888 12.7739 40.2441 12.7739 40.2999C12.7739 40.3558 12.7851 40.4111 12.8067 40.4627C12.8284 40.5142 12.8601 40.5608 12.9 40.5999C13.17 40.8699 13.45 41.1299 13.73 41.3899C13.807 41.4591 13.9065 41.4982 14.01 41.5C14.0703 41.5016 14.1303 41.4899 14.1856 41.4657C14.241 41.4415 14.2902 41.4054 14.33 41.36C14.4075 41.2814 14.451 41.1754 14.451 41.0649C14.451 40.9545 14.4075 40.8485 14.33 40.77C14 40.52 13.75 40.26 13.49 40Z" fill="#A20000"/>
<path d="M8.44982 37.7901C8.4862 37.8514 8.53723 37.9027 8.59832 37.9393C8.65941 37.976 8.72865 37.9969 8.79982 38.0001C8.87373 37.9899 8.94314 37.9587 8.99982 37.9101C9.04647 37.8806 9.08685 37.8422 9.11863 37.7971C9.15042 37.7519 9.17299 37.701 9.18507 37.6471C9.19714 37.5932 9.19848 37.5375 9.189 37.4831C9.17952 37.4287 9.15941 37.3767 9.12982 37.3301L8.53982 36.3901C8.51642 36.3354 8.48164 36.2862 8.43779 36.246C8.39394 36.2057 8.34203 36.1752 8.2855 36.1565C8.22897 36.1378 8.16911 36.1313 8.10989 36.1375C8.05067 36.1437 7.99345 36.1625 7.94202 36.1925C7.89059 36.2225 7.84612 36.2631 7.81157 36.3116C7.77702 36.3601 7.75318 36.4153 7.74163 36.4737C7.73007 36.5322 7.73107 36.5924 7.74455 36.6504C7.75803 36.7083 7.78369 36.7628 7.81982 36.8101C7.99982 37.1401 8.23982 37.4701 8.44982 37.7901Z" fill="#A20000"/>
<path d="M7.83984 30.6001C7.82342 30.5469 7.79669 30.4975 7.76117 30.4546C7.72565 30.4118 7.68204 30.3764 7.63283 30.3504C7.58361 30.3244 7.52976 30.3083 7.47434 30.3031C7.41892 30.2979 7.36302 30.3037 7.30984 30.3201C7.25665 30.3365 7.20722 30.3633 7.16437 30.3988C7.12151 30.4343 7.08607 30.4779 7.06007 30.5271C7.03407 30.5763 7.01802 30.6302 7.01283 30.6856C7.00764 30.741 7.01342 30.7969 7.02984 30.8501C7.14984 31.2101 7.26984 31.5801 7.39984 31.9401C7.42885 32.02 7.48196 32.0889 7.55183 32.1372C7.6217 32.1856 7.70487 32.2111 7.78984 32.2101C7.83937 32.2198 7.89031 32.2198 7.93984 32.2101C7.99177 32.1912 8.03945 32.1621 8.08014 32.1247C8.12084 32.0873 8.15374 32.0422 8.17697 31.992C8.20019 31.9419 8.21329 31.8876 8.2155 31.8324C8.2177 31.7771 8.20898 31.722 8.18984 31.6701C8.06984 31.3101 7.99984 31.0001 7.83984 30.6001Z" fill="#A20000"/>
<path d="M33.1999 5.52995C33.2205 5.62344 33.2723 5.70712 33.3468 5.76714C33.4214 5.82715 33.5142 5.8599 33.6099 5.85995H33.7099L34.4099 5.71995C34.0099 5.61995 33.6099 5.52995 33.1999 5.44995C33.1967 5.47652 33.1967 5.50338 33.1999 5.52995Z" fill="#A20000"/>
<path d="M5.15 27.06L5.09 26.71L5 27.42C5.0544 27.3784 5.0969 27.3233 5.12323 27.2601C5.14956 27.1969 5.15879 27.1279 5.15 27.06Z" fill="#A20000"/>
<path d="M31.3099 5.71007C31.2197 5.74609 31.1447 5.81227 31.0978 5.89733C31.051 5.98239 31.035 6.08108 31.0527 6.17658C31.0704 6.27209 31.1206 6.35852 31.1948 6.42114C31.2691 6.48377 31.3627 6.51873 31.4599 6.52007H31.6099C31.9399 6.39007 32.2899 6.27007 32.6099 6.16007C32.663 6.14522 32.7125 6.11981 32.7556 6.08536C32.7986 6.05092 32.8343 6.00815 32.8604 5.9596C32.8866 5.91106 32.9027 5.85774 32.9077 5.80283C32.9128 5.74793 32.9067 5.69257 32.8899 5.64007C32.868 5.57163 32.8289 5.50996 32.7764 5.46093C32.7239 5.41191 32.6596 5.37718 32.5899 5.36007H32.4999C32.4537 5.35036 32.406 5.35036 32.3599 5.36007C31.9999 5.45007 31.6499 5.57007 31.3099 5.71007Z" fill="#A20000"/>
<path d="M6.54999 20.7C6.54999 20.54 6.54999 20.38 6.54999 20.22C6.43999 20.51 6.33999 20.79 6.23999 21.09C6.32575 21.0652 6.40168 21.0143 6.45723 20.9444C6.51277 20.8746 6.5452 20.7891 6.54999 20.7Z" fill="#A20000"/>
<path d="M5.34 29.7401C5.44794 29.7096 5.53972 29.6382 5.59576 29.5411C5.65181 29.4439 5.66768 29.3287 5.64 29.2201C5.55 28.8701 5.46 28.5101 5.38 28.1401C5.35627 28.0547 5.30729 27.9784 5.23948 27.9213C5.17168 27.8642 5.0882 27.8289 5 27.8201C5 28.1101 5 28.4101 5 28.7001C5 28.9901 5 29.3601 5 29.7001C5.06348 29.7382 5.13593 29.7589 5.21 29.7601L5.34 29.7401Z" fill="#A20000"/>
<path d="M6.40001 25.9C6.34461 25.9074 6.29124 25.9257 6.24302 25.9539C6.19479 25.9821 6.15268 26.0197 6.11916 26.0644C6.08563 26.1091 6.06136 26.16 6.04777 26.2142C6.03418 26.2684 6.03154 26.3248 6.04001 26.38C6.04001 26.76 6.15001 27.14 6.22001 27.51C6.2382 27.6064 6.28878 27.6936 6.36335 27.7573C6.43792 27.8209 6.532 27.8572 6.63001 27.86H6.71001C6.76461 27.8504 6.81676 27.83 6.86346 27.8002C6.91015 27.7703 6.95047 27.7314 6.98208 27.6859C7.01369 27.6403 7.03596 27.5889 7.04762 27.5347C7.05928 27.4805 7.06009 27.4246 7.05001 27.37C6.98001 27.01 6.92001 26.64 6.87001 26.27C6.86382 26.2147 6.8467 26.1612 6.81964 26.1126C6.79259 26.0639 6.75613 26.0211 6.7124 25.9867C6.66867 25.9523 6.61854 25.9269 6.56491 25.912C6.51128 25.8971 6.45522 25.8931 6.40001 25.9Z" fill="#A20000"/>
<path d="M6.14983 21.4001C5.99983 21.8701 5.85983 22.4001 5.72983 22.8301C5.7245 22.8733 5.7245 22.917 5.72983 22.9601C5.73244 23.0698 5.77784 23.1741 5.85633 23.2507C5.93481 23.3273 6.04015 23.3702 6.14983 23.3701C6.20586 23.3689 6.26108 23.3564 6.31221 23.3335C6.36335 23.3105 6.40938 23.2776 6.44759 23.2366C6.4858 23.1956 6.51541 23.1473 6.53469 23.0947C6.55397 23.0421 6.56251 22.9861 6.55983 22.9301C6.55983 22.5601 6.55983 22.1801 6.55983 21.8101C6.55729 21.7022 6.51328 21.5994 6.43693 21.523C6.36059 21.4467 6.25777 21.4027 6.14983 21.4001Z" fill="#A20000"/>
<path d="M7.26982 28.4501C7.24595 28.3401 7.17934 28.244 7.08463 28.183C6.98993 28.1221 6.87489 28.1013 6.76482 28.1251C6.65476 28.149 6.55868 28.2156 6.49774 28.3103C6.43679 28.405 6.41595 28.5201 6.43982 28.6301L6.70982 29.7501C6.73567 29.8391 6.78953 29.9173 6.86341 29.9731C6.93728 30.029 7.02721 30.0595 7.11982 30.0601H7.22982C7.33777 30.0297 7.42954 29.9583 7.48559 29.8611C7.54163 29.764 7.55751 29.6488 7.52982 29.5401C7.43982 29.1801 7.34982 28.8101 7.26982 28.4501Z" fill="#A20000"/>
<path d="M6.18985 23.6602C6.13417 23.6626 6.07957 23.6764 6.0294 23.7006C5.97922 23.7249 5.93452 23.7591 5.89802 23.8012C5.86152 23.8434 5.83399 23.8925 5.81711 23.9456C5.80023 23.9987 5.79436 24.0547 5.79985 24.1102C5.79985 24.4902 5.85985 24.8702 5.89985 25.2402C5.90983 25.3445 5.95844 25.4413 6.03615 25.5116C6.11386 25.5819 6.21505 25.6206 6.31985 25.6202C6.3751 25.6151 6.42881 25.5992 6.47787 25.5734C6.52694 25.5475 6.5704 25.5121 6.60573 25.4694C6.64106 25.4266 6.66757 25.3772 6.68372 25.3242C6.69988 25.2711 6.70536 25.2154 6.69985 25.1602C6.69985 24.7902 6.61985 24.4202 6.59985 24.0502C6.59239 23.9457 6.54622 23.8479 6.47038 23.7757C6.39454 23.7036 6.29449 23.6624 6.18985 23.6602Z" fill="#A20000"/>
<path d="M32.7999 20.5301C32.7553 20.497 32.7047 20.4731 32.6508 20.4597C32.5969 20.4463 32.541 20.4437 32.4861 20.4521C32.4313 20.4604 32.3786 20.4796 32.3312 20.5084C32.2838 20.5373 32.2425 20.5752 32.2099 20.6201C32.148 20.7118 32.1229 20.8234 32.1396 20.9327C32.1562 21.042 32.2135 21.1411 32.2999 21.2101L33.1699 21.8601C33.2416 21.9157 33.3291 21.9472 33.4199 21.9501C33.4859 21.9505 33.5511 21.9353 33.6102 21.9058C33.6693 21.8762 33.7206 21.8332 33.7599 21.7801C33.7935 21.7362 33.8181 21.686 33.8323 21.6325C33.8464 21.579 33.8499 21.5233 33.8425 21.4685C33.8351 21.4136 33.8169 21.3608 33.789 21.3131C33.7611 21.2653 33.724 21.2235 33.6799 21.1901L32.7999 20.5301Z" fill="#A20000"/>
<path d="M28.2999 7.56003C28.0106 7.86445 27.7558 8.19981 27.5399 8.56003C27.4842 8.65451 27.4677 8.76703 27.4938 8.87354C27.52 8.98006 27.5868 9.07211 27.6799 9.13003C27.7442 9.17561 27.8211 9.20008 27.8999 9.20003C27.972 9.20041 28.043 9.18221 28.1061 9.14718C28.1692 9.11215 28.2221 9.06147 28.2599 9.00003C28.4463 8.70981 28.6607 8.43852 28.8999 8.19003C28.9775 8.11143 29.0209 8.00545 29.0209 7.89503C29.0209 7.78461 28.9775 7.67863 28.8999 7.60003C28.8635 7.5574 28.819 7.52248 28.7689 7.49733C28.7189 7.47217 28.6642 7.45729 28.6083 7.45357C28.5524 7.44984 28.4963 7.45734 28.4434 7.47562C28.3904 7.49391 28.3416 7.5226 28.2999 7.56003Z" fill="#A20000"/>
<path d="M30.2398 6.19007C29.8914 6.36374 29.557 6.56435 29.2398 6.79007C29.1934 6.8212 29.1537 6.86128 29.1229 6.90797C29.0922 6.95465 29.0711 7.007 29.0608 7.06195C29.0506 7.1169 29.0514 7.17334 29.0633 7.22797C29.0751 7.2826 29.0977 7.33431 29.1298 7.38007C29.1684 7.43703 29.2207 7.48336 29.2818 7.51482C29.343 7.54627 29.4111 7.56183 29.4798 7.56007C29.5657 7.55636 29.6489 7.52865 29.7198 7.48007C30.0106 7.27971 30.3146 7.09929 30.6298 6.94007C30.7296 6.88867 30.8054 6.80027 30.8409 6.69376C30.8764 6.58725 30.8688 6.47108 30.8198 6.37007C30.7945 6.31926 30.7592 6.2741 30.716 6.23732C30.6728 6.20054 30.6225 6.1729 30.5683 6.15608C30.5141 6.13926 30.4571 6.1336 30.4006 6.13944C30.3441 6.14528 30.2894 6.16251 30.2398 6.19007Z" fill="#A20000"/>
<path d="M28.74 17.68C28.7004 17.7183 28.6689 17.7641 28.6474 17.8148C28.6258 17.8655 28.6147 17.92 28.6147 17.975C28.6147 18.0301 28.6258 18.0846 28.6474 18.1353C28.6689 18.1859 28.7004 18.2318 28.74 18.27C28.99 18.53 29.27 18.79 29.58 19.06C29.6167 19.0964 29.6605 19.125 29.7087 19.1439C29.7568 19.1628 29.8083 19.1717 29.86 19.17C29.9443 19.1666 30.0256 19.1384 30.094 19.0891C30.1624 19.0398 30.2147 18.9714 30.2446 18.8926C30.2744 18.8137 30.2804 18.7278 30.2618 18.6456C30.2432 18.5633 30.2009 18.4884 30.14 18.43C29.84 18.17 29.58 17.93 29.34 17.68C29.3009 17.6401 29.2542 17.6084 29.2027 17.5868C29.1512 17.5651 29.0959 17.554 29.04 17.554C28.9841 17.554 28.9288 17.5651 28.8773 17.5868C28.8258 17.6084 28.7791 17.6401 28.74 17.68Z" fill="#A20000"/>
<path d="M27.5098 6.00001C27.2 6.23751 26.9029 6.49119 26.6198 6.76001C26.5569 6.81752 26.513 6.89281 26.4938 6.97589C26.4747 7.05897 26.4814 7.1459 26.5128 7.22513C26.5443 7.30436 26.5991 7.37213 26.6701 7.41944C26.741 7.46676 26.8246 7.49137 26.9098 7.49001C27.018 7.48702 27.1212 7.4443 27.1998 7.37001C27.4498 7.13001 27.7298 6.90001 28.0198 6.67001C28.0651 6.63748 28.1032 6.59607 28.1319 6.54831C28.1606 6.50055 28.1793 6.44744 28.1868 6.39222C28.1943 6.33701 28.1904 6.28084 28.1755 6.22717C28.1605 6.17349 28.1348 6.12342 28.0998 6.08001C28.0308 5.99313 27.9309 5.93629 27.8209 5.92138C27.711 5.90647 27.5995 5.93465 27.5098 6.00001Z" fill="#A20000"/>
<path d="M25.81 7.60012C25.5541 7.91481 25.3234 8.24918 25.12 8.60013C25.0909 8.64733 25.0713 8.69984 25.0626 8.75462C25.0539 8.80941 25.0561 8.86538 25.0691 8.91931C25.0821 8.97323 25.1057 9.02405 25.1385 9.06881C25.1712 9.11358 25.2125 9.15141 25.26 9.18013C25.3229 9.2284 25.4007 9.25317 25.48 9.25013C25.5561 9.24612 25.6294 9.22046 25.6915 9.17617C25.7535 9.13188 25.8015 9.0708 25.83 9.00013C26.0244 8.70238 26.2347 8.4153 26.46 8.14013C26.5307 8.05223 26.564 7.94008 26.5528 7.82785C26.5416 7.71561 26.4867 7.61228 26.4 7.54013C26.3137 7.47001 26.2032 7.43695 26.0926 7.4482C25.982 7.45945 25.8804 7.51408 25.81 7.60012Z" fill="#A20000"/>
<path d="M31.3499 22.3901C31.3168 22.4346 31.2929 22.4853 31.2795 22.5391C31.2661 22.593 31.2635 22.649 31.2719 22.7038C31.2803 22.7587 31.2994 22.8114 31.3283 22.8588C31.3571 22.9062 31.3951 22.9474 31.4399 22.9801L32.3299 23.6601C32.3741 23.6953 32.425 23.7212 32.4795 23.7362C32.534 23.7513 32.5909 23.7552 32.6469 23.7477C32.703 23.7403 32.7569 23.7216 32.8055 23.6928C32.8542 23.6639 32.8965 23.6256 32.9299 23.5801C32.9953 23.4904 33.0235 23.3789 33.0086 23.269C32.9936 23.159 32.9368 23.0591 32.8499 22.9901L31.9399 22.3101C31.8503 22.2447 31.7388 22.2165 31.6288 22.2314C31.5189 22.2463 31.4189 22.3032 31.3499 22.3901Z" fill="#A20000"/>
<path d="M35.2899 22.48L34.5699 21.88C34.4837 21.8099 34.3731 21.7768 34.2625 21.788C34.1519 21.7993 34.0503 21.8539 33.9799 21.94C33.9092 22.0279 33.8759 22.14 33.8871 22.2522C33.8984 22.3645 33.9532 22.4678 34.0399 22.54C34.2999 22.74 34.5199 22.93 34.7399 23.12L34.8899 23.25C34.968 23.3163 35.0675 23.3519 35.1699 23.35C35.2288 23.3516 35.2873 23.3398 35.341 23.3155C35.3947 23.2913 35.4422 23.2552 35.4799 23.21C35.5196 23.1717 35.5511 23.1259 35.5726 23.0752C35.5941 23.0245 35.6052 22.97 35.6052 22.915C35.6052 22.8599 35.5941 22.8054 35.5726 22.7547C35.5511 22.704 35.5196 22.6582 35.4799 22.62L35.2899 22.48Z" fill="#A20000"/>
<path d="M33.15 23.7602C33.0799 23.8464 33.0468 23.957 33.0581 24.0676C33.0693 24.1781 33.1239 24.2798 33.21 24.3502L33.66 24.7302L34.05 25.0702C34.0867 25.1066 34.1305 25.1351 34.1786 25.154C34.2268 25.173 34.2783 25.1818 34.33 25.1802C34.4152 25.1815 34.4989 25.1569 34.5698 25.1096C34.6407 25.0623 34.6955 24.9945 34.727 24.9153C34.7585 24.836 34.7651 24.7491 34.746 24.666C34.7269 24.583 34.6829 24.5077 34.62 24.4502L34.21 24.0902L33.75 23.7002C33.6621 23.6295 33.5499 23.5961 33.4377 23.6074C33.3255 23.6186 33.2221 23.6735 33.15 23.7602Z" fill="#A20000"/>
<path d="M24.5701 9.63C24.4201 9.99647 24.2998 10.3743 24.2101 10.76C24.1952 10.8139 24.1915 10.8702 24.1992 10.9256C24.207 10.981 24.2259 11.0342 24.255 11.0819C24.284 11.1297 24.3225 11.171 24.3681 11.2034C24.4137 11.2357 24.4654 11.2584 24.5201 11.27H24.6201C24.7027 11.2663 24.7824 11.2388 24.8498 11.191C24.9172 11.1431 24.9694 11.0768 25.0001 11C25.08 10.6587 25.187 10.3243 25.3201 10C25.3411 9.94879 25.3518 9.89393 25.3516 9.83858C25.3514 9.78322 25.3403 9.72844 25.319 9.67737C25.2976 9.62629 25.2664 9.57993 25.2271 9.54092C25.1878 9.50191 25.1413 9.47101 25.0901 9.45C25.0388 9.42899 24.984 9.41827 24.9286 9.41846C24.8733 9.41865 24.8185 9.42973 24.7674 9.45109C24.7163 9.47245 24.67 9.50366 24.631 9.54293C24.592 9.58221 24.5611 9.62879 24.5401 9.68L24.5701 9.63Z" fill="#A20000"/>
<path d="M36.2901 23.39C36.2098 23.3118 36.1021 23.2681 35.9901 23.2681C35.878 23.2681 35.7703 23.3118 35.6901 23.39C35.6119 23.4703 35.5681 23.5779 35.5681 23.69C35.5681 23.8021 35.6119 23.9097 35.6901 23.99C35.9601 24.24 36.2301 24.5 36.4901 24.77C36.5712 24.8466 36.6785 24.8895 36.7901 24.89C36.8465 24.8913 36.9025 24.8804 36.9543 24.858C37.0061 24.8355 37.0524 24.8021 37.0901 24.76C37.1676 24.6814 37.2111 24.5754 37.2111 24.465C37.2111 24.3546 37.1676 24.2486 37.0901 24.17C36.8401 23.91 36.5601 23.64 36.2901 23.39Z" fill="#A20000"/>
<path d="M30.9999 19.1402C30.9566 19.106 30.907 19.0808 30.8539 19.0658C30.8008 19.0508 30.7452 19.0465 30.6904 19.053C30.6357 19.0595 30.5827 19.0767 30.5346 19.1037C30.4864 19.1306 30.4441 19.1668 30.4099 19.2102C30.341 19.2977 30.3096 19.409 30.3228 19.5197C30.3359 19.6303 30.3924 19.7312 30.4799 19.8002L31.3799 20.5002C31.4497 20.5593 31.5385 20.5912 31.6299 20.5902C31.6957 20.5891 31.7604 20.5732 31.8192 20.5438C31.8781 20.5144 31.9296 20.4721 31.9699 20.4202C32.0353 20.3305 32.0635 20.219 32.0486 20.1091C32.0337 19.9991 31.9768 19.8992 31.8899 19.8302C31.5299 19.5802 31.2399 19.3502 30.9999 19.1402Z" fill="#A20000"/>
<path d="M19.7598 44.58C19.4298 44.41 19.0998 44.22 18.7598 44.04C18.7125 44.0039 18.6581 43.9782 18.6001 43.9648C18.5421 43.9513 18.4819 43.9503 18.4235 43.9618C18.365 43.9734 18.3098 43.9972 18.2613 44.0318C18.2128 44.0663 18.1722 44.1108 18.1422 44.1622C18.1122 44.2137 18.0934 44.2709 18.0872 44.3301C18.081 44.3893 18.0875 44.4492 18.1062 44.5057C18.1249 44.5622 18.1554 44.6142 18.1957 44.658C18.236 44.7018 18.2851 44.7366 18.3398 44.76C18.6598 44.95 18.9998 45.14 19.3398 45.32C19.3991 45.3594 19.4687 45.3802 19.5398 45.38C19.6167 45.3792 19.6918 45.3573 19.757 45.3168C19.8222 45.2762 19.8751 45.2185 19.9098 45.15C19.9621 45.0538 19.9757 44.9412 19.9479 44.8353C19.92 44.7294 19.8527 44.6381 19.7598 44.58Z" fill="#A20000"/>
<path d="M17.3999 45.74C17.3714 45.787 17.3527 45.8393 17.3448 45.8937C17.3369 45.9482 17.3401 46.0036 17.3541 46.0568C17.3681 46.11 17.3926 46.1598 17.4263 46.2033C17.4599 46.2468 17.502 46.2831 17.5499 46.31L18.5499 46.87C18.6109 46.9043 18.68 46.9216 18.7499 46.92C18.8436 46.9203 18.9347 46.8892 19.0087 46.8318C19.0827 46.7744 19.1353 46.6939 19.1583 46.6031C19.1813 46.5123 19.1733 46.4164 19.1355 46.3307C19.0978 46.2449 19.0324 46.1743 18.9499 46.13L17.9499 45.59C17.8567 45.5388 17.7472 45.5258 17.6446 45.5538C17.542 45.5817 17.4542 45.6485 17.3999 45.74Z" fill="#A20000"/>
<path d="M13.7298 43.1301C13.6597 43.2164 13.6267 43.3269 13.6379 43.4375C13.6491 43.5481 13.7038 43.6498 13.7898 43.7201C14.0798 43.9601 14.3898 44.1901 14.6898 44.4201C14.7605 44.4777 14.8487 44.5095 14.9398 44.5101C15.0297 44.5131 15.1182 44.4871 15.1922 44.436C15.2662 44.3849 15.3218 44.3114 15.3509 44.2263C15.3801 44.1412 15.3811 44.049 15.3539 43.9633C15.3267 43.8776 15.2727 43.8029 15.1998 43.7501C14.8998 43.5301 14.6098 43.3001 14.3198 43.0601C14.2765 43.026 14.2269 43.0007 14.1738 42.9857C14.1206 42.9708 14.0651 42.9664 14.0103 42.9729C13.9555 42.9794 13.9026 42.9966 13.8544 43.0236C13.8063 43.0506 13.764 43.0868 13.7298 43.1301Z" fill="#A20000"/>
<path d="M17.83 43.4602L16.91 42.8402C16.8179 42.7769 16.7049 42.752 16.5948 42.7707C16.4847 42.7894 16.3861 42.8501 16.32 42.9402C16.2879 42.9859 16.2653 43.0376 16.2534 43.0923C16.2416 43.1469 16.2408 43.2033 16.251 43.2583C16.2613 43.3132 16.2824 43.3656 16.3131 43.4123C16.3438 43.459 16.3836 43.499 16.43 43.5302C16.73 43.7502 17.06 43.9602 17.38 44.1702C17.4501 44.21 17.5294 44.2307 17.61 44.2302C17.6902 44.2331 17.7696 44.213 17.8387 44.1722C17.9078 44.1315 17.9638 44.0718 18 44.0002C18.0465 43.9056 18.0548 43.7967 18.0232 43.6961C17.9915 43.5956 17.9223 43.5111 17.83 43.4602Z" fill="#A20000"/>
<path d="M15.51 44.5002C15.4478 44.5935 15.4245 44.7073 15.445 44.8175C15.4656 44.9278 15.5284 45.0256 15.62 45.0902C15.93 45.3002 16.25 45.5202 16.62 45.7202C16.6874 45.7672 16.7679 45.7916 16.85 45.7902C16.9206 45.7898 16.9899 45.7712 17.0513 45.7362C17.1126 45.7011 17.1638 45.6508 17.2 45.5902C17.2302 45.5393 17.2491 45.4825 17.2553 45.4236C17.2614 45.3647 17.2548 45.3052 17.2358 45.2491C17.2168 45.1931 17.1859 45.1418 17.1452 45.0988C17.1045 45.0558 17.0549 45.0222 17 45.0002L16.08 44.3902C15.9891 44.3316 15.8791 44.3104 15.7729 44.3309C15.6667 44.3513 15.5726 44.412 15.51 44.5002Z" fill="#A20000"/>
<path d="M15.1399 41.5001C15.0596 41.4219 14.952 41.3782 14.8399 41.3782C14.7278 41.3782 14.6202 41.4219 14.5399 41.5001C14.4698 41.5864 14.4367 41.6969 14.448 41.8075C14.4592 41.9181 14.5138 42.0197 14.5999 42.0901C14.8932 42.3434 15.1932 42.5834 15.4999 42.8101C15.5711 42.8656 15.6597 42.894 15.7499 42.8901C15.8152 42.8925 15.8801 42.8792 15.9393 42.8514C15.9984 42.8235 16.0501 42.782 16.0899 42.7301C16.1552 42.6404 16.1834 42.529 16.1685 42.419C16.1536 42.3091 16.0968 42.2091 16.0099 42.1401L15.1399 41.5001Z" fill="#A20000"/>
<path d="M24 11.9402C24 12.1902 24 12.4502 24 12.7102C24 12.9702 24 12.9902 24 13.1202C24.0026 13.2272 24.0469 13.3289 24.1235 13.4036C24.2001 13.4784 24.3029 13.5202 24.41 13.5202C24.4651 13.5176 24.5193 13.5042 24.5693 13.4807C24.6192 13.4572 24.6641 13.424 24.7012 13.3831C24.7384 13.3423 24.7671 13.2945 24.7858 13.2425C24.8044 13.1905 24.8127 13.1353 24.81 13.0802C24.81 12.9602 24.81 12.8302 24.81 12.7102C24.81 12.5902 24.81 12.2502 24.81 12.0102C24.8193 11.8988 24.7839 11.7883 24.7117 11.7029C24.6395 11.6176 24.5364 11.5645 24.425 11.5552C24.3136 11.5459 24.2031 11.5812 24.1177 11.6534C24.0324 11.7256 23.9793 11.8288 23.97 11.9402H24Z" fill="#A20000"/>
<path d="M23.8299 46.3201L22.8299 45.9701C22.7781 45.9511 22.7229 45.9424 22.6677 45.9447C22.6125 45.9469 22.5583 45.9601 22.5082 45.9833C22.458 46.0065 22.4129 46.0393 22.3755 46.08C22.338 46.1206 22.309 46.1682 22.2899 46.2201C22.2709 46.272 22.2623 46.3271 22.2645 46.3823C22.2668 46.4375 22.2799 46.4917 22.3031 46.5419C22.3263 46.592 22.3592 46.6371 22.3998 46.6745C22.4404 46.712 22.4881 46.7411 22.5399 46.7601L23.6299 47.1301H23.7599C23.8487 47.1302 23.9352 47.1022 24.0071 47.0501C24.079 46.998 24.1325 46.9245 24.1599 46.8401C24.1747 46.7842 24.1777 46.7259 24.1688 46.6687C24.1599 46.6116 24.1394 46.5569 24.1084 46.5081C24.0774 46.4593 24.0367 46.4174 23.9888 46.385C23.9409 46.3527 23.8868 46.3306 23.8299 46.3201Z" fill="#A20000"/>
<path d="M21.42 47.76C21.383 47.8651 21.3872 47.9802 21.4317 48.0823C21.4763 48.1844 21.5579 48.2658 21.66 48.31C22.02 48.44 22.38 48.57 22.75 48.68C22.7895 48.6898 22.8306 48.6898 22.87 48.68C22.9602 48.6808 23.0482 48.6532 23.1218 48.6011C23.1954 48.5491 23.2507 48.4752 23.28 48.39C23.2972 48.3375 23.3038 48.2821 23.2995 48.227C23.2952 48.172 23.2801 48.1183 23.255 48.069C23.23 48.0198 23.1954 47.976 23.1534 47.9401C23.1113 47.9043 23.0626 47.8771 23.01 47.86C22.65 47.75 22.3 47.62 21.96 47.5C21.9077 47.4797 21.8517 47.4703 21.7955 47.4725C21.7393 47.4747 21.6842 47.4884 21.6336 47.5128C21.5829 47.5371 21.5378 47.5717 21.5011 47.6142C21.4644 47.6568 21.4368 47.7064 21.42 47.76Z" fill="#A20000"/>
<path d="M19.37 46.83C19.3446 46.8791 19.3293 46.9327 19.3251 46.9878C19.321 47.0429 19.328 47.0982 19.3457 47.1505C19.3635 47.2028 19.3916 47.251 19.4284 47.2921C19.4652 47.3333 19.51 47.3666 19.56 47.39L20.56 47.88C20.6163 47.8895 20.6737 47.8895 20.73 47.88C20.828 47.881 20.9232 47.8477 20.9992 47.7859C21.0752 47.724 21.1272 47.6376 21.1462 47.5414C21.1652 47.4453 21.15 47.3456 21.1032 47.2595C21.0564 47.1734 20.981 47.1064 20.89 47.07C20.55 46.93 20.22 46.77 19.89 46.61C19.7915 46.5755 19.6837 46.5789 19.5875 46.6196C19.4914 46.6603 19.4138 46.7353 19.37 46.83Z" fill="#A20000"/>
<path d="M21.75 45.5602C21.41 45.4202 21.08 45.2602 20.75 45.1002C20.6529 45.0501 20.5401 45.0398 20.4356 45.0716C20.331 45.1033 20.2429 45.1746 20.19 45.2702C20.1623 45.3184 20.1447 45.3718 20.1383 45.4271C20.1318 45.4824 20.1367 45.5384 20.1526 45.5917C20.1685 45.645 20.1951 45.6946 20.2308 45.7373C20.2664 45.78 20.3104 45.815 20.36 45.8402C20.7 46.0102 21.05 46.1702 21.41 46.3302C21.463 46.3397 21.5171 46.3397 21.57 46.3302C21.6689 46.3337 21.7659 46.3021 21.8438 46.2411C21.9217 46.1801 21.9755 46.0935 21.9959 45.9967C22.0162 45.8999 22.0017 45.799 21.9549 45.7118C21.9081 45.6246 21.832 45.5567 21.74 45.5202L21.75 45.5602Z" fill="#A20000"/>
<g style="mix-blend-mode:multiply" opacity="0.8">
<path d="M44.7199 11.24C45.8555 15.3541 46.025 19.675 45.2152 23.8654C44.4055 28.0559 42.6384 32.0025 40.0518 35.3974C37.4652 38.7923 34.1292 41.5435 30.304 43.4365C26.4788 45.3294 22.2679 46.3128 17.9999 46.31C16.0366 46.3135 14.0787 46.1056 12.1599 45.69C16.7283 50.0077 22.8247 52.3338 29.1081 52.1566C35.3915 51.9794 41.3472 49.3133 45.6649 44.745C49.9826 40.1766 52.3087 34.0802 52.1315 27.7968C51.9543 21.5134 49.2883 15.5577 44.7199 11.24Z" fill="#C4C4C4"/>
</g>
</g>
<defs>
<filter id="filter0_d_879_3347" x="-4" y="0" width="65.3999" height="65.3999" filterUnits="userSpaceOnUse" color-interpolation-filters="sRGB">
<feFlood flood-opacity="0" result="BackgroundImageFix"/>
<feColorMatrix in="SourceAlpha" type="matrix" values="0 0 0 0 0 0 0 0 0 0 0 0 0 0 0 0 0 0 127 0" result="hardAlpha"/>
<feOffset dy="4"/>
<feGaussianBlur stdDeviation="2"/>
<feComposite in2="hardAlpha" operator="out"/>
<feColorMatrix type="matrix" values="0 0 0 0 0 0 0 0 0 0 0 0 0 0 0 0 0 0 0.25 0"/>
<feBlend mode="normal" in2="BackgroundImageFix" result="effect1_dropShadow_879_3347"/>
<feBlend mode="normal" in="SourceGraphic" in2="effect1_dropShadow_879_3347" result="shape"/>
</filter>
<clipPath id="clip0_879_3347">
<rect width="63.23" height="63.23" fill="white"/>
</clipPath>
</defs>
</svg>
