<svg width="63" height="63" viewBox="0 0 63 63" fill="none" xmlns="http://www.w3.org/2000/svg">
<g clip-path="url(#clip0_879_3334)">
<g style="mix-blend-mode:multiply">
<g style="mix-blend-mode:multiply" opacity="0.9">
<path d="M29.0999 56.5297C23.6719 56.5316 18.3653 54.9237 13.8513 51.9094C9.33729 48.895 5.81868 44.6095 3.74057 39.5951C1.66247 34.5807 1.11822 29.0626 2.17668 23.7388C3.23514 18.4151 5.84875 13.5248 9.6869 9.68666C13.5251 5.84851 18.4153 3.23489 23.7391 2.17643C29.0629 1.11798 34.581 1.66222 39.5954 3.74033C44.6098 5.81844 48.8952 9.33704 51.9096 13.8511C54.924 18.3651 56.5319 23.6717 56.5299 29.0997C56.5193 36.3713 53.626 43.3421 48.4842 48.4839C43.3423 53.6258 36.3716 56.5191 29.0999 56.5297Z" fill="#191919"/>
</g>
<g style="mix-blend-mode:multiply" opacity="0.94">
<path d="M28.8799 56.3097C23.452 56.3117 18.1453 54.7038 13.6313 51.6894C9.11731 48.675 5.59871 44.3896 3.5206 39.3752C1.44249 34.3607 0.898249 28.8426 1.95671 23.5189C3.01517 18.1951 5.62878 13.3048 9.46693 9.46669C13.3051 5.62853 18.1953 3.01492 23.5191 1.95646C28.8429 0.898005 34.361 1.44225 39.3754 3.52036C44.3898 5.59847 48.6753 9.11707 51.6896 13.6311C54.704 18.1451 56.3119 23.4517 56.3099 28.8797C56.2994 36.1513 53.406 43.1221 48.2642 48.264C43.1224 53.4058 36.1516 56.2991 28.8799 56.3097Z" fill="#101010"/>
</g>
<g style="mix-blend-mode:multiply" opacity="0.97">
<path d="M28.66 56.0897C23.232 56.0917 17.9254 54.4838 13.4114 51.4694C8.89735 48.455 5.37874 44.1696 3.30063 39.1552C1.22252 34.1408 0.678278 28.6227 1.73674 23.2989C2.7952 17.9751 5.40881 13.0849 9.24696 9.24672C13.0851 5.40856 17.9754 2.79495 23.2991 1.73649C28.6229 0.678034 34.141 1.22228 39.1554 3.30039C44.1698 5.3785 48.4553 8.8971 51.4697 13.4111C54.4841 17.9251 56.0919 23.2318 56.09 28.6597C56.0794 35.9314 53.1861 42.9021 48.0442 48.044C42.9024 53.1858 35.9316 56.0791 28.66 56.0897Z" fill="#080808"/>
</g>
<g style="mix-blend-mode:multiply">
<path d="M28.44 55.8698C23.012 55.8717 17.7054 54.2638 13.1914 51.2495C8.67737 48.2351 5.15877 43.9496 3.08066 38.9352C1.00255 33.9208 0.458307 28.4027 1.51677 23.0789C2.57523 17.7552 5.18884 12.8649 9.02699 9.02675C12.8651 5.18859 17.7554 2.57498 23.0792 1.51652C28.4029 0.458063 33.921 1.00231 38.9355 3.08042C43.9499 5.15853 48.2353 8.67713 51.2497 13.1911C54.2641 17.7052 55.872 23.0118 55.87 28.4398C55.8594 35.7114 52.9661 42.6822 47.8243 47.824C42.6824 52.9658 35.7116 55.8592 28.44 55.8698Z" fill="black"/>
</g>
</g>
<path d="M28.44 56.8698C22.8143 56.8717 17.3143 55.2052 12.6358 52.0809C7.95735 48.9566 4.31058 44.515 2.15678 39.3179C0.00298691 34.1208 -0.561063 28.4016 0.535982 22.8838C1.63303 17.3661 4.34188 12.2976 8.31989 8.31964C12.2979 4.34163 17.3663 1.63278 22.8841 0.535738C28.4018 -0.561307 34.121 0.00274277 39.3181 2.15654C44.5153 4.31033 48.9569 7.95711 52.0812 12.6356C55.2054 17.314 56.872 22.814 56.87 28.4398C56.8594 35.9766 53.8607 43.2017 48.5314 48.5311C43.202 53.8605 35.9769 56.8592 28.44 56.8698Z" fill="white"/>
<path d="M50.9999 21.9999C52.2699 26.457 52.1901 31.1905 50.7706 35.6022C49.3511 40.014 46.6557 43.9059 43.0249 46.7862C39.3942 49.6665 34.9911 51.4059 30.3721 51.7846C25.7531 52.1632 21.1256 51.1641 17.0742 48.9135C13.0229 46.6629 9.72965 43.2619 7.61067 39.1402C5.49169 35.0185 4.64208 30.3611 5.16923 25.7567C5.69638 21.1523 7.57662 16.8075 10.5723 13.2714C13.568 9.73528 17.5448 7.16656 21.9999 5.88986C24.9619 5.04107 28.0621 4.78457 31.1233 5.13504C34.1845 5.4855 37.1465 6.43606 39.84 7.93233C42.5335 9.4286 44.9055 11.4412 46.8204 13.8551C48.7354 16.2689 50.1556 19.0366 50.9999 21.9999Z" fill="white"/>
<path d="M33.8899 5.63983C29.8902 4.68258 25.7089 4.79501 21.7663 5.96584C17.8238 7.13667 14.2589 9.32463 11.4299 12.3098C12.1499 13.4198 12.8799 14.6198 13.6099 15.9198C15.3099 18.9798 15.8799 22.3598 16.4799 25.9198C16.8114 28.1612 17.2722 30.3816 17.8599 32.5698L17.9899 33.0398C18.8739 35.7388 20.7676 37.9912 23.2745 39.3257C25.7814 40.6602 28.7073 40.9735 31.4399 40.1998H31.5399C34.2991 39.412 36.6412 37.5773 38.0666 35.087C39.4921 32.5967 39.888 29.6479 39.1699 26.8698L39.0799 26.5698C38.4236 24.4011 37.6457 22.2711 36.7499 20.1898C35.3799 16.8298 34.0899 13.6598 33.9299 10.1898C33.8499 8.53983 33.8499 6.99983 33.8899 5.63983Z" fill="#D9D50B"/>
<path d="M36.4301 6.40967C36.4301 7.54967 36.4301 8.75967 36.4301 10.0297C36.5701 13.0797 37.7801 16.0297 39.0701 19.1997C39.9351 21.2194 40.6961 23.2821 41.3501 25.3797L41.5001 25.8597C42.4805 29.3273 42.0458 33.0422 40.2911 36.1897C38.5365 39.3372 35.6052 41.6603 32.1401 42.6497C28.6752 43.6207 24.9669 43.18 21.8261 41.4241C18.6852 39.6681 16.3676 36.7398 15.3801 33.2797L15.2601 32.7997C14.6601 30.5597 14.2601 28.4197 13.9501 26.3497C13.3901 22.9897 12.8501 19.8297 11.3701 17.1597C10.8101 16.1597 10.2501 15.2297 9.69009 14.3497C6.72538 18.2913 5.07954 23.0676 4.98681 27.9989C4.89409 32.9301 6.35921 37.7649 9.17364 41.8152C11.9881 45.8655 16.0084 48.9248 20.6624 50.5576C25.3163 52.1905 30.3668 52.3138 35.0949 50.9099C39.8229 49.5059 43.9877 46.6464 46.9963 42.7382C50.005 38.83 51.7042 34.0724 51.8521 29.1425C52 24.2126 50.5891 19.3617 47.8202 15.2802C45.0513 11.1987 41.0655 8.09454 36.4301 6.40967Z" fill="#D9D50B"/>
<g style="mix-blend-mode:multiply" opacity="0.7">
<path d="M44.75 11.6198C44.81 12.3898 44.85 13.1798 44.85 13.9698C44.85 17.9095 44.074 21.8106 42.5664 25.4503C41.0587 29.0901 38.8489 32.3973 36.0632 35.183C33.2774 37.9688 29.9702 40.1786 26.3305 41.6862C22.6907 43.1939 18.7896 43.9698 14.85 43.9698C13.4682 43.9696 12.0882 43.8727 10.72 43.6798C12.7836 46.0835 15.3133 48.0437 18.156 49.4419C20.9987 50.8402 24.0955 51.6474 27.259 51.8148C30.4226 51.9822 33.5872 51.5063 36.5617 50.4159C39.5361 49.3254 42.2585 47.6432 44.5642 45.4707C46.87 43.2983 48.7113 40.6808 49.9767 37.7765C51.2422 34.8722 51.9055 31.7415 51.9266 28.5736C51.9477 25.4056 51.3261 22.2663 50.0995 19.3455C48.8728 16.4246 47.0666 13.7828 44.79 11.5798L44.75 11.6198Z" fill="#D9D50B"/>
</g>
</g>
<defs>
<clipPath id="clip0_879_3334">
<rect width="62.7" height="62.7" fill="white"/>
</clipPath>
</defs>
</svg>
