<svg width="78" height="78" viewBox="0 0 78 78" fill="none" xmlns="http://www.w3.org/2000/svg">
<g style="mix-blend-mode:multiply">
<g style="mix-blend-mode:multiply" opacity="0.94">
<path d="M36.27 71.1C29.3812 71.1 22.6472 69.0572 16.9194 65.23C11.1917 61.4029 6.72743 55.9632 4.09123 49.5988C1.45503 43.2345 0.765283 36.2313 2.10921 29.475C3.45313 22.7186 6.77037 16.5125 11.6414 11.6414C16.5125 6.77037 22.7186 3.45313 29.475 2.10921C36.2313 0.765283 43.2345 1.45503 49.5988 4.09123C55.9632 6.72743 61.4029 11.1917 65.23 16.9194C69.0572 22.6472 71.1 29.3812 71.1 36.27C71.0867 45.5034 67.4129 54.3549 60.8839 60.8839C54.3549 67.4129 45.5034 71.0867 36.27 71.1Z" fill="#101010"/>
</g>
<g style="mix-blend-mode:multiply" opacity="0.97">
<path d="M36.2769 70.8758C55.5126 70.7515 71.0055 55.0572 70.8813 35.8216C70.757 16.5859 55.0628 1.093 35.8271 1.21722C16.5914 1.34144 1.0985 17.0357 1.22272 36.2714C1.34694 55.5071 17.0412 71 36.2769 70.8758Z" fill="#080808"/>
</g>
<g style="mix-blend-mode:multiply">
<path d="M35.83 70.66C55.0661 70.66 70.66 55.0661 70.66 35.83C70.66 16.5939 55.0661 1 35.83 1C16.5939 1 1 16.5939 1 35.83C1 55.0661 16.5939 70.66 35.83 70.66Z" fill="black"/>
</g>
</g>
<path d="M35.83 71.66C55.6184 71.66 71.66 55.6184 71.66 35.83C71.66 16.0416 55.6184 0 35.83 0C16.0416 0 0 16.0416 0 35.83C0 55.6184 16.0416 71.66 35.83 71.66Z" fill="white"/>
<path d="M54.0501 60.7C49.1313 64.3036 43.2543 66.3677 37.1624 66.6312C31.0705 66.8947 25.0373 65.3459 19.8256 62.1805C14.614 59.0151 10.458 54.3754 7.8833 48.8481C5.30857 43.3207 4.43071 37.154 5.36073 31.1277C6.29075 25.1015 8.98689 19.4863 13.1082 14.9924C17.2295 10.4984 22.5908 7.32748 28.5143 5.88057C34.4377 4.43365 40.6572 4.77573 46.3862 6.86356C52.1153 8.95138 57.0965 12.6912 60.7001 17.61C65.5297 24.2069 67.5422 32.4515 66.2952 40.5316C65.0482 48.6118 60.6438 55.8661 54.0501 60.7Z" fill="#595959"/>
<path d="M11.8299 55.28C11.4884 52.1095 11.805 48.9026 12.7599 45.86C13.5488 42.8885 15.2569 40.2425 17.6399 38.3L16.5299 36.8C16.3399 36.55 16.1699 36.3 15.9899 36.06C14.6299 34.17 13.3299 32.17 12.1499 30.26C8.65762 33.5175 6.37619 37.8653 5.67993 42.59C6.60965 46.7436 8.39046 50.6594 10.9099 54.09C11.2099 54.49 11.5099 54.89 11.8299 55.28Z" fill="#FDFDFD"/>
<path d="M55.5701 55.1999C60.8301 50.6899 64.4001 45.8599 66.1701 40.8499C66.2601 40.5899 66.3501 40.3299 66.4301 40.0799C66.7042 38.0924 66.7879 36.0833 66.6801 34.0799C66.1107 32.6495 65.0886 31.4448 63.7701 30.6499C63.0804 35.7501 60.6667 40.4608 56.9301 43.9999C54.3615 46.3326 51.521 48.3472 48.4701 49.9999L46.8601 50.7899C41.7271 52.7493 36.2743 53.7361 30.7801 53.6999C27.3101 56.6399 26.2501 59.4399 26.1201 61.5999C29.6501 62.2399 44.9301 64.3199 55.5701 55.1999Z" fill="#FDFDFD"/>
<path d="M32.8501 29.3401C38.6601 37.2701 45.5301 46.0901 47.4001 48.4701C50.177 46.9591 52.7822 45.1519 55.1701 43.0801C51.8894 35.0794 47.6483 27.5072 42.5401 20.5301C41.7401 19.4401 40.9101 18.3501 40.0701 17.3001C34.2701 10.0001 31.1001 6.91008 29.5001 5.58008C26.0838 6.29716 22.8141 7.58883 19.8301 9.40008C22.6143 14.4133 25.6757 19.2675 29.0001 23.9401C30.0901 25.5301 31.3901 27.3501 32.8501 29.3401Z" fill="#FDFDFD"/>
<path d="M24.21 62.1101C24.21 59.76 25.08 56.2701 29.13 52.6501C27.49 50.6501 22.79 45.03 18.78 39.8C16.7074 41.5056 15.2268 43.8226 14.55 46.42C13.4063 50.1348 13.2751 54.0876 14.17 57.87C17.1382 60.7911 20.6699 63.0775 24.55 64.59C24.3259 63.7824 24.2116 62.9482 24.21 62.1101Z" fill="#FDFDFD"/>
<path d="M66.2001 30.14C65.3905 25.7928 63.6508 21.672 61.1001 18.06C59.7916 16.9636 58.2643 16.159 56.6201 15.7C59.4202 19.7227 61.7678 24.0422 63.6201 28.58C64.5863 28.8997 65.4681 29.4329 66.2001 30.14Z" fill="#FDFDFD"/>
<path d="M63.49 49.59C61.5162 52.1587 59.2698 54.5058 56.79 56.59C50.1 62.32 41.79 63.82 36 64.07C32.732 64.2147 29.4579 64.0203 26.23 63.4901C26.349 64.1333 26.5507 64.7585 26.83 65.35C33.8222 67.4773 41.3421 67.0573 48.0539 64.1646C54.7657 61.2719 60.2349 56.0938 63.49 49.55V49.59Z" fill="#FDFDFD"/>
<path d="M57.7999 14.1101C55.7699 12.0466 53.4568 10.2823 50.9299 8.87012C52.4051 10.3087 53.7659 11.86 54.9999 13.5101C55.9529 13.6037 56.8922 13.805 57.7999 14.1101Z" fill="#FDFDFD"/>
<path d="M11.1601 28.61C9.7901 26.29 8.6401 24.2 7.8501 22.71C5.6913 27.3496 4.71229 32.4508 5.0001 37.56C6.32644 34.1366 8.43611 31.0714 11.1601 28.61Z" fill="#FDFDFD"/>
<path d="M17.5099 34.9999C21.9999 41.2099 29.3799 49.9999 30.8899 51.8299C35.9221 51.8324 40.9176 50.9733 45.6599 49.2899C43.4699 46.4799 36.9199 38.0599 31.3299 30.4499C29.8699 28.4499 28.5599 26.6299 27.4399 25.0299C24.1102 20.3375 21.0389 15.467 18.2399 10.4399C18.0199 10.5999 17.7899 10.7499 17.5699 10.9199C14.017 13.5137 11.0607 16.8383 8.8999 20.6699C11.4399 25.6373 14.3166 30.4251 17.5099 34.9999Z" fill="#FDFDFD"/>
<path d="M41.5401 16.13C42.3901 17.2 43.2401 18.3101 44.0601 19.43C49.094 26.323 53.3059 33.7802 56.6101 41.6501C59.696 38.3083 61.5909 34.0403 62.0001 29.51C59.9451 24.4354 57.2571 19.6408 54.0001 15.24C51.4139 11.5342 48.0744 8.41623 44.2001 6.09005C40.1927 4.9628 35.9988 4.65668 31.8701 5.19005C35.3438 8.60749 38.575 12.263 41.5401 16.13Z" fill="#FDFDFD"/>
<g style="mix-blend-mode:multiply">
<path d="M60.5601 17.3601C60.5601 18.1401 60.6401 18.9101 60.6401 19.6901C60.6386 25.3871 59.4041 31.0162 57.0215 36.191C54.6389 41.3659 51.1645 45.9637 46.8371 49.6689C42.5096 53.3741 37.4315 56.0989 31.9515 57.6561C26.4714 59.2132 20.7193 59.566 15.0901 58.6901C20.7748 63.8345 28.1705 66.6793 35.8374 66.6709C43.5042 66.6624 50.8936 63.8013 56.567 58.6444C62.2405 53.4876 65.7919 46.404 66.53 38.7728C67.2681 31.1415 65.14 23.5087 60.5601 17.3601Z" fill="#C4C4C4"/>
</g>
</svg>
