<svg width="80" height="75" viewBox="0 0 80 75" fill="none" xmlns="http://www.w3.org/2000/svg">
<g style="mix-blend-mode:multiply">
<g style="mix-blend-mode:multiply" opacity="0.94">
<path d="M26.9915 66.3199C19.0915 66.3199 10.4815 63.8999 8.20148 61.0299C6.34148 58.6699 4.81148 51.9999 5.69148 44.2599C6.63148 35.9999 10.5915 23.8899 24.0715 13.1799C36.2915 3.47994 47.0815 1.43994 53.9915 1.43994C62.4915 1.43994 68.5615 4.32994 70.5715 6.26994C73.0015 8.62994 74.7715 15.2699 74.6815 21.7899C74.5715 29.7899 71.8415 41.7899 59.4815 53.0899C47.5015 63.9999 35.2215 66.3199 26.9915 66.3199Z" fill="#101010"/>
</g>
<g style="mix-blend-mode:multiply" opacity="0.97">
<path d="M26.8013 66.1C18.9013 66.1 10.2913 63.68 8.00135 60.81C6.12135 58.44 4.59135 51.76 5.47135 44C6.41135 35.77 10.3713 23.67 23.8513 13C36.0713 3.30001 46.8513 1.26001 53.7513 1.26001C62.2513 1.26001 68.3213 4.15001 70.3313 6.09001C72.7613 8.45001 74.5313 15.09 74.4413 21.61C74.3213 29.61 71.6013 41.61 59.2413 52.91C47.2713 63.8 34.9913 66.1 26.8013 66.1Z" fill="#080808"/>
</g>
<g style="mix-blend-mode:multiply">
<path d="M26.5814 65.88C18.6814 65.88 10.0714 63.46 7.78137 60.59C5.90137 58.22 4.37137 51.54 5.25137 43.82C6.19137 35.55 10.1514 23.45 23.6314 12.74C35.8514 3 46.6414 1 53.5314 1C61.9914 1 68.1014 3.89 70.1114 5.83C72.5414 8.19 74.3114 14.83 74.2214 21.35C74.1014 29.35 71.3814 41.35 59.0214 52.65C47.0214 63.58 34.7814 65.88 26.5814 65.88Z" fill="black"/>
</g>
</g>
<g filter="url(#filter0_d_879_3286)">
<path d="M26.5814 66.88C18.2814 66.88 9.49142 64.34 7.00142 61.21C4.99142 58.63 3.34142 51.78 4.26142 43.71C5.26142 35.25 9.26142 22.88 23.0114 11.96C35.4614 2.07 46.4814 0 53.5314 0C62.3314 0 68.6814 3.06 70.8014 5.11C73.4614 7.68 75.3114 14.51 75.2214 21.36C75.1014 29.6 72.3114 41.85 59.6914 53.36C47.4914 64.54 34.9914 66.88 26.5814 66.88Z" fill="white"/>
</g>
<path d="M67.3313 8.70992C65.4513 6.88992 48.2813 -1.72008 26.1213 15.8699C3.96131 33.4599 8.89131 55.5599 10.9113 58.0999C12.5213 60.0999 35.2413 68.9599 56.3213 49.6999C76.2513 31.4799 69.5713 10.8799 67.3313 8.70992Z" fill="#FF3700"/>
<path d="M12.6714 44.4101C13.9607 39.8678 15.8046 35.5016 18.1614 31.4101C21.0122 26.4852 24.6736 22.0766 28.9914 18.3701C33.1287 14.7773 37.8682 11.9438 42.9914 10.0001C47.0812 8.50242 51.365 7.59988 55.7114 7.32009C59.11 7.07406 62.5256 7.21834 65.8914 7.75009C60.9914 5.12009 45.4614 0.510085 26.1214 15.8701C5.55139 32.2101 8.32139 52.4201 10.4414 57.2601C10.7076 52.9075 11.4555 48.5978 12.6714 44.4101Z" fill="#FF8242"/>
<path d="M55.7415 8.18989C46.0621 8.86153 36.8618 12.6547 29.5215 18.9999C21.8035 25.7965 16.2418 34.7021 13.5215 44.6199C12.2465 48.9752 11.4946 53.4668 11.2815 57.9999C16.7228 57.5155 22.1188 56.6128 27.4215 55.2999C35.9915 53.1799 47.7015 48.9999 54.6915 41.0799C60.2404 34.7925 64.1587 27.2375 66.1015 19.0799C66.9334 15.7543 67.3466 12.3379 67.3315 8.90989C63.5193 8.14099 59.6196 7.89873 55.7415 8.18989Z" fill="#FF8242"/>
<path d="M68.2013 10.1001C68.1124 13.2099 67.7069 16.3025 66.9913 19.3301C64.9949 27.6121 60.9944 35.2767 55.3413 41.6501C51.7056 45.5934 47.3201 48.772 42.4413 51.0001C37.6864 53.2251 32.7175 54.9607 27.6113 56.1801C22.4231 57.4373 17.1485 58.3064 11.8313 58.7801C16.5713 61.4701 37.1313 67.2401 56.3213 49.7001C73.9913 33.5201 70.7313 15.4601 68.2013 10.1001Z" fill="#FF8242"/>
<path d="M27.9915 45.1599C27.7527 45.1586 27.5235 45.0655 27.3515 44.8999L23.7715 41.4499C23.5987 41.2757 23.5017 41.0403 23.5017 40.7949C23.5017 40.5495 23.5987 40.3141 23.7715 40.1399C23.8571 40.0531 23.9591 39.9842 24.0715 39.9372C24.184 39.8902 24.3046 39.866 24.4265 39.866C24.5484 39.866 24.669 39.8902 24.7815 39.9372C24.8939 39.9842 24.9959 40.0531 25.0815 40.1399L28.6615 43.5899C28.7912 43.7198 28.8791 43.8855 28.9139 44.0657C28.9487 44.2459 28.9288 44.4324 28.8568 44.6012C28.7847 44.77 28.6639 44.9135 28.5097 45.013C28.3555 45.1126 28.175 45.1637 27.9915 45.1599Z" fill="#FF3700"/>
<path d="M31.4513 41.37C31.2168 41.372 30.9907 41.2823 30.8213 41.12L27.1413 37.71C26.9832 37.5379 26.8957 37.3126 26.8962 37.0789C26.8967 36.8452 26.9852 36.6203 27.144 36.4488C27.3029 36.2774 27.5204 36.172 27.7534 36.1537C27.9864 36.1354 28.2177 36.2055 28.4013 36.35L32.0813 39.77C32.2535 39.9425 32.3503 40.1763 32.3503 40.42C32.3503 40.6638 32.2535 40.8975 32.0813 41.07C32.002 41.1599 31.9052 41.2328 31.797 41.2843C31.6887 41.3359 31.5711 41.365 31.4513 41.37Z" fill="#FF3700"/>
<path d="M35.2413 37.6501C35.0169 37.6495 34.8003 37.5678 34.6313 37.4201L30.8613 34.0001C30.6789 33.8353 30.5691 33.605 30.556 33.3595C30.5429 33.114 30.6275 32.8734 30.7913 32.6901C30.8721 32.6001 30.9697 32.5268 31.0788 32.4746C31.1878 32.4223 31.3061 32.3921 31.4268 32.3856C31.5476 32.3791 31.6684 32.3965 31.7824 32.4367C31.8965 32.4769 32.0014 32.5392 32.0913 32.6201L35.8613 36.0001C35.9514 36.0808 36.0246 36.1785 36.0768 36.2875C36.1291 36.3966 36.1593 36.5148 36.1658 36.6356C36.1723 36.7563 36.155 36.8771 36.1147 36.9912C36.0745 37.1052 36.0122 37.2102 35.9313 37.3001C35.8501 37.4066 35.7458 37.4934 35.6264 37.554C35.5069 37.6146 35.3753 37.6474 35.2413 37.6501Z" fill="#FF3700"/>
<path d="M39.0414 34.4099C38.818 34.4035 38.6033 34.3225 38.4314 34.1799L34.5714 30.8399C34.4132 30.6724 34.3229 30.4522 34.3179 30.2219C34.3128 29.9916 34.3934 29.7676 34.544 29.5934C34.6946 29.4191 34.9046 29.3069 35.1332 29.2786C35.3617 29.2502 35.5927 29.3077 35.7814 29.4399L39.6414 32.7899C39.7335 32.8685 39.8092 32.9646 39.8641 33.0726C39.9191 33.1806 39.9521 33.2983 39.9614 33.4191C39.9707 33.5399 39.956 33.6613 39.9183 33.7764C39.8805 33.8916 39.8204 33.9981 39.7414 34.0899C39.6539 34.1896 39.5463 34.2697 39.4256 34.3248C39.305 34.38 39.174 34.409 39.0414 34.4099Z" fill="#FF3700"/>
<path d="M43.1815 31C42.9665 31.0003 42.758 30.9261 42.5915 30.79L38.5915 27.48C38.4986 27.4021 38.4221 27.3065 38.3663 27.1989C38.3104 27.0913 38.2764 26.9737 38.2662 26.8529C38.256 26.7321 38.2698 26.6104 38.3067 26.4949C38.3436 26.3795 38.4031 26.2724 38.4815 26.18C38.639 25.9933 38.8637 25.876 39.1069 25.8535C39.3502 25.8311 39.5925 25.9053 39.7815 26.06L43.7815 29.37C43.8744 29.4479 43.9509 29.5435 44.0067 29.6511C44.0626 29.7587 44.0966 29.8763 44.1068 29.9971C44.117 30.1179 44.1032 30.2396 44.0663 30.3551C44.0294 30.4705 43.97 30.5776 43.8915 30.67C43.8052 30.7744 43.6966 30.8582 43.5738 30.9153C43.451 30.9724 43.3169 31.0013 43.1815 31Z" fill="#FF3700"/>
<path d="M47.1514 27.7499C46.9419 27.7457 46.739 27.6757 46.5714 27.5499L42.5714 24.2699C42.4775 24.1938 42.3995 24.0999 42.3419 23.9936C42.2843 23.8873 42.2482 23.7707 42.2357 23.6504C42.2231 23.5301 42.2344 23.4086 42.2688 23.2927C42.3033 23.1768 42.3602 23.0688 42.4364 22.9749C42.5125 22.881 42.6065 22.8031 42.7128 22.7455C42.8191 22.6879 42.9357 22.6518 43.0559 22.6392C43.1762 22.6267 43.2977 22.638 43.4136 22.6724C43.5295 22.7068 43.6375 22.7638 43.7314 22.8399L47.7814 26.1099C47.8764 26.1857 47.9555 26.2796 48.0141 26.3862C48.0726 26.4928 48.1095 26.6099 48.1225 26.7307C48.1355 26.8516 48.1245 26.9739 48.0899 27.0905C48.0554 27.2071 47.9981 27.3156 47.9214 27.4099C47.8288 27.5232 47.7108 27.613 47.577 27.672C47.4433 27.7311 47.2974 27.7578 47.1514 27.7499Z" fill="#FF3700"/>
<path d="M51.1015 24.52C50.8939 24.5227 50.692 24.4519 50.5315 24.32L46.3915 21.09C46.2829 21.0201 46.19 20.9282 46.1188 20.8203C46.0476 20.7125 45.9997 20.5909 45.9782 20.4635C45.9566 20.3361 45.9618 20.2056 45.9934 20.0803C46.0251 19.955 46.0825 19.8377 46.1621 19.7358C46.2416 19.634 46.3415 19.5498 46.4554 19.4887C46.5692 19.4276 46.6946 19.3909 46.8235 19.3809C46.9523 19.371 47.0818 19.388 47.2037 19.4309C47.3256 19.4738 47.4373 19.5416 47.5315 19.63L51.6715 22.87C51.8248 22.9875 51.9371 23.1503 51.9927 23.3353C52.0483 23.5202 52.0443 23.718 51.9812 23.9005C51.9182 24.083 51.7993 24.2411 51.6414 24.3523C51.4835 24.4635 51.2946 24.5222 51.1015 24.52Z" fill="#FF3700"/>
<path d="M55.6314 21.46C55.4318 21.4608 55.2379 21.3938 55.0814 21.27L50.8414 18.07C50.6451 17.9175 50.5175 17.6932 50.4865 17.4466C50.4556 17.2 50.5239 16.9512 50.6764 16.755C50.8289 16.5587 51.0531 16.4311 51.2997 16.4001C51.5463 16.3692 51.7951 16.4375 51.9914 16.59L56.1914 19.8C56.2891 19.8719 56.3715 19.9627 56.4336 20.0669C56.4957 20.1712 56.5364 20.2868 56.5532 20.407C56.5699 20.5272 56.5625 20.6496 56.5313 20.7669C56.5001 20.8842 56.4457 20.994 56.3714 21.09C56.285 21.2046 56.1732 21.2976 56.0448 21.3618C55.9164 21.426 55.7749 21.4596 55.6314 21.46Z" fill="#FF3700"/>
<path d="M27.1713 44.9999C27.0527 45.0014 26.935 44.9792 26.8251 44.9345C26.7152 44.8899 26.6153 44.8237 26.5313 44.7399L22.9913 41.2499C22.8136 41.0789 22.7112 40.8442 22.7065 40.5976C22.7018 40.351 22.7952 40.1126 22.9663 39.9349C23.1374 39.7572 23.372 39.6548 23.6186 39.6501C23.8652 39.6454 24.1036 39.7389 24.2813 39.9099L27.8613 43.3599C27.9481 43.4455 28.017 43.5475 28.064 43.6599C28.111 43.7724 28.1353 43.893 28.1353 44.0149C28.1353 44.1368 28.111 44.2575 28.064 44.3699C28.017 44.4824 27.9481 44.5843 27.8613 44.6699C27.7776 44.7722 27.6724 44.8548 27.5531 44.9119C27.4339 44.9689 27.3035 44.999 27.1713 44.9999Z" fill="white"/>
<path d="M30.6313 41.16C30.4018 41.1611 30.1803 41.0754 30.0113 40.92L26.3313 37.5C26.2408 37.4185 26.1674 37.3197 26.1154 37.2095C26.0634 37.0993 26.0338 36.9799 26.0283 36.8582C26.0228 36.7365 26.0415 36.6149 26.0834 36.5005C26.1253 36.386 26.1895 36.2811 26.2723 36.1917C26.3551 36.1023 26.4548 36.0302 26.5657 35.9796C26.6765 35.9291 26.7963 35.9011 26.9181 35.8972C27.0399 35.8933 27.1612 35.9137 27.2751 35.9571C27.3889 36.0005 27.493 36.0661 27.5813 36.1501L31.2613 39.5601C31.3515 39.6423 31.4243 39.7416 31.4757 39.8523C31.5271 39.9629 31.5559 40.0827 31.5606 40.2046C31.5652 40.3265 31.5456 40.4481 31.5028 40.5624C31.46 40.6766 31.3949 40.7812 31.3113 40.87C31.2235 40.9618 31.1179 41.0349 31.001 41.0847C30.8842 41.1345 30.7584 41.1602 30.6313 41.16Z" fill="white"/>
<path d="M34.4314 37.4499C34.2022 37.4491 33.9814 37.3636 33.8114 37.2099L30.0414 33.8299C29.9515 33.7492 29.8783 33.6515 29.8261 33.5424C29.7739 33.4334 29.7437 33.3151 29.7372 33.1944C29.7307 33.0737 29.748 32.9529 29.7882 32.8389C29.8284 32.7249 29.8906 32.6199 29.9714 32.5299C30.0522 32.44 30.1499 32.3668 30.2589 32.3146C30.3679 32.2624 30.4862 32.2322 30.6069 32.2257C30.7276 32.2192 30.8484 32.2365 30.9625 32.2767C31.0765 32.3169 31.1815 32.3792 31.2714 32.4599L35.0414 35.8399C35.1321 35.92 35.2062 36.0171 35.2593 36.1258C35.3124 36.2345 35.3436 36.3526 35.3511 36.4733C35.3585 36.5941 35.342 36.7151 35.3026 36.8295C35.2632 36.9439 35.2016 37.0494 35.1214 37.1399C34.9409 37.3296 34.6931 37.4409 34.4314 37.4499Z" fill="white"/>
<path d="M38.2214 34.2101C38.0002 34.208 37.7872 34.1264 37.6214 33.9801L33.7614 30.6401C33.5757 30.477 33.4625 30.2468 33.4465 30.0002C33.4306 29.7536 33.5133 29.5107 33.6764 29.3251C33.8395 29.1394 34.0697 29.0262 34.3163 29.0102C34.5629 28.9943 34.8057 29.077 34.9914 29.2401L38.8514 32.5801C38.9937 32.7045 39.0946 32.8694 39.1409 33.0527C39.1871 33.236 39.1763 33.429 39.1101 33.606C39.0438 33.7831 38.9252 33.9357 38.77 34.0437C38.6148 34.1516 38.4304 34.2096 38.2414 34.2101H38.2214Z" fill="white"/>
<path d="M42.3714 30.78C42.1564 30.7803 41.9479 30.7061 41.7814 30.57L37.7814 27.26C37.5931 27.0995 37.4763 26.8709 37.4566 26.6242C37.4369 26.3776 37.516 26.1333 37.6764 25.945C37.8369 25.7567 38.0656 25.6398 38.3122 25.6201C38.5588 25.6005 38.8031 25.6795 38.9914 25.84L42.9914 29.15C43.138 29.2708 43.2436 29.434 43.2937 29.6171C43.3439 29.8003 43.3361 29.9945 43.2714 30.1731C43.2068 30.3517 43.0885 30.5059 42.9327 30.6146C42.7769 30.7232 42.5913 30.781 42.4014 30.78H42.3714Z" fill="white"/>
<path d="M46.3313 27.5501C46.1196 27.5489 45.9147 27.4748 45.7513 27.3401L41.7513 24.0701C41.5603 23.9163 41.4383 23.6929 41.4121 23.4491C41.3858 23.2053 41.4575 22.9611 41.6113 22.7701C41.7651 22.5791 41.9885 22.4571 42.2323 22.4309C42.4761 22.4046 42.7203 22.4763 42.9113 22.6301L46.9113 25.9101C47.0619 26.0298 47.1712 26.1937 47.2237 26.3788C47.2763 26.5638 47.2696 26.7607 47.2045 26.9417C47.1394 27.1227 47.0191 27.2788 46.8607 27.3879C46.7023 27.497 46.5136 27.5538 46.3213 27.5501H46.3313Z" fill="white"/>
<path d="M50.2914 24.3199C50.0845 24.3178 49.8842 24.2475 49.7214 24.1199L45.5814 20.8799C45.4803 20.8078 45.3948 20.7161 45.3301 20.6102C45.2654 20.5042 45.2229 20.3863 45.2049 20.2634C45.187 20.1406 45.1942 20.0154 45.2259 19.8954C45.2576 19.7754 45.3133 19.6631 45.3896 19.5652C45.466 19.4673 45.5613 19.3858 45.6699 19.3257C45.7785 19.2656 45.8982 19.2281 46.0216 19.2155C46.1451 19.2028 46.2699 19.2153 46.3884 19.2522C46.507 19.289 46.6168 19.3495 46.7114 19.4299L50.8614 22.6699C50.9614 22.7457 51.0446 22.8414 51.1058 22.951C51.1671 23.0605 51.205 23.1816 51.2172 23.3065C51.2294 23.4314 51.2157 23.5575 51.1768 23.6768C51.1379 23.7961 51.0748 23.9061 50.9914 23.9999C50.9061 24.1022 50.7989 24.1841 50.6778 24.2395C50.5566 24.2949 50.4246 24.3223 50.2914 24.3199Z" fill="white"/>
<path d="M54.8215 21.2501C54.621 21.2476 54.4259 21.1849 54.2615 21.0701L49.9915 17.8601C49.895 17.7872 49.8138 17.696 49.7525 17.5918C49.6912 17.4875 49.651 17.3722 49.6343 17.2524C49.6176 17.1326 49.6247 17.0107 49.6551 16.8936C49.6854 16.7766 49.7386 16.6666 49.8115 16.5701C49.8844 16.4736 49.9756 16.3924 50.0798 16.3311C50.1841 16.2698 50.2994 16.2297 50.4192 16.2129C50.539 16.1962 50.6609 16.2033 50.778 16.2337C50.895 16.2641 51.005 16.3172 51.1015 16.3901L55.3415 19.6001C55.5344 19.7487 55.6614 19.9671 55.695 20.2083C55.7287 20.4495 55.6664 20.6943 55.5215 20.8901C55.4387 20.9982 55.333 21.0865 55.2119 21.1488C55.0909 21.211 54.9575 21.2456 54.8215 21.2501Z" fill="white"/>
<g style="mix-blend-mode:multiply" opacity="0.4">
<path d="M68.1513 10C67.5313 19.39 63.5313 31.26 51.3413 42.4C36.5613 55.91 21.1313 58.05 10.3313 57C10.4733 57.3977 10.6684 57.7745 10.9113 58.12C12.5213 60.12 35.2413 68.98 56.3213 49.72C74.1413 33.4 70.6913 15.21 68.1513 10Z" fill="#FF3700"/>
</g>
<defs>
<filter id="filter0_d_879_3286" x="0" y="0" width="79.2246" height="74.8799" filterUnits="userSpaceOnUse" color-interpolation-filters="sRGB">
<feFlood flood-opacity="0" result="BackgroundImageFix"/>
<feColorMatrix in="SourceAlpha" type="matrix" values="0 0 0 0 0 0 0 0 0 0 0 0 0 0 0 0 0 0 127 0" result="hardAlpha"/>
<feOffset dy="4"/>
<feGaussianBlur stdDeviation="2"/>
<feComposite in2="hardAlpha" operator="out"/>
<feColorMatrix type="matrix" values="0 0 0 0 0 0 0 0 0 0 0 0 0 0 0 0 0 0 0.25 0"/>
<feBlend mode="normal" in2="BackgroundImageFix" result="effect1_dropShadow_879_3286"/>
<feBlend mode="normal" in="SourceGraphic" in2="effect1_dropShadow_879_3286" result="shape"/>
</filter>
</defs>
</svg>
