<svg width="77" height="77" viewBox="0 0 77 77" fill="none" xmlns="http://www.w3.org/2000/svg">
<g clip-path="url(#clip0_879_3278)">
<g filter="url(#filter0_d_879_3278)">
<path d="M35.33 70.66C28.3424 70.66 21.5117 68.5879 15.7017 64.7058C9.89173 60.8237 5.3634 55.3059 2.68935 48.8502C0.0153079 42.3945 -0.684344 35.2908 0.678872 28.4375C2.04209 21.5841 5.40694 15.2889 10.3479 10.3479C15.2889 5.40694 21.5841 2.04209 28.4375 0.678872C35.2908 -0.684344 42.3945 0.0153079 48.8502 2.68935C55.3059 5.3634 60.8237 9.89173 64.7058 15.7017C68.5879 21.5117 70.66 28.3424 70.66 35.33C70.6494 44.6969 66.9238 53.677 60.3004 60.3004C53.677 66.9238 44.6969 70.6494 35.33 70.66Z" fill="white"/>
</g>
<path d="M35.33 65.68C29.3245 65.6819 23.4533 63.9028 18.4591 60.5676C13.4649 57.2323 9.57202 52.4908 7.27291 46.9429C4.97379 41.3949 4.37172 35.2897 5.54285 29.3995C6.71397 23.5093 9.60569 18.0987 13.8522 13.8522C18.0987 9.60569 23.5093 6.71397 29.3995 5.54285C35.2897 4.37172 41.3949 4.97379 46.9429 7.27291C52.4908 9.57202 57.2323 13.4649 60.5676 18.4591C63.9028 23.4533 65.6819 29.3245 65.68 35.33C65.68 39.3156 64.8949 43.2622 63.3697 46.9444C61.8445 50.6266 59.6089 53.9724 56.7907 56.7907C53.9724 59.6089 50.6266 61.8445 46.9444 63.3697C43.2622 64.8949 39.3156 65.68 35.33 65.68Z" fill="#F2F2F2"/>
<path d="M37.7399 9.12012L25.9999 14.2901H16.8099L17.4599 10.7901C17.0899 11.0701 16.7099 11.3601 16.3499 11.6501L15.9999 14.8101L9.40994 24.9201L5.70994 28.6901C5.60994 29.1501 5.51994 29.6101 5.43994 30.0701L9.32994 25.8101L13.7899 33.8101L13.5999 46.8101L10.5999 50.3701L7.85994 48.2401C8.17994 48.9301 8.52994 49.6001 8.85994 50.2401L9.78994 50.8501L9.54994 51.4001C9.75994 51.7301 9.96994 52.0601 10.1899 52.4001C10.1899 52.1701 10.1899 51.9401 10.1899 51.7001L17.8199 60.1701C19.8765 61.6206 22.1073 62.8066 24.4599 63.7001L28.7899 64.4601L36.2599 65.6601C37.4045 65.6214 38.5461 65.5212 39.6799 65.3601L29.0099 63.3601L27.4699 55.6401L39.0099 49.4201L51.1099 51.5201V59.8301L43.2299 64.5801C47.4553 63.4359 51.3823 61.3889 54.7399 58.5801L52.0499 59.3901V51.0801L57.8599 38.7201L64.0299 36.1401L65.2699 39.8101C65.9846 35.1872 65.6254 30.4618 64.2199 26.0001L64.0499 35.0001L57.8699 37.5901L50.7899 27.2701L49.9299 15.7301L56.3499 14.6401L61.4399 19.8501C60.7126 18.6035 59.8972 17.4105 58.9999 16.2801L56.9099 14.3901L57.0199 14.0601C52.015 8.95186 45.3606 5.78412 38.2399 5.12012L37.7399 9.12012ZM26.9099 54.8601L14.4399 47.0001L14.6199 34.0001L24.8099 27.1101L37.6899 33.6301L38.4399 48.6301L26.9099 54.8601ZM49.8199 27.0001L38.2499 32.6001L25.3699 26.0801L26.5299 14.8501L38.2499 9.68012L48.9999 15.4801L49.8199 27.0001Z" fill="#303030"/>
<g style="mix-blend-mode:multiply">
<path d="M57.9301 15.0701V15.1601C57.9301 26.0949 53.5862 36.582 45.8541 44.3141C38.122 52.0462 27.635 56.3901 16.7001 56.3901C15.5701 56.3901 14.4501 56.3901 13.3401 56.2501C18.8258 62.0628 26.383 65.4771 34.3708 65.7514C42.3587 66.0258 50.1323 63.1383 56.004 57.7156C61.8756 52.293 65.3712 44.7731 65.7319 36.7887C66.0925 28.8043 63.289 20.9999 57.9301 15.0701Z" fill="#C4C4C4"/>
</g>
</g>
<defs>
<filter id="filter0_d_879_3278" x="-4" y="0" width="78.6599" height="78.6599" filterUnits="userSpaceOnUse" color-interpolation-filters="sRGB">
<feFlood flood-opacity="0" result="BackgroundImageFix"/>
<feColorMatrix in="SourceAlpha" type="matrix" values="0 0 0 0 0 0 0 0 0 0 0 0 0 0 0 0 0 0 127 0" result="hardAlpha"/>
<feOffset dy="4"/>
<feGaussianBlur stdDeviation="2"/>
<feComposite in2="hardAlpha" operator="out"/>
<feColorMatrix type="matrix" values="0 0 0 0 0 0 0 0 0 0 0 0 0 0 0 0 0 0 0.25 0"/>
<feBlend mode="normal" in2="BackgroundImageFix" result="effect1_dropShadow_879_3278"/>
<feBlend mode="normal" in="SourceGraphic" in2="effect1_dropShadow_879_3278" result="shape"/>
</filter>
<clipPath id="clip0_879_3278">
<rect width="76.49" height="76.49" fill="white"/>
</clipPath>
</defs>
</svg>
