<svg width="109" height="101" viewBox="0 0 109 101" fill="none" xmlns="http://www.w3.org/2000/svg">
<g clip-path="url(#clip0_879_3255)">
<path d="M22.83 41.8101C-1.32005 75.3501 13.46 92.0001 29.84 98.0001C48.42 104.87 65.74 98.5001 78.22 79.0001C90.7 59.5001 92.35 36.4401 75.65 25.7801C58.95 15.1201 36.3699 23.0001 22.83 41.8101Z" fill="#FFA3A3"/>
<path d="M47.4199 42.37C47.5209 42.1272 47.6761 41.9109 47.8737 41.7375C48.0714 41.5642 48.3061 41.4384 48.5599 41.37C49.1342 41.1999 49.7455 41.1999 50.3199 41.37C50.7683 41.5265 51.1794 41.7745 51.527 42.0983C51.8746 42.422 52.1512 42.8144 52.3392 43.2506C52.5272 43.6868 52.6226 44.1573 52.6193 44.6323C52.6159 45.1073 52.514 45.5764 52.3199 46.01C52.1358 46.3138 51.8763 46.5649 51.5666 46.7389C51.2568 46.9128 50.9073 47.0037 50.5521 47.0027C50.1968 47.0017 49.8478 46.9088 49.5391 46.7331C49.2303 46.5574 48.9722 46.3049 48.7899 46C48.3899 45.41 48.1699 44.74 47.7899 44.15C47.5739 43.9139 47.4256 43.624 47.3605 43.3108C47.2954 42.9975 47.3159 42.6725 47.4199 42.37Z" fill="#EB004A"/>
<path d="M39.11 38.3301C39.244 38.139 39.3348 37.9211 39.3763 37.6915C39.4177 37.4618 39.4087 37.2259 39.35 37.0001C39.2003 36.4672 38.9061 35.9861 38.5 35.6101C38.1601 35.3307 37.7659 35.1252 37.3423 35.0065C36.9188 34.8878 36.4751 34.8586 36.0396 34.9206C35.6042 34.9827 35.1864 35.1348 34.8128 35.3671C34.4393 35.5994 34.1182 35.9069 33.87 36.2701C33.7281 36.5621 33.6634 36.8856 33.6821 37.2097C33.7008 37.5338 33.8022 37.8477 33.9767 38.1215C34.1512 38.3953 34.393 38.6198 34.6789 38.7736C34.9648 38.9274 35.2853 39.0054 35.61 39.0001C36.27 39.0001 36.9 38.8901 37.61 38.9201C37.8896 38.9592 38.1746 38.9254 38.4374 38.8221C38.7002 38.7187 38.9319 38.5492 39.11 38.3301Z" fill="#EB004A"/>
<path d="M21.1001 80.85C19.7001 79.18 18.5401 76.97 19.1901 74.85C19.42 74.1424 19.8579 73.5206 20.4466 73.0657C21.0353 72.6108 21.7474 72.344 22.4901 72.3C24.5901 72.2 26.1601 74.09 28.0001 74.8C29.1295 75.2693 30.3954 75.2908 31.5401 74.86C33.7301 73.97 35.9901 72.86 38.2701 74.21C39.0141 74.651 39.6114 75.302 39.9867 76.0812C40.3621 76.8605 40.499 77.7332 40.3801 78.59C40.1523 79.875 39.5178 81.0528 38.5701 81.95C37.4449 83.0449 36.1129 83.9046 34.6519 84.4791C33.1908 85.0536 31.6299 85.3312 30.0604 85.2959C28.4908 85.2605 26.944 84.9128 25.5103 84.2731C24.0766 83.6334 22.7847 82.7144 21.7101 81.57C21.5101 81.31 21.3001 81.08 21.1001 80.85Z" fill="white"/>
<path d="M26.25 71C24.61 76.3333 22.9733 81.62 21.34 86.86C21.09 87.66 22.34 88.01 22.59 87.21L27.51 71.39C27.76 70.59 26.51 70.24 26.25 71.04V71Z" fill="#EB004A"/>
<path d="M31.9001 71.79L36.2801 87.79C36.3031 87.8728 36.3421 87.9502 36.395 88.0178C36.4479 88.0854 36.5136 88.142 36.5883 88.1843C36.6631 88.2265 36.7454 88.2536 36.8307 88.2641C36.9159 88.2745 37.0023 88.268 37.0851 88.245C37.1678 88.2221 37.2452 88.183 37.3128 88.1301C37.3805 88.0772 37.437 88.0115 37.4793 87.9368C37.5215 87.862 37.5487 87.7797 37.5591 87.6945C37.5695 87.6092 37.5631 87.5228 37.5401 87.44L33.1601 71.44C33.1137 71.273 33.0028 71.1311 32.8518 71.0458C32.7008 70.9605 32.5222 70.9386 32.3551 70.985C32.188 71.0315 32.0462 71.1423 31.9609 71.2933C31.8755 71.4443 31.8537 71.623 31.9001 71.79Z" fill="#EB004A"/>
<path d="M23.0001 50.8401C24.1521 49.8613 25.5749 49.2566 27.0791 49.1065C28.5833 48.9564 30.0975 49.2681 31.4201 50.0001C32.7098 50.7761 33.735 51.9236 34.3613 53.2923C34.9876 54.6609 35.1859 56.1868 34.9301 57.6701C34.8467 57.9341 34.8688 58.2202 34.9919 58.4682C35.115 58.7162 35.3294 58.9069 35.5901 59.0001C35.7192 59.0482 35.8568 59.0691 35.9943 59.0615C36.1318 59.0539 36.2662 59.018 36.3892 58.9561C36.5122 58.8941 36.6211 58.8074 36.709 58.7014C36.7969 58.5954 36.862 58.4724 36.9001 58.3401C37.2969 56.4227 37.0954 54.4296 36.3228 52.6304C35.5502 50.8312 34.2438 49.3127 32.5801 48.2801C30.8775 47.3113 28.9188 46.8878 26.9681 47.0666C25.0173 47.2454 23.1683 48.0179 21.6701 49.2801C20.6701 50.1501 22.0201 51.7201 23.0401 50.8501L23.0001 50.8401Z" fill="#1B2BEF"/>
<path d="M27.9101 53.4701C24.7801 59.4701 18.8001 62.4701 14.5601 60.2901C10.3201 58.1101 9.41012 51.4201 12.5601 45.4301C15.7101 39.4401 21.6701 36.4301 25.9201 38.6101C30.1701 40.7901 31.0001 47.4801 27.9101 53.4701Z" fill="#1B2BEF"/>
<path d="M30.7402 41.5142L0.752441 54.7529L2.75965 59.2996L32.7474 46.0609L30.7402 41.5142Z" fill="white"/>
<path d="M29.9821 37.3214L-0.00561523 50.5601L0.470945 51.6395L30.4587 38.4009L29.9821 37.3214Z" fill="white"/>
<path d="M56.2101 64.2901C55.4274 66.6055 53.9758 68.637 52.0387 70.1276C50.1017 71.6182 47.7662 72.501 45.3275 72.6645C42.8888 72.828 40.4563 72.2647 38.3377 71.0459C36.219 69.8272 34.5093 68.0076 33.4246 65.8173C32.34 63.627 31.929 61.1642 32.2438 58.7404C32.5586 56.3165 33.5849 54.0405 35.1931 52.1998C36.8013 50.3592 38.919 49.0367 41.2787 48.3996C43.6384 47.7624 46.134 47.8391 48.4501 48.6201C49.9888 49.1389 51.4103 49.9559 52.6332 51.0244C53.8561 52.0928 54.8565 53.3918 55.5771 54.8471C56.2978 56.3023 56.7246 57.8853 56.8332 59.5056C56.9418 61.1259 56.7301 62.7517 56.2101 64.2901Z" fill="#1B2BEF"/>
<path d="M59.342 53.819L28.7454 65.5823L30.5289 70.2212L61.1255 58.4579L59.342 53.819Z" fill="white"/>
<path d="M57.18 48.1871L26.5813 59.9451L27.2269 61.6253L57.8256 49.8673L57.18 48.1871Z" fill="white"/>
<path d="M18.0801 67.2901C16.9255 66.475 16.1045 65.27 15.7682 63.8973C15.4319 62.5246 15.603 61.0766 16.2501 59.8201C17.2422 58.3316 18.5716 57.0982 20.1301 56.2201L29.2501 50.0901C29.2501 50.0901 30.4801 59.0901 27.9401 63.9101C25.4001 68.7301 18.0801 67.2901 18.0801 67.2901Z" fill="#FFA3A3"/>
<path d="M28.9201 49.5299C25.5301 51.8099 22.0601 53.9999 18.7301 56.3899C17.3501 57.2617 16.2254 58.483 15.4701 59.9299C14.9183 61.2136 14.7956 62.641 15.1201 63.9999C15.481 65.5712 16.4198 66.9491 17.7501 67.8599C18.4401 68.3399 19.0901 67.2099 18.4001 66.7399C17.7563 66.2715 17.228 65.6623 16.8554 64.9587C16.4828 64.2551 16.2758 63.4757 16.2501 62.6799C16.2438 61.8439 16.4299 61.0177 16.794 60.2651C17.1582 59.5125 17.6906 58.8538 18.3501 58.3399C20.0105 57.0163 21.7541 55.8005 23.5701 54.6999L29.5701 50.6999C30.2601 50.2399 29.5701 49.1099 28.9101 49.5799L28.9201 49.5299Z" fill="#EB004A"/>
<path d="M20.8 66.4C21.185 66.3586 21.5732 66.4391 21.91 66.63C22.3907 66.882 22.7741 67.2865 23 67.78C23.0534 67.9067 23.077 68.0439 23.0691 68.1812C23.0612 68.3184 23.0219 68.4521 22.9543 68.5718C22.8867 68.6915 22.7926 68.7942 22.6792 68.8719C22.5658 68.9495 22.4361 69.0002 22.3 69.02C22.1135 69.0375 21.9256 69.0103 21.7517 68.9407C21.5778 68.8712 21.423 68.7612 21.3 68.62C20.85 68.24 19.9 67.85 20.01 67.13C20.0274 66.9319 20.118 66.7474 20.264 66.6124C20.4101 66.4774 20.6012 66.4017 20.8 66.4Z" fill="#EB004A"/>
<path d="M108.53 53.3699C108.612 53.1242 108.679 52.8738 108.73 52.6199C109.73 48.2199 107.3 44.7199 103.73 42.4699C103.6 42.3799 103.46 42.3099 103.33 42.2299C105.69 39.8099 106.62 36.2299 104.76 33.2299C102.12 28.9599 96.5 26.9399 91.47 27.5199C92.05 27.4499 91.93 24.7399 91.83 24.2799C91.512 23.1148 90.938 22.0352 90.15 21.1199C88.9181 19.641 87.3014 18.5314 85.4784 17.9137C83.6554 17.2961 81.6971 17.1944 79.82 17.6199C80.63 17.4399 80.2 13.3399 80.08 12.8099C79.7796 11.4902 79.1894 10.2537 78.3524 9.19005C77.5153 8.1264 76.4522 7.26218 75.24 6.65994C73.2565 5.72878 71.0206 5.47985 68.8809 5.95194C66.7411 6.42402 64.8176 7.59061 63.41 9.26994C63.76 8.84994 60.49 5.57994 60.06 5.19994C55.74 1.29994 49.35 -0.940059 43.57 0.379941C38.25 1.59994 33.83 6.25994 31.66 11.1599C30.8765 12.8095 30.4468 14.6048 30.3986 16.4303C30.3504 18.2559 30.6847 20.0713 31.38 21.7599C33.29 26.1599 37.7 28.8899 42.21 30.0399C42.2583 30.4276 42.3318 30.8118 42.43 31.1899C44.36 38.3899 53.28 41.9999 60.15 41.5199C62.3538 41.316 64.5181 40.8044 66.58 39.9999C66.3673 40.7569 66.2135 41.5292 66.12 42.3099C65.58 46.9999 67.42 52.9999 72 54.9299C72.3417 55.0793 72.6965 55.1965 73.06 55.2799C70.7274 57.2248 69.1176 59.8985 68.49 62.8699C67.7699 66.256 68.236 69.7867 69.81 72.8699C70.5856 74.4625 71.8459 75.7683 73.41 76.5999C74.3774 77.0475 75.4171 77.3184 76.48 77.3999C76.6413 77.6819 76.8217 77.9526 77.02 78.2099C78.78 80.5999 81.79 80.9599 84.43 79.9499C86.877 79 89.0055 77.3776 90.57 75.2699C91.1046 74.5149 91.4946 73.6672 91.72 72.7699C92.725 72.7283 93.7267 72.6281 94.72 72.4699C95.9598 72.1763 97.0947 71.5466 98 70.6499C99.92 68.6499 100 65.8399 99 63.3999C98.4875 62.5243 98.0717 61.5955 97.76 60.6299C97.83 61.1299 103.69 58.8999 104.2 58.6299C106.231 57.4564 107.769 55.5882 108.53 53.3699Z" fill="#1B2BEF"/>
<path d="M64.7599 73.5501C64.7599 73.5501 79.2999 63.9001 86.9199 73.5501C94.5399 83.2001 76.8099 94.2801 63.5799 89.2201C54.8899 85.9001 58.8299 76.5501 64.7599 73.5501Z" fill="#FFA3A3"/>
<path d="M82 79.6499C81.6599 78.3883 80.9366 77.2635 79.93 76.4305C78.9233 75.5976 77.6829 75.0977 76.38 74.9999C73.29 74.6399 70.38 76.3499 68.18 78.3199C68.0823 78.425 68.0168 78.5559 67.9913 78.6971C67.9658 78.8384 67.9813 78.9839 68.0361 79.1166C68.0908 79.2492 68.1825 79.3634 68.3001 79.4455C68.4178 79.5276 68.5566 79.5743 68.7 79.5799C69.2215 79.4979 69.7557 79.5791 70.2293 79.8125C70.7029 80.0459 71.0927 80.42 71.3454 80.8836C71.5981 81.3472 71.7013 81.8776 71.6408 82.4021C71.5803 82.9266 71.3591 83.4196 71.0075 83.8135C70.6559 84.2074 70.1912 84.4829 69.6769 84.6024C69.1626 84.7219 68.6239 84.6794 68.1347 84.4808C67.6455 84.2822 67.2297 83.9372 66.9442 83.4931C66.6587 83.0489 66.5175 82.5274 66.54 81.9999C66.5189 81.8197 66.4324 81.6536 66.2969 81.533C66.1614 81.4124 65.9864 81.3458 65.805 81.3458C65.6236 81.3458 65.4485 81.4124 65.313 81.533C65.1775 81.6536 65.091 81.8197 65.07 81.9999C65.042 82.823 65.2656 83.6351 65.711 84.3278C66.1565 85.0206 66.8025 85.5611 67.563 85.8772C68.3235 86.1934 69.1623 86.2701 69.9675 86.0973C70.7728 85.9245 71.5062 85.5103 72.07 84.9099C72.635 84.3335 73.0083 83.5968 73.1389 82.8004C73.2696 82.0039 73.1512 81.1865 72.8 80.4599C72.4295 79.7287 71.8537 79.1217 71.1431 78.7131C70.4326 78.3045 69.6182 78.1123 68.8 78.1599L69.32 79.4099C71.16 77.7799 73.5 76.3399 76.05 76.4799C77.0756 76.5163 78.0634 76.8765 78.8718 77.5088C79.6802 78.1412 80.2676 79.0132 80.55 79.9999C80.76 80.9199 82.17 80.5299 81.97 79.6099L82 79.6499Z" fill="#EB004A"/>
</g>
<defs>
<clipPath id="clip0_879_3255">
<rect width="108.95" height="100.68" fill="white"/>
</clipPath>
</defs>
</svg>
