<svg width="119" height="117" viewBox="0 0 119 117" fill="none" xmlns="http://www.w3.org/2000/svg">
<g clip-path="url(#clip0_879_3215)">
<path d="M118.85 58.9002C118.63 55.9002 115.67 52.0902 114.13 50.4702C106.62 42.5602 95.5502 39.4702 87.7102 31.9602C84.4412 28.726 81.5433 25.1371 79.0702 21.2602C75.8202 16.3902 69.8602 4.87017 62.2002 8.32017C58.4902 10.0002 56.3302 14.4002 56.0002 18.2702C55.6802 21.9802 56.6502 25.6802 57.8602 29.2002C60.8605 37.8035 65.3449 45.8146 71.1102 52.8702C76.8702 60.0002 83.4102 66.4802 88.8202 73.8702C89.5639 75.0476 90.4847 76.1033 91.5502 77.0002C93.8202 78.6202 94.4202 75.5902 95.3602 74.1402C96.6959 72.173 98.4645 70.5378 100.53 69.3602C103.395 67.8045 106.41 66.5447 109.53 65.6002C112.64 64.4902 119.14 63.0902 118.85 58.9002Z" fill="#1B2BEF"/>
<path d="M69 14.3902C73.26 22.4802 77.66 30.6702 83.92 37.3902C87.0995 40.7657 90.7266 43.6895 94.7 46.0802C98.99 48.7202 103.53 51.0202 107.45 54.2102C111.37 57.4002 114.76 61.5702 115.77 66.6802C115.89 67.2902 116.84 67.0302 116.71 66.4202C114.9 57.2502 106.5 51.9002 99.03 47.5202C94.6173 45.1241 90.4995 42.2211 86.76 38.8702C83.3369 35.5085 80.3166 31.76 77.76 27.7002C74.86 23.2402 72.36 18.5502 69.88 13.8502C69.59 13.3002 68.74 13.7902 69.04 14.3502L69 14.3902Z" fill="#FFD324"/>
<path d="M87.93 48.8201C96.1878 54.1893 102.54 62.0285 106.08 71.2201C106.31 71.8001 107.25 71.5501 107.08 70.9601C103.441 61.5281 96.9088 53.4906 88.42 48.0001C87.89 47.6601 87.42 48.5001 87.93 48.8401V48.8201Z" fill="#FFD324"/>
<path d="M90.5401 61.9202C95.7709 65.6481 99.4168 71.199 100.76 77.4802C100.89 78.1002 101.84 77.8402 101.7 77.2202C100.28 70.6875 96.4622 64.9248 91.0001 61.0702C90.4801 60.7102 90.0001 61.5602 90.5001 61.9202H90.5401Z" fill="#FFD324"/>
<g style="mix-blend-mode:multiply" opacity="0.6">
<path d="M118.85 58.9002C118.63 55.9002 115.67 52.0902 114.13 50.4702C106.62 42.5602 95.5502 39.4702 87.7102 31.9602C84.4412 28.726 81.5433 25.1371 79.0702 21.2602C75.8202 16.3902 69.8602 4.87017 62.2002 8.32017C58.4902 10.0002 56.3302 14.4002 56.0002 18.2702C55.6802 21.9802 56.6502 25.6802 57.8602 29.2002C60.8605 37.8035 65.3449 45.8146 71.1102 52.8702C76.8702 60.0002 83.4102 66.4802 88.8202 73.8702C89.5639 75.0476 90.4847 76.1033 91.5502 77.0002C93.8202 78.6202 94.4202 75.5902 95.3602 74.1402C96.6959 72.173 98.4645 70.5378 100.53 69.3602C103.395 67.8045 106.41 66.5447 109.53 65.6002C112.64 64.4902 119.14 63.0902 118.85 58.9002Z" fill="#1B2BEF"/>
</g>
<path d="M82.7101 29.26C107.17 62.57 92.5501 79.31 76.2201 85.52C57.7001 92.52 40.3201 86.35 27.6701 66.94C15.0201 47.53 13.1501 24.52 29.7401 13.7C46.3301 2.88004 69.0001 10.58 82.7101 29.26Z" fill="#B06553"/>
<path d="M84.8001 68.2801C86.1901 66.6001 87.3301 64.3701 86.6501 62.2201C86.4195 61.5137 85.9792 60.8942 85.388 60.4441C84.7967 59.994 84.0824 59.7345 83.3401 59.7001C81.2301 59.6101 79.6801 61.5201 77.8501 62.2501C76.7243 62.731 75.4565 62.7596 74.3101 62.3301C72.1101 61.4701 69.8401 60.4001 67.5801 61.7501C66.8399 62.1979 66.2486 62.8545 65.8803 63.6373C65.512 64.4201 65.3832 65.2943 65.5101 66.1501C65.744 67.4339 66.3899 68.6065 67.3501 69.4901C68.4823 70.5765 69.8194 71.4267 71.2835 71.991C72.7476 72.5552 74.3094 72.8224 75.8778 72.7768C77.4463 72.7311 78.9899 72.3737 80.4188 71.7253C81.8476 71.0769 83.1331 70.1505 84.2001 69.0001C84.4001 68.7501 84.6001 68.5201 84.8001 68.2801Z" fill="#3C3F69"/>
<path d="M79.7401 68.3301C78.2354 67.3809 76.6492 66.5677 75.0001 65.9001C72.0001 64.6901 68.5701 64.1501 65.4801 65.3401C65.4552 65.6095 65.4552 65.8807 65.4801 66.1501C65.7139 67.4339 66.3599 68.6065 67.3201 69.4901C68.6417 70.7341 70.2283 71.6621 71.9604 72.2043C73.6925 72.7464 75.5251 72.8886 77.3201 72.6201C79.2212 72.3151 81.0176 71.5457 82.5501 70.3801C81.6613 69.6335 80.7224 68.9486 79.7401 68.3301Z" fill="#FF8A82"/>
<path d="M64.8302 58.4601C64.3713 58.715 63.8552 58.8492 63.3302 58.8501L58.1402 58.9401L55.2602 63.2601C54.8553 63.882 54.2475 64.3444 53.5401 64.5687C52.8327 64.7929 52.0694 64.7652 51.3802 64.4901C50.9396 64.3146 50.5428 64.0446 50.2179 63.699C49.8931 63.3534 49.6481 62.9407 49.5002 62.4901L47.8102 57.6001L42.8102 56.2001C42.2284 56.0367 41.7039 55.7139 41.2959 55.2682C40.888 54.8224 40.6128 54.2714 40.5015 53.6775C40.3902 53.0835 40.4472 52.4703 40.6661 51.907C40.885 51.3438 41.257 50.853 41.7402 50.4901L45.8902 47.3701L45.6802 42.1801C45.6523 41.575 45.7951 40.9743 46.0923 40.4465C46.3894 39.9187 46.829 39.4851 47.3609 39.1952C47.8927 38.9053 48.4953 38.7708 49.0999 38.8071C49.7045 38.8433 50.2868 39.0488 50.7802 39.4001L55.0302 42.4001L59.9002 40.6001C60.4679 40.3856 61.0845 40.3353 61.6795 40.4551C62.2744 40.5748 62.8236 40.8598 63.264 41.2773C63.7045 41.6948 64.0184 42.2279 64.1698 42.8156C64.3213 43.4033 64.3041 44.0217 64.1202 44.6001L62.5902 49.6001L65.8202 53.6701C66.1135 54.0409 66.3222 54.4715 66.4314 54.9315C66.5406 55.3916 66.5479 55.8699 66.4526 56.3331C66.3573 56.7962 66.1618 57.2329 65.8798 57.6124C65.5978 57.992 65.2361 58.3052 64.8202 58.5301L64.8302 58.4601Z" fill="#1B2BEF"/>
<path d="M61.0001 38.55C58.1254 38.7816 55.4437 40.0885 53.4901 42.21C52.6763 43.1607 52.0997 44.2909 51.8077 45.5078C51.5156 46.7247 51.5164 47.9935 51.8101 49.21C52.1301 50.4 52.9401 51.49 52.8101 52.76C52.5839 53.877 52.0181 54.8969 51.1901 55.68C49.2519 57.7055 47.0121 59.4191 44.5501 60.76C44.1948 61.0172 43.9534 61.4024 43.877 61.8343C43.8005 62.2662 43.8949 62.7109 44.1403 63.0745C44.3857 63.438 44.7628 63.6919 45.192 63.7825C45.6211 63.8731 46.0687 63.7933 46.4401 63.56C48.8913 62.1738 51.1505 60.4726 53.1601 58.5C54.9501 56.74 56.4701 54.36 56.1601 51.75C56.0001 50.43 55.2501 49.32 55.0001 48C54.8544 47.0576 55.0268 46.0935 55.4901 45.26C56.5801 43.17 58.9901 42.19 61.2101 41.9C61.6539 41.8667 62.0676 41.6626 62.3641 41.3307C62.6606 40.9987 62.8169 40.5648 62.8001 40.12C62.7693 39.6732 62.5625 39.2569 62.225 38.9625C61.8875 38.6682 61.4469 38.5198 61.0001 38.55Z" fill="white"/>
<path d="M47.9001 40.1801C48.1575 40.0382 48.4496 39.9714 48.743 39.9873C49.0365 40.0032 49.3196 40.1012 49.5601 40.2701L54.2501 43.5701C54.4583 43.717 54.699 43.8111 54.9517 43.8442C55.2043 43.8773 55.4612 43.8484 55.7001 43.7601L61.0801 41.7601C61.3546 41.6577 61.6522 41.6342 61.9393 41.6922C62.2265 41.7501 62.4916 41.8872 62.7049 42.088C62.9182 42.2888 63.071 42.5452 63.1462 42.8284C63.2213 43.1115 63.2158 43.41 63.1301 43.6901L61.4401 49.1801C61.3664 49.4242 61.3524 49.6824 61.3994 49.933C61.4464 50.1837 61.553 50.4193 61.7101 50.6201L65.2801 55.1201C65.4215 55.2994 65.5221 55.5074 65.5749 55.7296C65.6277 55.9517 65.6313 56.1828 65.5856 56.4065C65.5399 56.6302 65.446 56.8413 65.3103 57.025C65.1746 57.2087 65.0005 57.3606 64.8001 57.4701C64.5775 57.5958 64.3259 57.6613 64.0701 57.6601L58.3301 57.7501C58.0754 57.7562 57.8255 57.8212 57.6001 57.9401C57.3785 58.0635 57.1899 58.2384 57.0501 58.4501L53.8701 63.2301C53.7336 63.4445 53.5442 63.6201 53.3201 63.7401C53.1193 63.8501 52.8969 63.9148 52.6684 63.9297C52.44 63.9446 52.211 63.9094 51.9976 63.8265C51.7842 63.7437 51.5915 63.6151 51.433 63.4499C51.2745 63.2846 51.1541 63.0868 51.0801 62.8701L49.2201 57.4401C49.1357 57.1994 48.9943 56.9828 48.808 56.8086C48.6217 56.6345 48.396 56.508 48.1501 56.4401L42.6301 54.8901C42.3474 54.8115 42.0923 54.6553 41.8939 54.4391C41.6954 54.2229 41.5615 53.9555 41.5074 53.667C41.4532 53.3786 41.481 53.0808 41.5875 52.8074C41.6941 52.5339 41.8751 52.2958 42.1101 52.1201L46.7001 48.6801C46.9019 48.526 47.0636 48.3257 47.1715 48.0959C47.2795 47.8661 47.3304 47.6137 47.3201 47.3601L47.0901 41.6201C47.0744 41.3279 47.1422 41.0373 47.2857 40.7823C47.4291 40.5272 47.6423 40.3184 47.9001 40.1801ZM46.0801 36.8401C45.1971 37.3173 44.4668 38.0341 43.9732 38.908C43.4797 39.782 43.2429 40.7775 43.2901 41.7801L43.4801 46.3401L39.8201 49.0801C39.0211 49.6837 38.4064 50.4983 38.0453 51.4323C37.6841 52.3663 37.5907 53.3825 37.7757 54.3666C37.9607 55.3508 38.4167 56.2638 39.0923 57.0029C39.768 57.7419 40.6365 58.2778 41.6001 58.5501L46.0001 59.7801L47.4801 64.1001C47.8049 65.0435 48.3866 65.8775 49.1597 66.5082C49.9327 67.139 50.8665 67.5414 51.8559 67.6703C52.8452 67.7992 53.8509 67.6493 54.7598 67.2376C55.6686 66.826 56.4445 66.1688 57.0001 65.3401L59.5301 61.5301L64.1001 61.4601C65.3268 61.4445 66.5109 61.0078 67.454 60.2231C68.397 59.4384 69.0418 58.3535 69.2801 57.1501C69.4432 56.3897 69.4382 55.6028 69.2654 54.8445C69.0927 54.0863 68.7564 53.3749 68.2801 52.7601L65.4401 49.1801L66.7801 44.8101C67.0738 43.8527 67.0939 42.8323 66.8382 41.8641C66.5824 40.896 66.0611 40.0186 65.333 39.3311C64.605 38.6435 63.6992 38.1733 62.7179 37.9735C61.7367 37.7736 60.7191 37.8521 59.7801 38.2001L55.5001 39.7901L51.7601 37.1601C50.9419 36.5808 49.9771 36.2436 48.9761 36.187C47.9751 36.1304 46.9785 36.3567 46.1001 36.8401H46.0801Z" fill="#FFD324"/>
<path d="M96.46 41.6702C96.039 41.8792 95.5678 41.9658 95.1 41.9202L90.4 41.5402L87.83 45.5402C87.5882 45.936 87.2423 46.2577 86.83 46.4702C86.4393 46.6521 86.0112 46.7397 85.5804 46.7258C85.1497 46.7119 84.7282 46.5969 84.35 46.3902C83.5259 45.9446 82.9087 45.1946 82.63 44.3002L81.07 39.3702L76.53 37.5602C75.983 37.3299 75.503 36.9655 75.1342 36.5005C74.7654 36.0356 74.5197 35.4852 74.42 34.9002C74.3009 34.3482 74.3401 33.7739 74.5329 33.2432C74.7257 32.7125 75.0644 32.247 75.51 31.9002L79.24 29.2302L79 24.1102C78.9357 23.5523 79.0456 22.9883 79.3146 22.4954C79.5837 22.0025 79.9987 21.605 80.5027 21.3573C81.0067 21.1097 81.5749 21.0242 82.1295 21.1124C82.6841 21.2007 83.1977 21.4584 83.6 21.8502L87.47 25.1402L91.86 23.8202C92.4035 23.691 92.9724 23.7161 93.5024 23.8928C94.0325 24.0695 94.5026 24.3907 94.86 24.8202C95.2627 25.2572 95.5488 25.7886 95.6921 26.3653C95.8355 26.942 95.8313 27.5455 95.68 28.1202L94.33 32.8202L97.33 37.0702C97.8659 37.8386 98.0811 38.7856 97.93 39.7102C97.8531 40.1283 97.6804 40.5229 97.4253 40.8629C97.1703 41.203 96.8398 41.4793 96.46 41.6702Z" fill="#1B2BEF"/>
<path d="M93.89 21.3401C91.0169 21.5774 88.3372 22.8833 86.38 25.0001C85.5648 25.9499 84.9873 27.0801 84.6951 28.2973C84.403 29.5145 84.4047 30.7837 84.7 32.0001C85.02 33.1801 85.83 34.2801 85.7 35.5501C85.4597 36.6913 84.8646 37.7273 84 38.5101C82.0618 40.5356 79.822 42.2492 77.36 43.5901C77.0055 43.8552 76.7691 44.2489 76.7018 44.6865C76.6345 45.1241 76.7416 45.5706 77 45.9301C77.255 46.2943 77.6411 46.5457 78.0773 46.6314C78.5136 46.7172 78.9661 46.6307 79.34 46.3901C81.771 44.9967 84.0098 43.2924 86 41.3201C87.79 39.5601 89.31 37.1901 89 34.5701C88.86 33.2301 88.07 32.1201 87.83 30.8201C87.6919 29.8766 87.8676 28.9139 88.33 28.0801C89.42 25.9801 91.83 25.0101 94.05 24.7101C94.2794 24.7092 94.5062 24.6616 94.7166 24.5702C94.927 24.4789 95.1166 24.3456 95.2739 24.1786C95.4312 24.0116 95.5528 23.8143 95.6313 23.5988C95.7099 23.3832 95.7437 23.154 95.7308 22.9249C95.7179 22.6959 95.6585 22.4719 95.5562 22.2666C95.4539 22.0612 95.3109 21.8789 95.1359 21.7306C94.9609 21.5823 94.7575 21.4712 94.5381 21.4041C94.3188 21.3369 94.0881 21.3152 93.86 21.3401H93.89Z" fill="white"/>
<path d="M80.92 22.2602C81.1649 22.1437 81.4395 22.1042 81.7073 22.1471C81.9751 22.19 82.2236 22.3131 82.42 22.5002L86.7 26.1302C86.8752 26.287 87.0868 26.3975 87.3156 26.4516C87.5444 26.5058 87.7831 26.5018 88.01 26.4402L92.87 25.0002C93.1377 24.9512 93.4135 24.9704 93.6718 25.0561C93.9302 25.1417 94.1627 25.2911 94.3481 25.4904C94.5335 25.6898 94.6656 25.9326 94.7324 26.1964C94.7991 26.4603 94.7983 26.7367 94.73 27.0002L93.25 32.1902C93.1883 32.4333 93.1796 32.6867 93.2245 32.9335C93.2694 33.1802 93.3667 33.4144 93.51 33.6202L96.77 38.3202C96.9047 38.4897 97.0016 38.6861 97.0543 38.8962C97.1069 39.1062 97.114 39.3251 97.0752 39.5382C97.0364 39.7512 96.9525 39.9535 96.8291 40.1315C96.7058 40.3095 96.5458 40.459 96.36 40.5702C96.1546 40.6681 95.9267 40.7096 95.7 40.6902L90.51 40.2602C90.2833 40.2427 90.056 40.284 89.85 40.3802C89.6459 40.4825 89.4732 40.638 89.35 40.8302L86.52 45.2002C86.3976 45.3931 86.2246 45.5487 86.02 45.6502C85.8235 45.7248 85.6138 45.7578 85.4039 45.7472C85.1941 45.7366 84.9887 45.6826 84.8007 45.5887C84.6128 45.4947 84.4464 45.3628 84.312 45.2013C84.1776 45.0397 84.0782 44.8521 84.02 44.6502L82.29 39.1902C82.2123 38.9492 82.0824 38.7284 81.9096 38.5434C81.7367 38.3585 81.5251 38.214 81.29 38.1202L76.29 36.1202C76.0314 36.0168 75.8035 35.8492 75.6276 35.6333C75.4517 35.4174 75.3336 35.1603 75.2846 34.8862C75.2356 34.612 75.2572 34.3299 75.3474 34.0665C75.4375 33.803 75.5933 33.5668 75.8 33.3802L79.93 30.4402C80.1157 30.2961 80.263 30.1086 80.3589 29.894C80.4549 29.6795 80.4964 29.4446 80.48 29.2102L80.22 23.6002C80.1921 23.3318 80.246 23.0612 80.3744 22.8239C80.5029 22.5866 80.7 22.3936 80.94 22.2702L80.92 22.2602ZM79.27 18.8602C78.4517 19.2876 77.7784 19.9479 77.3352 20.7577C76.892 21.5676 76.6988 22.4906 76.78 23.4102L77 27.8602L73.72 30.2102C72.9691 30.781 72.3988 31.5564 72.0777 32.4433C71.7567 33.3302 71.6984 34.291 71.91 35.2102C72.0738 36.1821 72.4805 37.0969 73.0924 37.8696C73.7043 38.6424 74.5015 39.248 75.41 39.6302L79.41 41.2202L80.78 45.5602C81.2342 47.0314 82.2465 48.2662 83.6 49.0002C84.2258 49.3413 84.9232 49.53 85.6356 49.5508C86.348 49.5717 87.0553 49.4241 87.7 49.1202C88.3964 48.776 88.9846 48.2466 89.4 47.5902L91.66 44.1202L95.79 44.4502C96.5538 44.5035 97.3178 44.3479 98 44.0002C98.6342 43.6762 99.1825 43.2063 99.5997 42.6291C100.017 42.052 100.291 41.384 100.4 40.6802C100.656 39.1487 100.296 37.5781 99.4 36.3102L96.8 32.5702L98 28.4602C98.2539 27.5123 98.2661 26.5159 98.0355 25.562C97.8049 24.6082 97.3389 23.7274 96.68 23.0002C96.0849 22.2857 95.2985 21.7557 94.4129 21.4723C93.5273 21.1889 92.5793 21.1639 91.68 21.4002L87.82 22.5602L84.41 19.6702C83.7313 19.0457 82.8833 18.6357 81.9724 18.4916C81.0615 18.3475 80.1283 18.4757 79.29 18.8602H79.27Z" fill="#FFD324"/>
<path d="M66.1202 42.29C66.063 42.1197 66.0163 41.946 65.9802 41.77C65.9102 41.51 65.9802 41.89 65.9802 41.59C65.9382 41.305 65.9115 41.0179 65.9002 40.73V40.27C65.9002 40.01 65.9002 40.35 65.9002 40.07C65.9292 39.7629 65.9827 39.4586 66.0602 39.16C66.0602 39.03 66.1302 38.9 66.1702 38.78L66.2402 38.59C66.3588 38.3112 66.4958 38.0406 66.6502 37.78C66.7802 37.56 66.5802 37.85 66.7502 37.63L66.9902 37.32C67.1102 37.19 67.2202 37.06 67.3502 36.94C67.4802 36.82 67.6502 36.68 67.4702 36.82C67.6896 36.6421 67.92 36.4785 68.1602 36.33C68.1602 36.33 68.5802 36.11 68.3602 36.22C68.4723 36.1598 68.5894 36.1096 68.7102 36.07C68.8304 36.021 68.9541 35.9809 69.0802 35.95L69.3102 35.89C69.1702 35.89 69.1702 35.89 69.3102 35.89C69.5487 35.8551 69.7892 35.8351 70.0302 35.83H70.2702C70.1502 35.83 70.1402 35.83 70.2702 35.83L70.6902 35.9L71.0002 36C71.0602 36 71.3502 36.11 71.1402 36C71.3979 36.1072 71.6484 36.2308 71.8902 36.37C72.2002 36.55 71.7302 36.22 72.0102 36.45L72.3702 36.77C72.6321 36.9953 72.9724 37.1081 73.317 37.0837C73.6616 37.0594 73.9826 36.8999 74.2102 36.64C74.4307 36.376 74.5403 36.0369 74.516 35.6938C74.4918 35.3507 74.3356 35.0304 74.0802 34.8C72.971 33.8187 71.5485 33.2646 70.0678 33.2372C68.5871 33.2097 67.1451 33.7106 66.0002 34.65C64.8165 35.6723 63.9624 37.0226 63.5459 38.5302C63.1294 40.0378 63.1692 41.635 63.6602 43.12C63.7741 43.4448 64.0103 43.7123 64.3185 43.8655C64.6267 44.0187 64.9826 44.0454 65.3102 43.94C65.6338 43.8239 65.9004 43.5879 66.0549 43.2808C66.2094 42.9737 66.2399 42.619 66.1402 42.29H66.1202Z" fill="#FFD324"/>
<path d="M85.0002 54.6801C86.1462 53.8527 86.9551 52.6396 87.2784 51.2636C87.6018 49.8877 87.4177 48.4412 86.7602 47.1901C85.7553 45.7121 84.4156 44.4924 82.8502 43.6301L73.6702 37.5801C73.6702 37.5801 72.5202 46.5801 75.1102 51.3901C77.7002 56.2001 85.0002 54.6801 85.0002 54.6801Z" fill="#B06553"/>
<path d="M73.3302 38.1501L79.3302 42.1501C81.1551 43.2333 82.9087 44.4324 84.5802 45.7401C85.2468 46.236 85.7915 46.8775 86.1728 47.6157C86.554 48.3539 86.7617 49.1694 86.7802 50.0001C86.7644 50.7977 86.566 51.5812 86.2002 52.2902C85.8344 52.9992 85.311 53.6149 84.6702 54.0901C83.9802 54.5701 84.6702 55.7001 85.3202 55.2101C86.4614 54.397 87.3128 53.2403 87.75 51.909C88.1871 50.5777 88.1872 49.1415 87.7502 47.8101C87.1345 46.3254 86.0899 45.058 84.7502 44.1701C83.2802 43.0501 81.6302 42.0501 80.0002 41.0001L74.0002 37.0001C73.2902 36.5401 72.6402 37.6701 73.3402 38.1301L73.3302 38.1501Z" fill="#3C3F69"/>
<path d="M82.27 53.8201C81.885 53.7766 81.4961 53.8572 81.16 54.0501C80.6742 54.3079 80.2874 54.7193 80.06 55.2201C80.0083 55.3463 79.9864 55.4828 79.9958 55.6189C80.0052 55.755 80.0458 55.8871 80.1144 56.005C80.1831 56.1229 80.2779 56.2235 80.3915 56.2989C80.5052 56.3744 80.6347 56.4227 80.77 56.4401C80.9567 56.4601 81.1454 56.4341 81.3198 56.3644C81.4941 56.2947 81.6487 56.1833 81.77 56.0401C82.22 55.6501 83.17 55.2601 83.05 54.5401C83.0305 54.3455 82.9404 54.1647 82.7967 54.0321C82.6529 53.8994 82.4656 53.824 82.27 53.8201Z" fill="#3C3F69"/>
<path d="M58.1201 30.0501C58.0191 29.8073 57.8638 29.591 57.6662 29.4176C57.4686 29.2443 57.2339 29.1185 56.9801 29.0501C56.405 28.885 55.7951 28.885 55.2201 29.0501C54.774 29.2133 54.3666 29.4675 54.0239 29.7965C53.6812 30.1254 53.4105 30.522 53.229 30.961C53.0476 31.4001 52.9593 31.872 52.9698 32.3469C52.9803 32.8219 53.0894 33.2895 53.2901 33.7201C53.4718 34.0279 53.7327 34.2815 54.0457 34.4543C54.3586 34.6271 54.7122 34.7129 55.0696 34.7027C55.4269 34.6925 55.775 34.5866 56.0776 34.3962C56.3802 34.2058 56.6262 33.9378 56.7901 33.62C57.1801 33.03 57.4001 32.3501 57.7901 31.7601C57.987 31.5272 58.1207 31.2476 58.1785 30.9482C58.2363 30.6487 58.2162 30.3395 58.1201 30.0501Z" fill="#1B2BEF"/>
<path d="M66.4002 25.9301C66.2579 25.7354 66.1616 25.511 66.1183 25.2738C66.075 25.0365 66.0859 24.7926 66.1502 24.5601C66.2925 24.0259 66.5798 23.5414 66.9802 23.1601C67.3183 22.8786 67.7111 22.6703 68.1339 22.5483C68.5566 22.4264 69.0001 22.3936 69.4362 22.4518C69.8723 22.5101 70.2916 22.6583 70.6675 22.8869C71.0434 23.1155 71.3678 23.4197 71.6202 23.7801C71.7678 24.071 71.8381 24.395 71.8242 24.7209C71.8104 25.0468 71.7129 25.3636 71.5411 25.6409C71.3693 25.9182 71.129 26.1466 70.8434 26.3041C70.5577 26.4615 70.2363 26.5429 69.9102 26.5401C69.2502 26.5401 68.6102 26.4401 67.9102 26.4801C67.6326 26.5219 67.3489 26.4935 67.0851 26.3974C66.8213 26.3013 66.5858 26.1407 66.4002 25.9301Z" fill="#1B2BEF"/>
<path d="M77.6701 13.0001C77.6701 13.0001 62.9401 -7.79987 35.5201 4.55013C17.0001 12.8901 15.9001 31.7301 15.8901 31.9301C15.8801 32.1301 2.0001 33.8601 0.200101 50.4101C-0.419899 56.0901 2.6901 63.0001 5.1901 68.0001C8.6501 75.0001 12.0501 82.1501 9.4101 90.0001C8.0001 94.3701 6.8901 99.2501 7.7301 103.9C8.3101 107.11 9.9701 110.9 12.7301 112.9C14.5901 114.17 16.1001 113.82 18.1401 113.21C24.5101 111.31 31.1901 110.76 37.5701 108.88C43.9501 107 50.5701 104.71 56.2301 100.81C57.4292 100.061 58.4525 99.0612 59.2301 97.8801C60.7301 95.3001 58.9501 92.7901 58.1501 90.3101C54.5501 79.1401 45.0101 72.5701 38.1501 63.6001C36.9635 62.0669 35.8747 60.4604 34.8901 58.7901C33.8901 57.0701 33.9901 55.2601 33.8901 53.3201C33.7872 51.0334 33.2313 48.7898 32.2545 46.7195C31.2778 44.6493 29.8996 42.7936 28.2001 41.2601C31.1001 40.2601 40.4801 36.6101 60.2601 24.9001C66.3157 21.3158 72.1314 17.3407 77.6701 13.0001Z" fill="#1B2BEF"/>
<path d="M44.2101 1.00011C50.2322 2.00533 55.9926 4.20394 61.153 7.46676C66.3134 10.7296 70.7697 14.9908 74.2601 20.0001C74.6101 20.5101 75.4601 20.0001 75.1001 19.5001C71.5519 14.3724 67.0144 10.0058 61.7543 6.65703C56.4941 3.30827 50.6176 1.04494 44.4701 0.00011117C43.8501 -0.0998888 43.5901 0.840111 44.2101 0.940111V1.00011Z" fill="#FFD324"/>
<path d="M35 3.06021C46.7623 6.47087 57.0625 13.6835 64.29 23.5702C64.66 24.0702 65.51 23.5702 65.14 23.0802C57.773 12.9544 47.2471 5.56659 35.22 2.08021C35.1002 2.05941 34.9768 2.08395 34.8741 2.14904C34.7713 2.21413 34.6964 2.31512 34.664 2.43237C34.6315 2.54962 34.6439 2.67475 34.6986 2.7834C34.7533 2.89205 34.8465 2.97646 34.96 3.02021L35 3.06021Z" fill="#FFD324"/>
<path d="M24.14 7.26004C27.69 7.41004 31.3 9.56004 34.34 11.26C37.384 12.9437 40.2809 14.8805 43 17.05C48.2882 21.3091 52.842 26.4068 56.48 32.14C56.82 32.67 57.67 32.14 57.33 31.65C53.4843 25.6143 48.6383 20.2779 43 15.87C40.2536 13.7158 37.3337 11.7925 34.27 10.12C31.25 8.45004 27.7 6.44004 24.14 6.29004C23.51 6.29004 23.51 7.29004 24.14 7.29004V7.26004Z" fill="#FFD324"/>
<path d="M17.0702 14.7201C29.5316 17.3467 40.467 24.7531 47.5302 35.3501C47.8802 35.8701 48.7302 35.3501 48.3802 34.8601C41.1848 24.0417 30.039 16.4712 17.3302 13.7701C16.7102 13.6501 16.4502 14.5901 17.0702 14.7701V14.7201Z" fill="#FFD324"/>
<path d="M13.2001 23.0001C22.9279 25.8655 31.2986 32.1382 36.7801 40.6701C37.1201 41.2001 37.9701 40.6701 37.6301 40.1801C32.0245 31.4082 23.4425 24.9531 13.4601 22.0001C12.8601 21.8201 12.6001 22.7701 13.2001 22.9501V23.0001Z" fill="#FFD324"/>
<path d="M15.7701 32.6801C11.2201 35.6095 7.82839 40.0278 6.17415 45.1802C4.51991 50.3326 4.70581 55.8995 6.7001 60.9301C8.7801 66.4401 12.2101 71.3201 14.2401 76.8501C15.4133 80.0016 15.9173 83.363 15.7201 86.7201C15.5001 90.6201 14.5601 94.4201 14.0301 98.2801C13.1601 104.68 13.7201 112.17 19.5201 116.18C20.0301 116.54 20.5201 115.69 20.0101 115.34C14.3701 111.44 14.1801 103.93 15.0801 97.8101C16.0101 91.4501 17.6801 85.1601 15.9001 78.8101C14.4401 73.5701 11.4701 69.0001 9.1401 64.1301C6.7201 59.1301 5.3001 53.7701 6.4101 48.1301C6.98291 45.1528 8.1505 42.3217 9.84298 39.8061C11.5355 37.2906 13.718 35.1424 16.2601 33.4901C16.7901 33.1501 16.2601 32.3001 15.7701 32.6401V32.6801Z" fill="#FFD324"/>
<path d="M20.3702 35.2902C17.0902 39.7902 14.3702 44.9002 13.7902 50.5202C13.2102 55.8602 15.0002 61.0002 17.1302 65.7702C19.4202 70.8302 22.2302 75.7702 23.2802 81.2902C24.5002 87.7302 23.1502 94.2902 23.7802 100.77C24.2802 105.98 26.0402 111.27 30.3502 114.55C30.8502 114.93 31.3502 114.08 30.8502 113.7C26.7402 110.59 25.1402 105.34 24.7202 100.4C24.2202 94.4702 25.2602 88.5102 24.4702 82.5902C23.0902 72.2802 15.0002 63.9402 14.6602 53.4402C14.4202 46.9402 17.4802 40.9002 21.2202 35.7802C21.5902 35.2702 20.7402 34.7802 20.3702 35.2902Z" fill="#FFD324"/>
<path d="M24.8301 38C19.2801 46.86 21.7501 57.72 25.8301 66.63C28.1001 71.63 30.8301 76.44 33.1801 81.46C35.4484 86.4614 36.9421 91.779 37.6101 97.23C38.2801 102.41 38.8901 107.81 42.0601 112.15C42.4201 112.65 43.2701 112.15 42.9001 111.65C40.0001 107.65 39.3001 102.8 38.6901 98.04C38.1757 93.1583 37.0156 88.3664 35.2401 83.79C31.2701 74.12 24.8001 65.39 23.0001 55C22.0001 49.37 22.6001 43.37 25.6801 38.45C26.0101 37.92 25.1701 37.45 24.8301 37.96V38Z" fill="#FFD324"/>
<path d="M29.2002 42.1601C28.1286 51.2161 29.4635 60.3945 33.0702 68.7701C36.9202 77.6901 43.8302 84.4901 49.0002 92.6001C51.8902 97.1501 54.1502 102.19 54.4802 107.6C54.4802 108.23 55.4802 108.23 55.4802 107.6C54.9202 98.1801 49.0702 90.5001 43.4802 83.3201C40.4378 79.5687 37.737 75.5527 35.4102 71.3201C30.7891 62.3171 28.9743 52.1352 30.2002 42.0901C30.2702 41.4601 29.3002 41.4701 29.2002 42.0901V42.1601Z" fill="#FFD324"/>
<path d="M12.85 32.34C20.4887 33.7118 27.287 38.0191 31.79 44.34C32.15 44.85 33 44.34 32.64 43.85C28.0051 37.3094 20.9958 32.841 13.11 31.4C12.49 31.29 12.23 32.23 12.85 32.34Z" fill="#FFD324"/>
<path d="M41.09 61.38C41.09 61.38 26.47 51.86 18.93 61.59C11.39 71.32 29.23 82.22 42.42 77C51.07 73.64 47.05 64.32 41.09 61.38Z" fill="#B06553"/>
<path d="M25.3601 68.0001C25.6318 66.9877 26.2217 66.0893 27.0427 65.4375C27.8637 64.7858 28.8725 64.4151 29.9201 64.3801C32.4701 64.2101 34.8301 65.6401 36.6802 67.2501L37.2002 66.0001C36.3883 65.9471 35.5784 66.1304 34.8685 66.5279C34.1586 66.9255 33.5791 67.5202 33.2002 68.2401C32.8297 68.9716 32.6929 69.7993 32.8084 70.611C32.9239 71.4228 33.2861 72.1795 33.8459 72.7786C34.4057 73.3777 35.1361 73.7902 35.9382 73.9604C36.7403 74.1306 37.5753 74.0503 38.3302 73.7301C39.0837 73.3934 39.7225 72.8441 40.1684 72.1496C40.6143 71.455 40.8477 70.6454 40.8401 69.8201C40.8191 69.64 40.7326 69.4738 40.5971 69.3532C40.4616 69.2326 40.2865 69.166 40.1051 69.166C39.9238 69.166 39.7487 69.2326 39.6132 69.3532C39.4777 69.4738 39.3912 69.64 39.3701 69.8201C39.4061 70.3482 39.2775 70.8745 39.002 71.3265C38.7266 71.7784 38.3177 72.1339 37.8319 72.344C37.346 72.554 36.807 72.6082 36.289 72.4993C35.7711 72.3903 35.2996 72.1235 34.9395 71.7355C34.5795 71.3475 34.3486 70.8574 34.2786 70.3327C34.2085 69.8081 34.3029 69.2746 34.5486 68.8058C34.7943 68.3369 35.1793 67.9558 35.6506 67.7148C36.1218 67.4738 36.6562 67.3849 37.1802 67.4601C37.3236 67.457 37.463 67.4123 37.5814 67.3314C37.6999 67.2505 37.7923 67.137 37.8474 67.0045C37.9025 66.8721 37.9179 66.7265 37.8917 66.5855C37.8656 66.4444 37.799 66.314 37.7002 66.2101C35.4602 64.2101 32.5601 62.5801 29.4801 62.9601C28.1874 63.0685 26.9596 63.5732 25.9645 64.4055C24.9693 65.2377 24.2554 66.3569 23.9201 67.6101C23.7301 68.5301 25.1401 68.9301 25.3401 68.0001H25.3601Z" fill="#3C3F69"/>
</g>
<defs>
<clipPath id="clip0_879_3215">
<rect width="118.85" height="116.27" fill="white"/>
</clipPath>
</defs>
</svg>
