<svg width="187" height="170" viewBox="0 0 187 170" fill="none" xmlns="http://www.w3.org/2000/svg">
<g clip-path="url(#clip0_879_3208)">
<path d="M184.57 83.1699C184.8 98.5999 168.62 110.04 161.57 122.61C154.32 135.61 152.86 155.29 140.11 162.92C127.76 170.33 109.88 162.5 94.4499 162.73C79.0199 162.96 61.3799 171.34 48.8099 164.32C35.8099 157.07 33.8099 137.42 26.1399 124.68C18.7599 112.32 2.23995 101.39 1.99995 85.9999C1.75995 70.6099 17.9999 59.0799 24.9999 46.4999C32.2499 33.4999 33.7099 13.8299 46.4599 6.18993C58.8099 -1.21007 76.6899 6.61993 92.1199 6.38993C107.55 6.15993 125.19 -2.22007 137.76 4.79993C150.76 12.0399 152.76 31.6899 160.43 44.4399C167.81 56.7899 184.33 67.7299 184.57 83.1699Z" fill="#FFF6E8" stroke="#FFD324" stroke-width="4" stroke-miterlimit="10"/>
<path d="M112.45 119.424C131.707 109.069 138.923 85.0626 128.567 65.8056C118.211 46.5486 94.2053 39.3327 74.9482 49.6886C55.6912 60.0444 48.4754 84.0504 58.8312 103.307C69.1871 122.564 93.193 129.78 112.45 119.424Z" fill="#FFD324"/>
<path d="M74.3 69.38C74.2821 70.3073 73.9895 71.2085 73.4594 71.9696C72.9293 72.7307 72.1854 73.3176 71.3218 73.6559C70.4582 73.9943 69.5137 74.069 68.6076 73.8706C67.7016 73.6721 66.8747 73.2095 66.2316 72.5412C65.5884 71.8729 65.1579 71.0289 64.9943 70.1159C64.8308 69.2029 64.9417 68.2619 65.313 67.4119C65.6842 66.5619 66.2992 65.8411 67.08 65.3406C67.8609 64.8401 68.7727 64.5823 69.7 64.6C70.9431 64.6262 72.1251 65.144 72.9873 66.0399C73.8494 66.9358 74.3215 68.1368 74.3 69.38Z" fill="#1B2BEF"/>
<path d="M106.11 68.8899C106.092 69.8177 105.799 70.7193 105.269 71.4805C104.738 72.2418 103.994 72.8286 103.129 73.1666C102.265 73.5047 101.32 73.5787 100.414 73.3795C99.5076 73.1802 98.6808 72.7166 98.0381 72.0473C97.3954 71.378 96.9656 70.5331 96.8033 69.6194C96.6409 68.7058 96.7533 67.7645 97.1261 66.9148C97.4988 66.065 98.1153 65.3449 98.8975 64.8456C99.6796 64.3464 100.592 64.0903 101.52 64.1099C102.762 64.1362 103.943 64.6543 104.804 65.5505C105.664 66.4467 106.134 67.6477 106.11 68.8899Z" fill="#1B2BEF"/>
<path d="M93 79.4899C93.218 78.8091 93.3029 78.0928 93.25 77.3799C93.2389 76.8617 93.1138 76.3523 92.8836 75.8878C92.6534 75.4234 92.3238 75.0154 91.9181 74.6927C91.5124 74.3701 91.0406 74.1408 90.5363 74.021C90.032 73.9013 89.5074 73.8941 89 73.9999C87.66 74.3099 86.76 75.3299 85.62 75.9999C85.0702 76.3115 84.4601 76.5022 83.8307 76.5591C83.2012 76.616 82.5669 76.5379 81.97 76.3299C80.83 75.9399 79.89 75.1299 78.72 74.8199C78.2103 74.6676 77.6712 74.6408 77.1489 74.7418C76.6265 74.8428 76.1363 75.0686 75.72 75.3999C75.2413 75.8427 74.878 76.3957 74.6619 77.011C74.4457 77.6263 74.3833 78.285 74.48 78.9299C74.76 82.1499 77.91 84.0899 80.74 84.8599C82.2638 85.3154 83.8682 85.435 85.4427 85.2106C87.0171 84.9862 88.5242 84.423 89.86 83.5599C91.3169 82.5759 92.4179 81.1487 93 79.4899Z" fill="#1B2BEF"/>
<path d="M86.3901 78.32C84.5218 78.6441 82.7329 79.323 81.1201 80.32C80.3255 80.828 79.611 81.4515 79.0001 82.17C78.5682 82.6242 78.1736 83.1124 77.8201 83.63C78.7301 84.1671 79.7091 84.5775 80.7301 84.85C82.2538 85.3055 83.8582 85.4251 85.4327 85.2007C87.0072 84.9763 88.5143 84.4131 89.8501 83.55C91.3089 82.5702 92.4134 81.1465 93.0001 79.49C93.1169 79.109 93.194 78.7169 93.2301 78.32C90.965 77.9506 88.6551 77.9506 86.3901 78.32Z" fill="#FF8A82"/>
</g>
<defs>
<clipPath id="clip0_879_3208">
<rect width="186.57" height="169.12" fill="white"/>
</clipPath>
</defs>
</svg>
