<svg width="97" height="154" viewBox="0 0 97 154" fill="none" xmlns="http://www.w3.org/2000/svg">
<g clip-path="url(#clip0_879_3204)">
<path fill-rule="evenodd" clip-rule="evenodd" d="M29.1299 119.31C35.9099 116.53 41.0299 116.44 48.2399 116.7C52.5999 116.85 57.1099 117.16 61.4699 117.01C63.1899 116.96 65.9599 116.01 67.4699 117.13C69.9199 118.86 69.8499 122.04 69.7799 124.73C69.6874 129.835 69.3303 134.932 68.7099 140C68.3599 142.64 67.7099 145.92 65.3899 147.59C61.6699 150.32 57.1599 149.96 52.7999 150.08C48.1099 150.2 42.6799 150.61 38.2199 148.64C27.7899 144.04 27.4499 127.64 28.7899 118.54" fill="white"/>
<path fill-rule="evenodd" clip-rule="evenodd" d="M28.9099 117.16C29.3099 113.67 28.4199 110.66 27.9099 107.26C27.3999 103.86 27.9099 100.26 26.6899 96.88C22.7799 85.88 14.1999 77.13 8.90991 66.88C4.79991 58.89 2.74991 48.33 2.99991 39.44C3.13991 35.29 4.09991 30.05 6.82991 26.75C8.65991 24.53 11.2399 23 13.2499 20.94C16.9099 17.16 20.6099 13.58 25.2499 10.94C35.9999 4.89003 49.7199 5.23003 61.3099 7.62003C67.2199 8.85003 73.7499 10.62 78.5399 14.52C91.7799 25.35 91.8099 39.59 90.1499 55C89.5199 60.81 88.5099 67.31 86.2799 72.74C83.5899 79.26 79.5799 85.09 76.5099 91.41C74.6425 95.543 73.1337 99.8288 71.9999 104.22C71.2999 106.62 70.6199 109.85 68.5999 111.55C63.7699 115.55 55.6799 114.41 49.9399 114.81C44.5399 115.18 39.4199 116.61 33.9399 116.3" fill="#F1CE30"/>
<path fill-rule="evenodd" clip-rule="evenodd" d="M64.4201 36.4499L64.3401 36.5799C61.8901 40.7699 61.2301 46.0699 60.7301 50.9099C61.3563 49.8029 61.9043 48.6534 62.3701 47.4699C63.6501 44.1199 64.7501 40.0799 64.4201 36.4499ZM31.8801 40.4499C31.4122 41.5747 31.2735 42.8093 31.4801 44.0099C31.7544 48.0462 33.5101 51.839 36.4101 54.6599L36.7201 54.9399L36.5001 53.5999C36.2601 52.1899 35.9701 50.7899 35.6201 49.3999C35.43 48.5376 35.193 47.6863 34.9101 46.8499C34.6901 46.1799 34.3801 45.2499 34.1201 44.5899C33.6293 43.3361 33.0163 42.1337 32.2901 40.9999C32.1901 40.7999 32.0001 40.6099 31.8801 40.4299V40.4499ZM52.1501 111.07C52.0401 101.88 52.5101 97.8099 52.2001 87.3699C52.0101 81.0899 51.8001 74.7599 51.8301 68.4299C50.7378 68.6829 49.6213 68.817 48.5001 68.8299C47.7599 68.8368 47.0205 68.78 46.2901 68.6599C46.5501 72.0199 46.7501 75.3799 46.9501 78.7299C47.5801 89.3899 48.2701 100.61 46.3101 111.24H47.3801C49.0001 111.19 50.5801 111.13 52.1501 111.05V111.07ZM66.4201 110.35C66.5201 98.6899 72.0001 88.4599 78.0901 78.7399C80.8701 74.2899 87.0901 65.1699 88.2401 52.8299C89.6501 37.4199 85.0001 20.8999 71.4301 13.5099C69.0801 12.2299 62.8501 8.6399 50.8001 8.0599C38.5601 7.4599 27.8001 11.5099 24.0701 13.6999C10.7501 21.5999 6.91009 38.2499 8.24009 52.7599C9.36009 64.9999 16.4001 73.7999 19.3301 78.1199C26.1101 88.1199 32.2301 98.6899 32.1901 111.12V111.2C34.1901 111.2 36.1901 111.2 38.1901 111.2C40.4401 100.78 39.6301 89.6499 39.0101 79.1199C38.7401 74.5899 38.4801 70.0399 38.0701 65.5099C35.553 64.1167 33.2043 62.4391 31.0701 60.5099C26.7084 56.3291 24.0447 50.6846 23.5901 44.6599C23.2701 40.9499 24.1501 36.5399 27.0501 33.8699C27.7156 33.2075 28.5096 32.6884 29.3832 32.3444C30.2569 32.0005 31.1917 31.839 32.1301 31.8699C33.7628 31.9608 35.3184 32.5943 36.5501 33.6699C38.9101 35.6699 40.8401 39.6699 41.6401 41.6699C41.9501 42.4699 42.3401 43.6099 42.6401 44.4199C42.9854 45.4301 43.2759 46.4583 43.5101 47.4999C43.9001 49.0799 44.2301 50.6699 44.5101 52.2699C44.9701 54.9599 45.3401 57.6599 45.6501 60.3699C46.586 60.6784 47.5647 60.837 48.5501 60.8399C49.7988 60.8105 51.0252 60.5031 52.1401 59.9399C52.2701 57.0899 52.4701 54.2499 52.7601 51.4299C53.4001 45.1699 54.3201 38.1099 57.5501 32.5799C58.5209 30.853 59.8674 29.3664 61.4901 28.2299C62.3883 27.6243 63.4253 27.2563 64.5042 27.1601C65.5832 27.0639 66.669 27.2428 67.6601 27.6799C70.6601 28.9999 72.2001 32.6799 72.4901 35.5699C72.9701 40.4199 71.6701 45.8599 69.9601 50.3599C67.8458 55.7411 64.4429 60.5209 60.0501 64.2799C59.8701 71.8899 60.1401 79.5399 60.3701 87.0999C60.6801 97.4499 60.2101 101.55 60.3101 110.57C62.2201 110.46 64.3101 110.37 66.4201 110.33V110.35ZM66.6101 118.35C60.1701 118.42 54.0501 119.14 47.4801 119.23C42.1201 119.29 37.1801 119.3 31.9901 119.23C31.9901 121.05 32.0501 123.35 32.1301 125.87L66.5801 120.67C66.5801 120.22 66.5801 119.82 66.5801 119.47L66.6101 118.35ZM66.2301 128.82L32.4501 133.92C32.5201 135.52 32.5901 137.09 32.6701 138.57L66.0001 133.85C66.0501 132.15 66.1401 130.44 66.2301 128.8V128.82ZM65.4801 142L46.1001 144.73L65.3301 144.44C65.3701 143.7 65.4201 142.88 65.4801 142ZM24.1901 111.1H24.0001L23.8601 119.1H24.0001C24.0001 121.24 24.0701 124.03 24.1801 127.1L19.2601 127.85L20.4601 135.76L24.4601 135.14C24.5301 136.72 24.6101 138.26 24.6801 139.72L20.6201 140.29L21.7401 148.21L25.0901 147.74C25.1401 148.74 25.1701 149.26 25.1701 149.26L25.3901 153.09L72.8001 152.37L73.0401 148.68C73.0401 148.68 73.2501 145.35 73.5201 140.89L79.6701 140.02L78.5501 132.1L73.9801 132.75C74.0801 131 74.1701 129.26 74.2501 127.62L80.4601 126.68L79.2701 118.77L74.5601 119.48V115.57L74.4201 111.9C73.9801 101.12 79.2801 91.8999 84.8401 82.9999C87.9901 77.9999 94.9001 67.5699 96.1801 53.5799C97.8801 35.0299 91.6001 15.4299 75.1801 6.5199C72.5101 4.9999 65.2501 0.749903 51.1901 0.0699027C36.8901 -0.630097 24.3101 4.2499 20.0001 6.8199C4.00009 16.3099 -1.32991 35.9999 0.270091 53.4799C1.56009 67.5299 9.35009 77.6699 12.7101 82.6199C18.5901 91.2699 24.2201 100.31 24.1901 111.1Z" fill="#355DFA"/>
</g>
<defs>
<clipPath id="clip0_879_3204">
<rect width="96.48" height="153.05" fill="white"/>
</clipPath>
</defs>
</svg>
