<svg width="124" height="124" viewBox="0 0 124 124" fill="none" xmlns="http://www.w3.org/2000/svg">
<g clip-path="url(#clip0_879_3196)">
<path d="M66.0702 119.856C98.0235 117.605 122.102 89.8766 119.851 57.9232C117.599 25.9699 89.8712 1.89162 57.9179 4.14282C25.9646 6.39403 1.88624 34.1223 4.13745 66.0756C6.38866 98.0289 34.1169 122.107 66.0702 119.856Z" fill="#F1CE30"/>
<path fill-rule="evenodd" clip-rule="evenodd" d="M62 8C72.6802 8 83.1206 11.167 92.0008 17.1006C100.881 23.0342 107.802 31.4679 111.89 41.3351C115.977 51.2023 117.046 62.0599 114.962 72.5349C112.879 83.0098 107.736 92.6317 100.184 100.184C92.6318 107.736 83.0099 112.879 72.5349 114.962C62.0599 117.046 51.2023 115.977 41.3351 111.889C31.4679 107.802 23.0343 100.881 17.1007 92.0008C11.1671 83.1205 8.00003 72.6802 8.00003 62C8.00003 47.6783 13.6893 33.9432 23.8163 23.8162C33.9432 13.6893 47.6783 8 62 8ZM62 0C49.7376 0 37.7505 3.63624 27.5547 10.4489C17.3588 17.2615 9.41213 26.9446 4.7195 38.2736C0.0268636 49.6026 -1.20094 62.0688 1.19134 74.0956C3.58362 86.1224 9.48855 97.1698 18.1594 105.841C26.8303 114.511 37.8776 120.416 49.9044 122.809C61.9312 125.201 74.3974 123.973 85.7264 119.281C97.0554 114.588 106.739 106.641 113.551 96.4454C120.364 86.2495 124 74.2624 124 62C124 45.5566 117.468 29.7866 105.841 18.1594C94.2134 6.53212 78.4435 0 62 0V0Z" fill="#355DFA"/>
<path fill-rule="evenodd" clip-rule="evenodd" d="M41.74 44.42C42.9609 43.8527 44.2862 43.5447 45.6322 43.5155C46.9781 43.4862 48.3155 43.7363 49.56 44.25C50.7987 44.6392 51.9355 45.2985 52.8883 46.1805C53.8412 47.0625 54.5863 48.145 55.07 49.35L56.33 53.14L63.92 50.62L62.66 46.82C61.7964 44.48 60.422 42.3619 58.6368 40.62C56.8515 38.878 54.7004 37.5559 52.34 36.75C50.039 35.8506 47.5764 35.4387 45.1081 35.5402C42.6397 35.6418 40.2193 36.2546 38 37.34L34.48 39.2L38.2 46.28L41.74 44.42Z" fill="#355DFA"/>
<path fill-rule="evenodd" clip-rule="evenodd" d="M92.5201 48.6499C95.6001 50.1199 95.7301 56.2399 92.8201 62.2899C89.9101 68.3399 85.0601 72.0599 82.0001 70.5799C78.9401 69.0999 78.7901 62.9899 81.7001 56.9399C84.6101 50.8899 89.4501 47.1699 92.5201 48.6499Z" fill="#355DFA"/>
<path fill-rule="evenodd" clip-rule="evenodd" d="M32.9399 53.1199C40.5499 50.9999 40.3899 66.1999 54.4099 73.0499C66.1999 78.8099 83.3299 74.7599 84.5199 82.6099C86.3999 95.0799 60.1199 103.38 43.2099 93.7999C21.6299 81.5699 26.8499 54.8199 32.9399 53.1199Z" fill="#355DFA"/>
<path fill-rule="evenodd" clip-rule="evenodd" d="M20.6599 73.83C23.9099 71.45 29.3399 72.74 32.9199 73.55C39.8699 75.12 45.6499 78 49.9999 83.76C51.5901 85.8796 52.8603 88.2213 53.7699 90.71C55.2999 94.79 55.5799 100.25 50.8699 102.24C50.1665 102.568 49.4237 102.803 48.6599 102.94C47.1493 103.195 45.6094 103.225 44.0899 103.03C40.3299 102.58 36.8499 100.18 34.0899 97.69C31.3062 94.9375 28.8743 91.8507 26.8499 88.5" fill="#DC4949"/>
</g>
<defs>
<clipPath id="clip0_879_3196">
<rect width="124" height="124" fill="white"/>
</clipPath>
</defs>
</svg>
