<svg width="143" height="106" viewBox="0 0 143 106" fill="none" xmlns="http://www.w3.org/2000/svg">
<g filter="url(#filter0_d_879_3181)">
<path fill-rule="evenodd" clip-rule="evenodd" d="M125.31 11.2039C123.515 9.48855 121.39 8.15742 119.066 7.29141C116.742 6.4254 114.266 6.04258 111.789 6.16624L34.4881 9.97352C29.7992 10.2096 25.38 12.2442 22.1444 15.6566C18.9088 19.069 17.1043 23.5982 17.104 28.3076V55.7674C17.1045 56.718 17.1787 57.667 17.3262 58.6059C15.7374 60.5435 14.7041 62.9945 12.8498 64.685C11.5363 65.8814 9.46951 66.5402 7.89046 67.2958L6.14722 68.1338L6.18102 68.2065L6.32589 70.144C6.80878 76.5331 8.45061 81.7693 11.7439 86.4194C12.4591 87.5333 13.2497 88.5966 14.1101 89.6019C14.8855 90.4945 15.9071 91.1367 17.0461 91.4474C18.0119 91.6508 19.0791 91.3214 19.9434 91.026C20.8078 90.7305 21.6577 90.3914 22.5028 90.0572C25.883 93.6416 30.1518 94.3876 34.5316 93.7191C38.5348 93.1088 42.6394 91.2972 46.0872 89.6503C47.3475 89.0593 48.5886 88.4151 49.8441 87.7999L50.8727 87.3156C52.6068 87.4819 54.3552 87.42 56.0734 87.1315C58.3623 86.8118 61.2597 86.0126 63.0029 84.3753C63.5019 83.8768 63.9382 83.3188 64.3019 82.7139C65.1698 81.4136 65.57 79.8554 65.4367 78.2963C65.3884 77.5164 65.2339 76.7172 65.1131 75.8743L111.669 78.4707C114.153 78.609 116.64 78.2376 118.976 77.3793C121.313 76.5209 123.45 75.1937 125.258 73.4786C127.066 71.7635 128.506 69.6966 129.491 67.4043C130.475 65.112 130.984 62.6423 130.984 60.1463V24.4954C130.986 22.0099 130.484 19.5499 129.508 17.2651C128.533 14.9802 127.105 12.918 125.31 11.2039Z" fill="#F9F9F9"/>
<path d="M125.31 11.2039C123.515 9.48855 121.39 8.15742 119.066 7.29141C116.742 6.4254 114.266 6.04258 111.789 6.16624L34.4881 9.97352C29.7992 10.2096 25.38 12.2442 22.1444 15.6566C18.9088 19.069 17.1043 23.5982 17.104 28.3076V55.7674C17.1045 56.718 17.1787 57.667 17.3262 58.606C15.7374 60.5435 14.7041 62.9945 12.8498 64.685C11.5363 65.8814 9.46951 66.5402 7.89046 67.2958L6.14722 68.1338L6.18102 68.2065L6.32589 70.144C6.80878 76.5331 8.45061 81.7693 11.7439 86.4194C12.4591 87.5333 13.2497 88.5966 14.1101 89.6019C14.8855 90.4945 15.9071 91.1367 17.0461 91.4474C18.0119 91.6508 19.0791 91.3214 19.9434 91.026C20.8078 90.7305 21.6577 90.3914 22.5028 90.0572C25.883 93.6416 30.1518 94.3876 34.5316 93.7191C38.5348 93.1088 42.6394 91.2972 46.0872 89.6503C47.3475 89.0593 48.5886 88.4151 49.8441 87.7999L50.8727 87.3156C52.6068 87.4819 54.3552 87.42 56.0734 87.1315C58.3623 86.8118 61.2597 86.0126 63.0029 84.3753C63.5019 83.8768 63.9382 83.3188 64.3019 82.7139C65.1698 81.4135 65.57 79.8554 65.4367 78.2963C65.3884 77.5164 65.2339 76.7172 65.1131 75.8743L111.669 78.4707C114.153 78.609 116.64 78.2376 118.976 77.3793C121.313 76.5209 123.45 75.1937 125.258 73.4786C127.066 71.7635 128.506 69.6966 129.491 67.4043C130.475 65.112 130.984 62.6423 130.984 60.1463V24.4954C130.986 22.0099 130.484 19.5499 129.508 17.2651C128.533 14.9802 127.105 12.918 125.31 11.2039V11.2039Z" stroke="white" stroke-width="10" stroke-linecap="round" stroke-linejoin="round"/>
<path fill-rule="evenodd" clip-rule="evenodd" d="M130.994 24.4954C130.993 22.0097 130.489 19.5501 129.512 17.2657C128.535 14.9813 127.106 12.9196 125.311 11.2058C123.516 9.49191 121.393 8.16151 119.071 7.29523C116.748 6.42895 114.274 6.04484 111.799 6.16617L34.4881 9.97345C29.7992 10.2095 25.38 12.2441 22.1444 15.6565C18.9088 19.0689 17.1043 23.5981 17.104 28.3075V55.7674C17.1 60.457 18.8854 64.9704 22.0938 68.3814C25.3021 71.7925 29.6902 73.8426 34.3577 74.1111L111.669 78.4706C114.153 78.6089 116.64 78.2375 118.976 77.3792C121.313 76.5209 123.45 75.1936 125.258 73.4785C127.066 71.7635 128.506 69.6966 129.491 67.4042C130.475 65.1119 130.984 62.6423 130.984 60.1462L130.994 24.4954Z" fill="#DC4949"/>
<path fill-rule="evenodd" clip-rule="evenodd" d="M8.17065 69.8001C8.70666 75.855 10.2471 84.666 15.6651 88.4248C18.3307 90.2703 20.6776 87.6837 23.4349 88.3376C26.7716 89.1271 28.6066 91.8203 32.4553 92.0335C34.8697 92.1691 37.0041 91.1906 39.2158 90.3672C42.398 89.1804 45.6286 88.2359 48.7384 86.8602C50.5045 86.0515 52.3757 85.497 54.2965 85.2133C56.059 85.0002 58.1017 85.0389 59.6855 84.1428C63.8819 81.7596 62.4187 78.7806 63.5052 75.0702C64.0943 73.0455 65.3257 71.1467 65.2919 68.9815C65.2919 68.0127 64.809 67.1457 64.7559 66.1914C64.669 64.2539 65.1712 62.0645 64.5 60.1996C63.9736 58.7464 62.1338 57.7776 61.7861 56.3245C61.4819 55.0699 62.5539 54.1108 62.7519 52.9338C63.1527 50.5506 60.9459 48.5355 58.8888 47.9979C53.8281 46.6803 48.1541 47.9688 43.0789 48.3224C41.3501 48.4435 38.9019 49.9257 37.2842 48.8843C35.9852 48.056 35.8983 45.668 35.3961 44.3601C34.7732 42.7326 34.58 40.9694 33.9474 39.3612C32.4987 35.5685 26.931 30.434 22.6188 32.9044C20.3106 34.2267 22.2325 37.6804 22.9665 39.4C25.0236 44.1761 26.6026 49.732 23.5266 54.5855C22.5608 56.1307 21.2136 57.3756 20.0884 58.7948C18.21 61.1635 16.4571 63.6726 14.1489 65.6441C12.4298 67.0972 8.88051 68.066 8.4459 70.6284C7.72639 74.9007 10.7928 78.7855 12.1545 82.5201" fill="#F1CDDC"/>
<path fill-rule="evenodd" clip-rule="evenodd" d="M24.5986 42.0109C25.675 41.6608 26.7136 41.2032 27.6988 40.6449C28.213 40.4182 28.6544 40.0526 28.9736 39.589C29.529 38.4749 28.6356 37.0895 27.9209 36.2855C26.0618 34.1978 23.4735 33.7182 21.3826 35.8447" fill="#DC4949"/>
<path fill-rule="evenodd" clip-rule="evenodd" d="M57.8022 55.7288H57.7539C55.5712 56.4941 53.1664 56.7363 50.9065 57.0221C49.0155 57.3253 47.1105 57.5322 45.1987 57.6421C43.9094 57.6421 42.2627 57.8795 41.0458 57.3224C40.9589 57.2885 40.9348 57.1819 40.8817 57.1044C40.7464 56.901 40.6354 56.683 40.5243 56.4796C40.1451 55.7571 39.8765 54.9815 39.7275 54.1788C39.5718 53.6092 39.6109 53.0038 39.8386 52.4592C40.4036 51.4371 41.7702 50.8171 42.736 50.5749H42.8229L42.9001 50.5459C46.3034 49.4554 49.8726 48.9798 53.4417 49.1411C55.2525 49.1896 57.102 49.2864 58.8307 49.921C60.5595 50.5555 62.4669 52.2896 61.0182 54.1061C60.3277 54.9731 59.0384 55.2928 58.0629 55.661L57.8022 55.7288ZM44.7303 61.5172L42.7987 61.7013C42.1275 61.7642 41.1955 61.6335 40.7175 62.5974C40.3939 63.2562 40.5726 64.2298 40.7754 64.8498C40.9856 65.5915 41.2371 66.3209 41.5287 67.0344C41.66 67.4376 41.9196 67.7864 42.2676 68.0274C42.7894 68.2447 43.345 68.3693 43.9094 68.3955C45.841 68.6425 47.7725 68.1678 49.6655 67.8772C53.6348 67.2524 58.4589 66.6033 61.8923 64.3848C62.3293 64.1084 62.7163 63.7595 63.0367 63.353C63.2586 63.1174 63.431 62.8395 63.5438 62.5358C63.6566 62.2321 63.7075 61.9088 63.6935 61.585C63.6017 60.9795 63.1043 60.4758 62.2979 59.9962C61.626 59.6172 60.8755 59.3999 60.1056 59.3617L58.6569 59.5312C56.3245 60.282 53.7942 60.5775 51.4135 60.8827C49.3814 61.1987 47.3345 61.4105 45.2808 61.5172H44.7303ZM63.3458 68.0467C59.5454 70.241 54.4992 71.0451 50.2739 71.7087C48.2699 72.0236 46.1597 72.4401 44.1122 72.3093C44.0789 72.8272 44.1512 73.3463 44.3247 73.8352C44.4083 74.2195 44.572 74.5817 44.805 74.8981C45.038 75.2145 45.3351 75.4779 45.6768 75.671C46.3763 75.9007 47.123 75.9458 47.845 75.8018C48.9846 75.6807 50.129 75.4288 51.0224 75.3174C54.4606 74.8766 57.7829 74.5811 60.941 72.9826C62.718 72.0817 63.9397 70.9579 63.6307 68.8557C63.5813 68.5705 63.485 68.2955 63.3458 68.0419V68.0467ZM61.3659 77.0176C58.2175 78.3206 54.9193 78.6936 51.5149 79.1295C50.694 79.2361 49.6703 79.4492 48.6176 79.5848L48.6707 79.9966C48.7784 80.7046 48.9646 81.3984 49.226 82.0649C49.564 82.9949 50.4139 83.2856 51.3025 83.4163C52.7044 83.5523 54.1183 83.492 55.5036 83.2371C57.0778 83.0143 59.1253 82.6171 60.3325 81.4885C60.6054 81.195 60.8421 80.8698 61.0376 80.5197C61.5263 79.7491 61.6993 78.8189 61.5205 77.9234C61.4625 77.6618 61.4142 77.3518 61.3659 77.0176ZM31.3059 77.0176C30.3124 78.1784 29.1766 79.2086 27.9257 80.0838L26.3418 81.193L24.1446 77.9864L25.7285 76.8771C28.5824 74.8814 30.3594 72.0332 31.9095 68.9719C33.7687 65.3003 34.5123 61.2217 34.8841 57.1626C35.3187 52.3768 35.2173 47.6734 33.7638 43.0524C33.2456 41.2393 32.5281 39.4896 31.6246 37.8355C30.4222 35.8156 28.7562 34.2026 26.0762 33.9459C25.4769 33.8813 24.8719 33.891 24.275 33.975C24.0904 33.9946 23.9078 34.0303 23.7293 34.0815L23.7873 34.285C24.1688 35.6606 24.5744 37.0218 24.9317 38.4023C25.4581 40.4173 26.0134 42.413 26.6798 44.3893C27.9208 48.0658 26.8343 52.5803 25.574 55.7579L25.3615 56.2907L24.8786 56.6249C23.138 57.8589 21.5889 59.3442 20.2815 61.0328C18.5672 63.1012 17.3841 65.712 15.4091 67.5285C14.0184 68.8024 11.9468 69.6501 10.1891 70.4348C10.6719 75.763 12.0627 80.2 14.849 84.1284C15.3029 84.7726 15.8679 85.6978 16.5343 86.5067C16.8326 86.9768 17.2557 87.3543 17.756 87.5966C17.8815 87.5578 18.4079 87.398 18.6541 87.3156C19.9821 86.8603 21.2714 86.2887 22.5801 85.7801L24.3812 85.0778L25.2553 87.335C27.6697 89.8974 30.7699 90.3092 33.9039 89.8345C37.5449 89.2823 41.2631 87.5675 44.3971 86.0901C45.1118 85.7559 45.8168 85.4023 46.5218 85.0536C46.1186 84.5494 45.802 83.9814 45.585 83.3727C45.2274 82.4346 44.9732 81.46 44.8269 80.4664L44.7158 79.4395C44.4876 79.3708 44.2648 79.285 44.0494 79.1828C43.2158 78.7596 42.4802 78.1653 41.8904 77.4385C41.3005 76.7116 40.8697 75.8685 40.6257 74.9638C40.2738 73.8147 40.1912 72.5996 40.3843 71.4132C39.5119 70.9052 38.7991 70.1617 38.3272 69.2674C37.8388 68.2872 37.4459 67.262 37.1537 66.2061C36.6875 67.7761 36.0831 69.3015 35.3477 70.7642C34.8648 71.7329 34.3433 72.6726 33.7928 73.5833C37.2069 74.4067 40.3408 75.9713 41.6881 78.9115L42.4945 80.6699L38.9791 82.2829L38.1775 80.5197C37.6441 79.4911 36.7622 78.6872 35.6906 78.2528C34.2918 77.6431 32.8166 77.2275 31.3059 77.0176ZM6.16173 68.2066L6.3066 70.1441C6.78949 76.5332 8.43132 81.7694 11.7246 86.4195C12.4398 87.5334 13.2304 88.5967 14.0908 89.602C14.8662 90.4946 15.8879 91.1368 17.0268 91.4475C17.9926 91.6509 19.0598 91.3215 19.9241 91.0261C20.7885 90.7306 21.6384 90.3915 22.4835 90.0573C25.8637 93.6417 30.1325 94.3877 34.5123 93.7192C38.5155 93.1089 42.6201 91.2973 46.0679 89.6504C47.3283 89.0594 48.5693 88.4152 49.8248 87.8L50.8534 87.3156C52.5875 87.482 54.3359 87.4201 56.0541 87.1316C58.343 86.8119 61.2404 86.0126 62.9836 84.3754C63.4826 83.8769 63.9189 83.3189 64.2826 82.714C65.1505 81.4136 65.5507 79.8555 65.4174 78.2964C65.3546 77.2598 65.0987 76.2038 64.9924 75.0074C66.924 73.4186 67.8898 71.326 67.46 68.318C67.2764 67.3685 66.9247 66.4597 66.4218 65.6345L66.3252 65.465C67.2888 64.2078 67.7223 62.6217 67.5325 61.0474C67.3007 59.4925 66.3542 57.9279 64.2826 56.6879L64.0363 56.5522V56.5183C67.4166 52.309 64.0363 47.6977 60.1732 46.2784C58.0436 45.4985 55.7885 45.3096 53.5576 45.2612C49.5629 45.089 45.5694 45.6252 41.7605 46.8451C40.6833 47.129 39.6625 47.5959 38.7424 48.2256C38.5198 46.0884 38.0846 43.9789 37.4435 41.9286C35.7051 36.3872 32.9477 30.7296 26.4142 30.1144C25.2753 29.9917 24.1242 30.0538 23.005 30.2985C22.029 30.5079 21.1416 31.0156 20.465 31.7516C19.5813 32.7834 19.7117 34.1736 20.04 35.3313C20.4167 36.6827 20.8175 38.0245 21.17 39.3807C21.7302 41.483 22.3 43.5949 22.9953 45.6293C23.879 48.2547 23.0581 51.442 22.1599 53.8058C20.3471 55.175 18.7233 56.7794 17.331 58.577C15.7278 60.5145 14.6944 62.9849 12.8305 64.6851C11.517 65.8815 9.45023 66.5403 7.87117 67.2959L6.12793 68.1339L6.16173 68.2066Z" fill="#355DFA"/>
</g>
<defs>
<filter id="filter0_d_879_3181" x="0.145996" y="0.143555" width="142.838" height="105.793" filterUnits="userSpaceOnUse" color-interpolation-filters="sRGB">
<feFlood flood-opacity="0" result="BackgroundImageFix"/>
<feColorMatrix in="SourceAlpha" type="matrix" values="0 0 0 0 0 0 0 0 0 0 0 0 0 0 0 0 0 0 127 0" result="hardAlpha"/>
<feOffset dx="3" dy="3"/>
<feGaussianBlur stdDeviation="2"/>
<feColorMatrix type="matrix" values="0 0 0 0 0 0 0 0 0 0 0 0 0 0 0 0 0 0 0.25 0"/>
<feBlend mode="normal" in2="BackgroundImageFix" result="effect1_dropShadow_879_3181"/>
<feBlend mode="normal" in="SourceGraphic" in2="effect1_dropShadow_879_3181" result="shape"/>
</filter>
</defs>
</svg>
