<svg width="240" height="80" viewBox="0 0 240 80" fill="none" xmlns="http://www.w3.org/2000/svg">
<path d="M230.963 32.4405H201.403C199.017 32.4405 196.729 33.3876 195.042 35.0735C193.355 36.7593 192.407 39.0458 192.407 41.43V41.7797C190.199 38.8742 187.347 36.5192 184.076 34.8989C180.805 33.2787 177.202 32.4372 173.551 32.4405C169.158 32.4404 164.852 33.6597 161.112 35.9626C157.371 38.2654 154.345 41.5612 152.37 45.4824C150.59 41.2901 147.518 37.7747 143.601 35.4475C139.684 33.1204 135.126 32.103 130.591 32.5433C126.846 32.9542 123.277 34.3489 120.247 36.5855C117.217 38.8221 114.834 41.8209 113.341 45.2767C111.348 41.4157 108.332 38.1762 104.622 35.9124C100.911 33.6486 96.6499 32.4476 92.3028 32.4405C86.6013 32.4366 81.09 34.4892 76.7817 38.2209V21.394C76.7654 15.7414 74.5112 10.325 70.5114 6.32796C66.5117 2.33097 61.0916 0.0782939 55.4352 0.0620117C49.7768 0.0782655 44.3545 2.33029 40.3515 6.32671C36.3485 10.3231 34.0897 15.7395 34.068 21.394V37.3364H21.3465C15.6901 37.3526 10.27 39.6053 6.27024 43.6023C2.27051 47.5993 0.0162933 53.0157 0 58.6683C0.0216868 64.3192 2.27764 69.7325 6.27621 73.7283C10.2748 77.7242 15.6918 79.9786 21.3465 80.0003H55.4146C58.9458 79.994 62.4204 79.1133 65.5277 77.4369C68.6349 75.7605 71.2781 73.3406 73.2206 70.3937C75.4229 73.375 78.2952 75.7975 81.6062 77.4662C84.9171 79.1348 88.574 80.0028 92.2822 80.0003C96.0423 80.0004 99.7485 79.1069 103.095 77.3937C106.442 75.6804 109.332 73.1965 111.529 70.1468C111.925 72.8856 113.297 75.3898 115.392 77.1997C117.486 79.0097 120.164 80.004 122.933 80.0003H142.551C145.395 80.0014 148.139 78.9517 150.256 77.053C152.372 75.1544 153.712 72.5408 154.016 69.7149C156.199 72.8832 159.119 75.4744 162.526 77.266C165.932 79.0576 169.723 79.9959 173.572 80.0003C177.223 80.0035 180.825 79.1621 184.097 77.5418C187.368 75.9216 190.219 73.5665 192.428 70.6611V70.9902C192.428 72.7682 192.955 74.5061 193.944 75.9844C194.932 77.4626 196.337 78.6148 197.981 79.2952C199.625 79.9756 201.433 80.1536 203.178 79.8067C204.923 79.4599 206.526 78.6038 207.784 77.3466L237.303 47.848C238.581 46.5955 239.456 44.9902 239.816 43.2379C240.176 41.4854 240.005 39.6656 239.324 38.011C238.643 36.3565 237.484 34.9426 235.994 33.9502C234.505 32.9579 232.753 32.4322 230.963 32.4405Z" fill="white"/>
<g style="mix-blend-mode:multiply">
<path d="M55.4146 37.2539H21.3466C9.55718 37.2539 0 46.8045 0 58.5859C0 70.3672 9.55718 79.9178 21.3466 79.9178H55.4146C67.204 79.9178 76.7612 70.3672 76.7612 58.5859C76.7612 46.8045 67.204 37.2539 55.4146 37.2539Z" fill="#F84C40"/>
</g>
<g style="mix-blend-mode:multiply">
<path d="M76.7612 58.6063V21.3319C76.7612 9.55063 67.204 0 55.4146 0C43.6252 0 34.0681 9.55063 34.0681 21.3319L34.0681 58.6063C34.0681 70.3877 43.6252 79.9383 55.4146 79.9383C67.204 79.9383 76.7612 70.3877 76.7612 58.6063Z" fill="#FFAAA4"/>
</g>
<g style="mix-blend-mode:multiply">
<path d="M92.2822 79.9174C105.402 79.9174 116.037 69.2892 116.037 56.1787C116.037 43.0681 105.402 32.4399 92.2822 32.4399C79.1626 32.4399 68.5272 43.0681 68.5272 56.1787C68.5272 69.2892 79.1626 79.9174 92.2822 79.9174Z" fill="#FFB72D"/>
</g>
<g style="mix-blend-mode:multiply">
<path d="M173.572 79.9174C186.692 79.9174 197.327 69.2892 197.327 56.1787C197.327 43.0681 186.692 32.4399 173.572 32.4399C160.452 32.4399 149.817 43.0681 149.817 56.1787C149.817 69.2892 160.452 79.9174 173.572 79.9174Z" fill="#3B34F7"/>
</g>
<g style="mix-blend-mode:multiply">
<path d="M154.058 53.7717C154.049 50.7923 153.417 47.8477 152.204 45.1264C150.99 42.4051 149.221 39.9671 147.01 37.9686C144.799 35.9701 142.194 34.4551 139.363 33.5208C136.532 32.5864 133.537 32.2532 130.57 32.5425C125.226 33.1815 120.306 35.772 116.757 39.8159C113.208 43.8599 111.28 49.0721 111.344 54.4505V68.4181C111.349 71.4752 112.568 74.4052 114.734 76.565C116.899 78.7247 119.833 79.9378 122.892 79.9378H142.509C145.569 79.9378 148.503 78.7247 150.668 76.565C152.833 74.4052 154.052 71.4752 154.058 68.4181V53.7717Z" fill="#814BF5"/>
</g>
<g style="mix-blend-mode:multiply">
<path d="M192.428 41.4294V70.928C192.428 72.7059 192.956 74.4439 193.944 75.9221C194.932 77.4004 196.337 78.5526 197.981 79.2329C199.625 79.9133 201.433 80.0913 203.178 79.7445C204.923 79.3976 206.526 78.5415 207.784 77.2844L237.303 47.7858C238.56 46.5298 239.416 44.93 239.764 43.1881C240.111 41.4463 239.935 39.6405 239.257 37.9988C238.578 36.3571 237.429 34.9529 235.953 33.9636C234.477 32.9742 232.74 32.444 230.963 32.4399H201.403C199.021 32.4454 196.738 33.3949 195.055 35.0802C193.373 36.7654 192.428 39.0488 192.428 41.4294Z" fill="#7FF88E"/>
</g>
</svg>
