<svg width="200" height="95" viewBox="0 0 200 95" fill="none" xmlns="http://www.w3.org/2000/svg">
<g clip-path="url(#clip0_667_2747)">
<path d="M100.74 61.41C96.8359 61.4153 93.0934 62.9692 90.3337 65.7308C87.574 68.4923 86.0227 72.2359 86.02 76.14V95H92.84V76.14C92.84 74.0448 93.6723 72.0354 95.1539 70.5538C96.6354 69.0723 98.6448 68.24 100.74 68.24C102.835 68.24 104.845 69.0723 106.326 70.5538C107.808 72.0354 108.64 74.0448 108.64 76.14V95H115.47V76.14C115.465 72.235 113.911 68.4914 111.15 65.7302C108.389 62.9689 104.645 61.4153 100.74 61.41Z" fill="black"/>
<path d="M65.68 60.61C62.2781 60.61 58.9527 61.6188 56.1242 63.5087C53.2956 65.3987 51.0911 68.085 49.7893 71.2278C48.4874 74.3707 48.1468 77.8291 48.8105 81.1655C49.4741 84.502 51.1123 87.5668 53.5177 89.9722C55.9232 92.3777 58.988 94.0158 62.3244 94.6795C65.6609 95.3432 69.1192 95.0026 72.2621 93.7007C75.405 92.3989 78.0913 90.1943 79.9813 87.3658C81.8712 84.5373 82.88 81.2118 82.88 77.81C82.88 73.2483 81.0679 68.8734 77.8422 65.6478C74.6166 62.4221 70.2417 60.61 65.68 60.61V60.61ZM65.68 88.18C63.6294 88.178 61.6255 87.5681 59.9215 86.4275C58.2174 85.2868 56.8898 83.6665 56.1065 81.7715C55.3231 79.8765 55.1192 77.7917 55.5205 75.7808C55.9217 73.7699 56.9102 71.923 58.3608 70.4738C59.8115 69.0245 61.6593 68.0378 63.6706 67.6385C65.6819 67.2392 67.7664 67.4452 69.6607 68.2303C71.555 69.0155 73.174 70.3447 74.313 72.0498C75.4521 73.7549 76.06 75.7594 76.06 77.81C76.0547 80.5604 74.9591 83.1965 73.0133 85.1404C71.0675 87.0843 68.4304 88.1774 65.68 88.18V88.18Z" fill="black"/>
<path d="M17.19 60.61C14.4579 60.6032 11.7636 61.2474 9.32997 62.4891C6.89638 63.7308 4.7936 65.5344 3.19575 67.7505C1.5979 69.9666 0.550936 72.5315 0.141568 75.2327C-0.2678 77.934 -0.0278037 80.6939 0.841687 83.2839C1.71118 85.8739 3.18514 88.2196 5.14154 90.1266C7.09793 92.0336 9.48047 93.4472 12.0919 94.2502C14.7033 95.0532 17.4684 95.2226 20.1583 94.7444C22.8482 94.2661 25.3854 93.154 27.56 91.5V95H34.38V77.81C34.38 73.25 32.5692 68.8766 29.3458 65.6513C26.1223 62.426 21.75 60.6127 17.19 60.61V60.61ZM17.19 88.18C15.139 88.18 13.1341 87.5718 11.4287 86.4324C9.7234 85.2929 8.39425 83.6733 7.60937 81.7784C6.82449 79.8836 6.61912 77.7985 7.01925 75.7869C7.41938 73.7753 8.40704 71.9276 9.85731 70.4773C11.3076 69.027 13.1553 68.0394 15.1669 67.6393C17.1785 67.2391 19.2636 67.4445 21.1584 68.2294C23.0533 69.0143 24.6729 70.3434 25.8123 72.0487C26.9518 73.7541 27.56 75.759 27.56 77.81C27.5573 80.5595 26.464 83.1956 24.5198 85.1398C22.5756 87.084 19.9395 88.1774 17.19 88.18Z" fill="black"/>
<path d="M200 60.6H175.98V67.43H191.05L175.98 88.06V94.88H200V88.06H184.93L200 67.43V60.6Z" fill="black"/>
<path d="M136.46 60.61C133.355 60.6066 130.306 61.4441 127.638 63.0335C124.97 64.6229 122.782 66.905 121.307 69.6375C119.831 72.37 119.123 75.4511 119.257 78.5537C119.392 81.6562 120.363 84.6646 122.069 87.2594C123.776 89.8543 126.152 91.9388 128.948 93.2918C131.743 94.6448 134.852 95.2157 137.946 94.944C141.04 94.6724 144.002 93.5682 146.518 91.7488C149.035 89.9293 151.012 87.4625 152.24 84.61H144.24C143.049 85.9774 141.52 87.0076 139.806 87.5975C138.091 88.1873 136.252 88.3159 134.472 87.9705C132.692 87.625 131.034 86.8177 129.665 85.6293C128.296 84.441 127.263 82.9135 126.67 81.2H153.31C153.815 78.7025 153.759 76.124 153.146 73.6508C152.533 71.1776 151.378 68.8716 149.764 66.8994C148.151 64.9271 146.12 63.338 143.817 62.2469C141.514 61.1557 138.998 60.5898 136.45 60.59L136.46 60.61ZM126.68 74.4C127.387 72.368 128.709 70.6064 130.462 69.3598C132.216 68.1132 134.314 67.4434 136.465 67.4434C138.616 67.4434 140.714 68.1132 142.468 69.3598C144.221 70.6064 145.543 72.368 146.25 74.4H126.68Z" fill="black"/>
<path d="M45.35 47H38.53V95H45.35V47Z" fill="black"/>
<path d="M157.46 73.3V95H164.28V73.11C164.291 71.6431 164.879 70.2396 165.918 69.2043C166.958 68.1689 168.363 67.5852 169.83 67.58H172.27V60.58H169.85C169.85 60.58 157.46 59.6 157.46 73.3Z" fill="black"/>
<g clip-path="url(#clip1_667_2747)">
<path d="M155.49 16.23H140.72C139.528 16.2327 138.386 16.7079 137.544 17.5516C136.703 18.3952 136.23 19.5383 136.23 20.73V20.87C135.01 19.2762 133.406 18.0179 131.568 17.213C129.73 16.4081 127.717 16.0828 125.719 16.2676C123.72 16.4525 121.802 17.1414 120.142 18.2699C118.483 19.3984 117.137 20.9295 116.23 22.72C115.431 20.7978 114.082 19.1538 112.354 17.9935C110.625 16.8332 108.593 16.2081 106.511 16.1964C104.43 16.1847 102.391 16.7868 100.649 17.9275C98.9076 19.0682 97.541 20.6969 96.72 22.61C95.8937 21.0127 94.7151 19.6242 93.2731 18.5495C91.8311 17.4749 90.1637 16.7422 88.3969 16.407C86.63 16.0717 84.8101 16.1426 83.0747 16.6144C81.3393 17.0861 79.7339 17.9464 78.38 19.13V10.68C78.3721 7.85165 77.2457 5.14125 75.2467 3.14036C73.2477 1.13947 70.5383 0.0105524 67.71 0V0C64.8799 0.00791635 62.168 1.13567 60.1668 3.13685C58.1657 5.13802 57.0379 7.84992 57.03 10.68V18.68H50.67C47.8954 18.7649 45.2628 19.9269 43.3302 21.9195C41.3976 23.9122 40.3168 26.5791 40.3168 29.355C40.3168 32.1309 41.3976 34.7978 43.3302 36.7905C45.2628 38.7832 47.8954 39.9451 50.67 40.03H67.67C69.4355 40.0263 71.1725 39.585 72.7256 38.7456C74.2788 37.9062 75.5997 36.6949 76.57 35.22C77.6803 36.7215 79.1294 37.9396 80.7994 38.7752C82.4694 39.6108 84.3132 40.0402 86.1805 40.0285C88.0479 40.0168 89.8861 39.5643 91.5455 38.7079C93.2049 37.8515 94.6387 36.6153 95.73 35.1C95.9294 36.4694 96.6152 37.7213 97.6619 38.6265C98.7085 39.5318 100.046 40.03 101.43 40.03H111.24C112.662 40.0311 114.034 39.5071 115.094 38.5585C116.153 37.6099 116.825 36.3035 116.98 34.89C118.043 36.4338 119.457 37.7038 121.106 38.5961C122.755 39.4883 124.591 39.9773 126.465 40.0232C128.339 40.0691 130.197 39.6704 131.888 38.8599C133.578 38.0493 135.052 36.85 136.19 35.36V35.53C136.188 36.4195 136.45 37.2896 136.943 38.0299C137.437 38.7701 138.139 39.3472 138.96 39.6879C139.782 40.0285 140.686 40.1175 141.559 39.9434C142.431 39.7693 143.232 39.34 143.86 38.71L158.67 23.87C159.285 23.2387 159.701 22.4407 159.867 21.5751C160.032 20.7094 159.94 19.8142 159.601 19.0006C159.263 18.1869 158.692 17.4906 157.962 16.9981C157.231 16.5055 156.371 16.2385 155.49 16.23V16.23Z" fill="white"/>
<path d="M57.03 18.65H50.67C47.8408 18.6579 45.13 19.786 43.1304 21.7875C41.1308 23.7889 40.0053 26.5008 40 29.33V29.33C40.0079 32.1574 41.1346 34.8668 43.1339 36.8661C45.1332 38.8654 47.8426 39.9921 50.67 40H67.67C69.432 39.9969 71.1658 39.5579 72.7169 38.7221C74.268 37.8863 75.5883 36.6798 76.56 35.21C75.5883 36.6798 74.268 37.8863 72.7169 38.7221C71.1658 39.5579 69.432 39.9969 67.67 40C64.8409 39.9947 62.1289 38.8692 60.1275 36.8696C58.126 34.87 56.9979 32.1592 56.99 29.33V18.65" fill="#F84C40"/>
<path d="M67.71 0C64.8799 0.00791635 62.168 1.13567 60.1668 3.13685C58.1657 5.13802 57.0379 7.84992 57.03 10.68V18.68H67.71C69.237 18.6817 70.7458 19.011 72.1346 19.6459C73.5233 20.2808 74.7597 21.2063 75.76 22.36C76.4372 21.1439 77.3242 20.0571 78.38 19.15V10.71C78.3721 7.88165 77.2457 5.17125 75.2467 3.17036C73.2477 1.16947 70.5383 0.0405588 67.71 0.0300064" fill="#FFAAA4"/>
<path d="M67.71 18.65H57.03V29.33C57.0379 32.1592 58.166 34.87 60.1674 36.8696C62.1689 38.8692 64.8808 39.9947 67.71 40V40C69.4719 39.9969 71.2058 39.5579 72.7569 38.7221C74.308 37.8863 75.6283 36.6798 76.6 35.21C75.2382 33.3704 74.4348 31.1775 74.2858 28.8935C74.1369 26.6095 74.6486 24.3309 75.76 22.33C74.7597 21.1763 73.5233 20.2508 72.1346 19.6159C70.7458 18.981 69.237 18.6516 67.71 18.65" fill="#F83329"/>
<path d="M86.14 16.23C83.29 16.2288 80.535 17.2548 78.38 19.12V29.33C78.3843 31.4234 77.7646 33.4705 76.6 35.21C77.7133 36.7065 79.1631 37.92 80.8321 38.7526C82.5012 39.5852 84.3427 40.0134 86.2078 40.0027C88.073 39.992 89.9094 39.5426 91.5688 38.691C93.2282 37.8393 94.6639 36.6091 95.76 35.1C95.7198 34.8117 95.6997 34.521 95.7 34.23V27.23C95.7029 25.6398 96.0438 24.0684 96.7 22.62C95.6954 20.6901 94.1805 19.0728 92.3202 17.9443C90.46 16.8158 88.3258 16.2194 86.15 16.22" fill="#FFB72D"/>
<path d="M78.38 19.12C77.3242 20.0271 76.4372 21.1138 75.76 22.33C77.4495 24.2707 78.3801 26.7569 78.38 29.33V29.33V19.12Z" fill="#FF7A1D"/>
<path d="M75.76 22.33C74.6487 24.331 74.1369 26.6095 74.2858 28.8935C74.4348 31.1775 75.2382 33.3704 76.6 35.21C77.7646 33.4705 78.3843 31.4234 78.38 29.33V29.33C78.3801 26.757 77.4495 24.2707 75.76 22.33" fill="#F82507"/>
<path d="M126.8 16.23C124.604 16.2295 122.451 16.8375 120.58 17.9867C118.709 19.1359 117.193 20.7812 116.2 22.74C116.764 24.0577 117.053 25.4767 117.05 26.91V34.23C117.05 34.45 117.05 34.66 117.05 34.87C118.115 36.4107 119.53 37.678 121.177 38.5685C122.825 39.459 124.66 39.9475 126.533 39.9943C128.406 40.0411 130.263 39.6448 131.953 38.8377C133.643 38.0306 135.119 36.8356 136.26 35.35V20.87C135.149 19.4244 133.721 18.2533 132.086 17.4471C130.451 16.6408 128.653 16.221 126.83 16.22" fill="#3B34F7"/>
<path d="M106.38 16.23C106.023 16.2303 105.665 16.2504 105.31 16.29C103.441 16.4902 101.658 17.1825 100.144 18.2963C98.6298 19.4101 97.4379 20.9054 96.69 22.63C97.7085 24.5898 98.161 26.7946 97.9967 28.9971C97.8324 31.1997 97.0579 33.3129 95.76 35.1C95.9701 36.4639 96.6613 37.7076 97.7085 38.6063C98.7558 39.505 100.09 39.9994 101.47 40H111.28C112.7 40.0014 114.072 39.4788 115.131 38.5322C116.19 37.5857 116.862 36.2817 117.02 34.87C115.801 33.1103 115.082 31.0536 114.938 28.9181C114.793 26.7825 115.229 24.6477 116.2 22.74C115.379 20.8137 114.011 19.1704 112.266 18.0134C110.52 16.8563 108.474 16.2363 106.38 16.23" fill="#814BF5"/>
<path d="M96.69 22.63C96.0338 24.0784 95.6929 25.6498 95.69 27.24V34.24C95.6897 34.531 95.7098 34.8218 95.75 35.11C97.0479 33.323 97.8224 31.2097 97.9867 29.0071C98.151 26.8046 97.6985 24.5998 96.68 22.64" fill="#81362B"/>
<path d="M116.2 22.74C115.229 24.6477 114.793 26.7825 114.938 28.9181C115.082 31.0536 115.801 33.1103 117.02 34.87C117.02 34.66 117.02 34.45 117.02 34.23V26.87C117.023 25.4367 116.734 24.0178 116.17 22.7" fill="#1E0FED"/>
<path d="M155.49 16.23H140.72C139.528 16.2326 138.386 16.7079 137.544 17.5515C136.703 18.3952 136.23 19.5383 136.23 20.73V20.87C137.819 22.9473 138.679 25.4898 138.679 28.105C138.679 30.7202 137.819 33.2627 136.23 35.34V35.49C136.227 36.0842 136.343 36.6731 136.57 37.2222C136.797 37.7713 137.131 38.2698 137.553 38.6886C137.974 39.1074 138.475 39.4382 139.026 39.6616C139.576 39.885 140.166 39.9966 140.76 39.99C141.345 39.9897 141.924 39.8728 142.463 39.6462C143.002 39.4195 143.491 39.0877 143.9 38.67L158.67 23.87C159.299 23.2407 159.726 22.4392 159.9 21.5668C160.073 20.6944 159.984 19.7902 159.644 18.9685C159.303 18.1467 158.727 17.4442 157.988 16.9496C157.249 16.4551 156.379 16.1908 155.49 16.19" fill="#56E968"/>
<path d="M136.23 20.87V35.34C137.819 33.2627 138.679 30.7202 138.679 28.105C138.679 25.4898 137.819 22.9473 136.23 20.87" fill="#1D338A"/>
</g>
</g>
<defs>
<clipPath id="clip0_667_2747">
<rect width="200" height="95" fill="white"/>
</clipPath>
<clipPath id="clip1_667_2747">
<rect width="120" height="40" fill="white" transform="translate(40)"/>
</clipPath>
</defs>
</svg>
