<svg width="20" height="18" viewBox="0 0 20 18" fill="none" xmlns="http://www.w3.org/2000/svg">
<path d="M5.33333 2.33333L5.78055 2.55694L5.33333 2.33333ZM5.56062 1.90782L5.97948 2.18086L5.56062 1.90782ZM4.51246 3.97508L4.06525 3.75147L4.51246 3.97508ZM14.6667 2.33333L14.2195 2.55694L14.6667 2.33333ZM14.4394 1.90782L14.0205 2.18086L14.4394 1.90782ZM12.9915 1.01299L12.9346 1.50974L12.9915 1.01299ZM2.4039 16.5402L2.13789 16.9635L2.4039 16.5402ZM1.45983 15.5961L1.03647 15.8621L1.45983 15.5961ZM18.5402 15.5961L18.9635 15.8621L18.5402 15.5961ZM17.5961 16.5402L17.8621 16.9635L17.5961 16.5402ZM18.5 6.8541V11.8571H19.5V6.8541H18.5ZM13.8571 16.5H6.14286V17.5H13.8571V16.5ZM1.5 11.8571V6.8541H0.5V11.8571H1.5ZM14.2195 2.55694L15.0403 4.19868L15.9348 3.75147L15.1139 2.10973L14.2195 2.55694ZM4.95967 4.19868L5.78055 2.55694L4.88612 2.10973L4.06525 3.75147L4.95967 4.19868ZM7.49071 1.5H12.5093V0.5H7.49071V1.5ZM5.78055 2.55694C5.89593 2.32618 5.93644 2.24689 5.97948 2.18086L5.14175 1.63477C5.0601 1.76003 4.99066 1.90065 4.88612 2.10973L5.78055 2.55694ZM7.49071 0.5C7.25696 0.5 7.10013 0.499224 6.95158 0.51624L7.06537 1.50974C7.14367 1.50078 7.23272 1.5 7.49071 1.5V0.5ZM5.97948 2.18086C6.22344 1.80661 6.62153 1.56058 7.06537 1.50974L6.95158 0.51624C6.21184 0.600969 5.54836 1.01102 5.14175 1.63477L5.97948 2.18086ZM2.8541 5.5C3.74577 5.5 4.56091 4.99622 4.95967 4.19868L4.06525 3.75147C3.83587 4.21022 3.367 4.5 2.8541 4.5V5.5ZM15.0403 4.19868C15.4391 4.99622 16.2542 5.5 17.1459 5.5V4.5C16.633 4.5 16.1641 4.21022 15.9348 3.75147L15.0403 4.19868ZM15.1139 2.10973C15.0093 1.90065 14.9399 1.76003 14.8582 1.63477L14.0205 2.18086C14.0636 2.24689 14.1041 2.32618 14.2195 2.55694L15.1139 2.10973ZM12.5093 1.5C12.7673 1.5 12.8563 1.50078 12.9346 1.50974L13.0484 0.51624C12.8999 0.499224 12.743 0.5 12.5093 0.5V1.5ZM14.8582 1.63477C14.4516 1.01102 13.7882 0.600969 13.0484 0.51624L12.9346 1.50974C13.3785 1.56058 13.7766 1.80661 14.0205 2.18086L14.8582 1.63477ZM6.14286 16.5C5.13059 16.5 4.40722 16.4995 3.84429 16.4449C3.28905 16.391 2.94284 16.2883 2.66992 16.1168L2.13789 16.9635C2.59677 17.2519 3.11766 17.3791 3.74776 17.4402C4.37016 17.5005 5.15036 17.5 6.14286 17.5V16.5ZM0.5 11.8571C0.5 12.8496 0.499451 13.6298 0.559813 14.2522C0.620922 14.8823 0.748128 15.4032 1.03647 15.8621L1.88319 15.3301C1.7117 15.0572 1.60899 14.7109 1.55514 14.1557C1.50055 13.5928 1.5 12.8694 1.5 11.8571H0.5ZM2.66992 16.1168C2.35191 15.917 2.08301 15.6481 1.88319 15.3301L1.03647 15.8621C1.31621 16.3073 1.69267 16.6838 2.13789 16.9635L2.66992 16.1168ZM18.5 11.8571C18.5 12.8694 18.4995 13.5928 18.4449 14.1557C18.391 14.7109 18.2883 15.0572 18.1168 15.3301L18.9635 15.8621C19.2519 15.4032 19.3791 14.8823 19.4402 14.2522C19.5005 13.6298 19.5 12.8496 19.5 11.8571H18.5ZM13.8571 17.5C14.8496 17.5 15.6298 17.5005 16.2522 17.4402C16.8823 17.3791 17.4032 17.2519 17.8621 16.9635L17.3301 16.1168C17.0572 16.2883 16.7109 16.391 16.1557 16.4449C15.5928 16.4995 14.8694 16.5 13.8571 16.5V17.5ZM18.1168 15.3301C17.917 15.6481 17.6481 15.917 17.3301 16.1168L17.8621 16.9635C18.3073 16.6838 18.6838 16.3073 18.9635 15.8621L18.1168 15.3301ZM19.5 6.8541C19.5 5.55397 18.446 4.5 17.1459 4.5V5.5C17.8937 5.5 18.5 6.10625 18.5 6.8541H19.5ZM1.5 6.8541C1.5 6.10625 2.10625 5.5 2.8541 5.5V4.5C1.55397 4.5 0.5 5.55397 0.5 6.8541H1.5Z" fill="white"/>
<circle cx="10" cy="10" r="3.5" stroke="white"/>
</svg>
