<svg width="24" height="24" viewBox="0 0 24 24" fill="none" xmlns="http://www.w3.org/2000/svg">
<path d="M12 5L11.2929 4.29289L12 3.58579L12.7071 4.29289L12 5ZM13 14C13 14.5523 12.5523 15 12 15C11.4477 15 11 14.5523 11 14L13 14ZM6.29289 9.29289L11.2929 4.29289L12.7071 5.70711L7.70711 10.7071L6.29289 9.29289ZM12.7071 4.29289L17.7071 9.29289L16.2929 10.7071L11.2929 5.70711L12.7071 4.29289ZM13 5L13 14L11 14L11 5L13 5Z" fill="black"/>
<path d="M7 19L7 18H7V19ZM17 19V20V19ZM7 20L17 20V18L7 18L7 20ZM6 17V16H4V17H6ZM20 17V16H18V17H20ZM17 20C18.6569 20 20 18.6569 20 17H18C18 17.5523 17.5523 18 17 18V20ZM7 18C6.44772 18 6 17.5523 6 17H4C4 18.6569 5.34315 20 7 20V18Z" fill="black"/>
</svg>
