<svg width="24" height="24" viewBox="0 0 24 24" fill="none" xmlns="http://www.w3.org/2000/svg">
<path d="M8.42609 20H5C4.44772 20 4 19.5523 4 19V12.1172C4 11.8655 4.09493 11.623 4.26583 11.4382L11.3354 3.79386C11.7313 3.36582 12.4079 3.36582 12.8037 3.79386L19.7342 11.2878C19.9051 11.4726 20 11.715 20 11.9667V19C20 19.5523 19.5523 20 19 20H15.4348C14.8825 20 14.4348 19.5523 14.4348 19V15.1858C14.4348 15.1858 14.4348 12.9292 12.0696 12.9292C9.28696 12.9292 9.42609 15.1858 9.42609 15.1858V19C9.42609 19.5523 8.97837 20 8.42609 20Z" stroke="black" stroke-width="2"/>
</svg>
