<svg width="24" height="24" viewBox="0 0 24 24" fill="none" xmlns="http://www.w3.org/2000/svg">
<path d="M9.59721 4.83391L10.5938 4.91696L9.59721 4.83391ZM9.52206 5.73569L9.89544 6.66337L10.4674 6.43316L10.5186 5.81873L9.52206 5.73569ZM7.82595 6.72751L7.3996 7.63206L7.96387 7.89803L8.45088 7.50819L7.82595 6.72751ZM6.99543 6.33605L6.56908 7.2406L6.99543 6.33605ZM4.41067 7.14516L3.54465 6.64516H3.54465L4.41067 7.14516ZM4.00094 7.85484L3.13491 7.35484H3.13491L4.00094 7.85484ZM4.5926 10.4979L4.02241 11.3194H4.02241L4.5926 10.4979ZM5.3601 11.0306L6.34991 11.1729L6.43787 10.5614L5.93029 10.2091L5.3601 11.0306ZM5.3601 12.9694L5.93029 13.7909L6.43787 13.4386L6.34991 12.8271L5.3601 12.9694ZM4.5926 13.5021L4.02241 12.6806H4.02241L4.5926 13.5021ZM4.00094 16.1452L4.86696 15.6452H4.86696L4.00094 16.1452ZM4.41067 16.8548L3.54465 17.3548H3.54465L4.41067 16.8548ZM6.99543 17.664L7.42178 18.5685H7.42178L6.99543 17.664ZM7.82595 17.2725L8.45088 16.4918L7.96387 16.102L7.3996 16.3679L7.82595 17.2725ZM9.52206 18.2643L10.5186 18.1813L10.4674 17.5668L9.89544 17.3366L9.52206 18.2643ZM9.59721 19.1661L10.5938 19.083L9.59721 19.1661ZM14.4029 19.1661L13.4063 19.083L14.4029 19.1661ZM14.4752 18.2977L14.1145 17.3651L13.5307 17.5909L13.4787 18.2147L14.4752 18.2977ZM16.2256 17.2968L16.6519 16.3922L16.0913 16.1279L15.6051 16.5125L16.2256 17.2968ZM17.0046 17.664L17.431 16.7594L17.0046 17.664ZM19.5894 16.8548L20.4554 17.3548L19.5894 16.8548ZM19.9991 16.1452L19.1331 15.6452L19.9991 16.1452ZM19.4075 13.5021L19.9777 12.6806L19.4075 13.5021ZM18.7143 13.021L17.7256 12.871L17.6321 13.4872L18.1441 13.8425L18.7143 13.021ZM18.7143 10.979L18.1441 10.1575L17.6321 10.5128L17.7256 11.129L18.7143 10.979ZM19.4075 10.4979L18.8373 9.67635L19.4075 10.4979ZM19.9991 7.85484L20.8652 7.35484L19.9991 7.85484ZM19.5894 7.14516L20.4554 6.64516V6.64516L19.5894 7.14516ZM17.0046 6.33605L16.5783 5.43149L17.0046 6.33605ZM16.2256 6.70325L15.6051 7.48751L16.0913 7.87208L16.6519 7.60781L16.2256 6.70325ZM14.4752 5.70225L13.4787 5.7853L13.5307 6.40911L14.1145 6.63492L14.4752 5.70225ZM14.4029 4.83391L15.3994 4.75086L14.4029 4.83391ZM10.5938 4.91696C10.6369 4.39866 11.0702 4 11.5903 4V2C10.03 2 8.73023 3.19599 8.60066 4.75086L10.5938 4.91696ZM10.5186 5.81873L10.5938 4.91696L8.60066 4.75086L8.52551 5.65264L10.5186 5.81873ZM8.45088 7.50819C8.88576 7.16007 9.37177 6.87414 9.89544 6.66337L9.14868 4.80801C8.44136 5.0927 7.78623 5.47838 7.20103 5.94682L8.45088 7.50819ZM6.56908 7.2406L7.3996 7.63206L8.2523 5.82295L7.42178 5.43149L6.56908 7.2406ZM5.2767 7.64516C5.53674 7.19475 6.09863 7.01886 6.56908 7.2406L7.42178 5.43149C6.01043 4.76627 4.32478 5.29393 3.54465 6.64516L5.2767 7.64516ZM4.86696 8.35484L5.2767 7.64516L3.54465 6.64516L3.13491 7.35484L4.86696 8.35484ZM5.1628 9.67635C4.73554 9.3798 4.60692 8.80525 4.86696 8.35484L3.13491 7.35484C2.35478 8.70607 2.74064 10.4297 4.02241 11.3194L5.1628 9.67635ZM5.93029 10.2091L5.1628 9.67635L4.02241 11.3194L4.78991 11.8521L5.93029 10.2091ZM6.291 12C6.291 11.7186 6.31114 11.4425 6.34991 11.1729L4.37028 10.8882C4.31799 11.2518 4.291 11.623 4.291 12H6.291ZM6.34991 12.8271C6.31114 12.5575 6.291 12.2814 6.291 12H4.291C4.291 12.377 4.31799 12.7482 4.37028 13.1118L6.34991 12.8271ZM5.1628 14.3237L5.93029 13.7909L4.78991 12.1479L4.02241 12.6806L5.1628 14.3237ZM4.86696 15.6452C4.60692 15.1948 4.73554 14.6202 5.1628 14.3237L4.02241 12.6806C2.74064 13.5703 2.35478 15.2939 3.13491 16.6452L4.86696 15.6452ZM5.2767 16.3548L4.86696 15.6452L3.13491 16.6452L3.54465 17.3548L5.2767 16.3548ZM6.56908 16.7594C6.09863 16.9811 5.53674 16.8053 5.2767 16.3548L3.54465 17.3548C4.32478 18.7061 6.01044 19.2337 7.42178 18.5685L6.56908 16.7594ZM7.3996 16.3679L6.56908 16.7594L7.42178 18.5685L8.25231 18.1771L7.3996 16.3679ZM9.89544 17.3366C9.37177 17.1259 8.88576 16.8399 8.45088 16.4918L7.20103 18.0532C7.78623 18.5216 8.44136 18.9073 9.14868 19.192L9.89544 17.3366ZM10.5938 19.083L10.5186 18.1813L8.52551 18.3474L8.60066 19.2491L10.5938 19.083ZM11.5903 20C11.0702 20 10.6369 19.6013 10.5938 19.083L8.60066 19.2491C8.73023 20.804 10.03 22 11.5903 22V20ZM12.4098 20H11.5903V22H12.4098V20ZM13.4063 19.083C13.3631 19.6013 12.9299 20 12.4098 20V22C13.97 22 15.2698 20.804 15.3994 19.2491L13.4063 19.083ZM13.4787 18.2147L13.4063 19.083L15.3994 19.2491L15.4718 18.3808L13.4787 18.2147ZM15.6051 16.5125C15.1569 16.8671 14.6552 17.1559 14.1145 17.3651L14.836 19.2304C15.5664 18.9479 16.2428 18.5582 16.846 18.081L15.6051 16.5125ZM17.431 16.7594L16.6519 16.3922L15.7992 18.2013L16.5783 18.5685L17.431 16.7594ZM18.7234 16.3548C18.4633 16.8053 17.9014 16.9811 17.431 16.7594L16.5783 18.5685C17.9896 19.2337 19.6753 18.7061 20.4554 17.3548L18.7234 16.3548ZM19.1331 15.6452L18.7234 16.3548L20.4554 17.3548L20.8652 16.6452L19.1331 15.6452ZM18.8373 14.3236C19.2645 14.6202 19.3931 15.1948 19.1331 15.6452L20.8652 16.6452C21.6453 15.2939 21.2594 13.5703 19.9777 12.6806L18.8373 14.3236ZM18.1441 13.8425L18.8373 14.3236L19.9777 12.6806L19.2845 12.1995L18.1441 13.8425ZM17.791 12C17.791 12.2967 17.7686 12.5875 17.7256 12.871L19.703 13.171C19.761 12.7886 19.791 12.3975 19.791 12H17.791ZM17.7256 11.129C17.7686 11.4125 17.791 11.7033 17.791 12H19.791C19.791 11.6025 19.761 11.2114 19.703 10.829L17.7256 11.129ZM18.8373 9.67635L18.1441 10.1575L19.2845 11.8005L19.9777 11.3194L18.8373 9.67635ZM19.1331 8.35484C19.3931 8.80525 19.2645 9.3798 18.8373 9.67635L19.9777 11.3194C21.2594 10.4297 21.6453 8.70607 20.8652 7.35484L19.1331 8.35484ZM18.7234 7.64516L19.1331 8.35484L20.8652 7.35484L20.4554 6.64516L18.7234 7.64516ZM17.431 7.24061C17.9014 7.01886 18.4633 7.19475 18.7234 7.64516L20.4554 6.64516C19.6753 5.29393 17.9896 4.76627 16.5783 5.43149L17.431 7.24061ZM16.6519 7.60781L17.431 7.2406L16.5783 5.43149L15.7992 5.79869L16.6519 7.60781ZM14.1145 6.63492C14.6552 6.84406 15.1569 7.13293 15.6051 7.48751L16.846 5.91899C16.2428 5.44182 15.5664 5.05212 14.836 4.76959L14.1145 6.63492ZM13.4063 4.91695L13.4787 5.7853L15.4718 5.61921L15.3994 4.75086L13.4063 4.91695ZM12.4098 4C12.9299 4 13.3631 4.39866 13.4063 4.91695L15.3994 4.75086C15.2698 3.19599 13.97 2 12.4098 2V4ZM11.5903 4H12.4098V2H11.5903V4Z" fill="black"/>
<circle cx="12.041" cy="12" r="3" stroke="black" stroke-width="2"/>
</svg>
