<svg width="24" height="24" viewBox="0 0 24 24" fill="none" xmlns="http://www.w3.org/2000/svg">
<path d="M12.4249 21.2764L12.6661 21.7144L12.4249 21.2764ZM19 12C19 14.3199 17.7301 16.3008 16.2026 17.8401C14.6798 19.3747 12.9574 20.4124 12.1837 20.8384L12.6661 21.7144C13.4792 21.2667 15.2943 20.1752 16.9124 18.5445C18.5258 16.9186 20 14.6981 20 12H19ZM11.8163 20.8384C11.0426 20.4124 9.32016 19.3747 7.79742 17.8401C6.26993 16.3007 5 14.3199 5 12H4C4 14.6981 5.47422 16.9186 7.08758 18.5445C8.7057 20.1752 10.5208 21.2667 11.3339 21.7144L11.8163 20.8384ZM5 12C5 7.80336 8.38213 5 12 5V4C7.88589 4 4 7.19664 4 12H5ZM12 5C15.746 5 19 7.79781 19 12H20C20 7.20219 16.254 4 12 4V5ZM12.1837 20.8384C12.0658 20.9033 11.9342 20.9033 11.8163 20.8384L11.3339 21.7144C11.7521 21.9447 12.2479 21.9447 12.6661 21.7144L12.1837 20.8384Z" fill="white"/>
<circle cx="12" cy="12" r="3.5" stroke="white"/>
</svg>
