<svg width="206" height="64" viewBox="0 0 206 64" fill="none" xmlns="http://www.w3.org/2000/svg">
<g filter="url(#filter0_d_516_1959)">
<rect x="10" y="5" width="186" height="34" rx="17" fill="#814BF5"/>
<path d="M43.9702 28.182C45.7762 28.182 47.4422 26.894 47.4422 24.612C47.4422 22.358 46.0282 21.336 44.3062 21.336C43.7462 21.336 43.3402 21.476 42.8922 21.7L43.1302 19.054H46.9522V17.682H41.7302L41.4222 22.582L42.2062 23.1C42.8082 22.708 43.2002 22.512 43.8582 22.512C45.0342 22.512 45.8182 23.296 45.8182 24.668C45.8182 26.04 44.9362 26.866 43.7742 26.866C42.6962 26.866 41.9542 26.348 41.3662 25.76L40.5962 26.81C41.3242 27.524 42.3462 28.182 43.9702 28.182ZM49.5466 24.136C51.6746 23.8 53.3826 22.82 54.2226 21.392C55.0486 22.82 56.7566 23.8 58.8846 24.136L59.4306 22.974C56.7706 22.61 55.0346 21.168 54.9506 19.474H58.8986V18.298H54.9366V16.66H53.4946V18.298H49.5186V19.474H53.4806C53.3966 21.168 51.6606 22.61 49.0006 22.974L49.5466 24.136ZM54.9366 26.376V23.688H53.4946V26.376H48.4966V27.552H59.9486V26.376H54.9366ZM65.8975 22.33H62.8175V18.676H65.8975V22.33ZM67.3115 17.514H61.3895V23.492H67.3115V17.514ZM64.2735 24.794H62.8175V28.84H71.3295V27.664H64.2735V24.794ZM70.8255 20.188V16.422H69.3835V25.69H70.8255V21.378H72.6175V20.188H70.8255ZM76.2564 25.032C75.3884 25.032 74.8564 23.898 74.8564 21.896C74.8564 19.894 75.3884 18.774 76.2564 18.774C77.1244 18.774 77.6564 19.894 77.6564 21.896C77.6564 23.898 77.1244 25.032 76.2564 25.032ZM80.3024 21.224H78.9444C78.7904 18.858 77.7684 17.416 76.2564 17.416C74.6184 17.416 73.5404 19.124 73.5404 21.896C73.5404 24.668 74.6184 26.39 76.2564 26.39C77.7964 26.39 78.8324 24.878 78.9584 22.414H80.3024V28.476H81.6464V16.674H80.3024V21.224ZM82.8364 16.436V29.064H84.2084V16.436H82.8364ZM91.1458 24.92H89.9698V21.84H91.1458V24.92ZM91.1458 20.692H89.9698V17.598H88.7658V26.082H92.3358V17.598H91.1458V20.692ZM95.2898 24.92H94.1278V21.84H95.2898V24.92ZM95.2898 20.692H94.1278V17.598H92.9378V26.082H96.4798V17.598H95.2898V20.692ZM100.302 21.266H98.8038V16.436H97.3898V29.092H98.8038V22.456H100.302V21.266ZM109.639 19.054H102.499V22.372H111.319V21.266H103.913V20.09H111.067V16.8H102.471V17.906H109.639V19.054ZM103.955 25.396H102.513V28.84H111.347V27.664H103.955V25.396ZM101.029 23.366V24.528H112.509V23.366H101.029ZM124.206 17.906H121.112V16.464H119.67V17.906H116.562V19.068H124.206V17.906ZM118.676 22.036C118.676 21.266 119.376 20.79 120.398 20.79C121.406 20.79 122.106 21.266 122.106 22.036C122.106 22.82 121.406 23.296 120.398 23.296C119.376 23.296 118.676 22.82 118.676 22.036ZM121.112 24.346C122.54 24.122 123.478 23.268 123.478 22.036C123.478 20.622 122.218 19.684 120.398 19.684C118.564 19.684 117.304 20.622 117.304 22.036C117.304 23.254 118.242 24.122 119.67 24.346V25.578C118.48 25.62 117.318 25.62 116.31 25.62L116.492 26.81C118.788 26.81 121.784 26.768 124.57 26.292L124.472 25.242C123.394 25.396 122.246 25.466 121.112 25.536V24.346ZM125.186 16.422V29.078H126.642V16.422H125.186ZM135.251 23.856V24.864H137.729V26.04H139.171V16.422H137.729V23.856H135.251ZM132.731 17.976C133.767 17.976 134.481 18.424 134.481 19.138C134.481 19.852 133.767 20.3 132.731 20.3C131.681 20.3 130.967 19.852 130.967 19.138C130.967 18.424 131.681 17.976 132.731 17.976ZM132.731 21.364C134.579 21.364 135.853 20.482 135.853 19.138C135.853 17.794 134.579 16.912 132.731 16.912C130.869 16.912 129.595 17.794 129.595 19.138C129.595 20.482 130.869 21.364 132.731 21.364ZM132.157 25.634H133.599V23.198C134.677 23.128 135.783 23.016 136.847 22.834L136.735 21.798C134.061 22.134 130.953 22.162 128.629 22.176L128.811 23.352C129.819 23.352 130.953 23.338 132.157 23.282V25.634ZM131.779 27.664V25.102H130.337V28.84H139.465V27.664H131.779ZM141.774 17.766V18.942H146.198C145.904 21.854 144.238 24.08 141.144 25.662L141.942 26.768C146.072 24.682 147.64 21.434 147.64 17.766H141.774ZM152.862 21.42H150.944V16.422H149.502V29.064H150.944V22.624H152.862V21.42ZM162.591 16.436V23.226H164.033V16.436H162.591ZM155.773 23.814V28.924H164.033V23.814H162.605V25.214H157.201V23.814H155.773ZM157.201 26.334H162.605V27.762H157.201V26.334ZM157.215 17.01C155.283 17.01 153.855 18.214 153.855 19.95C153.855 21.686 155.283 22.89 157.215 22.89C159.147 22.89 160.561 21.686 160.561 19.95C160.561 18.214 159.147 17.01 157.215 17.01ZM157.215 18.2C158.349 18.2 159.161 18.9 159.161 19.95C159.161 21.014 158.349 21.7 157.215 21.7C156.067 21.7 155.269 21.014 155.269 19.95C155.269 18.9 156.067 18.2 157.215 18.2Z" fill="white"/>
<path d="M107.232 48C106.462 49.3333 104.538 49.3333 103.768 48L96.4067 35.25C95.6369 33.9167 96.5992 32.25 98.1388 32.25L112.861 32.25C114.401 32.25 115.363 33.9167 114.593 35.25L107.232 48Z" fill="#814BF5"/>
</g>
<defs>
<filter id="filter0_d_516_1959" x="0" y="0" width="206" height="64" filterUnits="userSpaceOnUse" color-interpolation-filters="sRGB">
<feFlood flood-opacity="0" result="BackgroundImageFix"/>
<feColorMatrix in="SourceAlpha" type="matrix" values="0 0 0 0 0 0 0 0 0 0 0 0 0 0 0 0 0 0 127 0" result="hardAlpha"/>
<feOffset dy="5"/>
<feGaussianBlur stdDeviation="5"/>
<feComposite in2="hardAlpha" operator="out"/>
<feColorMatrix type="matrix" values="0 0 0 0 0.231373 0 0 0 0 0.203922 0 0 0 0 0.968627 0 0 0 0.3 0"/>
<feBlend mode="normal" in2="BackgroundImageFix" result="effect1_dropShadow_516_1959"/>
<feBlend mode="normal" in="SourceGraphic" in2="effect1_dropShadow_516_1959" result="shape"/>
</filter>
</defs>
</svg>
